<svg width="378" height="418" viewBox="0 0 378 418" fill="none" xmlns="http://www.w3.org/2000/svg">
<g clip-path="url(#clip0)">
<path d="M73.009 134.924C73.009 132.955 69.9656 133.118 69.9656 135.07V138.324C69.9656 139.675 69.5913 141.09 69.2495 142.392C68.5172 145.304 67.3291 148.086 66.0597 150.819C64.7414 153.666 63.2929 156.449 61.9096 159.28C60.5588 162.029 59.4358 164.844 58.1826 167.626C53.8047 177.323 46.7902 185.392 39.0434 192.6C35.0072 196.342 30.6618 199.742 26.7396 203.598C22.6709 207.584 19.3183 212.042 17.5443 217.509C15.6401 223.398 15.8354 229.792 17.5443 235.698C18.3743 238.578 19.6763 241.262 21.076 243.914C22.5732 246.761 24.0217 249.657 25.3562 252.586C27.1627 256.556 28.7577 260.672 29.9132 264.886C28.66 267.668 27.2929 270.418 25.7468 273.037C21.7595 279.756 16.6329 285.727 12.2224 292.154C7.61664 298.873 3.84087 306.146 2.42496 314.232C0.992773 322.415 1.79024 330.973 4.45932 338.815C5.77758 342.687 7.51899 346.706 10.0579 349.927C12.3363 352.84 15.2007 355.215 18.5533 356.826C26.0723 360.438 34.8119 359.933 42.8843 361.072C43.698 361.186 44.5117 360.747 44.6908 359.901C44.8535 359.136 44.3327 358.209 43.519 358.095C36.6022 357.119 29.3924 357.314 22.6872 355.199C19.5461 354.206 16.698 352.482 14.3544 350.188C11.5226 347.422 9.7161 343.826 8.25136 340.198C5.22424 332.682 4.11755 324.319 5.20796 316.282C6.29838 308.342 9.81375 301.118 14.2731 294.545C18.7161 287.989 23.8589 281.936 28.0253 275.185C29.132 273.395 30.1248 271.524 31.0524 269.637C32.1917 275.787 32.2242 282.067 30.4503 288.282C28.8716 293.813 25.6817 298.45 22.4919 303.152C19.5136 307.529 16.519 311.938 14.2731 316.754C12.2875 321 10.9693 325.637 11.2297 330.355C11.5226 335.659 14.094 340.361 17.5443 344.282C18.0977 344.9 19.2043 344.705 19.6926 344.152C20.2948 343.468 20.0995 342.622 19.5624 342.004C15.9982 337.937 13.9638 333.039 14.2893 327.605C14.5823 322.643 16.8933 317.909 19.3183 313.679C21.9385 309.123 25.047 304.877 27.9277 300.484C31.264 295.408 33.6239 289.892 34.5353 283.84C35.4955 277.479 34.7957 271.182 33.1844 265.065C34.6166 261.843 35.8047 258.524 36.7486 255.14C38.7993 247.754 39.9873 238.529 35.349 231.826C34.2423 230.215 31.6872 231.875 32.7938 233.485C36.6835 239.115 35.6745 246.892 34.0958 253.204C33.4774 255.677 32.6962 258.085 31.7848 260.461C30.3526 256.214 28.5461 252.082 26.6257 248.112C23.9729 242.596 20.7179 237.423 19.66 231.305C18.6184 225.269 19.5298 218.761 22.6221 213.441C25.3237 208.804 29.425 205.062 33.4123 201.548C37.5624 197.904 41.7287 194.341 45.6022 190.387C49.2315 186.678 52.6817 182.789 55.5949 178.494C57.0759 176.314 58.4268 174.036 59.6311 171.677C60.9656 169.058 62.0235 166.324 63.2278 163.656C65.49 158.645 68.2242 153.862 70.3074 148.786C71.3002 146.378 72.1302 143.872 72.651 141.318C73.0578 139.186 73.009 137.088 73.009 134.924Z" fill="#FF939C"/>
<path d="M294.803 206.836C294.803 206.836 332.138 236.414 339.868 247.022C350.056 260.997 352.139 288.135 351.439 295.717C348.689 325.393 391.183 337.286 357.689 388.421C357.689 388.421 342.212 406.627 316.628 405.407C291.043 404.187 211.053 399.81 184.72 399.208C158.387 398.606 77.3545 399.826 77.3545 399.826C77.3545 399.826 50.2569 399.924 36.2442 399.826C22.2315 399.729 4.73605 384.273 1.07421 370.265C-2.58764 356.256 3.54799 339.352 12.2225 329.184C29.0019 309.546 27.4395 289.616 23.7939 279.268C20.1483 268.921 6.73786 244.565 23.1917 225.09C39.6294 205.616 62.7722 187.345 66.4341 178.819C67.5082 176.298 58.1502 127.733 81.6511 124.641C123.77 119.11 230.403 113.106 274.704 131.947C289.465 138.227 286.421 195.349 294.803 206.836Z" fill="#FF939C"/>
<path d="M374.598 342.525C373.557 339.775 372.564 337.009 371.408 334.292C370.92 333.137 370.448 331.95 369.765 330.908C369.032 329.786 368.105 328.761 367.177 327.801C365.37 325.946 363.32 324.368 361.497 322.529C359.788 320.821 358.551 318.787 357.624 316.558C355.703 311.938 355.199 306.878 355.166 301.932C355.134 296.596 355.719 291.259 356.305 285.955C357.477 275.299 358.388 264.561 355.964 253.985C353.587 243.622 346.866 234.787 338.11 228.914C336.304 227.694 334.432 226.587 332.528 225.513C330.379 224.293 328.085 223.252 326.034 221.885C321.624 218.941 317.311 215.817 313.323 212.319C309.629 209.065 305.788 205.258 303.851 200.653C301.589 195.236 299.62 189.688 297 184.433C296.625 183.684 295.519 183.57 294.9 183.993C294.135 184.481 294.087 185.36 294.461 186.092C297.195 191.591 299.181 197.432 301.589 203.078C302.598 205.437 304.486 207.568 306.162 209.488C307.969 211.57 310.003 213.474 312.087 215.28C314.219 217.135 316.464 218.843 318.743 220.519C320.908 222.097 323.121 223.854 325.481 225.139C329.728 227.466 334.074 229.695 337.996 232.558C341.967 235.438 345.271 238.985 347.973 243.068C351.146 247.884 352.969 253.221 353.799 258.915C355.329 269.507 353.815 279.968 352.774 290.511C351.781 300.582 351.146 311.596 356.273 320.74C358.812 325.279 363.564 327.817 366.672 331.868C368.267 333.951 369.097 336.668 370.009 339.092C371.067 341.858 372.287 344.64 373.117 347.487C374.484 352.205 375.363 357.135 374.68 362.048C373.947 367.287 371.311 371.696 368.235 375.91C366.884 377.765 365.403 379.538 363.727 381.116C362.001 382.727 360.016 383.866 357.917 384.891C355.41 386.095 352.627 386.29 349.909 386.518C346.964 386.762 344.164 387.25 341.479 388.535C340.73 388.893 340.633 390.016 341.04 390.634C341.544 391.399 342.407 391.431 343.139 391.073C345.987 389.707 349.161 389.642 352.253 389.349C355.426 389.04 358.258 388.177 361.074 386.713C365.826 384.24 369.211 379.912 372.173 375.585C373.882 373.079 375.379 370.557 376.388 367.694C377.349 364.977 377.853 362.195 377.951 359.315C378.195 353.523 376.616 347.845 374.598 342.525Z" fill="#FF939C"/>
<path d="M209.213 201.353C209.213 201.353 207.163 255.531 222.347 268.319C222.347 268.319 172.383 289.632 140.712 268.319C140.712 268.319 150.005 247.006 145.66 206.836C145.676 206.836 172.969 173.955 209.213 201.353Z" fill="#FFD0AE"/>
<path d="M59.6473 405.993C59.6473 405.993 54.8625 404.089 53.0397 393.124C51.2169 382.158 48.7757 332.861 49.9963 325.556C51.2169 318.251 58.5244 303.641 70.0958 301.2C81.6672 298.76 130.996 291.455 140.745 268.319L143.642 258.688C143.642 258.688 172.562 270.353 216.032 258.688C216.032 258.688 234.537 287.192 255.239 293.895C275.94 300.598 311.257 303.022 315.521 321.293C319.785 339.564 321.005 399.192 313.763 405.277C301.443 415.641 267.966 415.657 247.589 413.217C227.213 410.776 187.779 413.168 165.466 414.112C143.17 415.039 64.1066 411.411 59.6473 405.993Z" fill="#231F20"/>
<path opacity="0.3" d="M31.7166 409.274C28.6244 405.174 26.7202 400.261 26.1832 395.071C25.6624 390.076 26.2483 384.61 27.9897 377.858C29.194 373.237 30.8052 368.34 33.0512 362.434C33.7022 360.726 34.3857 359.001 35.0367 357.325C35.8667 355.227 36.713 353.063 37.5268 350.915C39.3333 346.083 40.7655 341.788 41.8721 337.785C43.2881 332.661 44.3297 327.487 44.9806 322.411C45.7293 316.505 45.9897 310.371 45.7618 304.189C45.5828 299.405 45.5014 293.093 46.543 286.813C47.308 282.176 48.5937 277.832 50.3351 273.911C51.7998 270.624 53.6877 267.452 55.9336 264.442C57.5611 262.278 59.4653 260.098 62.0855 257.348C62.4273 256.99 62.7853 256.632 63.1271 256.274C65.0801 254.273 66.9354 252.386 68.2211 249.994C69.93 246.789 71.0692 242.998 71.7691 238.036C72.2248 234.847 72.4363 231.512 72.4038 228.112C72.4038 227.851 72.3875 227.575 72.3712 227.282C72.3387 226.712 72.3224 226.11 72.3712 225.508C72.5014 224.191 72.6316 222.857 72.7456 221.539C72.9897 219.033 73.2338 216.528 73.4779 214.038C73.8034 210.687 74.1289 207.352 74.4544 204L75.968 204.146C75.6425 207.482 75.317 210.833 74.9915 214.169C74.7474 216.674 74.5032 219.18 74.2591 221.669C74.1289 222.987 73.9987 224.321 73.8848 225.639C73.836 226.143 73.8685 226.647 73.8848 227.201C73.9011 227.493 73.9174 227.786 73.9174 228.079C73.9499 231.545 73.7383 234.961 73.2664 238.231C72.534 243.373 71.3622 247.326 69.5557 250.694C68.1723 253.281 66.1542 255.331 64.2175 257.316C63.8758 257.674 63.534 258.015 63.1922 258.373C60.6045 261.058 58.7492 263.205 57.1542 265.32C54.9734 268.233 53.1506 271.308 51.7347 274.48C50.0421 278.287 48.8052 282.501 48.0566 287.008C47.0313 293.158 47.1127 299.373 47.2917 304.091C47.5358 310.371 47.2591 316.586 46.4942 322.573C45.8432 327.715 44.7853 332.953 43.3369 338.16C42.2139 342.211 40.7817 346.555 38.9589 351.419C38.1452 353.583 37.2989 355.747 36.4689 357.862C35.8179 359.538 35.1344 361.263 34.4834 362.955C32.2537 368.812 30.6588 373.66 29.4707 378.216C27.7618 384.788 27.2085 390.076 27.6967 394.892C28.2013 399.805 30.024 404.458 32.9372 408.331L31.7166 409.274Z" fill="white"/>
<path d="M169.958 48.5484C181.53 48.2719 226.237 50.8099 236.344 87.5143C246.45 124.219 239.647 137.283 239.647 137.283C239.647 137.283 259.486 138.65 258.868 153.26C258.266 167.87 247.297 172.735 236.946 170.912C236.946 170.912 220.915 227.531 176.257 233.014C176.257 233.014 130.378 225.107 112.72 172.133C112.72 172.133 91.3997 175.175 91.3997 156.302C91.3997 137.43 109.058 140.781 109.058 140.781C109.058 140.781 91.3997 50.3706 169.958 48.5484Z" fill="#FFD0AE"/>
<path d="M287.463 125.911C287.203 122.331 286.828 118.768 286.438 115.222C286.259 113.481 286.177 111.74 285.917 109.999C285.64 108.193 285.25 106.42 284.745 104.679C282.694 97.5201 278.805 90.9472 274.443 84.9437C273.532 83.6909 272.604 82.4707 271.66 81.2668C268.828 72.5788 265.541 65.3388 261.911 60.7182C250.942 46.71 237.222 27.2027 221.241 22.6309C205.259 18.0591 143.626 26.3892 143.626 26.3892C143.626 26.3892 130.166 24.3555 112.329 38.9494C109.302 40.6577 106.486 42.7077 103.508 44.4973C101.929 45.441 100.448 46.0755 98.8047 46.8727C96.9006 47.8001 95.0452 48.8576 93.255 49.9802C89.5769 52.2905 86.1429 55.0238 83.0669 58.0662C80.1537 60.9459 77.5823 64.2162 75.613 67.8117C74.4738 69.9105 73.302 71.9768 72.2767 74.1244C71.2514 76.2882 70.3888 78.5172 69.6076 80.7787C66.727 89.2226 65.9458 98.2686 66.8246 107.119C67.3779 112.667 68.5823 118.134 70.1772 123.47C70.1609 130.19 70.7794 135.786 72.5045 137.283C76.6872 140.895 76.7523 162.404 94.4268 175.793C94.4268 175.793 85.2966 152.024 93.8246 140.781C102.353 129.523 109.042 140.797 109.042 140.797C109.042 140.797 105.998 117.353 118.172 103.963C130.345 90.573 146.62 87.5306 154.318 79.6073C162.016 71.7002 171.651 68.0395 173.539 60.7344C173.539 60.7344 182.978 75.9466 200.523 82.6497C218.051 89.3528 244.156 113.399 239.631 137.283C239.631 137.283 259.47 135.982 263.734 149.502C267.998 163.006 258.884 193.511 258.884 193.511C258.884 193.511 272.637 181.992 279.065 163.673C282.743 159.085 285.168 153.65 286.47 147.858C288.065 140.667 287.984 133.2 287.463 125.911ZM102.369 48.5322C79.8282 73.5061 74.3436 86.8961 72.5208 96.6416C71.8535 100.205 71.1049 106.127 70.6492 112.391C70.0958 109.299 69.7215 106.192 69.5751 103.052C69.1519 94.1523 70.7306 85.2691 74.2948 77.0855C75.2713 74.8402 76.3942 72.6601 77.6148 70.5288C78.5913 68.8367 79.5027 67.1284 80.6582 65.534C83.0832 62.1824 86.0452 59.2051 89.2514 56.6182C92.5714 53.9175 96.217 51.6072 100.025 49.6711C100.807 49.2806 101.588 48.9064 102.385 48.5322C102.369 48.5159 102.369 48.5159 102.369 48.5322ZM282.971 149.29C282.613 150.608 282.19 151.893 281.685 153.146C282.19 149.778 282.401 146.264 282.239 142.603C281.425 125.585 278.544 106.143 274.232 89.9059C274.248 89.9385 274.264 89.9548 274.28 89.9873C278.219 95.8932 281.555 102.466 282.792 109.511C283.101 111.252 283.166 112.976 283.345 114.733C283.524 116.491 283.72 118.248 283.899 119.989C284.257 123.617 284.566 127.245 284.696 130.873C284.908 137.072 284.582 143.303 282.971 149.29Z" fill="#FF939C"/>
<path d="M144.662 119.733C144.662 119.733 161.648 117.641 161.435 112.193C161.206 106.756 152.017 107.293 144.662 109.116C137.307 110.94 121.926 115.459 123.793 118.636C125.661 121.825 134.654 121.925 144.662 119.733Z" fill="#231F20"/>
<path d="M201.214 107.167C201.214 107.167 190.772 105.514 193.346 115.076C194.722 120.193 209.632 121.12 215.056 122.382C220.479 123.633 228.348 124.952 226.534 120.539C224.721 116.115 215.849 112.351 211.494 111.099C207.155 109.848 208.451 108.206 201.214 107.167Z" fill="#231F20"/>
<path d="M175.508 157.099C173.392 148.509 173.506 140.195 173.962 134.729C174.467 128.807 175.459 124.967 175.508 124.804L176.973 125.195C176.94 125.341 173.018 140.683 176.973 156.742L175.508 157.099Z" fill="#231F20"/>
<path d="M173.262 168.586L172.758 167.154C172.904 167.106 176.485 165.853 179.87 167.154L179.317 168.57C176.452 167.48 173.295 168.57 173.262 168.586Z" fill="#231F20"/>
<path d="M204.559 149.258C196.6 149.258 190.839 143.384 190.579 143.14L191.669 142.083L191.116 142.62L191.669 142.083C191.718 142.148 197.463 147.956 204.966 147.728C209.685 147.598 214.128 145.141 218.197 140.439L219.353 141.432C214.991 146.475 210.157 149.095 204.998 149.241C204.852 149.258 204.705 149.258 204.559 149.258Z" fill="#231F20"/>
<path d="M142.177 148.411C141.852 148.411 141.526 148.395 141.217 148.379C133.161 147.907 127.969 141.708 127.758 141.432L128.929 140.472C128.978 140.537 133.942 146.443 141.315 146.866C146.23 147.142 151.145 144.979 155.897 140.407L156.955 141.513C152.17 146.085 147.206 148.411 142.177 148.411Z" fill="#231F20"/>
<path opacity="0.5" d="M201.092 163.608C198.7 161.639 205.014 156.302 217.627 156.904C230.241 157.506 228.987 160.565 227.181 163.608C225.374 166.65 215.17 175.175 201.092 163.608Z" fill="#FF939C"/>
<path opacity="0.5" d="M131.322 156.855C131.322 156.855 150.477 159.475 149.257 167.317C148.036 175.159 132.884 170.506 131.322 169.481C129.759 168.472 114.608 160.467 131.322 156.855Z" fill="#FF939C"/>
<path d="M176.875 208.284C175.069 208.284 173.522 208.024 173.425 208.008L173.685 206.511C173.718 206.511 177.038 207.08 179.398 206.527L179.756 208.008C178.844 208.219 177.819 208.284 176.875 208.284Z" fill="black"/>
<path d="M173.002 186.092C177.363 186.043 191.067 184.481 195.542 183.538C200.539 182.48 203.159 183.847 200.718 187.8C198.277 191.754 191.653 202.41 176.24 202.72C160.828 203.029 150.477 189.623 148.655 187.8C146.832 185.978 148.345 182.317 154.432 184.156C160.519 185.978 169.844 186.125 173.002 186.092Z" fill="white"/>
<path d="M176.257 233.762H176.224C166.883 233.453 147.06 220.616 146.23 220.063L147.06 218.794C147.255 218.924 167.306 231.924 176.241 232.249C176.647 232.217 181.042 231.875 186.998 229.874C192.743 227.954 201.174 224.066 208.741 216.435L209.816 217.509C202.02 225.367 193.345 229.37 187.421 231.338C180.993 233.486 176.468 233.762 176.289 233.762H176.257Z" fill="#231F20"/>
<path d="M91.3997 411.378C91.3997 411.378 104.354 366.49 104.354 359.185C104.354 351.88 100.709 341.598 101.62 336.473C102.532 331.348 113.273 308.049 113.957 295.733C113.957 295.733 116.919 291.162 119.213 295.733C121.492 300.305 117.163 316.737 117.391 318.332C117.618 319.926 121.28 315.599 123.559 310.799C125.837 305.999 142.942 267.408 146.669 269.019C152.772 271.654 133.617 307.708 135.667 308.456C137.718 309.205 155.995 263.698 161.007 266.48C166.036 269.246 144.423 309.432 146.669 310.571C148.915 311.71 165.58 271.085 170.609 273.135C175.638 275.185 155.539 311.938 156.906 313.077C158.273 314.216 169.617 289.795 171.83 291.162C174.043 292.528 174.955 294.822 161.023 321.976C147.092 349.147 141.738 355.768 140.761 357.135C139.785 358.502 134.772 366.035 133.503 373.112C132.25 380.189 129.971 413.656 129.971 413.656C129.971 413.656 100.595 415.624 91.3997 411.378Z" fill="#FFD0AE"/>
<path d="M282.288 414.111C282.288 414.111 267.526 366.49 267.526 359.185C267.526 351.88 271.188 341.598 270.261 336.473C269.349 331.348 258.608 308.049 257.924 295.733C257.924 295.733 254.962 291.162 252.667 295.733C250.389 300.305 254.718 316.737 254.49 318.332C254.262 319.926 250.601 315.599 248.322 310.799C246.044 305.999 228.939 267.408 225.212 269.019C219.109 271.654 238.264 307.708 236.214 308.456C234.163 309.205 215.886 263.698 210.874 266.48C205.845 269.246 227.458 309.432 225.212 310.571C222.966 311.71 206.3 271.085 201.271 273.135C196.242 275.185 216.342 311.938 214.975 313.077C213.608 314.216 202.264 289.795 200.051 291.162C197.837 292.528 196.926 294.822 210.857 321.976C224.789 349.147 230.143 355.768 231.119 357.135C232.096 358.502 237.109 366.035 238.378 373.112C239.631 380.189 241.845 412.68 241.845 412.68C241.845 412.68 261.765 419.139 282.288 414.111Z" fill="#FFD0AE"/>
<path d="M128.441 146.248C128.132 145.971 127.53 145.955 127.253 146.313C127.188 146.394 127.123 146.476 127.058 146.557L127.042 146.573C127.009 146.606 126.96 146.638 126.911 146.671C126.716 146.817 126.521 146.931 126.326 147.061C125.805 147.419 125.479 147.875 125.447 148.509C125.43 148.965 125.902 149.323 126.326 149.306C126.749 149.29 127.025 148.981 127.09 148.607C127.107 148.591 127.123 148.558 127.139 148.525C127.172 148.509 127.221 148.46 127.237 148.444C127.318 148.379 127.4 148.33 127.497 148.265C127.872 148.021 128.246 147.761 128.506 147.403C128.767 147.061 128.799 146.573 128.441 146.248Z" fill="#231F20"/>
<path d="M136.025 150.006C135.586 149.778 135.146 149.99 134.902 150.38C134.479 151.047 134.186 151.779 133.763 152.43C133.519 152.821 133.763 153.374 134.137 153.553C134.577 153.78 135.016 153.569 135.26 153.178C135.684 152.511 135.977 151.779 136.4 151.128C136.644 150.754 136.4 150.201 136.025 150.006Z" fill="#231F20"/>
<path d="M147.206 151.861C147.19 150.77 145.514 150.868 145.53 151.942C145.546 152.641 145.741 153.309 145.758 153.992C145.79 155.082 147.45 154.984 147.434 153.911C147.418 153.227 147.222 152.544 147.206 151.861Z" fill="#231F20"/>
<path d="M157.915 149.827C157.785 149.55 157.72 149.241 157.622 148.965C157.459 148.542 157.199 148.2 156.808 147.972C156.418 147.744 155.88 147.956 155.685 148.346C155.49 148.737 155.636 149.192 155.994 149.42C156.011 149.436 156.027 149.453 156.027 149.469C156.059 149.534 156.076 149.599 156.092 149.664C156.157 149.892 156.222 150.12 156.32 150.331C156.515 150.738 156.89 151.031 157.378 150.868C157.752 150.754 158.094 150.234 157.915 149.827Z" fill="#231F20"/>
<path d="M193.606 147.875C193.118 147.891 192.825 148.298 192.808 148.753C192.808 148.851 192.711 149.062 192.678 149.111C192.515 149.339 192.304 149.55 192.109 149.746C191.783 150.071 191.848 150.64 192.174 150.933C192.532 151.242 193.036 151.177 193.362 150.868C193.996 150.234 194.452 149.583 194.485 148.672C194.501 148.2 194.029 147.842 193.606 147.875Z" fill="#231F20"/>
<path d="M202.964 150.836C202.492 150.852 202.167 151.259 202.167 151.715V153.309C202.167 153.765 202.606 154.122 203.045 154.106C203.517 154.09 203.843 153.683 203.843 153.228V151.633C203.843 151.178 203.403 150.82 202.964 150.836Z" fill="#231F20"/>
<path d="M214.747 151.048L214.698 150.999C214.681 150.95 214.665 150.869 214.665 150.852C214.633 150.625 214.6 150.397 214.551 150.185C214.372 149.567 213.851 149.274 213.233 149.242C212.777 149.225 212.419 149.697 212.436 150.12C212.452 150.478 212.68 150.738 212.973 150.852C212.973 150.885 212.989 150.917 212.989 150.934C213.005 151.015 213.005 151.113 213.021 151.194C213.07 151.519 213.152 151.828 213.396 152.073L213.624 152.3C213.949 152.626 214.519 152.561 214.812 152.235C215.137 151.877 215.072 151.373 214.747 151.048Z" fill="#231F20"/>
<path d="M223.21 146.02C222.526 145.548 222.005 144.832 221.208 144.523C220.785 144.36 220.313 144.458 220.085 144.897C219.906 145.272 220.036 145.857 220.459 146.02C221.11 146.264 221.55 146.882 222.103 147.273C222.477 147.533 222.949 147.566 223.291 147.208C223.552 146.899 223.584 146.28 223.21 146.02Z" fill="#231F20"/>
<path d="M47.1157 380.091C47.4412 379.652 47.7341 379.197 47.9945 378.708C49.4104 376.057 45.4882 374.413 44.0885 377.049C43.1609 378.806 41.5822 380.01 40.8824 381.946C39.8245 384.858 41.0614 387.575 42.5424 389.804C43.4864 391.22 45.5207 390.699 46.2694 389.186L49.2639 383.101C50.1916 381.23 48.6129 379.88 47.1157 380.091Z" fill="#FFD0AE"/>
<path d="M45.2929 402.235L42.5261 400.868C41.4846 400.363 40.1337 401.047 39.6455 402.169C39.1084 403.373 39.6292 404.626 40.6545 405.131L43.4213 406.497C44.4629 407.002 45.8137 406.318 46.3019 405.196C46.839 403.992 46.3345 402.739 45.2929 402.235Z" fill="#FFD0AE"/>
<path d="M64.0579 402.251C64.1393 401.616 65.3273 401.307 65.9783 401.03C66.6456 400.754 67.2803 400.429 67.8825 400.103C69.3472 401.014 70.7631 402.153 71.3653 403.455C70.6818 403.162 69.7704 403.113 69.0217 403.601C66.4991 405.261 63.1628 405.684 62.821 408.563C62.7234 409.361 63.83 409.963 64.774 409.979C69.0055 410.076 74.1809 409.263 75.3364 405.749C76.4431 402.365 72.4883 399.094 69.1356 397.24C68.2243 396.735 67.2803 396.719 66.434 397.272C63.9114 398.932 60.5751 399.355 60.2333 402.234C60.038 404.105 63.8626 404.057 64.0579 402.251Z" fill="#FFD0AE"/>
<path d="M75.5317 19.5234C71.1213 16.7413 61.1122 10.1683 62.4142 3.88824C65.7505 2.7331 68.4684 5.17354 70.8609 7.19098C69.331 6.05211 68.6312 1.02478 71.105 0.129951C74.0019 -0.911307 74.067 4.3926 74.3762 5.97076C74.9296 8.65525 75.2714 10.9493 75.5968 13.6338C75.7759 15.0818 75.7921 19.4746 76.6384 19.8L75.5317 19.5234Z" fill="#231F20"/>
<path d="M43.5027 25.2664V20.1902C43.5027 18.2541 41.0777 18.1728 40.1989 19.4906C38.9946 21.3128 36.5859 24.0136 37.2043 26.4215C37.6112 27.9671 39.7107 28.3251 40.6058 29.1873C42.2333 30.7492 44.5443 28.1298 42.9168 26.5842C43.2748 26.2913 43.5027 25.8521 43.5027 25.2664Z" fill="#FFD0AE"/>
<path d="M57.2061 31.2212H51.8354C50.8752 31.2212 50.1265 32.1323 50.1754 33.0434C50.2242 34.0358 51.0542 34.7029 51.9981 34.7029H57.3689C58.3291 34.7029 59.0777 33.7918 59.0289 32.8807C58.9801 31.9045 58.1501 31.2212 57.2061 31.2212Z" fill="#FFD0AE"/>
<path d="M53.3817 52.3232C52.3401 50.3545 50.7452 48.4347 48.304 48.6299C47.7506 48.6787 47.2298 48.8252 46.7253 49.0692C46.1557 49.1343 45.6186 49.4272 45.3257 49.9478C44.4794 50.6148 43.6982 51.4283 42.9984 52.1279C41.5662 53.5597 43.5354 55.5608 45.0978 54.8124V55.9188C45.0978 56.9112 46.0092 57.5783 46.9206 57.5783C47.9296 57.5783 48.9712 57.5945 49.8989 57.1878C51.2172 56.6021 52.2099 55.4632 53.219 54.4545C53.8049 53.8525 53.7235 52.9739 53.3817 52.3232ZM48.6295 53.9176C48.6132 53.9339 48.5969 53.9339 48.5806 53.9501V52.1117C49.0363 52.0791 49.4432 52.4859 49.7687 52.9739C49.4106 53.2993 49.0526 53.641 48.6295 53.9176Z" fill="#FFD0AE"/>
<path d="M320.127 37.9893H317.588C316.627 37.9893 315.879 38.9004 315.928 39.8115C315.976 40.8039 316.806 41.471 317.75 41.471H320.289C321.25 41.471 321.998 40.5599 321.949 39.6488C321.901 38.6563 321.07 37.9893 320.127 37.9893Z" fill="#FFD0AE"/>
<g opacity="0.3">
<path opacity="0.3" d="M256.508 192.616C255.792 186.32 257.306 180.333 259.063 174.801C259.128 174.622 259.161 174.394 259.193 174.167C259.242 173.874 259.275 173.565 259.372 173.272C260.691 169.188 262.318 165.186 263.897 161.313C264.678 159.394 265.492 157.392 266.24 155.424C268.763 148.509 269.463 141.611 268.34 134.973C266.761 125.065 261.895 116.995 255.076 107.9C254.051 106.566 253.009 105.232 252 103.947C247.052 97.6503 242.381 91.6956 239.452 84.2929C238.117 81.039 237.206 77.8827 236.23 74.1569C235.758 72.4649 235.172 70.8379 234.553 69.1133C234.211 68.1534 233.853 67.161 233.512 66.1685C232.356 63.3864 230.989 61.1412 229.296 59.319C228.955 59.0587 228.678 58.7333 228.401 58.4242C228.157 58.1476 227.913 57.871 227.685 57.692L227.636 57.6595C219.987 51.054 209.75 47.4747 196.34 46.6937L196.421 45.1807C210.173 45.9779 220.703 49.6711 228.613 56.4881C228.971 56.7647 229.264 57.0901 229.541 57.4154C229.785 57.692 230.029 57.9686 230.257 58.1476L230.306 58.1964L230.354 58.2452C232.193 60.2301 233.691 62.638 234.911 65.6316L234.928 65.6804C235.253 66.6729 235.611 67.6653 235.969 68.6252C236.571 70.301 237.19 72.0256 237.694 73.7827C238.655 77.4597 239.566 80.5509 240.868 83.7398C243.732 90.9472 248.322 96.8043 253.204 103.019C254.213 104.305 255.271 105.655 256.297 107.005C263.246 116.279 268.21 124.544 269.837 134.745C271.009 141.643 270.277 148.786 267.673 155.977C266.908 157.978 266.094 159.979 265.313 161.899C263.75 165.739 262.139 169.725 260.837 173.76C260.788 173.922 260.756 174.15 260.707 174.394C260.658 174.687 260.626 174.996 260.528 175.289C258.835 180.658 257.354 186.45 258.038 192.47L256.508 192.616Z" fill="#FF939C"/>
</g>
<g opacity="0.3">
<path opacity="0.3" d="M79.2749 148.753L77.7776 148.444C78.9494 142.734 81.8789 137.169 86.6962 131.442L86.7125 131.41C87.3798 130.694 88.047 129.994 88.698 129.311C89.9837 127.961 91.302 126.578 92.604 125.081C92.6691 124.983 92.7342 124.886 92.783 124.804C92.962 124.512 93.1411 124.251 93.4015 123.975C95.208 121.746 95.5009 118.882 95.7939 116.116V116.068C96.0868 109.299 96.689 102.515 97.6329 95.3238C98.1537 91.4517 99.3906 88.0838 100.693 84.5208C100.953 83.8212 101.213 83.089 101.474 82.3732L101.49 82.3406C102.987 78.6149 105.038 75.4423 107.674 71.8304L107.707 71.7816L107.756 71.7328C108.228 71.261 108.618 70.7729 109.074 70.2035C109.172 70.0733 109.269 69.9594 109.383 69.8293L109.4 69.813C113.957 64.5416 119.767 60.3441 127.172 56.9925C127.872 56.6834 128.539 56.4068 129.174 56.1465C129.808 55.8862 130.459 55.6259 131.127 55.3167H131.143C138.873 52.0954 147.141 50.5823 154.221 49.541L154.448 51.0541C147.467 52.0953 139.297 53.5759 131.729 56.7322C131.045 57.0413 130.378 57.3179 129.743 57.5782C129.108 57.8385 128.457 58.0989 127.79 58.408C120.613 61.6782 114.966 65.7293 110.555 70.838C110.458 70.9682 110.36 71.082 110.262 71.1959C109.79 71.7816 109.383 72.3023 108.879 72.8229C106.34 76.3209 104.338 79.3958 102.922 82.9426C102.662 83.6585 102.401 84.3906 102.141 85.0902C100.855 88.5719 99.651 91.8584 99.1628 95.5679C98.2351 102.71 97.6329 109.462 97.34 116.198L97.3237 116.328C97.0307 119.191 96.689 122.429 94.5732 125.016L94.5244 125.081C94.3617 125.244 94.2477 125.423 94.085 125.683C94.0199 125.797 93.9385 125.911 93.8572 126.041L93.792 126.122C92.4575 127.652 91.1067 129.067 89.8047 130.45C89.1537 131.133 88.5027 131.817 87.8517 132.533C83.2134 137.967 80.3978 143.303 79.2749 148.753Z" fill="#FF939C"/>
</g>
<path d="M291.971 164.014C290.702 160.549 285.917 160.695 282.906 160.695C281.816 160.695 281.913 162.371 282.988 162.371C284.436 162.371 285.868 162.387 287.3 162.648C288.472 162.859 289.921 163.298 290.376 164.535C290.751 165.527 292.345 165.023 291.971 164.014Z" fill="white"/>
<path d="M187.877 408.335C187.991 405.911 188.023 403.487 188.023 401.063C188.007 396.117 187.812 391.171 187.633 386.225C187.438 381.214 187.259 376.187 187.259 371.159C187.259 366.49 187.259 361.821 187.161 357.151C187.063 352.384 186.868 347.633 186.494 342.883C186.119 338.181 185.322 333.528 184.882 328.826C183.971 318.999 184.638 309.107 184.801 299.264C184.899 293.358 184.573 287.517 184.069 281.644C183.58 275.982 183.011 270.32 183.011 264.626C183.011 263.536 181.334 263.633 181.334 264.707C181.351 274.143 182.832 283.498 183.125 292.919C183.418 302.778 182.539 312.637 182.848 322.513C182.929 324.937 183.076 327.361 183.32 329.769C183.548 332.128 183.938 334.455 184.231 336.798C184.817 341.5 185.127 346.218 185.322 350.936C185.729 360.519 185.468 370.102 185.745 379.685C185.908 385.167 186.184 390.65 186.315 396.133C186.38 398.769 186.396 401.421 186.363 404.057C186.347 405.407 186.315 406.757 186.25 408.108C186.233 408.693 186.201 409.246 186.282 409.816C186.298 410.011 186.331 410.206 186.347 410.385C186.347 410.434 186.347 410.483 186.347 410.532C185.306 410.646 185.403 412.273 186.461 412.208C188.609 412.077 187.812 409.767 187.877 408.335Z" fill="white"/>
<path d="M193.671 271.134C192.581 271.117 192.678 272.777 193.752 272.81C194.631 272.826 194.713 273.005 194.566 273.835C194.436 274.599 194.241 275.348 194.143 276.112C193.134 276.194 192.027 275.966 191.441 275.087C191.148 274.648 191.148 274.079 191.23 273.574C191.246 273.444 191.409 272.744 191.425 272.728C191.767 272.435 192.174 272.224 192.499 271.915C193.297 271.199 192.043 270.092 191.246 270.808C190.888 271.134 190.416 271.313 190.107 271.703C189.798 272.094 189.7 272.761 189.586 273.233C189.374 274.192 189.537 275.169 190.025 276.015C191.051 277.772 193.378 277.983 195.168 277.658C195.543 277.593 195.738 277.154 195.754 276.812C195.77 275.559 196.307 274.388 196.291 273.135C196.291 271.638 194.924 271.166 193.671 271.134Z" fill="white"/>
<path d="M198.684 318.365C198.505 317.958 198.293 317.567 198.065 317.177C197.512 316.249 196.112 317.177 196.666 318.088C197.056 318.739 197.414 319.487 197.479 320.187C197.512 320.691 197.414 320.951 197.138 321.244C197.105 321.277 197.089 321.309 197.073 321.309C197.073 321.309 197.04 321.326 196.991 321.358C196.91 321.423 196.828 321.472 196.731 321.521C196.78 321.488 196.536 321.602 196.487 321.618C196.34 321.667 196.194 321.7 196.047 321.732C195.705 321.814 195.038 321.781 194.566 321.7C194.111 321.618 193.557 321.374 193.297 321.195C193.199 321.13 193.101 321.049 193.02 320.968C192.988 320.935 192.955 320.903 192.922 320.87L192.906 320.854L192.89 320.837C192.662 320.545 192.711 320.593 192.63 320.317C192.613 320.268 192.613 320.317 192.613 320.122C192.597 319.91 192.597 320.105 192.63 319.894C192.678 319.585 192.76 319.422 192.955 319.113C193.15 318.788 193.443 318.478 193.72 318.186C193.785 318.12 193.85 318.055 193.915 317.99L194.029 317.893L194.045 317.876H195.006C196.096 317.876 195.998 316.201 194.924 316.201H193.932C193.46 316.201 193.232 316.38 192.89 316.689C192.467 317.047 192.092 317.47 191.767 317.909C191.262 318.609 190.921 319.406 190.969 320.284C191.051 321.846 192.434 322.822 193.801 323.245C195.12 323.668 196.78 323.587 197.951 322.79C199.384 321.749 199.351 319.861 198.684 318.365Z" fill="white"/>
<path d="M198.521 364.489C198.114 364.196 197.658 364.31 197.365 364.586C197.056 364.245 196.519 364.114 196.128 364.554C194.631 366.213 194.745 370.834 197.837 370.394C200.539 370.036 200.311 365.774 198.521 364.489ZM197.658 368.751C196.389 369.19 197.023 366.181 197.365 365.693C197.381 365.709 197.398 365.725 197.414 365.741C197.984 366.148 198.179 366.766 198.195 367.45C198.211 367.889 198.098 368.605 197.658 368.751Z" fill="white"/>
<path d="M199.204 402.007C197.707 401.73 196.128 402.332 195.396 403.699C194.875 404.642 196.373 405.391 196.893 404.447C197.495 403.341 199.709 403.276 200.262 404.496C200.62 405.277 200.002 406.416 199.318 406.822C198.635 407.245 198.716 405.716 198.781 405.456C199.009 404.398 197.382 404.057 197.137 405.114C196.828 406.53 197.349 408.514 199.107 408.531C200.881 408.547 202.053 406.383 202.02 404.821C202.02 403.292 200.588 402.267 199.204 402.007Z" fill="white"/>
<path d="M287.642 362C284.859 369.028 284.452 376.968 280.335 383.459V383.476C280.27 383.459 280.205 383.459 280.14 383.459C280.123 382.646 280.074 381.849 280.009 381.035C279.83 378.969 279.847 376.903 279.733 374.836C279.619 372.884 279.456 370.801 278.691 368.979C278.284 367.987 276.689 368.491 277.096 369.484C277.829 371.273 277.959 373.242 278.073 375.146C278.187 377.195 278.187 379.262 278.349 381.312C278.48 382.857 278.496 384.387 278.431 385.916C278.398 386.03 278.398 386.144 278.414 386.241C278.366 387.185 278.284 388.129 278.187 389.089C277.894 391.757 277.519 394.425 277.503 397.126C277.503 398.216 279.163 398.118 279.179 397.044C279.196 394.295 279.586 391.578 279.879 388.861C279.961 388.064 280.026 387.266 280.074 386.469C280.514 385.949 280.856 385.298 280.97 384.631C281.279 384.68 281.621 384.566 281.832 384.224C285.966 377.716 286.357 369.809 289.14 362.764C289.53 361.756 288.033 360.991 287.642 362Z" fill="white"/>
<path d="M92.5064 366.978C92.5064 371.403 92.3761 375.845 92.2134 380.27C91.953 379.359 91.7903 378.416 91.595 377.537C91.3671 376.512 91.0253 375.503 90.83 374.462C90.5859 373.226 90.4883 371.956 90.3418 370.704C90.0814 368.41 89.5118 366.181 89.1863 363.887C88.8608 361.56 88.7143 359.201 88.698 356.842C88.698 355.752 87.0217 355.85 87.0217 356.923C87.0217 359.282 87.1845 361.625 87.51 363.968C87.8517 366.441 88.4539 368.865 88.7306 371.338C88.8608 372.445 88.9747 373.567 89.17 374.673C89.3816 375.812 89.7234 376.902 89.9838 378.025C90.3906 379.831 90.7161 381.783 91.7252 383.362C91.8228 383.524 91.953 383.622 92.0832 383.671C91.8391 389.821 91.595 395.97 91.595 402.12C91.595 403.21 93.2713 403.113 93.2713 402.039C93.2713 390.309 94.1827 378.611 94.1827 366.88C94.1827 365.807 92.5064 365.904 92.5064 366.978Z" fill="white"/>
<path d="M336.809 216.386C335.718 216.386 335.816 218.062 336.89 218.062C337.964 218.062 337.883 216.386 336.809 216.386Z" fill="#231F20"/>
<path d="M348.884 204.981C348.445 205.795 346.915 205.99 346.101 206.136C345.613 206.218 345.108 206.266 344.62 206.315C344.376 206.331 344.034 206.299 343.806 206.397C342.911 206.771 343.139 207.991 344.099 208.024C344.132 208.024 344.165 208.024 344.197 208.024H344.213C344.083 208.072 344.148 208.04 344.262 208.024C344.311 208.024 344.344 208.024 344.376 208.007C344.588 207.991 344.799 207.975 345.011 207.958C345.678 207.893 346.329 207.796 346.98 207.666C348.25 207.422 349.714 206.933 350.381 205.746C350.902 204.786 349.405 204.037 348.884 204.981Z" fill="#231F20"/>
<path d="M350.382 195.626C350.203 194.878 349.389 194.487 348.673 194.471C347.631 194.439 347.68 195.984 348.624 196.131C348.038 196.977 347.875 197.92 347.875 198.994C347.875 200.084 349.552 199.987 349.552 198.913C349.552 198.376 349.568 197.872 349.796 197.367C349.942 197.058 350.235 196.879 350.382 196.586C350.528 196.293 350.447 195.935 350.382 195.626Z" fill="#231F20"/>
<path d="M316.009 19.6372C315.13 20.955 314.333 22.3379 313.47 23.672C312.771 24.7458 311.973 25.9986 310.818 26.6169C309.857 27.1212 310.785 28.5204 311.729 28.016C312.95 27.3653 313.812 26.1288 314.577 25.0062C315.602 23.4931 316.498 21.9149 317.507 20.3856C318.093 19.4908 316.595 18.7423 316.009 19.6372Z" fill="#231F20"/>
<path d="M320.696 24.941C319.476 26.1612 318.255 27.3814 317.051 28.5854C316.286 29.35 317.539 30.4564 318.304 29.6917C319.524 28.4715 320.745 27.2513 321.949 26.0473C322.714 25.2826 321.461 24.1763 320.696 24.941Z" fill="#231F20"/>
<path d="M39.6619 74.157C38.962 73.3924 39.0271 72.0582 39.0271 71.0983C39.0271 70.0083 37.3508 70.1059 37.3508 71.1797C37.3508 72.6928 37.481 74.2546 38.5389 75.4261C39.2875 76.207 40.3942 74.9542 39.6619 74.157Z" fill="#231F20"/>
<path d="M45.4721 73.9619C44.3817 73.9619 44.4793 75.6377 45.5535 75.6377C46.6276 75.6214 46.5462 73.9619 45.4721 73.9619Z" fill="#231F20"/>
<path d="M39.076 58.4404C39.0598 58.4404 39.0598 58.4404 39.0435 58.4404C39.0435 58.4079 39.0435 58.3591 39.0435 58.3266C39.0435 57.871 38.6041 57.5131 38.1647 57.5293C37.6927 57.5456 37.3672 57.9524 37.3672 58.4079C37.3672 58.6031 37.3672 58.7821 37.3835 58.9773C37.4323 59.3027 37.5299 59.5468 37.7578 59.7908C38.0996 60.1488 38.7017 60.1162 39.1574 60.1162C39.6131 60.1162 39.9712 59.6769 39.9549 59.2377C39.9223 58.7496 39.5317 58.4404 39.076 58.4404Z" fill="#231F20"/>
<path d="M26.2838 167.073C25.8118 167.089 25.4863 167.496 25.4863 167.951V168.863C25.4863 169.318 25.9257 169.676 26.3652 169.66C26.8371 169.643 27.1626 169.237 27.1626 168.781V167.87C27.1626 167.414 26.7232 167.057 26.2838 167.073Z" fill="#231F20"/>
<path d="M14.4194 192.649C13.1011 192.665 11.6527 192.828 10.6436 193.723C9.56947 194.666 9.61829 196.131 10.0089 197.384C10.1228 197.741 10.4809 197.969 10.8552 197.969C11.6526 197.953 12.385 197.79 13.0035 197.253C13.4592 196.847 13.7684 196.293 14.1915 195.854C14.9402 195.073 13.687 193.967 12.9384 194.748C12.6129 195.09 12.3525 195.48 12.0595 195.854C11.8968 196.066 11.6852 196.163 11.4736 196.228C11.3923 195.74 11.4411 195.236 11.8642 194.894C12.5803 194.325 13.6707 194.325 14.5333 194.309C15.5749 194.309 15.4935 192.633 14.4194 192.649Z" fill="#231F20"/>
<path d="M19.0903 196.261C19.0578 197.806 17.9999 198.522 16.7304 199.173C15.7702 199.661 16.6979 201.06 17.6418 200.572C19.4972 199.629 20.7178 198.327 20.7666 196.179C20.7829 195.089 19.1229 195.187 19.0903 196.261Z" fill="#231F20"/>
<path d="M321.689 414.583C319.654 413.623 317.311 413.721 315.293 412.761C314.69 412.468 314.105 412.924 314.088 413.558C314.056 414.258 313.502 414.648 313.079 415.104C312.737 415.462 312.526 415.885 312.396 416.324H311.24C310.15 416.324 310.247 418 311.322 418H313.144C313.633 418 313.926 417.561 313.942 417.121C313.974 416.422 314.528 416.031 314.951 415.576C315.211 415.299 315.407 414.974 315.537 414.648C317.311 415.218 319.247 415.283 320.956 416.096C321.917 416.552 322.665 415.055 321.689 414.583Z" fill="#FF939C"/>
<path d="M368.886 248.161V249.219C368.886 250.309 370.562 250.211 370.562 249.137V248.08C370.562 246.99 368.886 247.087 368.886 248.161Z" fill="#231F20"/>
<path d="M368.772 262.039C368.577 262.039 368.398 262.039 368.202 262.055C367.877 262.104 367.633 262.202 367.389 262.43C367.031 262.771 367.063 263.373 367.063 263.829C367.063 264.284 367.503 264.642 367.942 264.626C368.414 264.61 368.74 264.203 368.74 263.747C368.74 263.731 368.74 263.731 368.74 263.715C368.772 263.715 368.821 263.715 368.853 263.715C369.309 263.715 369.667 263.276 369.651 262.836C369.618 262.348 369.228 262.039 368.772 262.039Z" fill="#231F20"/>
<path d="M372.418 264.772C371.946 264.788 371.62 265.195 371.62 265.651V266.562C371.62 267.017 372.06 267.375 372.499 267.359C372.971 267.343 373.296 266.936 373.296 266.48V265.569C373.296 265.114 372.857 264.756 372.418 264.772Z" fill="#231F20"/>
<path opacity="0.3" d="M348.022 398.191C347.631 394.091 346.313 389.845 344.002 385.224C341.512 380.262 338.436 375.706 334.969 370.712C334.383 369.866 333.765 368.987 333.163 368.157C331.877 366.368 330.542 364.497 329.371 362.577C327.922 360.185 326.75 357.549 325.92 354.719C324.521 350.017 323.935 344.794 324.098 338.254C324.179 334.756 324.472 331.241 324.765 327.825C324.911 326.165 325.042 324.457 325.172 322.765C325.432 318.958 325.432 315.85 325.156 312.971C324.83 309.619 324.146 306.349 323.154 303.258C321.982 299.662 320.338 296.245 318.271 293.122C315.928 289.575 312.998 286.337 309.548 283.474C305.707 280.285 301.134 277.519 295.958 275.241C292.801 273.842 290.067 272.183 287.577 270.165C285.071 268.131 282.629 265.675 280.107 262.697C277.796 259.948 275.533 256.889 273.19 253.342C271.074 250.121 269.007 246.656 266.875 242.783C264.971 239.318 263.116 235.674 261.195 231.687C259.535 228.206 257.908 224.626 256.215 220.722C254.832 217.517 253.448 214.181 252 210.569L253.416 210C254.864 213.612 256.231 216.915 257.615 220.12C259.291 224.008 260.902 227.571 262.562 231.037C264.467 235.006 266.306 238.618 268.193 242.067C270.309 245.907 272.344 249.34 274.443 252.529C276.738 256.027 278.967 259.037 281.246 261.738C283.703 264.65 286.08 267.041 288.505 269.01C290.881 270.946 293.501 272.541 296.528 273.875C301.834 276.217 306.521 279.065 310.476 282.335C314.04 285.28 317.067 288.648 319.508 292.308C321.64 295.546 323.349 299.076 324.57 302.802C325.611 305.991 326.311 309.375 326.653 312.824C326.946 315.785 326.946 318.974 326.685 322.863C326.571 324.555 326.425 326.279 326.278 327.939C326.002 331.323 325.709 334.821 325.627 338.27C325.481 344.648 326.034 349.724 327.385 354.263C328.183 356.964 329.306 359.486 330.673 361.763C331.812 363.634 333.13 365.473 334.4 367.246C335.002 368.092 335.62 368.955 336.222 369.817C339.722 374.877 342.83 379.465 345.369 384.508C347.778 389.292 349.145 393.717 349.552 397.996L348.022 398.191Z" fill="white"/>
</g>
<defs>
<clipPath id="clip0">
<rect width="378" height="418" fill="white"/>
</clipPath>
</defs>
</svg>
