<svg width="24" height="18" viewBox="0 0 24 18" fill="none" xmlns="http://www.w3.org/2000/svg">
<path d="M23.5661 2.48349L21.4617 0.424528C21.1742 0.143278 20.8217 0 20.4095 0C19.9973 0 19.6447 0.143278 19.3573 0.424528L9.19864 10.3797L4.64814 5.91156C4.36068 5.63031 4.00814 5.48703 3.59593 5.48703C3.18373 5.48703 2.83119 5.63031 2.54373 5.91156L0.433898 7.97052C0.146441 8.25177 0 8.5967 0 9C0 9.4033 0.146441 9.74823 0.433898 10.0295L6.04203 15.5112L8.14644 17.5702C8.4339 17.8514 8.78644 17.9947 9.19864 17.9947C9.61085 17.9947 9.96339 17.8514 10.2508 17.5702L12.3553 15.5112L23.5661 4.54776C23.8536 4.26651 24 3.92158 24 3.51828C24 3.10967 23.859 2.77005 23.5661 2.48349Z" fill="#A66230"/>
</svg>
