<svg display="none" xmlns="http://www.w3.org/2000/svg">
    <symbol id="phone" viewBox="0 0 24 24">
        <g>
            <path d="M23.9463 18.597C23.8806 18.394 23.4448 18.0896 22.6507 17.6955C22.4358 17.5701 22.1254 17.403 21.7313 17.1821C21.3313 16.9672 20.9731 16.7642 20.6507 16.5851C20.3284 16.406 20.0239 16.2269 19.7373 16.0597C19.6896 16.0239 19.5522 15.9284 19.3134 15.7612C19.0746 15.594 18.8716 15.4746 18.7104 15.397C18.5433 15.3194 18.3821 15.2776 18.2269 15.2776C18 15.2776 17.7134 15.4388 17.3731 15.7612C17.0328 16.0836 16.7224 16.4358 16.4358 16.8179C16.1493 17.2 15.8507 17.5522 15.5343 17.8746C15.2179 18.197 14.9552 18.3582 14.7522 18.3582C14.6507 18.3582 14.5194 18.3284 14.3701 18.2746C14.2149 18.2149 14.1015 18.1672 14.0179 18.1313C13.9403 18.0896 13.803 18.0119 13.6119 17.8925C13.4209 17.7731 13.3134 17.7075 13.2896 17.6955C11.7313 16.8298 10.4 15.8448 9.28358 14.7284C8.17313 13.6119 7.18209 12.2806 6.31642 10.7224C6.30448 10.6985 6.23881 10.591 6.1194 10.4C6 10.209 5.92239 10.0716 5.8806 9.98806C5.83881 9.91045 5.79104 9.79104 5.73731 9.63582C5.68358 9.4806 5.65373 9.35522 5.65373 9.25373C5.65373 9.05075 5.81493 8.78806 6.13731 8.47164C6.4597 8.15522 6.81194 7.85075 7.19403 7.57015C7.57612 7.28358 7.92836 6.97313 8.25075 6.63284C8.57313 6.29254 8.73433 6.00597 8.73433 5.7791C8.73433 5.61791 8.69254 5.45672 8.61493 5.29552C8.53731 5.12836 8.41194 4.93134 8.25075 4.69254C8.08358 4.45373 7.98806 4.31045 7.95224 4.26866C7.7791 3.98209 7.60597 3.68358 7.42687 3.35522C7.24776 3.03284 7.04478 2.66866 6.82985 2.27463C6.61493 1.87463 6.44179 1.57015 6.31642 1.35522C5.91045 0.549254 5.60597 0.119403 5.40299 0.0537313C5.32537 0.0179104 5.20597 0 5.04478 0C4.7403 0 4.3403 0.0537313 3.84478 0.173134C3.34925 0.286567 2.96119 0.40597 2.67463 0.531343C2.10746 0.770149 1.50448 1.46269 0.865672 2.60896C0.292537 3.67761 0 4.73433 0 5.7791C0 6.08358 0.0179104 6.38209 0.0597015 6.67463C0.101493 6.96716 0.173134 7.28955 0.274627 7.65373C0.376119 8.01791 0.459701 8.28657 0.519403 8.46567C0.579104 8.63881 0.698507 8.95522 0.871642 9.40896C1.04478 9.86269 1.14627 10.1433 1.17612 10.2448C1.57612 11.3612 2.04776 12.3522 2.59104 13.2299C3.48657 14.6866 4.71045 16.1851 6.26269 17.7373C7.81493 19.2896 9.3194 20.5134 10.7701 21.409C11.6478 21.9522 12.6388 22.4239 13.7552 22.8239C13.8567 22.8597 14.1373 22.9612 14.591 23.1284C15.0448 23.3015 15.3612 23.4149 15.5343 23.4806C15.7075 23.5403 15.9821 23.6239 16.3463 23.7254C16.7104 23.8269 17.0388 23.8985 17.3254 23.9403C17.6179 23.9821 17.9164 24 18.2209 24C19.2657 24 20.3224 23.7075 21.391 23.1284C22.5373 22.4896 23.2299 21.8925 23.4687 21.3194C23.594 21.0328 23.7134 20.6448 23.8269 20.1493C23.9403 19.6537 24 19.2537 24 18.9493C24 18.794 23.9821 18.6746 23.9463 18.597Z" fill="#A98267"/>
        </g>
    </symbol>
    <symbol id="arrow" viewBox="0 0 27 11">
        <g>
            <path d="M0.142279 3.79146C0.235306 3.70619 0.355694 3.66104 0.503445 3.66104H20.001V0.450832C20.001 0.260225 20.0995 0.119778 20.2965 0.0345072C20.4935 -0.0407321 20.6796 -0.0106364 20.8437 0.119778L26.8413 5.19593C26.9453 5.29123 27 5.4066 27 5.54203C27 5.66743 26.9507 5.77778 26.8413 5.87308L20.8437 10.884C20.6796 11.0094 20.4935 11.0345 20.2965 10.9542C20.0995 10.879 20.001 10.7386 20.001 10.5379V7.32771H0.503445C0.355694 7.32771 0.235306 7.28257 0.142279 7.19729C0.0492496 7.11202 0 7.00167 0 6.86624V4.12251C0 3.98708 0.0492496 3.87673 0.142279 3.79146Z" fill="#ffffff"/>
        </g>
    </symbol>
    <symbol id="time" viewBox="0 0 24 24">
        <g>
            <path d="M22.3909 5.97674C21.3181 4.13774 19.8623 2.68187 18.0233 1.60912C16.1843 0.536374 14.1811 0 12.0027 0C9.8244 0 7.81574 0.536374 5.97674 1.60912C4.13774 2.68187 2.68187 4.13774 1.60912 5.97674C0.536374 7.81574 0 9.8244 0 12.0027C0 14.1811 0.536374 16.1897 1.60912 18.0287C2.68187 19.8677 4.13774 21.3236 5.97674 22.3964C7.81574 23.4691 9.8244 24.0055 12.0027 24.0055C14.1811 24.0055 16.1897 23.4691 18.0287 22.3964C19.8677 21.3236 21.3236 19.8677 22.3964 18.0287C23.4691 16.1897 24.0055 14.1811 24.0055 12.0027C24 9.8244 23.4636 7.81574 22.3909 5.97674ZM19.3587 16.2664C18.5979 17.569 17.569 18.5979 16.2664 19.3587C14.9637 20.1195 13.5407 20.4972 12.0027 20.4972C10.4593 20.4972 9.04173 20.1195 7.73911 19.3587C6.43649 18.5979 5.40753 17.569 4.64675 16.2664C3.8805 14.9637 3.50285 13.5407 3.50285 12.0027C3.50285 10.4593 3.8805 9.03626 4.64128 7.73911C5.40205 6.43649 6.43102 5.40753 7.73364 4.64675C9.03626 3.8805 10.4593 3.50285 12.0027 3.50285C13.5462 3.50285 14.9692 3.8805 16.2664 4.64128C17.569 5.40205 18.5979 6.43102 19.3587 7.73364C20.1195 9.03626 20.4972 10.4593 20.4972 11.9973C20.5026 13.5407 20.1195 14.9637 19.3587 16.2664Z" fill="#A98267"/>
            <path d="M13.5025 5.99863H12.5009C12.3531 5.99863 12.2327 6.04789 12.1397 6.14093C12.0466 6.23397 11.9974 6.35438 11.9974 6.50216V12.0027H8.4945C8.34672 12.0027 8.22631 12.052 8.13327 12.145C8.04023 12.2381 7.99097 12.3585 7.99097 12.5063V13.5079C7.99097 13.6556 8.04023 13.776 8.13327 13.8691C8.22631 13.9621 8.34672 14.0114 8.4945 14.0114H13.497C13.6448 14.0114 13.7652 13.9621 13.8582 13.8691C13.9513 13.776 14.0005 13.6556 14.0005 13.5079V6.50216C14.0005 6.35438 13.9513 6.23945 13.8582 6.14093C13.7652 6.04789 13.6448 5.99863 13.5025 5.99863Z" fill="#A98267"/>
        </g>
    </symbol>
    <symbol id="circles" viewBox="0 0 24 24">
        <g>
            <path d="M5.50046 17.0385C4.87652 17.0385 4.34562 17.2487 3.90776 17.669C3.4699 18.0893 3.25098 18.5989 3.25098 19.1979C3.25098 19.7968 3.4699 20.3065 3.90776 20.7268C4.34562 21.1471 4.87652 21.3573 5.50046 21.3573C6.11346 21.3573 6.64436 21.1471 7.08769 20.7268C7.53102 20.3065 7.74995 19.7968 7.74995 19.1979C7.74995 18.5989 7.53102 18.0893 7.08769 17.669C6.64436 17.2487 6.11346 17.0385 5.50046 17.0385Z" fill="#A98267"/>
            <path d="M5.00251 12.4781C5.00251 11.8161 4.75621 11.254 4.2691 10.7811C3.78198 10.3135 3.19088 10.0771 2.50125 10.0771C1.81163 10.0771 1.226 10.3135 0.733409 10.7811C0.246294 11.254 0 11.8214 0 12.4781C0 13.1401 0.246294 13.7023 0.733409 14.1752C1.22052 14.6428 1.81163 14.8792 2.50125 14.8792C3.19088 14.8792 3.77651 14.6428 4.2691 14.1752C4.75621 13.7076 5.00251 13.1401 5.00251 12.4781Z" fill="#A98267"/>
            <path d="M19.5011 6.96146C19.8459 6.96146 20.1414 6.84588 20.3822 6.60945C20.6285 6.37302 20.749 6.08931 20.749 5.76357C20.749 5.43257 20.6285 5.14886 20.3822 4.91769C20.136 4.68126 19.8404 4.56567 19.5011 4.56567C19.1563 4.56567 18.8607 4.68126 18.6199 4.91769C18.3736 5.15411 18.2532 5.43257 18.2532 5.76357C18.2532 6.09457 18.3736 6.37828 18.6199 6.60945C18.8607 6.84062 19.1563 6.96146 19.5011 6.96146Z" fill="#A98267"/>
            <path d="M5.50048 3.12085C4.7397 3.12085 4.09386 3.37829 3.55749 3.89318C3.02112 4.40806 2.75293 5.03328 2.75293 5.75832C2.75293 6.48862 3.02112 7.10859 3.55749 7.62347C4.09386 8.13836 4.74517 8.3958 5.50048 8.3958C6.25578 8.3958 6.90709 8.13836 7.44346 7.62347C7.97984 7.10859 8.24802 6.48337 8.24802 5.75832C8.24802 5.02803 7.97984 4.40806 7.44346 3.89318C6.90709 3.37829 6.26125 3.12085 5.50048 3.12085Z" fill="#A98267"/>
            <path d="M23.5622 11.4588C23.2721 11.1804 22.9164 11.0385 22.5004 11.0385C22.0844 11.0385 21.7287 11.1804 21.4386 11.4588C21.1485 11.7373 21.0007 12.0788 21.0007 12.4781C21.0007 12.8774 21.1485 13.2189 21.4386 13.4974C21.7287 13.7758 22.0844 13.9177 22.5004 13.9177C22.9164 13.9177 23.2721 13.7758 23.5622 13.4974C23.8523 13.2189 24 12.8774 24 12.4781C24 12.0788 23.8577 11.7426 23.5622 11.4588Z" fill="#A98267"/>
            <path d="M19.5009 17.5219C19.0193 17.5219 18.6088 17.6848 18.264 18.0158C17.9192 18.3468 17.7495 18.7408 17.7495 19.2032C17.7495 19.6655 17.9192 20.0595 18.264 20.3905C18.6088 20.7215 19.0193 20.8844 19.5009 20.8844C19.9826 20.8844 20.3931 20.7215 20.7379 20.3905C21.0827 20.0595 21.2524 19.6655 21.2524 19.2032C21.2524 18.7408 21.0827 18.3468 20.7379 18.0158C20.3931 17.6848 19.9826 17.5219 19.5009 17.5219Z" fill="#A98267"/>
            <path d="M12.5009 20.1594C11.9481 20.1594 11.4774 20.3485 11.0888 20.7215C10.7002 21.0946 10.5032 21.5464 10.5032 22.0771C10.5032 22.6077 10.7002 23.0595 11.0888 23.4326C11.4774 23.8056 11.9536 23.9947 12.5009 23.9947C13.0537 23.9947 13.5244 23.8056 13.913 23.4326C14.3016 23.0595 14.4986 22.6077 14.4986 22.0771C14.4986 21.5464 14.3016 21.0946 13.913 20.7215C13.5244 20.3485 13.0537 20.1594 12.5009 20.1594Z" fill="#A98267"/>
            <path d="M12.5008 0C11.6689 0 10.9573 0.278459 10.3772 0.840631C9.79154 1.4028 9.50146 2.08056 9.50146 2.87916C9.50146 3.67776 9.79154 4.36077 10.3772 4.91769C10.9628 5.47986 11.6689 5.75832 12.5008 5.75832C13.3327 5.75832 14.0442 5.47986 14.6244 4.91769C15.21 4.35552 15.5001 3.67776 15.5001 2.87916C15.5001 2.08056 15.21 1.39755 14.6244 0.840631C14.0442 0.278459 13.3327 0 12.5008 0Z" fill="#A98267"/>
        </g>
    </symbol>
    <symbol id="key" viewBox="0 0 24 24">
        <g>
            <path d="M20.8832 16.7974C21.088 17.0297 21.2728 17.2304 21.4327 17.3993C21.5925 17.5683 21.7673 17.7373 21.9521 17.8957C22.1369 18.0541 22.2718 18.1386 22.3567 18.1386C22.5165 18.1386 22.8312 17.8904 23.2957 17.3993C23.7602 16.9083 23.995 16.5756 23.995 16.4066C23.995 16.3274 23.8601 16.1215 23.5904 15.7888C23.3207 15.4561 22.9711 15.0653 22.5515 14.6112C22.127 14.1571 21.7174 13.7294 21.3178 13.3175C20.9182 12.9056 20.5286 12.5043 20.149 12.1188C19.7694 11.7333 19.5496 11.5063 19.4947 11.4482C19.3998 11.3479 19.2899 11.295 19.165 11.295C19.0052 11.295 18.6905 11.5432 18.226 12.0343C17.7615 12.5254 17.5267 12.8581 17.5267 13.0271C17.5267 13.1168 17.6017 13.2594 17.7565 13.4548C17.9063 13.6502 18.0662 13.835 18.226 14.004C18.3858 14.1729 18.5756 14.3683 18.7954 14.5848C19.0152 14.8013 19.1351 14.9228 19.165 14.9545L17.7965 16.4013L12.7367 11.0521C13.9804 9.28317 14.6048 7.45083 14.6048 5.54984C14.6048 3.91287 14.1153 2.5769 13.1413 1.54719C12.1673 0.517492 10.9036 0 9.35526 0C7.83184 0 6.34839 0.475248 4.88991 1.43102C3.43642 2.3868 2.25765 3.633 1.35359 5.16964C0.449532 6.70627 0 8.27987 0 9.89043C0 11.5274 0.48949 12.8634 1.46348 13.8931C2.43746 14.9228 3.70114 15.4403 5.24953 15.4403C7.04766 15.4403 8.78085 14.7802 10.4541 13.4653L20.0241 23.5828C20.2889 23.8627 20.6135 24.0053 20.9931 24.0053C21.3927 24.0053 21.7773 23.8099 22.1469 23.4191C22.5165 23.0284 22.7014 22.6218 22.7014 22.1993C22.7014 21.798 22.5665 21.4548 22.3018 21.1749L19.165 17.8482L20.5336 16.4013C20.5636 16.433 20.6785 16.565 20.8832 16.7974ZM11.0685 7.84158C10.534 8.4066 9.8897 8.68647 9.13049 8.68647C8.73091 8.68647 8.33632 8.59142 7.94672 8.40132C8.12654 8.8132 8.21644 9.23036 8.21644 9.65281C8.21644 10.4554 7.95172 11.1419 7.41727 11.7017C6.88283 12.2667 6.2385 12.5465 5.47929 12.5465C4.72008 12.5465 4.07076 12.2667 3.54131 11.7017C3.00687 11.1366 2.74214 10.4554 2.74214 9.65281C2.74214 8.85017 3.00687 8.1637 3.54131 7.60396C4.07575 7.03894 4.72008 6.75908 5.47929 6.75908C5.87888 6.75908 6.27346 6.85413 6.66306 7.04422C6.48325 6.63234 6.39334 6.21518 6.39334 5.79274C6.39334 4.9901 6.65806 4.30363 7.19251 3.74389C7.72695 3.18416 8.37128 2.89901 9.13049 2.89901C9.8897 2.89901 10.539 3.17888 11.0685 3.74389C11.5979 4.30891 11.8676 4.9901 11.8676 5.79274C11.8626 6.59538 11.5979 7.27657 11.0685 7.84158Z" fill="#A98267"/>
        </g>
    </symbol>
    <symbol id="tg" viewBox="0 0 24 21">
		<g>
			<path d="M23.6297 0.569368C23.3344 0.200953 22.8984 0 22.3922 0C22.1156 0 21.8297 0.0574152 21.5297 0.17703L1.21445 8.09076C0.136342 8.51181 -0.0089682 9.13859 0.000406631 9.4783C0.00978146 9.818 0.187903 10.4352 1.28945 10.7941C1.29413 10.7941 1.30351 10.7988 1.3082 10.7988L4.15814 11.6314L18.0329 4.39705C18.3798 4.21524 18.8016 4.35877 18.9798 4.70805C19.1204 4.98556 19.0641 5.31091 18.8673 5.52622L11.1518 13.8945L10.9315 14.8036L13.6877 17.0667L17.5032 20.2054C17.5079 20.2102 17.5079 20.2102 17.5126 20.2149C17.9345 20.5499 18.3938 20.7221 18.8391 20.7221C19.7157 20.7221 20.4141 20.0618 20.6157 19.0379L23.9437 2.26312C24.0797 1.59327 23.9672 0.990413 23.6297 0.569368Z" fill="#231F20"/>
			<path d="M9.83018 13.369C9.8583 13.2541 9.91455 13.1441 9.99893 13.0484L15.0613 7.55566L5.66776 12.4599L7.80053 18.6847C7.9224 19.0387 8.10521 19.3401 8.32552 19.5794L9.83018 13.369Z" fill="#231F20"/>
			<path d="M9.63824 20.1523C10.1445 20.1475 10.6414 19.9274 11.082 19.5207L12.6429 18.0519L10.5617 16.3438L9.63824 20.1523Z" fill="#231F20"/>
		</g>
	</symbol>
	<symbol id="vk" viewBox="0 0 32 18">
		<g>
			<g clip-path="url(#clip0)">
				<path d="M31.8308 16.2495C31.7899 16.169 31.7549 16.0999 31.7199 16.0424C31.1656 15.0587 30.1036 13.8449 28.5398 12.4125L28.5047 12.378L28.4872 12.3607L28.4697 12.3435H28.4522C27.7403 11.6762 27.291 11.2274 27.1043 10.9973C26.76 10.5601 26.6842 10.1172 26.8709 9.66848C27.0051 9.32907 27.5069 8.60999 28.3705 7.51699C28.8257 6.93598 29.1875 6.47002 29.4559 6.1191C31.3756 3.59945 32.2101 1.98871 31.9533 1.29264L31.8541 1.13157C31.7899 1.03377 31.6149 0.941732 31.3406 0.861195C31.0605 0.780658 30.7046 0.7634 30.2728 0.820927L25.4763 0.855442C25.4004 0.826679 25.2896 0.832432 25.1437 0.861195C24.9978 0.895711 24.9278 0.912969 24.9278 0.912969L24.8461 0.953237L24.7819 1.00501C24.7236 1.03953 24.6652 1.09705 24.601 1.17759C24.5368 1.25813 24.4785 1.35592 24.4376 1.46522C23.9125 2.78833 23.3231 4.01939 22.6521 5.15841C22.2436 5.83722 21.8643 6.42399 21.5201 6.92447C21.1758 7.42495 20.8899 7.78737 20.6565 8.02323C20.423 8.25908 20.213 8.44892 20.0204 8.58698C19.8337 8.7308 19.6878 8.78833 19.5886 8.76532C19.4894 8.74231 19.3961 8.7193 19.3027 8.70204C19.1451 8.60424 19.0226 8.47193 18.9292 8.29935C18.8359 8.12677 18.7717 7.91393 18.7367 7.66081C18.7017 7.40194 18.6842 7.18334 18.6783 6.9935C18.6725 6.80942 18.6783 6.5448 18.6842 6.20539C18.6958 5.86599 18.7017 5.63588 18.7017 5.51508C18.7017 5.10089 18.7075 4.64643 18.725 4.15746C18.7425 3.66848 18.7542 3.28305 18.7659 3.00118C18.7775 2.7193 18.7834 2.41441 18.7834 2.09801C18.7834 1.78162 18.7659 1.53425 18.725 1.35017C18.6842 1.17184 18.6258 0.993506 18.55 0.826679C18.4741 0.659853 18.3574 0.527542 18.2057 0.429747C18.054 0.337705 17.8672 0.262921 17.6455 0.205394C17.0562 0.0730839 16.3093 0.00405223 15.399 -0.00745304C13.3333 -0.0304636 12.0088 0.101847 11.4194 0.389479C11.186 0.510284 10.9759 0.671358 10.7892 0.884205C10.5908 1.12582 10.5616 1.25813 10.7075 1.28114C11.3727 1.37893 11.8454 1.61479 12.1255 1.98871L12.2247 2.1843C12.3005 2.32812 12.3822 2.58123 12.4581 2.9379C12.5339 3.30031 12.5864 3.69724 12.6098 4.13445C12.6623 4.93406 12.6623 5.61862 12.6098 6.18814C12.5514 6.75765 12.4989 7.2006 12.4522 7.51699C12.3997 7.83339 12.3297 8.09226 12.2247 8.28785C12.1255 8.48344 12.0554 8.60424 12.0263 8.65026C11.9912 8.69628 11.9679 8.7193 11.9446 8.7308C11.7987 8.78257 11.6528 8.81134 11.4953 8.81134C11.3377 8.81134 11.151 8.73655 10.9292 8.58123C10.7075 8.42591 10.4741 8.21882 10.2407 7.94844C10.0015 7.67807 9.73304 7.30415 9.42961 6.82093C9.13202 6.3377 8.81692 5.76819 8.49599 5.11239L8.22757 4.63492C8.05835 4.33003 7.83078 3.88133 7.54486 3.29456C7.2531 2.70779 7.00219 2.14403 6.78045 1.59178C6.69292 1.36167 6.55872 1.1891 6.37783 1.06829L6.29613 1.01652C6.24362 0.970495 6.15026 0.924474 6.02772 0.878453C5.90518 0.826679 5.7768 0.792163 5.6426 0.769153L1.0795 0.803669C0.612691 0.803669 0.297593 0.907216 0.128373 1.11431L0.0641867 1.21211C0.0175055 1.28689 0 1.37318 0 1.49398C0 1.61479 0.0350109 1.76436 0.0991977 1.93694C0.764405 3.4844 1.4938 4.96858 2.27571 6.40674C3.05762 7.84489 3.74034 8.99542 4.31802 9.86982C4.8957 10.7442 5.48505 11.5726 6.08607 12.3492C6.68709 13.1258 7.08388 13.6263 7.27644 13.8449C7.469 14.0635 7.62655 14.2303 7.73742 14.3396L8.15171 14.7366C8.42013 15.0012 8.81109 15.3118 9.32458 15.68C9.84391 16.0482 10.4158 16.4106 11.0401 16.7672C11.6703 17.1239 12.3997 17.4115 13.2283 17.6359C14.0627 17.8602 14.8738 17.9523 15.6616 17.9063H17.5755C17.9664 17.8717 18.2582 17.7509 18.4566 17.5438L18.5208 17.4633C18.5675 17.4 18.6083 17.2965 18.6433 17.1584C18.6842 17.0203 18.7017 16.8708 18.7017 16.704C18.69 16.2322 18.725 15.8065 18.8125 15.4326C18.8942 15.0529 18.9876 14.7711 19.0985 14.5812C19.2035 14.3914 19.326 14.2303 19.4544 14.098C19.5886 13.9657 19.682 13.8852 19.7403 13.8622C19.7929 13.8334 19.8395 13.8161 19.8745 13.8046C20.143 13.7183 20.4522 13.8046 20.814 14.0577C21.1758 14.3166 21.5142 14.633 21.8293 15.0127C22.1444 15.3924 22.5237 15.8123 22.973 16.284C23.4165 16.7557 23.8074 17.1066 24.14 17.3367L24.4726 17.5323C24.6944 17.6646 24.9861 17.7854 25.3421 17.8947C25.698 18.004 26.0073 18.0328 26.2757 17.9753L30.5412 17.912C30.9613 17.912 31.2939 17.843 31.5215 17.7049C31.7549 17.5668 31.895 17.4173 31.9358 17.2505C31.9825 17.0836 31.9825 16.8995 31.9416 16.6924C31.9066 16.4796 31.8658 16.3358 31.8308 16.2495Z" fill="#231F20"/>
			</g>
			<defs>
				<clipPath id="clip0">
				<rect width="32" height="18" fill="white"/>
				</clipPath>
			</defs>
		</g>
	</symbol>
	<symbol id="yt" viewBox="0 0 24 29">
		<g>
			<g clip-path="url(#clip0)">
				<path d="M23.5802 14.9876C23.4384 14.3528 23.1321 13.8143 22.65 13.3835C22.1678 12.9527 21.6176 12.6976 20.9879 12.6239C19.0026 12.4085 16.0076 12.3008 11.9972 12.3008C7.99244 12.3008 5.00307 12.4085 3.0234 12.6239C2.38809 12.6976 1.83219 12.9527 1.35571 13.3835C0.879225 13.8143 0.567242 14.3471 0.414086 14.9876C0.14181 16.2404 0 18.128 0 20.6505C0 23.2183 0.14181 25.1059 0.419759 26.3133C0.561569 26.9482 0.873552 27.4867 1.35004 27.9175C1.83219 28.3483 2.38242 28.5977 3.01205 28.66C4.9974 28.8868 7.99244 29.0002 12.0028 29.0002C16.0076 29.0002 19.0026 28.8868 20.9936 28.66C21.6176 28.5977 22.1678 28.3483 22.6443 27.9175C23.1208 27.4867 23.4328 26.9538 23.5859 26.3133C23.8639 25.0606 24.0057 23.1729 24.0057 20.6505C24 18.0826 23.8639 16.195 23.5802 14.9876ZM6.85228 16.6202H5.11652V25.8258H3.49988V16.6202H1.79816V15.101H6.85228V16.6202ZM11.2257 25.8315H9.78492V24.9585C9.20066 25.6161 8.65044 25.9448 8.13425 25.9448C7.63507 25.9448 7.32309 25.7464 7.19263 25.344C7.10754 25.0832 7.06216 24.6921 7.06216 24.1649V17.8332H8.50295V23.7228C8.50295 24.0686 8.50863 24.2556 8.51997 24.2896C8.55401 24.5164 8.66745 24.6297 8.86032 24.6297C9.14961 24.6297 9.46159 24.403 9.78492 23.9495V17.8332H11.2257V25.8315ZM16.728 23.4337C16.728 24.2216 16.6769 24.7601 16.5805 25.0549C16.399 25.6501 16.0132 25.9448 15.429 25.9448C14.9128 25.9448 14.4079 25.6501 13.9201 25.0549V25.8315H12.4793V15.101H13.9201V18.6155C14.3853 18.0316 14.8844 17.7425 15.429 17.7425C16.0132 17.7425 16.3933 18.043 16.5805 18.6495C16.6769 18.9272 16.728 19.4658 16.728 20.2537V23.4337ZM22.2018 22.1073H19.3032V23.5131C19.3032 24.2556 19.5528 24.6297 20.0463 24.6297C20.4037 24.6297 20.6192 24.437 20.693 24.0459C20.7157 23.9382 20.727 23.6094 20.727 23.0596H22.2018V23.2693C22.2018 23.7965 22.1905 24.1082 22.1678 24.2103C22.1338 24.4994 22.0203 24.7941 21.8275 25.0832C21.4361 25.6557 20.8575 25.9392 20.0804 25.9392C19.3373 25.9392 18.753 25.6614 18.3333 25.1116C18.0213 24.7148 17.8624 24.0856 17.8624 23.2353V20.4351C17.8624 19.5848 18.0156 18.9556 18.3162 18.5588C18.736 18.0089 19.3146 17.7312 20.052 17.7312C20.7781 17.7312 21.351 18.0089 21.7707 18.5588C22.06 18.9556 22.2075 19.5848 22.2075 20.4351L22.2018 22.1073Z" fill="#231F20"/>
				<path d="M14.6575 19.0461C14.4079 19.0461 14.164 19.1652 13.9314 19.4033V24.2725C14.1696 24.5106 14.4136 24.6296 14.6575 24.6296C15.0772 24.6296 15.2871 24.2668 15.2871 23.5469V20.1345C15.2871 19.4089 15.0772 19.0461 14.6575 19.0461Z" fill="#231F20"/>
				<path d="M20.0351 19.0461C19.5472 19.0461 19.309 19.4146 19.309 20.1458V20.8884H20.7611V20.1458C20.7611 19.4146 20.5172 19.0461 20.0351 19.0461Z" fill="#231F20"/>
				<path d="M5.91067 6.45641V10.8438H7.52731V6.45641L9.48996 0H7.83929L6.73884 4.25704L5.58734 0H3.87427C4.17491 0.906959 4.5266 1.91595 4.92934 3.02697C5.43418 4.51779 5.76318 5.65715 5.91067 6.45641Z" fill="#231F20"/>
				<path d="M11.6624 10.9576C12.4055 10.9576 12.9784 10.6798 13.3812 10.13C13.6818 9.73316 13.835 9.09262 13.835 8.21967V5.38543C13.835 4.52382 13.6818 3.88894 13.3812 3.49215C12.9841 2.94231 12.4112 2.66455 11.6624 2.66455C10.9364 2.66455 10.3691 2.94231 9.96072 3.49215C9.66008 3.88894 9.50693 4.52382 9.50693 5.38543V8.21967C9.50693 9.08128 9.66008 9.72182 9.96072 10.13C10.3691 10.6798 10.9364 10.9576 11.6624 10.9576ZM10.9647 5.09633C10.9647 4.35376 11.1973 3.97964 11.6624 3.97964C12.1276 3.97964 12.3602 4.35376 12.3602 5.09633V8.49743C12.3602 9.25134 12.1276 9.63113 11.6624 9.63113C11.1973 9.63113 10.9647 9.25134 10.9647 8.49743V5.09633Z" fill="#231F20"/>
				<path d="M16.1154 10.9568C16.6543 10.9568 17.2102 10.6224 17.7831 9.95352V10.8435H19.2579V2.76587H17.7831V8.93319C17.4597 9.398 17.1534 9.63041 16.8585 9.63041C16.6656 9.63041 16.5522 9.51137 16.5181 9.2733C16.5068 9.25062 16.5011 9.06356 16.5011 8.70645V2.76587H15.0263V9.14292C15.0263 9.69276 15.0717 10.0952 15.1567 10.356C15.2986 10.7584 15.6162 10.9568 16.1154 10.9568Z" fill="#231F20"/>
			</g>
			<defs>
				<clipPath id="clip0">
				<rect width="24" height="29" fill="white"/>
				</clipPath>
			</defs>
		</g>
	</symbol>
	<symbol id="fb" viewBox="0 0 13 28">
		<g>
			<g clip-path="url(#clip0)">
				<path d="M8.64888 9.17662V6.76642C8.64888 6.4034 8.66667 6.1237 8.69631 5.92731C8.73187 5.73092 8.80894 5.53454 8.9275 5.33815C9.04606 5.14772 9.23575 5.01084 9.50251 4.93943C9.76927 4.86801 10.119 4.82635 10.5636 4.82635H12.9644V0H9.12312C6.90014 0 5.30552 0.529649 4.33333 1.58895C3.36115 2.64825 2.87506 4.20744 2.87506 6.27248V9.17662H0V14.003H2.87506V28.006H8.64888V14.003H12.4902L13 9.17662H8.64888Z" fill="#231F20"/>
			</g>
			<defs>
				<clipPath id="clip0">
				<rect width="13" height="28" fill="white"/>
				</clipPath>
			</defs>
		</g>
	</symbol>
	<symbol id="ig" viewBox="0 0 25 25">
		<g>
			<g clip-path="url(#clip0)">
				<path d="M18.0958 0H6.9042C3.08989 0 0 3.08989 0 6.9042V18.1106C0 21.9101 3.08989 25.0148 6.9042 25.0148H18.1106C21.9101 25.0148 25.0148 21.9249 25.0148 18.1106V6.9042C25 3.08989 21.8953 0 18.0958 0ZM22.7824 18.0958C22.7824 20.683 20.683 22.7824 18.0958 22.7824H6.9042C4.31697 22.7824 2.21762 20.683 2.21762 18.0958V6.9042C2.21762 4.31697 4.31697 2.21762 6.9042 2.21762H18.1106C20.6978 2.21762 22.7972 4.31697 22.7972 6.9042L22.7824 18.0958Z" fill="#231F20"/>
				<path d="M12.4926 6.06152C8.94443 6.06152 6.06152 8.94443 6.06152 12.4926C6.06152 16.0408 8.94443 18.9385 12.5074 18.9385C16.0704 18.9385 18.9533 16.0556 18.9533 12.4926C18.9385 8.94443 16.0556 6.06152 12.4926 6.06152ZM12.4926 16.7209C10.1715 16.7209 8.26436 14.8285 8.26436 12.4926C8.27915 10.1715 10.1715 8.27915 12.4926 8.27915C14.8137 8.27915 16.7209 10.1715 16.7209 12.5074C16.7209 14.8285 14.8285 16.7209 12.4926 16.7209Z" fill="#231F20"/>
				<path d="M19.2047 4.18311C18.7759 4.18311 18.362 4.36052 18.0515 4.6562C17.7411 4.95188 17.5784 5.38062 17.5784 5.80936C17.5784 6.2381 17.7558 6.65206 18.0515 6.96252C18.3472 7.25821 18.7759 7.43562 19.2047 7.43562C19.6334 7.43562 20.0474 7.25821 20.3578 6.96252C20.6683 6.66684 20.8309 6.2381 20.8309 5.80936C20.8309 5.38062 20.6535 4.96667 20.3578 4.6562C20.0622 4.34573 19.6334 4.18311 19.2047 4.18311Z" fill="#231F20"/>
			</g>
			<defs>
				<clipPath id="clip0">
				<rect width="25" height="25" fill="white"/>
				</clipPath>
			</defs>
		</g>
	</symbol>
	<symbol id="cross" viewBox="0 0 15 15">
		<g>
			<path d="M6.49 14.7V8.52H0.25V6.36H6.49V0.179999H8.71V6.36H14.95V8.52H8.71V14.7H6.49Z" fill="#231F20"/>
		</g>
	</symbol>
	<symbol id="menu" viewBox="0 0 612 612">
		<g>
			<path d="M581.4,520.199H30.6c-16.891,0-30.6,13.709-30.6,30.6C0,567.691,13.709,581.4,30.6,581.4h550.8
				c16.891,0,30.6-13.709,30.6-30.602C612,533.908,598.291,520.199,581.4,520.199z M30.6,91.799h550.8
				c16.891,0,30.6-13.708,30.6-30.6c0-16.892-13.709-30.6-30.6-30.6H30.6C13.709,30.6,0,44.308,0,61.2
				C0,78.091,13.709,91.799,30.6,91.799z M581.4,275.399H30.6C13.709,275.399,0,289.108,0,306s13.709,30.6,30.6,30.6h550.8
				c16.891,0,30.6-13.709,30.6-30.6S598.291,275.399,581.4,275.399z"/>
		</g>
	</symbol>
</svg>