<svg width="581" height="649" viewBox="0 0 581 649" fill="none" xmlns="http://www.w3.org/2000/svg">
<g clip-path="url(#clip0)">
<path d="M398.395 65.9102C398.395 65.9102 409.933 77.0311 414.744 79.8826C419.555 82.6933 431.948 116.504 413.235 132.594C413.235 132.594 403.899 146.648 392.199 143.634C380.539 140.619 356.077 69.5765 398.395 65.9102Z" fill="#A66230"/>
<path d="M421.674 245.717C390.038 271.299 328.721 246.125 328.721 246.125L329.332 231.826L329.414 229.83C328.925 229.749 328.395 229.667 327.865 229.545C310.864 226.164 283.263 205.552 275.11 197.975C266.67 190.195 234.422 151.537 226.227 138.99C218.074 126.443 196.833 99.2727 203.927 70.3097C211.021 41.3467 270.992 39.2691 319.018 40.0839C367.044 40.8986 374.831 105.75 374.831 105.75C374.831 105.75 388.611 91.8996 399.129 109.09C409.647 126.24 389.711 133.002 389.711 133.002C415.763 189.421 421.674 245.717 421.674 245.717Z" fill="#FFC193"/>
<path d="M326.368 100.034C326.368 100.034 317.015 93.8447 298.759 97.8138C280.502 101.783 270.986 108.139 275.029 111.831C279.073 115.522 294.96 115.411 305.988 112.802C317.056 110.165 329.758 106.64 326.368 100.034Z" fill="#231F20"/>
<path d="M233.977 132.397C233.977 132.397 245.576 121.757 248.339 127.661C251.102 133.566 250.76 142.013 240.63 150.343C230.51 158.632 230.183 149.364 229.443 146.098C228.72 142.881 231.066 134.772 233.977 132.397Z" fill="#231F20"/>
<path d="M236.175 98.9876C236.175 98.9876 232.832 111.249 225.005 119.681C217.177 128.114 199.116 123.714 196.792 118.663C194.468 113.612 175.266 116.015 172.045 98.5802C168.825 81.1454 172.739 58.7815 197.648 60.8183C197.648 60.8183 195.936 37.7619 216.932 26.2745C237.928 14.787 254.766 18.0459 258.517 15.3166C262.267 12.6281 284.731 -6.1918 306.013 1.99606C327.294 10.2247 334.103 20.2456 334.103 20.2456C334.103 20.2456 340.259 13.1576 347.271 17.1905C354.283 21.2233 352.245 24.7265 352.245 24.7265C352.245 24.7265 363.945 14.4612 371.692 22.2824C379.438 30.1444 372.589 41.9577 379.152 45.5424C385.716 49.1272 403.94 43.3835 404.551 71.6133C404.551 71.6133 384.942 101.432 376.747 104.08C368.552 106.727 350.002 103.55 344.784 89.211C339.525 74.8314 342.501 73.8944 339.484 72.7131C336.426 71.5318 321.179 77.2348 314.126 71.0837C307.073 64.9326 301.202 66.725 301.202 66.725C301.202 66.725 288.156 85.3004 273.275 88.8444C258.354 92.4292 241.964 93.6512 236.175 98.9876Z" fill="#A66230"/>
<path d="M254.97 243.232C254.97 243.232 314.329 251.257 333.246 253.701C352.163 256.105 442.63 258.06 442.63 258.06C442.63 258.06 472.35 277.695 492.694 283.52C512.997 289.304 539.171 303.928 545.327 322.993C551.483 342.057 462.158 461.657 462.158 461.657L434.924 537.384L319.262 509.684L189.291 365.073L184.113 279.609L254.97 243.232Z" fill="#BF9C83"/>
<path d="M448.786 248.161C448.052 250.687 446.462 258.59 441.162 267.144C440.428 268.326 439.613 269.507 438.757 270.688C434.517 276.391 428.524 282.094 419.84 286.453C419.024 286.86 418.168 287.268 417.312 287.675C412.379 289.875 406.631 291.667 399.944 292.767C399.17 292.889 398.395 293.011 397.58 293.134C391.668 293.989 385.023 294.315 377.644 294.03C376.788 293.989 375.972 293.948 375.157 293.908C374.382 293.867 373.567 293.826 372.792 293.785C365.046 293.256 358.36 292.237 352.571 290.893C351.715 290.689 350.899 290.486 350.084 290.282C342.419 288.245 336.467 285.597 331.819 282.746C330.759 282.094 329.781 281.402 328.843 280.75C315.634 271.055 315.552 259.73 315.552 259.812C315.552 259.975 309.641 236.918 314.615 233.904C316.409 232.804 318.243 232.112 320.119 231.826C320.893 231.704 321.627 231.623 322.442 231.623C328.721 231.501 335.774 234.719 345.232 237.855C346.007 238.1 346.782 238.344 347.556 238.589C353.59 240.462 360.602 242.214 368.96 243.029C369.898 243.11 370.795 243.192 371.773 243.273C372.548 243.314 373.363 243.355 374.138 243.395C381.15 243.721 388.651 243.436 396.153 242.662C396.927 242.581 397.743 242.499 398.517 242.418C406.019 241.521 413.52 240.177 420.574 238.466C421.348 238.263 422.123 238.1 422.897 237.896C425.629 237.204 428.279 236.43 430.847 235.656C434.231 234.596 437.085 234.108 439.409 234.108C440.265 234.108 441.04 234.148 441.773 234.271C449.846 235.33 450.213 243.273 448.786 248.161Z" fill="#A98267"/>
<path d="M196.547 312.85C196.711 320.06 197.771 341.894 204.864 350.856C213.385 361.692 249.303 370.735 256.641 372.324C263.979 373.953 207.759 476.607 195.202 484.795C182.645 492.942 149.582 467.645 130.135 428.091C110.688 388.577 128.83 299.692 128.789 298.429C128.749 297.166 124.916 158.584 167.438 149.296C167.438 149.296 206.944 142.697 216.198 159.928C225.453 177.159 238.988 200.745 241.883 204.819C249.547 215.654 268.668 272.766 255.5 295.496C243.024 317.045 205.924 312.605 197.607 310.772C197.159 310.691 196.751 310.568 196.507 310.487C196.547 310.487 196.547 311.342 196.547 312.85Z" fill="#FFD0AE"/>
<path d="M174.603 208.773C171.293 210.399 162.235 217.899 165.545 220.904C168.855 223.909 174.061 220.678 178.966 217.448C183.871 214.217 188.475 211.258 187.452 209.857C186.429 208.457 184.353 204.006 174.603 208.773Z" fill="#231F20"/>
<path d="M220.055 179.703C220.055 179.703 209.607 182.087 211.503 185.649C213.399 189.211 218.199 191.825 228.648 189.125C236.554 187.085 234.779 185.305 234.779 185.305C234.779 185.305 234.295 177.52 220.055 179.703Z" fill="#231F20"/>
<path d="M182.564 257.042C182.564 257.042 191.696 251.135 194.631 254.027C197.567 256.92 191.533 267.063 183.012 269.059C174.532 271.055 173.431 265.107 182.564 257.042Z" fill="#FF939C"/>
<path d="M242.413 224.005C242.413 224.005 232.75 230.278 237.928 232.478C243.147 234.678 250.363 231.623 254.113 228.364C257.864 225.105 256.233 215.817 242.413 224.005Z" fill="#FF939C"/>
<path d="M243.188 368.861C243.188 368.861 296.88 383.037 305.523 385.278C314.166 387.518 326.438 394.769 328.069 427.276C329.699 459.742 333.654 508.869 333.654 508.869C333.654 508.869 319.507 605.494 318.203 605.535C316.898 605.576 259.821 628.754 206.291 617.837C152.762 606.961 157.532 509.318 157.042 508.055C156.553 506.792 173.758 484.306 173.758 484.306C173.758 484.306 222.151 449.803 243.188 368.861Z" fill="#231F20"/>
<path d="M285.22 432.572C283.345 435.627 281.47 438.519 280.206 441.941C278.86 445.566 277.923 449.355 276.904 453.102C275.844 456.931 274.743 460.72 273.968 464.59C273.601 466.423 273.234 468.297 272.786 470.13C272.623 470.904 272.623 471.718 272.46 472.492C272.256 473.389 272.093 474.244 272.093 475.14C272.093 476.647 274.457 476.444 274.457 474.937C274.457 474.122 274.661 473.348 274.865 472.533C275.069 471.718 275.028 470.904 275.232 470.089C275.64 468.256 276.007 466.382 276.414 464.549C277.189 460.801 278.249 457.135 279.268 453.428C280.287 449.762 281.184 446.055 282.53 442.47C283.753 439.211 285.587 436.441 287.381 433.508C288.197 432.286 286.036 431.309 285.22 432.572Z" fill="white"/>
<path d="M288.89 445.485C285.669 450.21 283.141 455.424 280.899 460.679C279.757 463.327 278.86 466.015 277.882 468.704C276.985 471.107 275.558 473.307 275.558 475.914C275.558 477.421 277.923 477.218 277.923 475.711C277.923 473.348 279.553 471.148 280.287 468.989C281.143 466.382 282.163 463.816 283.223 461.29C285.343 456.361 287.666 451.391 290.724 446.992C291.54 445.729 289.746 444.222 288.89 445.485Z" fill="white"/>
<path d="M154.433 284.62C166.052 311.79 172.657 328.37 167.52 352.526C162.424 376.682 170.7 385.848 186.355 415.218C202.011 444.629 184.725 527.16 184.725 527.16C175.022 556.856 201.032 574.046 213.712 592.418C224.76 608.427 220.968 644.723 175.959 648.389C175.144 648.47 174.288 648.511 173.432 648.552C167.398 648.878 160.671 648.633 153.169 647.696C134.293 645.375 120.147 642.075 109.424 637.961C108.609 637.635 107.794 637.35 107.019 637.024C35.8361 606.92 75.0967 578.12 33.4715 541.702C12.3123 523.208 0.611612 480.517 21.3631 451.31C42.5222 421.492 25.0731 396.317 22.6269 382.711C14.0246 335.01 43.9899 328.125 50.1053 287.186C54.1822 260.056 53.5299 261.156 56.7099 222.131C58.7891 196.305 84.4328 157.036 101.637 147.056C102.371 146.608 103.105 146.2 103.798 145.834C111.544 141.475 116.967 139.153 116.967 139.153C134.62 120.17 152.762 114.426 165.523 113.123C167.153 112.96 168.662 112.878 170.129 112.838C177.957 112.593 182.849 113.978 182.849 113.978C188.149 113.571 192.715 114.019 196.589 114.997C197.363 115.2 198.138 115.404 198.831 115.648C216.158 121.392 218.645 138.827 218.645 138.827C233.077 162.046 205.639 173.656 181.586 187.71C179.384 189.013 177.182 190.317 175.062 191.661C172.412 193.331 169.885 195.042 167.52 196.835C142.488 215.736 140.735 252.52 154.433 284.62Z" fill="#FF939C"/>
<path d="M87.3273 205.674C79.7034 218.506 78.6842 234.352 81.6604 248.773C84.6773 263.478 91.7303 277.125 89.8957 292.523C88.3873 305.151 82.8834 316.679 77.6242 328.085C72.2427 339.817 66.6573 352.241 66.8204 365.399C66.9427 373.016 68.4512 380.512 71.2235 387.64C73.9958 394.728 77.9096 401.165 81.2119 408.008C87.9796 421.98 87.2049 437.541 86.145 452.654C85.8596 456.728 85.4926 460.801 84.9219 464.834C84.3919 468.704 83.3727 472.452 82.965 476.363C82.1088 484.387 81.4157 492.738 81.9865 500.804C82.5573 508.992 84.6365 516.732 87.898 524.227C91.078 531.519 95.5626 537.751 100.333 544.024C104.817 549.89 109.546 555.96 112.033 563.007C114.52 570.014 116.396 577.02 116.966 584.516C117.537 591.726 117.374 599.18 116.11 606.309C114.765 613.845 112.033 621.055 110.525 628.551C109.913 631.647 109.424 634.824 109.424 638.001C108.609 637.676 107.793 637.39 107.019 637.065C107.141 632.543 108.16 627.94 109.261 623.703C111.177 616.371 113.542 609.201 114.357 601.625C115.988 586.43 114.276 569.362 105.999 556.123C101.923 549.564 96.7857 543.78 92.4642 537.425C88.2242 531.193 84.8811 524.349 82.598 517.18C80.2742 509.806 79.2957 502.026 79.4996 494.327C79.6627 486.628 79.948 478.766 81.2934 471.189C82.7203 463.286 83.6173 455.506 84.0657 447.481C84.5142 439.578 84.8811 431.553 83.6173 423.732C81.0896 408.293 70.4081 396.073 66.5758 381.041C63.2735 368.046 64.3335 355.296 68.8589 342.75C73.2211 330.692 79.7034 319.49 83.9027 307.35C86.0634 301.118 87.6942 294.519 87.8165 287.879C87.9388 279.935 85.9411 272.399 83.6173 264.863C79.2957 250.891 75.9934 236.43 78.7657 221.724C80.0704 214.799 82.7203 208.607 86.4303 202.619C90.1403 196.631 94.258 190.928 97.6011 184.695C101.23 177.974 103.594 171.253 103.268 163.554C103.105 159.276 102.86 154.958 102.33 150.722C102.167 149.5 101.882 148.278 101.556 147.096C102.29 146.648 103.023 146.241 103.716 145.874C103.88 146.322 104.002 146.811 104.124 147.3C104.736 149.663 104.899 152.148 105.103 154.592C105.469 159.276 106.203 164.368 105.633 169.053C103.88 182.903 94.258 194.024 87.3273 205.674Z" fill="white"/>
<path d="M138.819 146.933C136.087 154.714 135.639 162.861 136.739 170.967C137.84 179.278 140.082 187.425 140.857 195.775C141.55 203.474 141.876 211.703 139.715 219.198C137.555 226.694 133.519 233.211 129.279 239.648C120.269 253.335 112.319 269.344 112.563 286.046C112.686 295.293 114.439 304.336 116.436 313.338C118.352 321.852 120.187 330.407 122.185 338.92C124.142 347.231 126.017 355.704 126.017 364.299C126.017 372.772 125.039 381.611 123 389.881C121.94 394.158 120.391 398.272 119.331 402.55C118.312 406.664 117.7 410.86 117.17 415.055C115.988 424.139 115.417 433.264 115.499 442.389C115.58 450.943 116.233 458.928 119.698 466.83C122.878 474.122 127.281 480.762 131.399 487.565C139.43 500.804 148.236 514.247 150.234 529.93C151.294 538.403 152.272 547.039 151.172 555.593C150.071 564.311 148.644 572.661 149.133 581.501C149.622 590.422 151.579 598.895 155.371 607.002C158.999 614.782 162.75 622.644 166.949 630.139C170.252 636.046 173.758 641.994 176.122 648.348C175.307 648.43 174.451 648.47 173.595 648.511C170.985 641.994 167.438 635.965 164.055 629.773C160.141 622.644 156.512 615.19 153.129 607.776C149.622 600.117 147.421 592.174 146.891 583.742C146.361 575.391 147.054 567.447 148.277 559.219C150.764 542.436 148.848 524.023 140.979 508.869C137.188 501.537 132.826 494.368 128.504 487.361C124.549 480.966 120.432 474.611 117.496 467.645C114.357 460.19 113.297 452.817 113.216 444.752C113.093 436.156 113.419 427.52 114.398 418.966C114.928 414.322 115.499 409.678 116.436 405.075C117.252 401.083 118.556 397.295 119.698 393.384C120.962 389.025 121.655 384.626 122.389 380.186C123.122 375.745 123.897 371.183 123.816 366.661C123.612 357.455 122.185 348.697 120.065 339.735C118.067 331.221 116.232 322.708 114.316 314.153C110.729 298.063 107.997 281.442 113.664 265.474C116.273 258.06 120.065 251.217 123.856 244.373C127.811 237.285 133.152 230.849 135.924 223.15C138.941 214.88 139.43 206.733 138.778 197.975C138.125 189.584 135.965 181.477 134.782 173.167C132.785 159.195 134.701 145.304 143.466 133.857C147.38 128.765 152.069 124.325 156.961 120.211C159.855 117.807 162.668 115.282 165.685 113.082C167.316 112.919 168.825 112.838 170.292 112.797C168.702 113.734 167.153 114.793 165.685 115.934C154.922 124.162 143.425 133.939 138.819 146.933Z" fill="white"/>
<path d="M188.149 477.259C190.31 472.289 188.231 467.075 190.677 462.268C196.018 451.84 193.408 461.046 200.176 451.473C199.931 444.792 197.485 438.478 196.466 435.708C196.466 435.708 193.612 426.461 180.566 410.615C175.021 403.894 149.989 371.061 144.567 364.095C139.145 357.17 137.025 367.476 136.984 369.309C136.943 371.142 137.392 381.978 147.013 397.05C147.013 397.05 155.167 408.089 152.721 409.312C150.275 410.534 120.676 394.036 118.679 393.791C116.681 393.547 92.301 372.038 88.8764 373.749C85.4518 375.46 82.068 377.334 93.2387 390.695C104.409 404.016 126.262 418.559 126.262 418.559L87.4903 396.643C87.4903 396.643 72.528 385.033 70.9788 386.988C69.4296 388.944 61.6835 394.28 80.8857 408.415C99.4356 422.062 115.58 430.535 115.58 430.535L74.8926 413.874C74.8926 413.874 62.8658 407.682 61.235 410.126C59.6042 412.57 58.8296 416.359 67.9211 423.243C77.0126 430.127 105.633 444.1 105.633 444.1C105.633 444.1 69.9596 431.064 68.6957 433.264C66.0865 437.745 69.715 443.041 92.0972 453.428C113.379 463.286 152.925 477.096 165.645 479.499C167.275 479.784 183.257 480.273 188.149 477.259Z" fill="#FFC193"/>
<path d="M238.621 467.115C238.621 467.115 231.894 471.841 226.472 485.039C226.187 485.772 225.86 486.546 225.575 487.32C225.208 488.298 224.882 489.276 224.515 490.335C222.313 497.097 221.457 503.859 220.846 509.643C220.724 510.784 220.642 511.925 220.52 512.984C219.827 520.316 220.887 531.518 217.91 531.967C212.325 532.822 184.276 496.404 179.058 484.387C177.264 480.273 182.523 471.433 183.42 467.889C183.664 466.912 183.991 465.934 184.358 465.038C186.233 460.313 189.168 456.972 189.78 456.32C189.861 456.239 189.902 456.198 189.902 456.198C190.351 455.587 196.67 449.477 197.241 449.029C210.164 437.501 238.621 467.115 238.621 467.115Z" fill="#A98267"/>
<path d="M220.887 509.643C220.765 510.784 220.683 511.925 220.561 512.984C218.889 510.825 217.014 508.788 215.057 506.873C212.896 504.796 211.225 502.392 209.268 500.152C207.352 497.952 205.109 495.997 203.234 493.756C199.279 489.031 195.977 483.817 191.9 479.255C190.922 478.155 189.902 477.055 188.965 475.874C188.068 474.774 187.375 473.592 186.559 472.452C185.662 471.189 185.01 469.804 184.032 468.623C183.828 468.378 183.665 468.174 183.461 467.93C183.706 466.952 184.032 465.975 184.399 465.079C184.521 465.282 184.643 465.527 184.806 465.73C185.662 466.952 186.559 468.134 187.375 469.397C189.006 472.004 190.799 474.448 192.838 476.77C197.037 481.454 200.543 486.587 204.416 491.516C206.332 493.919 208.656 495.956 210.735 498.278C212.733 500.519 214.445 502.963 216.606 505.081C218.033 506.548 219.501 508.055 220.887 509.643Z" fill="white"/>
<path d="M226.472 485.039C226.187 485.772 225.861 486.546 225.575 487.32C223.781 485.976 222.028 484.55 220.316 483.084C218.278 481.332 216.198 479.54 213.997 477.951C212.121 476.607 210.368 475.14 208.738 473.552C202.582 467.726 197.241 460.598 189.78 456.361C189.862 456.28 189.902 456.239 189.902 456.239C190.351 455.628 190.881 455.058 191.411 454.569C198.872 459.009 204.172 466.097 210.45 471.922C212.244 473.592 214.16 475.059 216.117 476.566C218.278 478.195 220.316 479.988 222.354 481.739C223.7 482.921 225.086 483.98 226.472 485.039Z" fill="white"/>
<path d="M542.432 319.286C542.432 319.286 555.886 340.754 555.886 375.42C555.886 410.086 546.795 449.599 547.569 458.561C548.344 467.523 547.692 537.547 542.555 554.453C537.377 571.358 525.676 584.638 525.676 584.638C525.676 584.638 519.276 620.852 499.706 630.547C480.137 640.242 443.282 651.892 416.171 648.389C389.059 644.886 368.634 631.525 340.87 628.021C313.106 624.559 261.085 626.433 225.29 561.622C225.29 561.622 209.105 513.391 219.297 489.887C229.489 466.382 246.245 456.85 280.613 469.682C314.941 482.514 328.436 482.025 350.369 501.782C350.369 501.782 383.148 519.216 397.376 521.905C411.605 524.593 423.387 529.93 426.689 532.374C426.689 532.374 421.674 510.703 430.929 495.59C440.184 480.477 448.582 463.49 448.337 457.054C448.052 450.658 489.759 280.017 542.432 319.286Z" fill="#BF9C83"/>
<path d="M61.4799 555.349C61.6837 556.041 61.9283 556.774 62.2545 557.467C63.9668 561.174 68.9406 558.282 67.2691 554.615C66.1276 552.171 66.1276 549.483 64.6191 547.12C62.336 543.576 58.3814 542.68 54.753 542.435C52.4699 542.272 51.3284 544.92 52.3476 546.957L56.4653 555.186C57.7291 557.752 60.5014 557.141 61.4799 555.349Z" fill="#FFDDC4"/>
<path d="M45.7429 517.628L49.4936 515.754C50.8798 515.061 51.2467 513.024 50.4721 511.558C49.6159 510.01 47.8221 509.521 46.436 510.214L42.6852 512.087C41.2991 512.78 40.9321 514.817 41.7068 516.283C42.5629 517.831 44.3567 518.32 45.7429 517.628Z" fill="#FFDDC4"/>
<path d="M5.82996 544.106C5.25919 542.802 6.52303 541.295 7.0938 540.317C7.66457 539.258 8.19456 538.199 8.64302 537.099C11.5376 537.832 14.5545 539.014 16.7153 541.132C15.4922 541.05 14.2692 541.621 13.7799 543.128C12.1899 548.22 8.19456 551.52 10.763 557.426C11.4561 559.056 13.5353 559.422 14.7992 558.77C20.4661 555.837 26.4591 550.46 24.3391 542.721C22.3007 535.266 13.6984 531.722 7.37918 530.581C5.66688 530.255 4.40304 530.907 3.87304 532.659C2.28305 537.751 -1.71232 541.05 0.856132 546.957C2.44613 550.705 7.46072 547.813 5.82996 544.106Z" fill="#FFDDC4"/>
<path d="M442.222 155.447C442.222 155.447 446.829 152.759 449.438 155.203C452.047 157.647 436.677 172.638 436.677 172.638C436.677 172.638 433.171 156.547 435.943 152.107C438.716 147.667 442.833 152.188 442.222 155.447Z" fill="#FF939C"/>
<path d="M105.062 96.4212C105.062 96.4212 97.9272 79.353 101.719 78.6605C105.469 77.968 118.638 111.086 118.638 111.086C118.638 111.086 89.651 103.998 90.4257 95.6065C91.2003 87.1742 105.062 96.4212 105.062 96.4212Z" fill="#FF939C"/>
<path d="M66.6982 137.116L63.8036 137.238C62.5398 137.279 62.7029 139.275 63.9667 139.234L66.8613 139.112C68.1659 139.031 68.0028 137.075 66.6982 137.116Z" fill="#231F20"/>
<path d="M70.1635 133.613C69.1035 132.635 68.0027 132.024 66.4943 132.065C65.2305 132.065 65.3935 134.061 66.6574 134.061C67.5951 134.061 68.2066 134.55 68.8997 135.161C69.8373 136.016 71.1012 134.468 70.1635 133.613Z" fill="#231F20"/>
<path d="M214.69 80.4121C214.568 79.8826 214.119 78.9049 214.241 78.4161C214.608 76.9496 212.284 76.5423 211.918 78.0087C211.632 79.0679 212.366 80.2085 212.448 81.2676C212.611 82.897 211.795 84.3228 210.817 85.5448C209.064 87.6631 206.495 88.4371 203.886 88.8852C200.951 89.374 197.811 89.0888 195.732 86.6854C194.509 85.3004 192.348 82.4489 193.449 80.5344C194.224 79.2308 192.063 78.2532 191.288 79.5567C189.739 82.2045 191.9 85.667 193.531 87.7038C195.855 90.6775 199.442 91.7774 203.111 91.37C206.414 91.0034 209.594 90.0665 212.04 87.7038C213.344 86.441 214.282 84.8523 214.649 83.1007C214.853 82.286 214.853 81.3083 214.69 80.4121Z" fill="white"/>
<path d="M244.451 38.8618C243.921 37.3139 243.269 35.3178 241.801 34.3809C240.537 33.5662 239.029 35.3993 240.293 36.214C241.394 36.9065 241.801 38.5359 242.209 39.6765C242.902 41.5096 242.413 43.0983 241.638 44.7685C240.334 47.5385 237.969 49.7382 235.074 50.7566C231.772 51.8972 227.532 51.4898 224.271 50.3085C222.884 49.8197 221.335 49.2087 220.357 48.0681C219.093 46.683 219.419 44.8092 219.378 43.0983C219.338 41.5911 217.014 41.7948 217.014 43.302C217.054 45.3388 216.932 47.1719 218.074 48.9642C219.093 50.5937 220.928 51.4084 222.599 52.1824C226.554 53.934 231.691 54.3006 235.849 52.9971C239.559 51.8157 242.494 48.7606 244.044 45.2166C244.981 43.0576 245.226 41.0208 244.451 38.8618Z" fill="white"/>
<path d="M282.081 52.9563C281.673 51.6528 280.491 49.1679 278.82 49.4123C277.393 49.616 277.515 51.7343 278.779 51.775C278.86 51.8972 278.983 52.0194 279.064 52.1416C279.227 52.386 279.39 52.6712 279.513 52.9156C279.88 53.6081 280.083 54.4228 280.206 55.1968C280.491 57.0299 280.043 58.863 278.983 60.3702C277.23 62.8143 273.927 64.7289 270.992 65.3807C265.529 66.562 259.006 63.2624 258.68 57.2336C258.598 55.7263 256.274 55.93 256.315 57.4372C256.723 65.3399 265.447 69.4135 272.46 67.4175C276.292 66.3176 280.328 63.5883 281.959 59.8406C282.937 57.6817 282.774 55.1968 282.081 52.9563Z" fill="white"/>
<path d="M310.538 22.8934C309.193 22.2009 308.214 24.3599 309.56 25.0524C309.07 24.808 309.234 24.6043 309.234 25.1746C309.234 25.4598 309.193 25.7449 309.193 26.0301C309.111 26.6004 309.03 27.1299 308.744 27.6188C308.01 29.0445 306.91 30.1444 305.442 30.7147C302.507 31.896 298.919 32.0997 295.902 31.0406C292.844 29.9407 290.398 26.8448 289.991 23.6267C289.827 22.3639 290.235 21.1011 290.765 19.9605C291.173 19.0643 291.948 17.72 293.089 17.8015C294.597 17.9237 295.005 15.6018 293.497 15.4796C289.828 15.2351 287.626 19.7161 287.626 22.8934C287.626 27.3744 291.01 31.7738 295.168 33.2403C299.082 34.6253 304.219 34.2994 307.807 32.0997C309.478 31.0813 310.864 29.1667 311.313 27.2929C311.68 26.0301 312.047 23.6674 310.538 22.8934Z" fill="white"/>
<path d="M350.532 57.6817C350.165 58.2927 349.961 58.7408 349.472 59.2704C348.861 59.9221 348.045 60.2888 347.23 60.5332C345.354 61.1035 343.479 60.859 341.644 60.2073C338.383 59.0259 335.692 56.867 334.469 53.6081C333.858 52.0194 333.654 50.2678 333.817 48.5976C333.898 47.7829 334.143 47.0089 334.469 46.235C334.591 45.9905 334.714 45.6647 334.877 45.461C334.918 45.4202 335.121 45.2573 335.162 45.2166C335.978 44.5648 336.915 43.9538 337.812 43.4242C338.261 43.1798 338.709 42.9761 339.198 42.7724C339.28 42.7317 339.402 42.7317 339.484 42.691C340.299 43.7093 342.011 42.4058 341.277 41.143C339.851 38.6581 335.529 41.917 334.184 42.9354C331.044 45.2573 331.044 49.9826 331.982 53.4044C333.164 57.8446 336.793 60.8591 340.992 62.3663C343.357 63.2217 345.64 63.3032 348.045 62.6514C349.146 62.3663 350.043 61.8367 350.899 61.0627C351.307 60.7368 351.633 60.3295 351.959 59.9629C352.326 59.5148 352.448 59.0259 352.734 58.5371C353.467 57.3965 351.307 56.4189 350.532 57.6817Z" fill="white"/>
<path d="M383.148 58.6593C383.107 58.6593 383.066 58.6593 383.025 58.6593H382.862C381.354 58.7001 381.558 61.0627 383.066 61.022C388.692 60.8183 390.445 68.0693 388.855 72.3872C387.632 75.6461 384.615 77.7644 381.395 78.742C379.438 79.353 377.521 79.353 375.565 78.8235C374.056 78.4161 373.485 76.7867 372.018 76.3386C370.591 75.8905 369.612 78.0088 371.039 78.4976C371.732 78.742 372.262 79.5567 372.833 80.0455C373.567 80.7381 374.545 80.9825 375.524 81.2269C377.766 81.8379 380.008 81.5935 382.21 80.9417C386.124 79.8419 389.671 76.9904 391.098 73.1205C393.299 67.1731 390.323 58.6186 383.148 58.6593Z" fill="white"/>
<path d="M314.819 172.76C314.004 172.027 313.025 172.76 312.944 173.615C312.903 173.656 312.862 173.737 312.821 173.819C312.699 173.982 312.536 174.145 312.373 174.308C312.006 174.674 311.639 175.082 311.272 175.448C310.212 176.548 309.03 177.485 307.725 178.259C305.075 179.848 301.895 179.889 299 180.744C298.185 179.359 296.799 178.3 296.024 176.915C294.883 174.797 293.415 172.841 292.151 170.804C290.806 168.727 289.338 166.731 287.789 164.776C286.199 162.78 284.405 160.987 283.019 158.869C281.592 156.71 280.287 154.51 279.064 152.27C277.882 150.07 276.414 147.993 275.151 145.834C273.887 143.675 272.664 141.475 271.481 139.234C270.544 137.483 268.954 135.65 268.994 133.531C268.994 133.165 268.831 132.88 268.546 132.717C267.934 131.902 266.304 132.269 266.426 133.531C266.467 133.817 266.548 134.061 266.671 134.265C266.834 136.098 267.853 137.727 268.791 139.275C270.014 141.312 271.074 143.43 272.256 145.508C273.479 147.707 274.824 149.826 276.17 151.944C277.556 154.225 278.82 156.588 280.247 158.828C280.899 159.847 281.511 160.987 282.326 161.883C283.223 162.861 284.079 163.879 284.894 164.898C286.566 166.894 288.156 169.012 289.624 171.171C290.969 173.167 292.274 175.245 293.578 177.281C294.23 178.3 294.72 179.237 295.535 180.133C296.187 180.866 297.044 181.599 297.288 182.577C297.451 183.188 298.226 183.514 298.797 183.27C300.794 182.496 302.955 182.251 305.034 181.762C307.032 181.314 308.867 180.418 310.538 179.237C311.884 178.259 312.984 177.037 314.126 175.896C314.86 175.082 315.96 173.819 314.819 172.76Z" fill="#231F20"/>
<path d="M317.387 127.584C317.51 132.391 314.9 137.32 310.905 139.968C308.5 141.556 305.279 142.086 302.466 142.29C300.998 142.412 299.653 142.249 298.267 141.801C297.492 141.556 295.861 141.23 295.413 140.538C294.557 139.275 292.64 140.66 293.497 141.882C294.149 142.86 295.494 143.308 296.554 143.675C298.063 144.204 299.53 144.611 301.161 144.652C304.708 144.734 308.703 143.919 311.802 142.167C316.816 139.316 319.915 133.083 319.752 127.38C319.711 125.873 317.346 126.077 317.387 127.584Z" fill="#231F20"/>
<path d="M265.61 153.329C264.713 153.655 264.713 154.632 265.162 155.203C265.121 155.203 265.243 155.447 265.284 155.651C265.366 156.058 265.325 156.425 265.284 156.832C265.162 157.851 264.754 158.828 264.265 159.765C263.45 161.313 262.104 162.454 260.637 163.391C258.924 164.49 257.008 165.264 255.01 165.631C254.073 165.794 253.135 165.835 252.197 165.835C251.667 165.835 251.178 165.794 250.648 165.753C250.403 165.713 250.159 165.713 249.873 165.672C249.996 165.672 250.037 165.875 249.833 165.672C248.732 164.653 247.223 166.446 248.324 167.505C249.14 168.279 250.607 168.157 251.627 168.157C253.053 168.197 254.44 168.116 255.867 167.831C258.517 167.301 261.044 166.079 263.205 164.409C265.243 162.861 266.589 160.743 267.323 158.299C267.69 157.28 268.097 152.392 265.61 153.329Z" fill="#231F20"/>
<path d="M339.565 175.937C339.035 175.082 337.935 175.448 337.527 176.1C336.915 177.119 336.752 178.544 336.304 179.644C335.489 181.64 334.51 183.555 333.409 185.429C332.309 187.262 331.004 189.013 329.496 190.521C327.783 192.231 325.704 193.576 323.788 195.001C321.953 196.346 319.956 197.649 317.836 198.423C315.471 199.279 313.066 200.012 310.701 200.908C308.377 201.804 306.012 202.578 303.648 203.393C302.506 203.76 301.324 204.086 300.142 204.248C298.796 204.411 297.451 204.208 296.146 204.208C294.638 204.248 294.842 206.57 296.35 206.57C297.573 206.57 298.756 206.693 299.979 206.652C301.243 206.57 302.506 206.244 303.729 205.878C306.257 205.104 308.703 204.248 311.19 203.312C313.677 202.375 316.164 201.519 318.692 200.704C321.016 199.93 323.299 198.464 325.215 196.998C327.131 195.572 329.129 194.227 330.882 192.557C332.512 191.009 333.899 189.217 335.122 187.343C336.345 185.429 337.405 183.392 338.302 181.314C338.669 180.5 338.995 179.644 339.239 178.748C339.402 178.259 339.484 177.607 339.769 177.159H339.729C339.769 176.752 339.81 176.345 339.565 175.937Z" fill="#231F20"/>
<path d="M331.086 201.927C330.148 201.356 329.088 202.171 329.088 202.945C328.966 203.067 328.803 203.189 328.681 203.312C328.191 203.719 327.661 204.086 327.131 204.452C325.949 205.267 324.767 205.756 323.258 206.448C321.872 207.059 322.687 209.3 324.074 208.648C325.949 207.792 327.743 206.978 329.374 205.756C330.23 205.145 332.921 203.067 331.086 201.927Z" fill="#231F20"/>
<path d="M379.152 163.716C379.193 166.975 378.133 170.234 377.725 173.452C377.236 177.363 376.584 181.192 375.32 184.899C373.322 190.846 370.509 196.672 367.615 202.212C365.046 207.141 362.192 211.988 358.442 216.143C354.487 220.543 349.472 223.883 344.254 226.653C341.359 228.201 338.424 229.342 335.285 230.279C333.817 230.727 332.349 231.053 330.882 231.501C330.352 231.664 329.822 231.745 329.251 231.786L329.332 229.79C328.843 229.708 328.313 229.627 327.783 229.505C328.843 229.464 329.903 229.342 330.922 228.975C332.39 228.445 334.021 228.201 335.529 227.712C338.709 226.735 341.685 225.39 344.58 223.72C347.189 222.172 349.839 220.624 352.204 218.71C354.365 216.958 356.322 214.962 358.034 212.803C361.54 208.444 364.231 203.515 366.718 198.505C368.145 195.612 369.49 192.68 370.795 189.706C372.099 186.691 373.322 183.595 374.056 180.377C374.749 177.322 375.035 174.226 375.565 171.13C375.972 168.768 376.747 166.242 376.706 163.839C376.788 162.413 379.111 162.209 379.152 163.716Z" fill="#231F20"/>
<path d="M196.833 223.272C195.325 221.968 192.675 221.561 190.799 222.213C190.147 222.417 189.617 222.783 189.128 223.272C187.171 223.761 185.662 225.39 184.439 226.938C182.849 229.016 181.748 231.378 180.77 233.782C180.036 235.615 179.343 237.489 178.976 239.444C178.854 240.096 178.895 240.707 179.058 241.236C179.098 241.481 179.139 241.685 179.302 241.888C179.465 242.092 179.71 242.255 179.995 242.336C180.403 242.499 180.892 242.54 181.504 242.377C181.871 242.255 182.238 241.847 182.278 241.481C182.401 239.729 182.523 237.978 183.135 236.307C183.502 235.248 183.991 234.311 184.521 233.334C184.888 232.845 185.255 232.356 185.621 231.908C185.988 231.378 186.396 230.849 186.763 230.279C187.048 231.012 187.415 231.704 187.864 232.315C190.31 235.615 195.61 237 198.505 233.456C200.951 230.523 199.442 225.553 196.833 223.272ZM196.181 226.246C196.018 226.409 195.936 226.572 195.855 226.775C195.773 226.816 195.691 226.857 195.61 226.938C195.406 227.101 195.243 227.264 195.08 227.468C194.713 227.427 194.346 227.427 193.979 227.346C193.531 226.653 193.041 226.001 192.552 225.349C192.593 225.268 192.715 225.064 192.756 224.901C192.838 224.698 192.838 224.453 192.797 224.209C193.816 224.25 194.917 224.657 195.528 225.227C195.814 225.472 196.099 225.798 196.303 226.164C196.262 226.164 196.221 226.205 196.181 226.246Z" fill="#231F20"/>
<path d="M187.497 243.273C187.497 243.232 187.497 243.11 187.497 243.07C188.231 242.133 187.008 240.625 185.866 241.399C184.847 242.092 185.173 243.558 185.255 244.617C185.336 246.125 187.701 245.921 187.619 244.414C187.619 244.129 187.578 243.843 187.538 243.558C187.497 243.477 187.497 243.395 187.497 243.273Z" fill="#231F20"/>
<path d="M193.938 242.296C193.938 242.255 193.898 242.255 193.898 242.214C193.857 242.133 193.816 242.01 193.775 241.929C193.694 241.684 193.612 241.44 193.571 241.196C193.408 240.625 193.205 240.177 192.756 239.729C192.308 239.281 191.451 239.444 191.085 239.892C190.677 240.381 190.799 240.951 191.125 241.399C191.166 241.481 191.207 241.562 191.207 241.644C191.288 241.847 191.329 242.051 191.37 242.255C191.492 242.744 191.655 243.232 191.941 243.64C192.878 244.903 194.795 243.558 193.938 242.296Z" fill="#231F20"/>
<path d="M199.85 238.629C199.809 238.589 199.768 238.548 199.728 238.507C199.646 238.385 199.524 238.222 199.442 238.1C199.198 237.733 198.872 237.407 198.505 237.163C197.975 236.796 197.282 236.796 196.833 237.326C196.466 237.774 196.466 238.629 196.996 238.996C197.118 239.077 197.241 239.159 197.363 239.281C197.363 239.281 197.363 239.281 197.404 239.322C197.445 239.403 197.526 239.444 197.567 239.526C197.812 239.851 198.056 240.177 198.342 240.462C198.79 240.911 199.605 240.748 200.013 240.3C200.421 239.77 200.298 239.077 199.85 238.629Z" fill="#231F20"/>
<path d="M204.987 233.741C204.334 233.171 203.519 233.13 202.704 232.926C202.092 232.763 201.44 233.293 201.358 233.904C201.236 234.596 201.684 235.085 202.337 235.248C202.581 235.33 202.867 235.37 203.111 235.411C203.152 235.411 203.315 235.493 203.397 235.493C203.397 235.493 203.437 235.493 203.437 235.533C203.437 235.533 203.478 235.574 203.519 235.574C204.008 235.982 204.783 235.9 205.191 235.411C205.557 234.882 205.476 234.148 204.987 233.741Z" fill="#231F20"/>
<path d="M238.948 200.216C237.521 198.912 234.911 198.545 233.118 199.157C232.506 199.36 231.976 199.727 231.528 200.175C229.652 200.664 228.184 202.252 227.002 203.76C225.453 205.796 224.393 208.078 223.455 210.44C222.762 212.233 222.069 214.066 221.743 215.98C221.621 216.591 221.661 217.243 221.825 217.732C221.865 217.976 221.906 218.18 222.069 218.384C222.232 218.587 222.477 218.75 222.721 218.832C223.088 218.995 223.578 219.035 224.189 218.873C224.556 218.791 224.882 218.384 224.923 217.976C225.045 216.265 225.168 214.555 225.738 212.925C226.105 211.907 226.554 210.97 227.043 210.033C227.369 209.544 227.777 209.096 228.103 208.607C228.47 208.078 228.837 207.548 229.204 207.018C229.448 207.711 229.856 208.403 230.304 209.015C232.669 212.233 237.806 213.577 240.619 210.155C242.902 207.304 241.475 202.456 238.948 200.216ZM238.336 203.149C238.173 203.312 238.091 203.474 238.01 203.678C237.928 203.719 237.847 203.76 237.765 203.841C237.561 204.004 237.398 204.167 237.235 204.33C236.909 204.289 236.542 204.289 236.175 204.208C235.727 203.556 235.278 202.904 234.789 202.293C234.83 202.212 234.952 202.008 234.993 201.886C235.074 201.682 235.074 201.438 235.034 201.234C236.012 201.275 237.072 201.682 237.684 202.212C237.969 202.456 238.214 202.782 238.458 203.108C238.377 203.067 238.336 203.108 238.336 203.149Z" fill="#231F20"/>
<path d="M229.897 219.769C229.897 219.728 229.897 219.606 229.897 219.565C230.631 218.669 229.408 217.162 228.307 217.936C227.328 218.628 227.654 220.054 227.695 221.072C227.777 222.539 230.06 222.335 229.978 220.869C229.978 220.583 229.938 220.339 229.897 220.054C229.897 219.972 229.897 219.85 229.897 219.769Z" fill="#231F20"/>
<path d="M236.134 218.832C236.134 218.791 236.094 218.791 236.094 218.75C236.053 218.669 236.012 218.587 235.971 218.465C235.89 218.221 235.849 217.976 235.768 217.732C235.604 217.162 235.401 216.714 234.993 216.306C234.585 215.858 233.729 216.021 233.403 216.469C233.036 216.958 233.118 217.488 233.444 217.936C233.484 218.017 233.525 218.099 233.525 218.18C233.607 218.384 233.648 218.547 233.688 218.75C233.811 219.239 233.974 219.687 234.259 220.095C235.115 221.357 236.95 220.054 236.134 218.832Z" fill="#231F20"/>
<path d="M241.842 215.247C241.801 215.206 241.76 215.166 241.72 215.125C241.638 215.003 241.516 214.88 241.434 214.717C241.19 214.392 240.863 214.066 240.537 213.821C240.007 213.495 239.355 213.455 238.947 213.984C238.58 214.432 238.58 215.247 239.11 215.614C239.233 215.695 239.355 215.777 239.477 215.899C239.477 215.899 239.477 215.899 239.518 215.94C239.559 216.021 239.64 216.062 239.681 216.143C239.926 216.469 240.13 216.754 240.415 217.039C240.863 217.488 241.638 217.325 242.005 216.877C242.372 216.347 242.25 215.695 241.842 215.247Z" fill="#231F20"/>
<path d="M246.816 210.44C246.164 209.911 245.389 209.829 244.614 209.626C244.003 209.463 243.391 209.992 243.31 210.562C243.187 211.214 243.636 211.744 244.247 211.907C244.492 211.988 244.737 212.029 245.022 212.07C245.063 212.07 245.226 212.151 245.307 212.151C245.307 212.151 245.348 212.151 245.348 212.192C245.348 212.192 245.389 212.233 245.43 212.233C245.919 212.64 246.653 212.558 247.02 212.07C247.387 211.581 247.305 210.848 246.816 210.44Z" fill="#231F20"/>
<path d="M225.453 228.283C224.067 226.694 222.762 225.187 221.661 223.394C217.911 217.406 214.282 211.051 213.956 203.8C213.874 202.293 211.551 202.497 211.591 204.004C211.754 207.344 212.57 210.563 213.793 213.658C215.057 216.877 216.851 219.769 218.563 222.783C219.745 224.779 220.927 226.653 222.477 228.405C223.129 229.138 223.781 229.912 224.434 230.645C224.719 230.971 225.004 231.297 225.249 231.623C225.331 231.745 225.412 231.827 225.494 231.949C225.534 231.989 225.534 231.989 225.534 232.03C225.494 231.867 225.453 231.582 225.575 231.175C225.086 232.601 227.247 233.578 227.736 232.152C228.184 230.767 226.268 229.219 225.453 228.283Z" fill="#231F20"/>
<path d="M225.534 232.03C225.575 232.234 225.657 232.275 225.534 232.03V232.03Z" fill="#231F20"/>
<path d="M230.549 241.155C229.53 240.137 227.491 241.399 226.554 241.929C224.637 242.947 223.577 244.74 222.517 246.491C221.743 247.795 223.863 248.732 224.678 247.469C225.412 246.247 226.146 245.025 227.369 244.21C227.736 243.966 228.103 243.762 228.511 243.599C228.714 243.518 228.918 243.395 229.163 243.314C229.285 243.273 229.407 243.232 229.448 243.232C230.386 243.681 231.487 242.092 230.549 241.155Z" fill="#231F20"/>
<path d="M250.322 252.928C250.281 252.928 250.24 252.887 250.24 252.887C249.466 252.479 248.487 253.213 248.569 254.068C248.691 255.249 247.427 256.431 246.734 257.245C245.633 258.631 244.573 259.893 243.228 261.034C240.537 263.356 237.724 265.719 234.667 267.47C233.117 268.366 231.446 268.855 229.734 269.344C227.817 269.874 225.942 270.444 224.026 270.973C222.273 271.462 220.479 271.951 218.644 272.033C216.687 272.114 214.69 271.788 212.733 271.707C211.224 271.625 210.817 273.947 212.325 274.029C214.364 274.11 216.402 274.395 218.44 274.395C220.479 274.395 222.477 273.784 224.434 273.295C228.47 272.236 232.71 271.34 236.338 269.222C238.01 268.244 239.559 267.022 241.108 265.8C242.698 264.537 244.288 263.274 245.756 261.93C247.02 260.749 248.039 259.404 249.14 258.06C249.996 257.001 250.852 255.82 250.933 254.475C251.137 253.864 250.893 253.253 250.322 252.928Z" fill="#231F20"/>
<path d="M241.434 274.029C240.007 275.658 237.928 276.636 235.849 277.124C234.463 277.491 232.098 276.758 231.079 278.021C230.182 279.161 231.772 280.546 232.751 279.691C232.791 279.691 232.791 279.691 232.832 279.65C233.077 279.609 233.321 279.609 233.566 279.609C233.933 279.609 234.3 279.609 234.626 279.609C235.727 279.609 236.787 279.283 237.806 278.958C239.844 278.265 241.801 277.084 243.228 275.495C244.247 274.354 242.454 272.888 241.434 274.029Z" fill="#231F20"/>
<path d="M187.415 306.536C183.216 304.947 178.976 303.277 174.94 301.321C174.165 300.955 173.391 300.507 172.657 300.059H172.616C172.575 300.14 172.535 300.222 172.494 300.303C172.494 300.303 172.494 300.303 172.494 300.344V300.384C172.453 300.507 172.453 300.588 172.412 300.71C172.372 300.833 172.372 300.955 172.331 301.077C172.331 301.362 172.331 301.607 172.372 301.892C172.372 301.973 172.372 302.014 172.372 302.055C172.372 302.055 172.372 302.095 172.372 302.136C172.412 302.34 172.494 302.543 172.535 302.747C172.657 302.829 172.779 302.869 172.902 302.951C174.899 304.01 177.019 304.865 179.098 305.721C181.3 306.617 183.461 307.554 185.703 308.409C189.372 309.794 193.041 311.098 196.507 312.85C196.466 311.342 196.466 310.487 196.466 310.487C196.751 310.568 197.118 310.65 197.567 310.772C194.387 309.061 190.881 307.798 187.415 306.536Z" fill="#231F20"/>
<path d="M331.779 282.665C330.719 282.013 329.74 281.32 328.803 280.668C328.069 278.224 327.253 275.78 326.642 273.336C326.356 272.155 326.356 270.933 326.071 269.751C325.826 268.651 325.419 267.592 325.174 266.492C324.603 263.967 323.992 261.401 323.706 258.793C323.095 253.498 322.443 248.243 321.423 243.029C321.219 241.929 321.301 240.829 321.301 239.688C321.26 238.589 320.852 237.611 320.771 236.552C320.649 234.922 320.282 233.334 320.037 231.704C320.812 231.582 321.546 231.501 322.361 231.501C322.524 233.252 322.85 235.004 323.176 236.715C323.421 237.896 323.666 238.955 323.625 240.137C323.584 241.196 323.625 242.173 323.829 243.232C324.848 248.447 325.337 253.742 326.112 258.997C326.479 261.563 326.927 264.252 327.702 266.737C328.395 269.018 328.558 271.34 329.169 273.621C329.944 276.636 331.004 279.65 331.779 282.665Z" fill="white"/>
<path d="M352.53 290.852C351.674 290.649 350.859 290.445 350.043 290.241C349.962 289.63 349.921 289.06 349.88 288.449C349.595 285.801 349.391 283.153 349.187 280.465C348.82 275.047 348.535 269.629 347.923 264.211C347.312 258.997 346.537 253.742 346.089 248.487C345.885 245.962 345.477 243.477 345.355 240.951C345.314 239.892 345.192 238.792 345.151 237.692C345.925 237.937 346.7 238.181 347.475 238.426C347.556 239.607 347.679 240.788 347.76 241.888C347.964 244.414 348.249 246.939 348.535 249.424C349.105 254.679 349.839 259.934 350.41 265.189C350.981 270.607 351.225 276.025 351.633 281.442C351.837 284.009 352.041 286.616 352.285 289.182C352.367 289.793 352.449 290.323 352.53 290.852Z" fill="white"/>
<path d="M376.339 269.629C376.095 275.047 375.32 280.424 375.075 285.842C374.953 288.53 375.116 291.219 375.116 293.908C374.342 293.867 373.526 293.826 372.752 293.785C372.711 291.26 372.629 288.734 372.711 286.168C372.915 280.913 373.649 275.739 373.934 270.485C374.219 265.026 373.73 259.69 372.996 254.272C372.507 250.606 372.262 246.858 371.651 243.192C372.425 243.232 373.241 243.273 374.015 243.314C374.545 246.736 374.79 250.239 375.279 253.661C376.054 258.997 376.625 264.252 376.339 269.629Z" fill="white"/>
<path d="M398.395 251.95C398.355 254.557 398.191 257.164 398.314 259.771C398.436 262.215 398.844 264.659 399.007 267.104C399.292 272.481 399.415 277.898 399.618 283.276L399.904 291.504C399.904 291.912 399.904 292.319 399.904 292.767C399.129 292.889 398.355 293.011 397.539 293.134C397.539 292.523 397.58 291.912 397.539 291.3L397.254 283.479C397.05 278.102 397.009 272.684 396.642 267.307C396.479 264.741 396.031 262.174 395.949 259.567C395.868 257.083 396.031 254.638 396.031 252.154C396.031 249.587 395.949 247.021 396.031 244.454C396.071 243.843 396.071 243.232 396.071 242.581C396.846 242.499 397.661 242.418 398.436 242.336C398.436 242.825 398.395 243.355 398.395 243.843C398.314 246.532 398.436 249.221 398.395 251.95Z" fill="white"/>
<path d="M422.979 239.933C423.061 242.784 422.775 245.595 422.694 248.447C422.531 254.15 422.734 259.853 422.408 265.556C422.245 268.489 422.041 271.422 421.674 274.314C421.307 277.206 420.696 280.057 420.288 282.909C420.125 284.09 419.962 285.272 419.84 286.412C419.024 286.82 418.168 287.227 417.312 287.634C417.557 285.638 417.801 283.683 418.127 281.687C418.535 278.795 419.147 275.943 419.473 273.051C419.799 270.281 420.003 267.47 420.125 264.7C420.41 258.956 420.166 253.253 420.41 247.51C420.533 244.658 420.818 241.766 420.574 238.874C420.574 238.711 420.533 238.507 420.533 238.344C421.307 238.14 422.082 237.978 422.857 237.774C422.897 238.507 422.938 239.2 422.979 239.933Z" fill="white"/>
<path d="M441.651 234.148C441.733 242.255 441.488 250.32 441.284 258.427C441.203 261.319 441.162 264.252 441.121 267.144C440.387 268.326 439.572 269.507 438.716 270.688C438.797 266.533 438.838 262.378 438.96 258.223C439.164 250.157 439.409 242.092 439.287 234.026C440.143 233.985 440.917 234.026 441.651 234.148Z" fill="white"/>
<path d="M198.79 115.608C197.608 117.807 196.751 120.211 196.018 122.492C194.183 128.195 192.919 134.102 192.552 140.049C192.104 147.015 192.471 154.062 191.9 161.028C191.37 167.261 189.535 173.208 186.763 178.789C185.377 181.559 183.828 184.207 182.156 186.814C181.952 187.099 181.789 187.384 181.585 187.669C179.384 188.973 177.182 190.276 175.062 191.62C175.348 191.335 175.633 191.009 175.959 190.724C177.264 189.38 178.487 188.117 179.506 186.569C180.485 185.103 181.422 183.636 182.278 182.088C184.072 178.952 185.703 175.734 186.967 172.352C189.291 166.038 189.78 159.602 189.861 152.962C189.902 149.459 189.902 145.956 190.065 142.493C190.188 139.153 190.351 135.731 191.044 132.472C192.022 127.828 193.123 123.144 194.876 118.704C195.365 117.441 195.895 116.219 196.548 114.997C197.322 115.16 198.097 115.363 198.79 115.608Z" fill="white"/>
<path d="M461.261 417.988C459.834 421.084 457.429 423.528 455.758 426.461C453.964 429.598 453.108 433.183 451.599 436.441C450.131 439.66 448.378 443.244 447.604 446.911C447.237 445.118 446.911 443.367 446.584 441.574C446.34 440.189 446.095 438.804 445.81 437.46C445.443 435.708 445.484 433.794 445.321 432.042C445.076 428.62 444.831 425.239 444.546 421.817C443.975 415.137 443.404 408.497 443.445 401.735C443.486 399.005 443.527 396.276 443.486 393.506C443.405 390.94 443.364 388.17 444.261 385.726C444.342 385.481 444.465 385.196 444.587 384.952C445.239 383.567 443.119 382.63 442.426 383.974C440.184 388.577 441.285 394.239 441.162 399.168C440.958 405.849 441.203 412.57 441.937 419.21C442.304 422.551 442.508 425.932 442.752 429.272C442.997 432.572 443.16 435.953 443.771 439.211C444.261 441.9 444.587 444.67 445.28 447.318C445.728 449.069 445.932 450.862 446.544 452.613C446.748 453.143 447.033 453.795 447.441 454.202C447.278 455.261 447.114 456.361 447.074 457.42C446.911 460.516 446.87 463.694 445.932 466.667C444.179 472.33 440.388 477.055 437.289 481.984C434.068 487.076 431.541 492.697 429.421 498.319C427.219 504.185 425.874 510.254 425.018 516.446C424.569 519.787 424.406 523.249 425.018 526.549C425.262 527.811 425.588 529.074 425.833 530.296C425.874 530.541 425.955 530.785 425.996 531.03C423.428 528.422 420.085 526.589 416.742 525.204C411.931 523.168 406.672 521.742 401.535 520.805C398.151 520.194 394.767 519.786 391.505 518.809C388.325 517.913 385.227 516.568 382.088 515.509C379.112 514.491 376.136 513.635 373.241 512.495C370.265 511.313 367.493 509.806 364.843 508.055C362.193 506.262 359.624 504.307 357.015 502.474C354.365 500.6 351.715 498.726 349.146 496.771C346.578 494.816 343.887 493.023 341.237 491.109C338.954 489.479 336.426 487.891 333.613 487.442C332.105 487.198 331.697 489.52 333.206 489.764C336.141 490.212 338.465 492.168 340.87 493.716C343.643 495.508 346.252 497.504 348.861 499.5C351.47 501.455 354.12 503.289 356.77 505.162C359.339 506.996 361.866 508.91 364.516 510.621C367.166 512.332 369.939 513.717 372.915 514.858C375.809 515.998 378.826 516.813 381.762 517.831C384.86 518.89 387.877 520.112 391.016 521.049C394.278 522.027 397.702 522.434 401.045 523.045C405.938 523.901 410.83 525.286 415.396 527.16C419.514 528.83 423.754 531.192 426.159 535.062C426.159 535.103 426.2 535.103 426.2 535.144C426.852 536.203 427.953 537.018 429.095 537.669C430.888 540.317 432.071 543.372 433.538 546.142C435.618 550.175 437.656 554.127 439.287 558.363C442.385 566.347 443.404 575.757 440.347 583.904C439.817 585.33 441.937 586.308 442.508 584.882C445.728 576.328 444.831 566.673 441.774 558.2C440.102 553.597 437.86 549.32 435.618 545.002C434.68 543.21 433.824 541.336 432.927 539.543C434.639 540.358 436.392 541.132 437.982 542.15C444.179 546.02 449.683 550.868 454.004 556.774C454.901 557.997 456.818 556.652 455.921 555.43C451.803 549.727 446.544 545.002 440.673 541.132C438.431 539.665 436.107 538.525 433.701 537.384C432.641 536.895 431.622 536.366 430.603 535.796C429.951 534.899 429.258 534.044 428.442 533.27C428.687 531.966 428.157 530.419 427.912 529.278C427.423 527.119 427.015 525.082 426.893 522.882C426.73 519.746 427.219 516.609 427.79 513.513C428.32 510.377 428.932 507.321 429.828 504.266C431.541 498.278 434.191 492.657 436.963 487.117C439.572 481.902 443.364 477.462 446.054 472.289C448.011 468.5 448.949 464.59 449.194 460.353C449.316 458.235 449.398 456.117 449.764 453.999C450.091 451.962 450.458 449.966 450.417 447.888C450.417 447.481 450.213 447.196 449.968 447.033C450.131 446.34 450.335 445.648 450.539 444.996C451.477 442.104 452.781 439.293 454.045 436.523C455.472 433.427 456.288 430.046 458 427.072C459.631 424.221 461.954 421.899 463.341 418.884C464.034 417.622 461.873 416.644 461.261 417.988Z" fill="white"/>
<path d="M455.431 189.991C454.249 190.928 455.594 192.842 456.776 191.906C456.817 191.865 456.858 191.865 456.858 191.865L456.899 191.906C457.225 192.313 457.388 192.802 457.551 193.291C457.836 194.187 458.081 195.164 458.122 196.101C458.203 197.609 460.527 197.405 460.486 195.898C460.364 193.698 458.733 187.343 455.431 189.991Z" fill="#231F20"/>
<path d="M486.212 229.749C485.356 231.012 483.888 231.827 482.38 231.297C480.83 230.767 480.993 229.545 481.931 228.486C482.95 227.346 481.116 225.838 480.096 226.979C478.262 229.056 478.384 231.745 480.871 233.212C483.317 234.637 486.538 233.456 488.047 231.256C488.903 229.993 487.068 228.486 486.212 229.749Z" fill="#231F20"/>
<path d="M474.266 197.934C474.226 197.894 474.144 197.853 474.063 197.812C473.818 197.446 473.369 197.242 472.962 197.242C472.636 197.283 472.35 197.405 472.146 197.649C471.943 197.894 471.861 198.179 471.902 198.505C471.902 198.586 471.902 198.668 471.902 198.79C471.943 198.912 471.943 199.034 471.983 199.157C472.106 199.401 472.146 199.523 472.35 199.686C472.676 200.012 473.166 200.012 473.573 200.012C474.226 199.971 474.715 199.36 474.633 198.749C474.674 198.464 474.511 198.138 474.266 197.934Z" fill="#231F20"/>
<path d="M224.393 639.753C224.556 641.26 226.921 641.138 226.758 639.631C226.758 639.59 226.758 639.549 226.758 639.508H226.798C227.288 639.468 227.818 639.59 228.307 639.712C229.245 639.916 230.142 640.282 230.998 640.73C232.343 641.464 233.403 639.386 232.099 638.653C230.182 637.594 223.945 635.557 224.393 639.753Z" fill="#231F20"/>
<path d="M274.498 634.987C275.11 636.372 275.028 638.042 273.765 639.06C272.501 640.079 271.563 639.305 271.155 637.92C270.748 636.453 268.505 637.186 268.913 638.653C269.688 641.301 272.052 642.645 274.58 641.341C277.108 640.038 277.801 636.698 276.741 634.253C276.129 632.868 273.887 633.602 274.498 634.987Z" fill="#231F20"/>
<path d="M241.231 628.102C241.149 628.143 241.108 628.143 241.027 628.184C240.578 628.184 240.17 628.428 239.967 628.836C239.804 629.121 239.804 629.447 239.885 629.732C239.967 630.017 240.211 630.261 240.456 630.424C240.537 630.465 240.619 630.506 240.701 630.547C240.823 630.587 240.945 630.669 241.067 630.669C241.353 630.71 241.475 630.71 241.72 630.628C242.168 630.506 242.413 630.139 242.617 629.773C242.943 629.202 242.657 628.469 242.127 628.184C241.842 628.021 241.516 628.021 241.231 628.102Z" fill="#231F20"/>
<path d="M487.883 183.025C486.375 183.066 486.579 185.429 488.087 185.388C489.636 185.306 489.392 182.984 487.883 183.025Z" fill="#231F20"/>
<path d="M531.669 281.931C531.832 281.483 531.669 280.954 531.302 280.628C530.772 280.22 530.079 280.302 529.631 280.791C529.264 281.198 528.978 281.728 529.06 282.298C529.101 282.664 529.264 283.031 529.59 283.276C529.916 283.52 530.242 283.601 530.65 283.601C531.302 283.601 531.791 282.909 531.71 282.339C531.751 282.176 531.71 282.053 531.669 281.931Z" fill="#231F20"/>
<path d="M549.404 282.664C547.895 282.705 548.099 285.068 549.608 285.027C551.116 284.946 550.912 282.624 549.404 282.664Z" fill="#231F20"/>
<path d="M157.572 80.6566C157.532 79.3938 155.982 79.3123 155.412 80.1677C155.126 80.3307 154.922 80.6566 154.841 80.9824C154.515 82.3267 153.822 83.4266 153.496 84.6894C152.966 84.5672 152.476 84.3635 151.946 84.1191C150.56 83.5081 149.582 85.6263 150.968 86.2781C152.15 86.8076 153.292 87.1335 154.596 87.1335C155.289 87.1335 155.656 86.441 155.656 85.8707C155.656 84.6079 156.472 83.3858 156.961 82.1638C157.369 81.8786 157.572 81.3491 157.572 80.6566Z" fill="#231F20"/>
<path d="M73.262 626.921C69.0628 624.599 63.5182 620.811 63.6405 615.434C63.6813 613.926 61.3167 614.13 61.2759 615.637C61.1536 621.91 67.3913 626.351 72.2836 629.08C73.629 629.813 74.6074 627.654 73.262 626.921Z" fill="#231F20"/>
<path d="M84.922 632.828C84.5958 632.868 84.3105 633.031 84.1066 633.235C83.9028 633.479 83.8212 633.765 83.862 634.09V634.539C83.9028 635.19 84.5143 635.679 85.1258 635.598C85.452 635.557 85.7374 635.394 85.9412 635.19C86.1451 634.946 86.2266 634.661 86.1858 634.335V633.928C86.1451 633.235 85.5335 632.746 84.922 632.828Z" fill="#231F20"/>
<path d="M76.7275 632.543C76.279 632.176 75.4229 632.176 75.0559 632.705C74.2406 634.009 73.0175 634.946 72.2021 636.249C71.876 636.779 71.8352 637.471 72.3652 637.92C72.8136 638.286 73.6698 638.286 74.0367 637.757C74.8521 636.453 76.0752 635.516 76.8905 634.213C77.2575 633.683 77.2982 632.991 76.7275 632.543Z" fill="#231F20"/>
<path d="M569.096 481.862C567.587 481.902 567.791 484.265 569.299 484.224C570.808 484.143 570.604 481.78 569.096 481.862Z" fill="#231F20"/>
<path d="M581 480.476C580.959 479.825 580.347 479.377 579.736 479.417C579.165 479.458 578.757 479.743 578.35 480.11C577.942 480.476 577.82 481.047 577.82 481.576C577.82 482.228 578.513 482.717 579.084 482.635C579.41 482.595 579.695 482.432 579.899 482.228C580.021 482.065 580.103 481.902 580.144 481.739C580.674 481.576 581.081 481.047 581 480.476Z" fill="#231F20"/>
<path d="M570.726 491.842C570.563 491.72 570.4 491.638 570.237 491.597C570.074 491.068 569.544 490.701 569.014 490.742C568.361 490.783 567.913 491.394 567.954 492.005C567.995 492.575 568.28 492.982 568.647 493.39C569.014 493.797 569.585 493.919 570.115 493.919C570.767 493.919 571.256 493.227 571.175 492.656C571.134 492.331 570.971 492.045 570.726 491.842Z" fill="#231F20"/>
<path d="M577.779 444.751C576.841 445.363 576.148 445.24 575.333 444.507C574.191 443.489 572.683 445.322 573.824 446.34C575.455 447.766 577.331 447.888 579.124 446.666C580.388 445.811 579.002 443.896 577.779 444.751Z" fill="#231F20"/>
<path d="M16.756 410.534C15.2475 410.574 15.4514 412.937 16.9599 412.896C18.4683 412.815 18.2645 410.493 16.756 410.534Z" fill="#231F20"/>
<path d="M25.1544 315.579C24.5021 315.62 24.0536 316.231 24.0944 316.842L24.1351 317.697C24.1759 318.349 24.7874 318.838 25.399 318.756C26.0513 318.716 26.4997 318.105 26.459 317.493L26.4182 316.638C26.4182 316.027 25.7659 315.538 25.1544 315.579Z" fill="#231F20"/>
<path d="M7.78683 364.91C7.54221 364.706 7.25683 364.625 6.93068 364.665H6.52299C5.87068 364.706 5.38145 365.317 5.46299 365.928C5.50376 366.254 5.62607 366.539 5.87068 366.743C6.1153 366.946 6.40068 367.028 6.72683 366.987H7.13452C7.78683 366.946 8.27606 366.335 8.19452 365.724C8.15375 365.399 8.03144 365.113 7.78683 364.91Z" fill="#231F20"/>
<path d="M15.4515 359.247C14.473 360.225 12.4753 359.899 12.353 358.392C12.2307 356.885 9.90689 357.088 9.98842 358.596C10.2738 362.343 14.8807 363.117 17.2861 360.755C18.3461 359.655 16.5115 358.188 15.4515 359.247Z" fill="#231F20"/>
<path d="M549.975 602.072C549.812 602.072 549.648 602.072 549.485 602.072C549.485 601.869 549.485 601.665 549.445 601.461C549.404 600.809 548.792 600.321 548.181 600.402C547.528 600.443 547.08 601.054 547.121 601.665C547.162 602.52 547.161 603.335 547.814 603.946C548.385 604.516 549.445 604.394 550.178 604.353C550.831 604.313 551.32 603.702 551.238 603.091C551.198 602.48 550.627 602.032 549.975 602.072Z" fill="#231F20"/>
<path d="M537.255 628.224C535.746 628.265 535.95 630.628 537.459 630.587C538.967 630.506 538.763 628.143 537.255 628.224Z" fill="#231F20"/>
<path d="M550.872 625.984C549.363 626.025 549.567 628.388 551.075 628.347C552.584 628.306 552.38 625.943 550.872 625.984Z" fill="#231F20"/>
<path d="M557.476 595.269C557.517 595.229 557.517 595.229 557.558 595.188C558.006 594.699 557.884 593.925 557.395 593.518C556.865 593.11 556.172 593.192 555.723 593.681C555.152 594.292 554.133 595.147 554.215 596.084C554.378 597.428 555.805 597.347 556.783 597.306C557.435 597.266 557.925 596.654 557.843 596.043C557.843 595.718 557.68 595.432 557.476 595.269Z" fill="#231F20"/>
<path d="M198.26 223.842C196.955 222.539 195.08 222.009 193.245 222.05C192.022 222.091 189.943 222.58 189.128 223.679C189.005 223.761 188.883 223.883 188.802 224.005C187.945 224.901 187.66 226.327 187.293 227.631C186.967 228.771 187.048 229.83 187.456 230.808C187.823 232.112 188.598 233.293 189.576 234.189C192.226 236.674 196.711 236.511 198.79 233.456C200.747 230.564 200.706 226.327 198.26 223.842ZM195.895 226.246C195.895 226.327 195.895 226.409 195.895 226.49C195.855 226.816 195.651 226.938 195.406 227.142C194.713 227.346 194.102 227.386 193.327 226.938C192.919 226.694 192.634 226.449 192.43 226.124C192.185 225.675 192.022 225.146 191.981 224.657C192.471 224.494 192.919 224.413 193.449 224.372C194.509 224.29 195.488 224.657 196.303 225.268C196.058 225.472 195.895 225.798 195.895 226.246Z" fill="#231F20"/>
<path d="M240.66 202.212C240.537 202.008 240.415 201.723 240.252 201.478C239.885 201.03 239.518 200.582 239.07 200.216C237.317 199.116 235.482 198.912 233.444 199.401C233.158 199.482 232.914 199.564 232.669 199.686C232.587 199.686 232.547 199.686 232.465 199.686C231.609 199.727 230.997 200.216 230.59 200.827C230.549 200.867 230.467 200.949 230.427 200.99C227.614 204.248 229.53 208.974 232.669 211.214C233.688 211.948 235.034 212.436 236.338 212.559C238.336 212.273 240.334 211.092 241.23 209.259C241.312 209.096 241.394 208.933 241.516 208.811C241.924 207.304 241.638 205.715 241.312 204.248C241.149 203.597 240.945 202.904 240.66 202.212ZM238.214 203.923C237.928 204.371 237.439 204.493 236.95 204.574C235.767 203.963 234.504 203.149 234.585 202.09C234.585 201.886 234.585 201.682 234.544 201.519C235.686 201.316 236.868 201.56 237.806 202.171C238.214 202.456 238.458 202.986 238.662 203.556C238.499 203.637 238.336 203.76 238.214 203.923Z" fill="#231F20"/>
<path d="M370.102 324.093C368.104 325.396 368.471 328.94 368.552 330.977C368.593 332.484 370.958 332.28 370.917 330.773C370.876 329.959 370.876 329.144 370.917 328.329C370.958 327.759 370.958 326.374 371.488 326.007C372.751 325.152 371.406 323.237 370.102 324.093Z" fill="white"/>
<path d="M399.618 336.232L399.822 341.365C399.863 342.872 402.228 342.668 402.187 341.161L401.983 336.028C401.901 334.521 399.537 334.725 399.618 336.232Z" fill="white"/>
<path d="M392.198 353.667C390.812 355.337 391.342 357.414 390.853 359.41C390.486 360.877 392.81 361.284 393.177 359.818C393.544 358.392 393.055 356.355 394.033 355.174C394.971 353.993 393.136 352.485 392.198 353.667Z" fill="white"/>
<path d="M378.867 366.539L379.071 372.324C379.111 373.831 381.476 373.627 381.435 372.12L381.231 366.335C381.15 364.828 378.785 365.032 378.867 366.539Z" fill="white"/>
<path d="M355.588 362.914C355.588 363.891 355.343 364.91 355.058 365.847C354.895 366.458 355.425 367.109 356.036 367.191C356.729 367.313 357.218 366.865 357.382 366.213C357.708 365.073 357.952 363.891 357.912 362.669C357.912 361.203 355.547 361.406 355.588 362.914Z" fill="white"/>
<path d="M336.793 328.329C335.774 328.37 335.244 328.899 335.122 329.755C334.428 330.855 334.388 332.362 333.572 333.34C332.594 334.521 334.428 335.987 335.407 334.847C336.018 334.114 336.263 333.177 336.589 332.321C336.752 331.873 336.915 331.425 337.119 331.018C337.201 330.895 337.282 330.773 337.364 330.61C338.465 330.203 338.179 328.248 336.793 328.329Z" fill="white"/>
<path d="M316.409 303.114C315.838 303.806 315.553 304.621 315.39 305.517C315.308 306.047 315.39 307.147 314.86 307.472C313.596 308.287 314.941 310.202 316.205 309.387C317.958 308.246 317.02 306.006 318.203 304.621C319.181 303.48 317.387 301.973 316.409 303.114Z" fill="white"/>
<path d="M294.964 284.253C294.352 285.557 293.782 286.86 293.17 288.164C292.558 289.549 294.679 290.526 295.331 289.141C295.942 287.838 296.513 286.534 297.125 285.231C297.736 283.846 295.575 282.868 294.964 284.253Z" fill="white"/>
<path d="M290.684 328.696C290.684 330.488 289.746 332.403 288.604 333.706C287.585 334.847 289.42 336.313 290.439 335.213C292.029 333.421 293.089 330.895 293.048 328.492C293.007 326.944 290.684 327.189 290.684 328.696Z" fill="white"/>
<path d="M301.079 341.609C300.753 342.016 300.549 342.464 300.386 342.953C300.264 343.401 300.101 343.931 299.897 344.216C298.919 345.357 300.753 346.864 301.732 345.723C302.058 345.316 302.262 344.868 302.425 344.379C302.547 343.931 302.71 343.401 302.914 343.116C303.892 341.935 302.099 340.428 301.079 341.609Z" fill="white"/>
<path d="M303.811 360.551C303.363 359.085 301.121 359.899 301.61 361.366C301.854 362.18 301.406 362.995 301.08 363.728C300.672 364.747 300.468 365.765 300.468 366.865C300.468 368.372 302.833 368.169 302.833 366.661C302.792 364.462 304.545 362.791 303.811 360.551Z" fill="white"/>
<path d="M308.785 347.638C308.54 347.434 308.255 347.353 307.929 347.393C307.603 347.434 307.358 347.597 307.113 347.801C306.909 348.004 306.706 348.249 306.502 348.453C306.053 348.941 306.176 349.715 306.665 350.123C306.909 350.326 307.195 350.408 307.521 350.367C307.847 350.326 308.092 350.163 308.336 349.96C308.54 349.756 308.744 349.512 308.948 349.308C309.356 348.819 309.233 348.004 308.785 347.638Z" fill="white"/>
<path d="M331.412 379.656C329.373 382.63 327.417 386.866 328.354 390.532C328.721 391.999 330.963 391.184 330.556 389.718C330.23 388.414 330.637 386.866 331.045 385.603C331.534 384.015 332.309 382.467 333.206 381.122C334.103 379.9 332.268 378.393 331.412 379.656Z" fill="white"/>
<path d="M342.746 398.72L342.949 403.853C342.99 405.36 345.355 405.157 345.314 403.649L345.11 398.517C345.029 396.969 342.705 397.213 342.746 398.72Z" fill="white"/>
<path d="M353.916 393.058C353.875 392.569 353.712 392.203 353.508 391.795C353.508 391.755 353.468 391.754 353.468 391.714C353.712 391.388 353.835 390.981 353.835 390.492C353.835 389.84 353.182 389.351 352.571 389.433C352.082 389.473 351.755 389.799 351.592 390.207C351.144 390.41 350.818 390.858 350.899 391.388C350.94 391.877 351.103 392.243 351.307 392.651C351.429 392.854 351.592 393.14 351.592 393.302C351.715 394.769 354.079 394.565 353.916 393.058Z" fill="white"/>
<path d="M413.683 415.951C412.827 414.689 410.911 416.033 411.767 417.296C412.501 418.396 412.623 419.903 412.664 421.166C412.705 422.469 412.623 423.936 411.971 425.117C411.237 426.42 413.357 427.398 414.132 426.095C414.988 424.587 415.069 422.673 415.029 420.962C414.988 419.292 414.662 417.377 413.683 415.951Z" fill="white"/>
<path d="M394.726 400.716C394.073 400.757 393.625 401.368 393.666 401.979C393.666 402.02 393.666 402.101 393.666 402.142C393.258 402.346 393.013 402.794 393.054 403.283C393.095 403.934 393.707 404.383 394.318 404.342C394.97 404.301 395.541 403.934 395.827 403.323C396.03 402.835 396.03 402.305 395.99 401.775C395.99 401.124 395.337 400.635 394.726 400.716Z" fill="white"/>
<path d="M409.24 395.869C408.506 393.913 407.895 391.877 407.772 389.799C407.691 388.292 405.326 388.496 405.408 390.003C405.53 392.284 406.223 394.525 406.998 396.684C407.528 398.069 409.77 397.295 409.24 395.869Z" fill="white"/>
<path d="M427.056 373.994C426.363 371.55 426.2 368.902 424.732 366.743C423.876 365.48 421.96 366.865 422.816 368.087C424.121 370.042 424.243 372.568 424.854 374.808C425.262 376.275 427.464 375.46 427.056 373.994Z" fill="white"/>
<path d="M434.15 348.819C433.701 348.371 432.886 348.534 432.478 348.982C432.03 349.512 432.193 350.204 432.641 350.652C432.56 350.571 432.804 350.856 432.763 350.856C432.845 350.978 432.845 350.978 432.804 350.897C432.845 350.937 432.845 351.019 432.845 351.06C432.804 351.019 432.886 351.304 432.886 351.345C432.886 351.467 432.886 351.63 432.927 351.752C432.967 352.404 433.579 352.893 434.19 352.811C434.843 352.771 435.291 352.159 435.25 351.548C435.25 350.449 434.924 349.593 434.15 348.819Z" fill="white"/>
<path d="M435.577 308.165C434.761 305.884 434.843 303.155 433.049 301.321C431.989 300.222 430.521 302.055 431.54 303.155C432.152 303.766 432.315 304.906 432.519 305.721C432.764 306.821 432.967 307.921 433.334 308.98C433.864 310.405 436.107 309.591 435.577 308.165Z" fill="white"/>
<path d="M417.149 305.11C417.353 305.313 417.19 304.988 417.19 304.947C417.149 304.662 417.108 304.377 416.986 304.132C416.823 303.725 416.538 303.44 416.211 303.277V302.788C416.171 301.281 413.806 301.484 413.847 302.992L413.887 304.254C413.928 304.825 414.377 305.191 414.866 305.313C414.866 305.354 414.866 305.354 414.866 305.436C414.988 306.047 415.192 306.495 415.641 306.984C416.089 307.432 416.945 307.269 417.312 306.821C417.761 306.25 417.557 305.599 417.149 305.11Z" fill="white"/>
<path d="M388.04 301.036C387.836 301.892 387.795 302.747 387.795 303.603C387.795 304.336 387.959 305.151 387.673 305.884C387.143 307.31 389.263 308.287 389.834 306.862C390.486 305.11 389.915 303.236 390.364 301.403C390.731 299.977 388.407 299.57 388.04 301.036Z" fill="white"/>
<path d="M346.048 295.537C345.64 297.085 345.64 298.918 344.58 300.181C343.602 301.321 345.396 302.829 346.415 301.688C347.801 300.059 347.842 297.9 348.412 295.944C348.779 294.437 346.456 294.07 346.048 295.537Z" fill="white"/>
<path d="M312.536 272.684C312.006 273.825 311.109 274.803 310.253 275.739C309.233 276.839 311.027 278.347 312.087 277.247C313.106 276.147 314.044 275.047 314.696 273.703C315.349 272.318 313.188 271.34 312.536 272.684Z" fill="white"/>
<path d="M271.236 267.185C269.402 267.877 267.608 268.529 265.896 269.425C264.55 270.118 265.936 272.032 267.241 271.34C268.749 270.525 270.421 269.955 272.011 269.385C273.479 268.896 272.663 266.655 271.236 267.185Z" fill="white"/>
<path d="M295.698 259.16C294.394 259.201 293.293 259.364 292.355 260.341C291.907 260.79 292.07 261.604 292.518 262.012C293.048 262.46 293.741 262.297 294.19 261.849C294.108 261.93 294.271 261.808 294.353 261.726C294.312 261.767 294.76 261.604 294.557 261.645C295.005 261.564 295.454 261.564 295.902 261.564C296.554 261.523 297.044 260.912 296.962 260.301C296.921 259.608 296.31 259.16 295.698 259.16Z" fill="white"/>
<path d="M271.032 253.009C270.584 253.009 270.217 253.09 269.85 253.335C269.524 253.539 269.239 253.864 268.994 254.15C268.546 254.638 268.668 255.412 269.157 255.82C269.687 256.227 270.38 256.146 270.829 255.657C270.91 255.575 270.992 255.494 271.073 255.412C271.155 255.412 271.196 255.412 271.277 255.412C271.929 255.372 272.419 254.761 272.337 254.15C272.256 253.416 271.685 253.009 271.032 253.009Z" fill="white"/>
<path d="M268.22 303.603C266.793 305.191 266.14 307.31 265.04 309.102C264.265 310.406 266.426 311.383 267.2 310.08C268.179 308.45 268.79 306.536 270.054 305.11C271.033 303.969 269.198 302.462 268.22 303.603Z" fill="white"/>
<path d="M249.384 333.869C248.161 335.254 247.591 337.087 246.327 338.472C245.307 339.613 247.142 341.12 248.161 339.98C249.384 338.594 249.996 336.761 251.219 335.376C252.197 334.195 250.404 332.729 249.384 333.869Z" fill="white"/>
<path d="M251.097 356.07C249.547 357.007 248.977 358.922 247.794 360.266C246.775 361.406 248.61 362.873 249.629 361.773C250.24 361.121 250.689 360.347 251.137 359.573C251.504 358.962 251.871 358.392 252.483 358.025C253.747 357.211 252.36 355.296 251.097 356.07Z" fill="white"/>
<path d="M267.241 361.529C267.241 360.877 266.548 360.388 265.977 360.47C265.366 360.51 265.04 360.958 264.917 361.488C264.836 361.569 264.754 361.651 264.714 361.732C264.632 361.855 264.55 361.977 264.51 362.099C263.98 362.425 263.694 363.036 263.694 363.728C263.694 364.38 264.347 364.869 264.958 364.788C265.447 364.747 265.773 364.421 265.937 364.014C266.303 363.851 266.548 363.525 266.63 363.117C266.711 363.036 266.793 362.954 266.833 362.873C267.16 362.466 267.241 362.018 267.241 361.529Z" fill="white"/>
<path d="M222.599 340.753C222.191 340.183 221.539 340.142 220.968 340.468C219.46 341.283 217.992 342.301 217.992 344.175C217.992 344.827 218.685 345.316 219.256 345.234C219.949 345.194 220.316 344.583 220.316 343.972C220.316 343.89 220.316 343.849 220.438 343.686C220.357 343.849 220.601 343.523 220.561 343.523C220.601 343.483 220.601 343.442 220.642 343.442C220.642 343.442 220.683 343.401 220.765 343.361C221.254 342.953 221.784 342.668 222.314 342.383C222.885 342.098 222.925 341.242 222.599 340.753Z" fill="white"/>
<path d="M240.252 319.938C239.722 319.53 239.029 319.612 238.581 320.101C238.173 320.549 237.765 320.997 237.358 321.445C236.909 321.934 237.031 322.708 237.521 323.115C238.051 323.522 238.744 323.441 239.192 322.952C239.6 322.504 240.008 322.056 240.415 321.608C240.864 321.16 240.741 320.345 240.252 319.938Z" fill="white"/>
<path d="M210.613 322.219C208.534 323.726 206.536 325.274 204.783 327.148C203.723 328.248 205.558 329.755 206.618 328.655C208.248 326.944 210.083 325.559 211.999 324.174C213.222 323.237 211.877 321.323 210.613 322.219Z" fill="white"/>
<path d="M286.117 371.061C285.302 371.998 284.69 373.261 284.649 374.523C284.649 375.175 285.342 375.664 285.913 375.582C286.606 375.542 286.973 374.931 286.973 374.32C286.973 374.564 287.014 374.116 287.055 374.075C287.055 373.994 287.218 373.709 287.259 373.546C287.422 373.179 287.626 372.853 287.911 372.568C288.93 371.387 287.136 369.92 286.117 371.061Z" fill="white"/>
<path d="M335.366 438.845C333.98 441.248 334.184 444.263 333.654 446.911C333.369 448.418 335.692 448.784 335.978 447.318C336.467 444.874 336.263 442.063 337.527 439.822C338.261 438.519 336.1 437.541 335.366 438.845Z" fill="white"/>
<path d="M349.35 428.254C348.698 426.909 346.455 427.683 347.149 429.068C347.882 430.535 347.842 432.286 347.923 433.875C347.964 435.382 350.329 435.179 350.288 433.671C350.165 431.838 350.165 429.883 349.35 428.254Z" fill="white"/>
<path d="M378.377 412.041C378.296 410.534 375.972 410.737 376.013 412.245C376.094 413.67 376.869 415.992 375.85 417.214C374.871 418.396 376.706 419.862 377.684 418.721C379.233 416.807 378.5 414.281 378.377 412.041Z" fill="white"/>
<path d="M367.9 453.265C368.389 452.532 368.267 451.84 368.226 450.984C368.185 449.477 365.821 449.681 365.861 451.188L365.902 452.002C364.557 454.121 365.413 457.217 365.535 459.539C365.617 461.046 367.941 460.842 367.9 459.335C367.818 457.828 367.574 456.361 367.574 454.895C367.614 454.365 367.614 453.673 367.9 453.265Z" fill="white"/>
<path d="M372.425 458.031C371.773 458.072 371.325 458.683 371.365 459.294L371.406 459.946C371.447 460.598 372.058 461.086 372.67 461.005C373.322 460.964 373.771 460.353 373.73 459.742L373.689 459.09C373.648 458.479 373.037 457.991 372.425 458.031Z" fill="white"/>
<path d="M395.908 463.571C396.031 467.645 395.582 471.718 395.704 475.792C395.745 477.299 398.11 477.096 398.069 475.588C397.947 471.515 398.395 467.441 398.273 463.368C398.232 461.82 395.868 462.064 395.908 463.571Z" fill="white"/>
<path d="M401.983 452.776C401.82 452.613 401.779 452.165 401.738 451.921C401.657 451.432 401.657 450.903 401.657 450.373C401.616 448.866 399.251 449.069 399.292 450.577C399.333 452.043 399.414 453.469 400.474 454.569C400.923 455.017 401.779 454.854 402.146 454.406C402.594 453.876 402.431 453.225 401.983 452.776Z" fill="white"/>
<path d="M415.151 444.874L415.274 448.703C415.314 450.21 417.679 450.006 417.638 448.499L417.516 444.629C417.435 443.163 415.111 443.366 415.151 444.874Z" fill="white"/>
<path d="M434.313 429.924C434.231 428.417 431.867 428.62 431.948 430.127C432.152 433.468 434.028 436.36 434.231 439.66C434.313 441.167 436.678 440.963 436.596 439.456C436.392 436.156 434.517 433.223 434.313 429.924Z" fill="white"/>
<path d="M437.289 469.234C436.922 467.482 436.311 465.69 436.229 463.897C436.148 462.39 433.783 462.594 433.864 464.101C433.946 465.649 434.394 467.156 434.761 468.663C434.965 469.437 435.658 471.556 435.087 472.207C434.15 473.389 435.944 474.896 436.922 473.715C437.941 472.452 437.574 470.659 437.289 469.234Z" fill="white"/>
<path d="M423.102 485.691L423.346 492.086C423.387 493.593 425.752 493.39 425.711 491.882L425.466 485.487C425.385 483.939 423.02 484.184 423.102 485.691Z" fill="white"/>
<path d="M344.865 473.796L345.11 480.843C345.151 482.35 347.515 482.147 347.474 480.64L347.23 473.592C347.148 472.044 344.825 472.289 344.865 473.796Z" fill="white"/>
<path d="M363.008 491.801C361.744 493.96 361.785 496.404 361.866 498.848C361.907 500.356 364.272 500.152 364.231 498.645C364.15 496.567 364.109 494.612 365.169 492.779C365.943 491.475 363.783 490.498 363.008 491.801Z" fill="white"/>
<path d="M394.889 512.617C393.625 510.132 394.074 507.281 393.992 504.592C393.951 503.085 391.587 503.288 391.627 504.796C391.709 507.688 391.26 510.702 392.647 513.391C393.34 514.776 395.582 514.002 394.889 512.617Z" fill="white"/>
<path d="M418.168 509.643L418.372 514.776C418.413 516.283 420.778 516.079 420.737 514.572L420.533 509.44C420.492 507.892 418.128 508.136 418.168 509.643Z" fill="white"/>
<path d="M399.74 496.526C399.577 497.382 399.374 498.237 399.21 499.133C398.884 500.6 401.208 501.007 401.534 499.541C401.697 498.685 401.901 497.83 402.064 496.934C402.35 495.426 400.026 495.019 399.74 496.526Z" fill="white"/>
<path d="M339.403 458.52C339.117 457.95 338.22 457.909 337.772 458.235C337.201 458.642 337.201 459.294 337.486 459.864C337.935 460.72 338.016 461.535 338.016 462.472C338.057 463.979 340.422 463.775 340.381 462.268C340.34 460.883 340.055 459.742 339.403 458.52Z" fill="white"/>
<path d="M329.006 408.863C329.047 410.167 329.128 411.552 328.639 412.774C328.068 414.159 330.188 415.137 330.8 413.752C331.452 412.122 331.452 410.371 331.371 408.66C331.289 407.112 328.924 407.356 329.006 408.863Z" fill="white"/>
<path d="M462.403 338.676C461.873 337.25 459.671 338.065 460.201 339.491C460.935 341.446 461.547 343.483 461.669 345.56C461.751 347.067 464.115 346.864 464.034 345.357C463.871 343.035 463.218 340.794 462.403 338.676Z" fill="white"/>
<path d="M452.822 286.29C451.436 285.638 450.457 287.797 451.844 288.449C452.985 289.019 453.8 289.915 453.882 291.219C453.964 292.726 456.328 292.523 456.247 291.015C456.083 288.897 454.738 287.186 452.822 286.29Z" fill="white"/>
<path d="M440.877 281.361C440.347 280.343 440.02 279.243 439.49 278.184C439.205 277.613 438.308 277.572 437.86 277.898C437.289 278.306 437.289 278.958 437.574 279.528C438.104 280.546 438.43 281.646 438.96 282.705C439.246 283.276 440.143 283.316 440.591 282.99C441.203 282.583 441.203 281.931 440.877 281.361Z" fill="white"/>
<path d="M476.549 285.149C474.837 283.805 472.758 282.42 470.638 281.768C469.211 281.32 468.192 283.479 469.659 283.927C471.249 284.416 472.717 285.353 474.062 286.29C474.878 286.86 475.652 287.431 476.345 288.123C476.59 288.368 476.835 288.693 476.998 289.019C477.079 289.182 477.039 289.101 476.998 289.141C476.264 290.486 478.425 291.463 479.159 290.119C480.259 288.164 477.895 286.209 476.549 285.149Z" fill="white"/>
<path d="M507.616 300.507C506.271 299.285 504.966 298.022 503.621 296.8C502.52 295.781 501.011 297.574 502.112 298.633C503.457 299.855 504.762 301.118 506.107 302.34C507.208 303.358 508.717 301.566 507.616 300.507Z" fill="white"/>
<path d="M492.653 313.909C491.919 313.216 491.349 312.564 490.859 311.627C490.533 311.057 489.718 311.016 489.229 311.342C488.658 311.75 488.617 312.442 488.943 312.972C489.514 314.031 490.289 314.886 491.186 315.701C491.675 316.149 492.449 316.027 492.857 315.538C493.265 315.049 493.143 314.357 492.653 313.909Z" fill="white"/>
<path d="M469.619 316.679C469.7 316.76 469.578 316.597 469.537 316.516C469.456 316.312 469.415 316.149 469.374 316.027C469.293 315.66 469.293 315.294 469.293 314.968C469.252 314.316 468.64 313.827 468.029 313.909C467.377 313.949 466.928 314.56 466.969 315.172C467.01 316.434 467.213 317.616 468.11 318.512C468.559 318.96 469.415 318.797 469.782 318.349C470.23 317.819 470.067 317.127 469.619 316.679Z" fill="white"/>
<path d="M507.86 418.599C507.656 417.214 507.33 415.829 507.004 414.444C506.433 411.919 505.577 409.312 505.455 406.745C505.373 405.238 503.049 405.442 503.09 406.949C503.212 409.352 503.987 411.756 504.517 414.078C504.802 415.381 505.088 416.644 505.332 417.948C505.414 418.436 505.495 418.884 505.577 419.373C505.577 419.536 505.618 419.658 505.618 419.821C505.658 419.74 505.699 419.658 505.781 419.536C505.699 419.658 505.658 419.74 505.618 419.862V419.821V419.862C505.618 419.903 505.618 419.944 505.577 419.944C505.291 421.043 506.8 422.103 507.615 421.003C508.145 420.31 507.982 419.414 507.86 418.599Z" fill="white"/>
<path d="M505.618 419.862C505.618 419.821 505.618 419.821 505.618 419.821C505.577 419.944 505.577 419.985 505.618 419.944C505.618 419.903 505.618 419.903 505.618 419.862Z" fill="white"/>
<path d="M526.165 375.175C526.084 373.668 523.76 373.872 523.801 375.379C523.923 378.23 524.698 381.204 524.127 384.055C523.842 385.563 526.166 385.929 526.451 384.463C527.062 381.367 526.288 378.23 526.165 375.175Z" fill="white"/>
<path d="M533.463 338.187C532.811 337.495 532.444 336.802 531.955 335.947C531.302 334.765 530.772 333.543 530.283 332.321C530.079 331.832 529.549 331.344 529.223 330.936C528.815 330.366 528.408 329.836 527.918 329.348C526.858 328.288 525.35 330.081 526.41 331.181C527.021 331.792 527.47 332.606 528.041 333.258C528.611 333.91 528.897 335.173 529.345 336.028C529.753 336.843 530.12 337.698 530.609 338.472C530.854 338.839 531.098 339.206 531.425 339.531C531.465 339.572 531.465 339.572 531.506 339.613C531.425 340.591 532.811 341.446 533.585 340.468C534.197 339.654 534.115 338.88 533.463 338.187Z" fill="white"/>
<path d="M514.506 331.099C514.057 330.651 513.242 330.814 512.834 331.262C512.386 331.792 512.549 332.484 512.997 332.932C512.916 332.851 513.038 333.014 513.119 333.095C513.079 333.054 513.242 333.503 513.201 333.299C513.283 333.747 513.283 334.195 513.283 334.643C513.323 335.295 513.935 335.784 514.546 335.702C515.199 335.662 515.647 335.05 515.606 334.439C515.606 333.136 515.484 332.036 514.506 331.099Z" fill="white"/>
<path d="M497.545 349.593C496.689 346.823 494.284 344.664 494.08 341.65C493.999 340.142 491.634 340.346 491.715 341.853C491.919 345.153 494.365 347.353 495.303 350.367C495.752 351.834 497.994 351.019 497.545 349.593Z" fill="white"/>
<path d="M483.032 375.175C482.339 373.831 480.096 374.646 480.83 375.99C482.216 378.638 482.257 381.693 482.379 384.626C482.42 386.133 484.785 385.929 484.744 384.422C484.622 381.285 484.499 377.986 483.032 375.175Z" fill="white"/>
<path d="M457.347 393.465C456.94 391.999 454.738 392.814 455.146 394.28C455.92 397.091 455.961 400.065 456.043 402.957C456.083 404.464 458.448 404.26 458.407 402.753C458.285 399.616 458.203 396.439 457.347 393.465Z" fill="white"/>
<path d="M455.064 376.601C455.105 377.741 455.105 378.841 454.657 379.9C454.086 381.285 456.206 382.263 456.817 380.878C457.429 379.452 457.47 377.945 457.429 376.397C457.388 374.89 455.024 375.094 455.064 376.601Z" fill="white"/>
<path d="M475.775 438.682C475.693 437.175 473.37 437.378 473.41 438.886C473.533 441.289 474.43 444.426 473.166 446.666C472.432 447.97 474.552 448.947 475.326 447.644C476.835 444.996 475.897 441.533 475.775 438.682Z" fill="white"/>
<path d="M449.723 423.039L449.846 426.869C449.886 428.376 452.251 428.172 452.21 426.665L452.088 422.836C452.006 421.329 449.642 421.532 449.723 423.039Z" fill="white"/>
<path d="M457.429 475.425C457.47 476.607 457.51 477.788 457.47 478.929C457.47 479.54 457.388 480.11 457.306 480.721C457.266 480.925 457.225 481.128 457.143 481.291V481.332C456.043 481.821 456.328 483.776 457.714 483.572C459.304 483.328 459.63 481.576 459.753 480.232C459.916 478.562 459.875 476.892 459.793 475.222C459.712 473.714 457.388 473.918 457.429 475.425Z" fill="white"/>
<path d="M463.544 449.518C463.544 449.803 463.341 450.984 463.259 451.554C463.096 452.41 462.933 453.306 462.566 454.121C461.954 455.506 464.115 456.483 464.727 455.098C465.46 453.387 465.909 451.228 465.909 449.314C465.909 447.807 463.544 448.01 463.544 449.518Z" fill="white"/>
<path d="M537.051 417.336C536.195 418.844 535.909 420.718 535.706 422.388C535.502 423.895 535.339 425.443 535.379 426.95C535.42 428.457 537.785 428.254 537.744 426.746C537.703 425.443 537.866 424.099 538.07 422.795C538.274 421.288 538.478 419.618 539.252 418.314C539.945 417.011 537.826 416.033 537.051 417.336Z" fill="white"/>
<path d="M546.183 394.973C546.102 393.465 543.737 393.669 543.818 395.176C543.9 396.317 544.185 397.417 544.43 398.517C544.634 399.331 545.123 400.798 544.838 401.613C544.308 403.038 546.428 404.016 546.998 402.59C547.895 400.187 546.305 397.417 546.183 394.973Z" fill="white"/>
<path d="M535.501 401.816C535.461 400.309 533.096 400.513 533.137 402.02C533.178 402.712 533.341 403.812 532.892 404.423C531.914 405.605 533.748 407.071 534.727 405.931C535.664 404.749 535.542 403.201 535.501 401.816Z" fill="white"/>
<path d="M439.939 506.588C439.654 508.462 439.572 510.417 439.45 512.332C439.328 514.165 439.246 516.202 438.512 517.913C437.901 519.298 440.061 520.275 440.673 518.89C442.263 515.224 441.651 510.865 442.263 506.995C442.507 505.488 440.184 505.081 439.939 506.588Z" fill="white"/>
<path d="M452.292 510.01C451.803 511.802 451.762 513.595 451.844 515.468C451.884 516.976 454.249 516.772 454.208 515.265C454.167 513.595 454.208 512.047 454.657 510.417C455.024 508.951 452.7 508.543 452.292 510.01Z" fill="white"/>
<path d="M531.425 485.161C530.895 483.735 528.693 484.55 529.223 485.976C529.957 487.931 530.569 489.927 530.936 491.923C531.303 493.797 531.629 495.997 531.017 497.83C530.528 499.256 532.689 500.233 533.178 498.808C534.605 494.449 532.974 489.275 531.425 485.161Z" fill="white"/>
<path d="M534.687 466.219C534.034 466.26 533.586 466.871 533.627 467.482L533.708 469.396C533.749 470.048 534.36 470.537 534.972 470.456C535.624 470.415 536.073 469.804 536.032 469.193L535.95 467.278C535.95 466.667 535.339 466.178 534.687 466.219Z" fill="white"/>
<path d="M510.918 450.251C510.836 448.744 508.512 448.947 508.553 450.455C508.635 452.573 509.369 454.976 508.268 456.931C507.534 458.235 509.654 459.213 510.429 457.909C511.774 455.546 511.04 452.776 510.918 450.251Z" fill="white"/>
<path d="M494.04 439.415L494.162 442.633C494.203 444.141 496.567 443.937 496.527 442.43L496.404 439.211C496.323 437.663 493.958 437.908 494.04 439.415Z" fill="white"/>
<path d="M487.761 496.16C487.802 498.115 487.312 499.989 487.312 501.944C487.353 503.451 489.677 503.248 489.677 501.74C489.636 499.785 490.125 497.911 490.125 495.956C490.085 494.449 487.72 494.653 487.761 496.16Z" fill="white"/>
<path d="M494.325 482.432C494.366 483.41 494.284 484.183 493.917 485.08C493.306 486.465 495.467 487.442 496.078 486.057C496.649 484.795 496.771 483.613 496.69 482.228C496.608 480.721 494.284 480.925 494.325 482.432Z" fill="white"/>
<path d="M518.338 523.004C517.156 527.282 517.971 531.803 518.134 536.162C518.216 537.669 520.539 537.465 520.499 535.958C520.336 531.803 519.52 527.485 520.662 523.412C521.07 521.945 518.746 521.538 518.338 523.004Z" fill="white"/>
<path d="M530.365 518.361L530.528 522.841C530.569 524.349 532.933 524.145 532.893 522.638L532.73 518.157C532.648 516.65 530.283 516.853 530.365 518.361Z" fill="white"/>
<path d="M544.675 515.835C544.348 515.102 543.737 514.776 542.921 514.776C542.269 514.776 541.78 515.468 541.861 516.039C541.902 516.487 542.188 516.813 542.555 516.976C542.555 517.098 542.555 517.179 542.555 517.301C542.595 517.953 543.207 518.442 543.818 518.361C544.471 518.32 544.919 517.709 544.878 517.098C544.878 516.65 544.838 516.202 544.675 515.835Z" fill="white"/>
<path d="M538.6 550.175C538.6 551.682 538.111 553.149 538.111 554.697C538.111 556.204 540.475 556 540.475 554.493C540.475 552.986 540.965 551.519 540.965 549.971C540.924 548.464 538.6 548.668 538.6 550.175Z" fill="white"/>
<path d="M523.149 555.756C523.108 554.249 520.743 554.452 520.784 555.959C520.825 557.263 520.866 558.567 520.784 559.829C520.743 560.481 520.662 561.092 520.499 561.744C520.417 562.029 520.172 562.436 520.213 562.436C518.705 562.599 518.909 564.962 520.417 564.799C523.964 564.432 523.23 558.159 523.149 555.756Z" fill="white"/>
<path d="M460.242 534.41C460.324 536.895 460.405 539.38 459.916 541.824C459.63 543.332 461.954 543.698 462.24 542.232C462.77 539.584 462.729 536.895 462.607 534.207C462.525 532.699 460.201 532.903 460.242 534.41Z" fill="white"/>
<path d="M238.01 521.701C236.053 519.868 234.177 518.035 232.873 515.713C232.139 514.409 230.223 515.754 230.957 517.057C232.384 519.583 234.463 521.579 236.542 523.534C237.643 524.552 239.151 522.76 238.01 521.701Z" fill="white"/>
<path d="M244.941 552.945C243.188 551.316 241.312 549.523 240.579 547.201C240.13 545.735 237.888 546.55 238.377 548.016C239.233 550.745 241.394 552.864 243.473 554.778C244.574 555.797 246.082 553.963 244.941 552.945Z" fill="white"/>
<path d="M248.895 543.983C248.854 543.494 248.651 543.087 248.447 542.68C248.447 542.639 248.324 542.476 248.284 542.395C248.243 542.354 248.243 542.272 248.202 542.232C248.202 542.191 248.202 542.191 248.161 542.191C248.161 542.191 248.161 542.15 248.161 542.109C248.121 541.458 247.509 540.969 246.897 541.05C246.245 541.091 245.756 541.702 245.838 542.313C245.878 542.802 246.082 543.209 246.286 543.617C246.286 543.657 246.408 543.82 246.449 543.902C246.49 543.943 246.49 544.024 246.531 544.065C246.531 544.105 246.531 544.106 246.571 544.146C246.571 544.146 246.571 544.187 246.571 544.228C246.612 544.879 247.224 545.368 247.835 545.287C248.447 545.205 248.936 544.635 248.895 543.983Z" fill="white"/>
<path d="M273.397 487.646C270.951 485.487 267.486 484.509 264.347 483.858C262.879 483.532 262.471 485.854 263.939 486.18C266.67 486.75 269.728 487.565 271.889 489.479C273.071 490.498 274.539 488.664 273.397 487.646Z" fill="white"/>
<path d="M246.897 482.839C245.511 481.576 243.717 481.006 242.046 480.273C240.66 479.662 239.681 481.78 241.067 482.432C242.576 483.084 244.166 483.572 245.389 484.672C246.531 485.691 248.039 483.858 246.897 482.839Z" fill="white"/>
<path d="M253.828 468.297C251.463 467.278 248.65 467.115 246.123 467.156C244.614 467.197 244.818 469.559 246.327 469.519C248.447 469.478 250.893 469.6 252.85 470.456C254.236 471.026 255.214 468.908 253.828 468.297Z" fill="white"/>
<path d="M325.418 510.336C325.174 508.625 323.054 507.973 321.708 507.443C320.811 507.077 319.914 506.751 319.058 506.344C318.732 506.181 318.488 505.896 318.161 505.773C317.631 505.529 316.857 505.692 316.286 505.733C314.778 505.773 314.981 508.136 316.49 508.095L317.305 508.055C318.202 508.666 319.262 509.073 320.281 509.44C320.974 509.725 321.627 509.969 322.279 510.295C322.483 510.376 322.687 510.499 322.891 510.621C323.217 510.825 323.135 510.987 323.094 510.58C323.298 512.047 325.622 511.843 325.418 510.336Z" fill="white"/>
<path d="M307.725 491.271C305.564 490.66 303.403 490.212 301.243 489.601C299.775 489.194 299.408 491.516 300.835 491.923C302.996 492.534 305.156 492.982 307.317 493.593C308.785 494.001 309.152 491.679 307.725 491.271Z" fill="white"/>
<path d="M301.609 531.844C300.549 530.378 299.163 529.115 297.777 527.933C296.35 526.752 294.719 525.652 292.926 525.204C291.458 524.838 291.05 527.159 292.518 527.526C294.026 527.893 295.372 528.993 296.513 529.929C297.655 530.907 298.796 531.966 299.693 533.188C300.59 534.41 302.506 533.066 301.609 531.844Z" fill="white"/>
<path d="M274.947 536.243C273.723 535.673 272.745 534.696 272.093 533.555C271.767 532.985 270.951 532.944 270.462 533.27C269.891 533.677 269.85 534.37 270.177 534.899C271.033 536.406 272.419 537.628 273.968 538.362C275.354 539.054 276.333 536.895 274.947 536.243Z" fill="white"/>
<path d="M277.841 597.143C277.637 596.532 276.944 596.166 276.455 595.84C274.661 594.618 273.071 593.314 271.44 591.807C270.34 590.788 268.831 592.581 269.932 593.64C271.073 594.699 272.174 595.799 273.479 596.695C273.968 597.021 274.457 597.347 274.947 597.673C275.15 597.836 275.354 597.958 275.599 598.121C275.721 598.569 276.129 598.936 276.781 598.813C277.556 598.65 278.167 597.958 277.841 597.143Z" fill="white"/>
<path d="M255.826 586.593C255.296 586.104 254.277 585.697 254.236 584.923C254.195 584.515 253.951 584.108 253.543 583.945C253.094 583.741 252.687 583.538 252.238 583.334C250.852 582.723 249.874 584.841 251.26 585.493C251.504 585.615 251.79 585.737 252.034 585.86C252.401 587 253.421 587.611 254.318 588.426C255.459 589.404 256.967 587.571 255.826 586.593Z" fill="white"/>
<path d="M291.988 573.068C291.05 572.295 290.072 571.561 289.093 570.828C287.707 569.81 286.158 568.547 284.486 568.017C283.059 567.569 282.081 569.687 283.508 570.176C285.016 570.665 286.362 571.765 287.585 572.661C288.563 573.394 289.542 574.128 290.479 574.902C291.662 575.839 293.17 574.005 291.988 573.068Z" fill="white"/>
<path d="M319.181 603.335C316.042 601.869 313.269 599.75 310.008 598.528C308.581 597.999 307.602 600.158 309.029 600.687C312.291 601.909 315.063 604.028 318.202 605.494C319.589 606.146 320.567 603.987 319.181 603.335Z" fill="white"/>
<path d="M354.039 614.823C353.101 614.741 352.122 614.619 351.185 614.497C350.043 614.334 348.372 614.212 347.434 613.397C346.292 612.419 344.784 614.252 345.925 615.23C347.108 616.208 348.861 616.493 350.288 616.737C351.389 616.941 352.489 617.063 353.59 617.145C355.139 617.267 355.547 614.945 354.039 614.823Z" fill="white"/>
<path d="M351.144 603.213C349.962 601.38 346.863 600.932 344.866 600.972C343.357 601.013 343.561 603.335 345.069 603.335C346.211 603.294 348.535 603.498 349.228 604.557C350.043 605.861 351.96 604.516 351.144 603.213Z" fill="white"/>
<path d="M323.299 575.594C321.627 574.82 320.037 573.761 318.162 573.72C316.654 573.72 316.857 576.042 318.366 576.083C319.711 576.083 321.138 577.183 322.361 577.753C323.707 578.364 324.685 576.205 323.299 575.594Z" fill="white"/>
<path d="M359.013 536.773C358.034 535.144 356.199 534.41 354.446 533.922C352.489 533.351 350.451 533.148 348.453 532.822C346.945 532.577 346.537 534.899 348.046 535.144C349.758 535.429 351.511 535.632 353.223 536.04C354.609 536.366 356.281 536.854 357.056 538.158C357.83 539.462 359.746 538.077 359.013 536.773Z" fill="white"/>
<path d="M347.964 545.002C346.782 545.002 345.681 544.431 344.662 543.943C343.276 543.332 342.297 545.45 343.683 546.102C345.11 546.753 346.578 547.364 348.168 547.364C349.676 547.364 349.473 545.002 347.964 545.002Z" fill="white"/>
<path d="M392.647 531.477C390.649 529.767 387.225 529.481 384.656 529.563C383.148 529.604 383.352 531.966 384.86 531.926C386.776 531.885 389.63 532.007 391.138 533.31C392.321 534.247 393.829 532.455 392.647 531.477Z" fill="white"/>
<path d="M408.792 545.246C407.691 543.494 405.082 542.965 403.165 543.006C401.657 543.046 401.861 545.368 403.369 545.368C404.47 545.368 406.223 545.613 406.875 546.631C407.691 547.894 409.607 546.509 408.792 545.246Z" fill="white"/>
<path d="M423.754 537.384C422.938 536.61 422.123 535.918 420.94 535.918C420.288 535.918 419.799 536.61 419.88 537.18C419.921 537.832 420.451 538.199 421.063 538.24H421.104C421.144 538.28 421.226 538.28 421.267 538.321C421.267 538.321 421.307 538.362 421.389 538.402C421.715 538.647 422 538.891 422.286 539.176C422.775 539.625 423.55 539.502 423.957 539.013C424.324 538.525 424.202 537.832 423.754 537.384Z" fill="white"/>
<path d="M369.082 579.057C367.085 577.835 365.046 576.612 362.641 576.612C361.133 576.612 361.336 578.975 362.845 578.975C364.761 578.975 366.555 580.279 368.145 581.216C369.409 581.99 370.346 579.831 369.082 579.057Z" fill="white"/>
<path d="M397.295 595.392C396.194 592.785 392.932 590.992 390.16 590.992C388.652 590.992 388.855 593.355 390.364 593.355C392.035 593.355 394.4 594.658 395.093 596.206C395.664 597.591 397.865 596.817 397.295 595.392Z" fill="white"/>
<path d="M404.552 618.244C404.062 617.104 403.206 616.411 402.146 615.8C401.412 615.352 400.189 615.026 399.781 614.293C398.966 612.989 397.05 614.375 397.865 615.637C398.355 616.452 399.292 616.9 400.108 617.348C400.882 617.756 401.983 618.204 402.35 619.059C402.921 620.444 405.122 619.67 404.552 618.244Z" fill="white"/>
<path d="M400.515 634.172C398.966 632.135 396.846 630.709 394.971 628.999C393.87 627.98 392.361 629.813 393.462 630.832C395.174 632.38 397.172 633.683 398.558 635.557C399.496 636.738 401.412 635.394 400.515 634.172Z" fill="white"/>
<path d="M412.624 571.561C412.583 571.561 412.583 571.561 412.542 571.561C412.379 571.561 412.216 571.521 412.053 571.48C411.686 571.439 411.36 571.358 410.993 571.276C410.177 571.113 409.403 570.869 408.628 570.543C407.242 569.932 406.264 572.091 407.65 572.702C409.199 573.394 411.074 573.924 412.787 573.924C414.295 573.883 414.091 571.602 412.624 571.561Z" fill="white"/>
<path d="M380.579 557.956C379.601 557.996 378.826 557.915 377.929 557.548C376.543 556.937 375.564 559.096 376.951 559.707C378.214 560.277 379.397 560.4 380.783 560.318C382.291 560.237 382.087 557.874 380.579 557.956Z" fill="white"/>
<path d="M438.063 572.417C437.289 571.072 436.107 569.973 434.761 569.199C434.72 569.117 434.68 569.036 434.598 568.954C434.517 568.832 434.394 568.71 434.272 568.588C434.231 568.547 434.231 568.547 434.19 568.506C433.823 567.162 431.622 567.406 431.867 568.832C431.948 569.362 432.111 569.769 432.519 570.136L432.56 570.176C432.56 570.217 432.6 570.298 432.641 570.38C432.804 570.787 433.13 570.991 433.497 571.154C434.598 571.684 435.495 572.702 436.107 573.72C436.922 575.105 438.838 573.72 438.063 572.417Z" fill="white"/>
<path d="M449.112 632.787C448.174 632.013 446.748 631.769 445.606 631.483C444.138 631.117 442.63 630.832 441.121 630.872C439.613 630.913 439.817 633.235 441.325 633.235C442.548 633.194 443.771 633.479 444.913 633.765C445.728 633.928 447.114 634.253 447.604 634.62C448.786 635.557 450.294 633.765 449.112 632.787Z" fill="white"/>
<path d="M429.095 635.801C427.79 635.801 426.526 635.313 425.222 635.313C423.713 635.313 423.917 637.675 425.425 637.675C426.73 637.675 427.994 638.164 429.298 638.164C430.807 638.164 430.603 635.801 429.095 635.801Z" fill="white"/>
<path d="M433.049 609.853C431.908 607.979 429.462 607.572 427.423 607.612C425.915 607.653 426.119 609.975 427.627 609.975C428.85 609.934 430.44 610.097 431.133 611.238C431.908 612.501 433.824 611.156 433.049 609.853Z" fill="white"/>
<path d="M462.973 596.043C461.139 596.166 459.671 597.388 457.877 597.51C456.369 597.632 456.573 599.954 458.081 599.872C459.916 599.75 461.383 598.528 463.177 598.406C464.686 598.243 464.482 595.921 462.973 596.043Z" fill="white"/>
<path d="M467.132 621.585L463.912 621.707C462.403 621.747 462.607 624.11 464.115 624.069L467.336 623.947C468.845 623.866 468.641 621.503 467.132 621.585Z" fill="white"/>
<path d="M499.38 618.57L499.34 618.611C499.217 618.733 499.013 618.896 498.85 619.018C498.28 619.507 497.627 619.915 497.016 620.322C495.997 620.974 494.733 621.788 493.51 621.87C492.001 621.992 492.205 624.314 493.714 624.232C495.467 624.11 497.138 623.01 498.606 622.114C499.584 621.503 501.541 620.444 501.704 619.141C501.867 617.715 499.747 617.267 499.38 618.57Z" fill="white"/>
<path d="M513.119 601.013C511.815 603.091 510.143 604.883 508.839 606.961C508.023 608.223 509.858 609.731 510.673 608.468C511.978 606.39 513.649 604.598 514.954 602.52C515.729 601.258 513.935 599.71 513.119 601.013Z" fill="white"/>
<path d="M495.181 592.581C494.651 592.174 493.958 592.296 493.51 592.744C492.98 593.314 492.653 593.64 491.797 593.681C490.289 593.762 490.493 596.125 492.001 596.043C493.428 595.962 494.406 595.229 495.344 594.251C495.793 593.762 495.67 592.947 495.181 592.581Z" fill="white"/>
<path d="M475.286 568.343C474.145 569.484 472.596 569.932 471.046 570.013C469.538 570.095 469.742 572.457 471.25 572.376C473.492 572.254 475.531 571.439 477.121 569.85C478.181 568.751 476.346 567.284 475.286 568.343Z" fill="white"/>
<path d="M493.224 549.727C491.879 551.193 490.86 552.904 489.555 554.371C488.536 555.511 490.37 556.978 491.39 555.878C492.735 554.412 493.754 552.701 495.059 551.234C496.078 550.094 494.244 548.586 493.224 549.727Z" fill="white"/>
<path d="M483.766 527.77C483.766 528.993 482.869 530.663 481.85 531.274C480.545 532.048 481.931 534.003 483.195 533.188C484.948 532.129 486.09 529.563 486.09 527.526C486.13 526.059 483.766 526.263 483.766 527.77Z" fill="white"/>
<path d="M513.772 503.248C513.527 504.51 513.527 505.855 513.527 507.118C513.527 508.095 513.69 509.602 513.038 510.417C512.059 511.599 513.894 513.065 514.872 511.924C516.666 509.765 515.647 506.181 516.136 503.614C516.381 502.148 514.057 501.781 513.772 503.248Z" fill="white"/>
</g>
<defs>
<clipPath id="clip0">
<rect width="581" height="649" fill="white"/>
</clipPath>
</defs>
</svg>
