<svg width="8" height="12" viewBox="0 0 8 12" fill="none" xmlns="http://www.w3.org/2000/svg">
<path d="M1.49996 11.6251C1.41771 11.6256 1.33617 11.6098 1.26002 11.5787C1.18387 11.5476 1.11461 11.5018 1.05621 11.4439C0.997632 11.3858 0.951135 11.3166 0.919405 11.2405C0.887674 11.1643 0.871338 11.0826 0.871338 11.0001C0.871338 10.9176 0.887674 10.8359 0.919405 10.7598C0.951135 10.6836 0.997632 10.6145 1.05621 10.5564L5.61871 6.00012L1.05621 1.44387C0.938522 1.32618 0.872405 1.16655 0.872405 1.00012C0.872405 0.917704 0.888637 0.836099 0.920174 0.75996C0.951712 0.683821 0.997938 0.61464 1.05621 0.556366C1.11449 0.498092 1.18367 0.451866 1.25981 0.420329C1.33594 0.388791 1.41755 0.372559 1.49996 0.372559C1.6664 0.372559 1.82602 0.438676 1.94371 0.556366L6.94371 5.55637C7.00229 5.61447 7.04879 5.68359 7.08052 5.75976C7.11225 5.83592 7.12859 5.91761 7.12859 6.00012C7.12859 6.08262 7.11225 6.16431 7.08052 6.24048C7.04879 6.31664 7.00229 6.38576 6.94371 6.44386L1.94371 11.4439C1.88531 11.5018 1.81605 11.5476 1.7399 11.5787C1.66375 11.6098 1.58222 11.6256 1.49996 11.6251Z" fill="white"/>
</svg>
