<svg width="8" height="12" viewBox="0 0 8 12" fill="none" xmlns="http://www.w3.org/2000/svg">
<path d="M6.50004 0.374885C6.58229 0.374409 6.66383 0.390174 6.73998 0.421277C6.81613 0.45238 6.88539 0.498209 6.94379 0.556135C7.00237 0.614237 7.04887 0.683362 7.0806 0.759523C7.11233 0.835686 7.12866 0.917377 7.12866 0.999885C7.12866 1.08239 7.11233 1.16408 7.0806 1.24024C7.04887 1.31641 7.00237 1.38553 6.94379 1.44363L2.38129 5.99988L6.94379 10.5561C7.06148 10.6738 7.1276 10.8334 7.1276 10.9999C7.1276 11.0823 7.11136 11.1639 7.07983 11.24C7.04829 11.3162 7.00206 11.3854 6.94379 11.4436C6.88551 11.5019 6.81633 11.5481 6.74019 11.5797C6.66406 11.6112 6.58245 11.6274 6.50004 11.6274C6.3336 11.6274 6.17398 11.5613 6.05629 11.4436L1.05629 6.44363C0.997709 6.38553 0.951211 6.31641 0.919481 6.24024C0.887751 6.16408 0.871415 6.08239 0.871415 5.99988C0.871415 5.91738 0.887751 5.83569 0.919481 5.75952C0.951211 5.68336 0.997709 5.61424 1.05629 5.55613L6.05629 0.556135C6.11469 0.498209 6.18395 0.45238 6.2601 0.421277C6.33625 0.390174 6.41778 0.374409 6.50004 0.374885Z" fill="white"/>
</svg>
