<svg width="24" height="26" viewBox="0 0 24 26" fill="none" xmlns="http://www.w3.org/2000/svg">
<g clip-path="url(#clip0)">
<path d="M23.4494 4.26388C23.0857 3.89797 22.6512 3.71501 22.1511 3.71501H20.3073V2.32252C20.3073 1.68217 20.08 1.13839 19.6304 0.681001C19.1758 0.228694 18.6352 0 17.9987 0H17.0743C16.4378 0 15.8973 0.228694 15.4426 0.681001C14.9931 1.13331 14.7657 1.68217 14.7657 2.32252V3.71501H9.22921V2.32252C9.22921 1.68217 9.00189 1.13839 8.55231 0.681001C8.10272 0.228694 7.55715 0 6.92065 0H5.99621C5.35971 0 4.8192 0.228694 4.36455 0.681001C3.91497 1.13331 3.68764 1.68217 3.68764 2.32252V3.71501H1.84382C1.34372 3.71501 0.909282 3.89797 0.545569 4.26388C0.181856 4.63487 0 5.06685 0 5.56998V24.145C0 24.6482 0.181856 25.0852 0.550621 25.4511C0.914334 25.817 1.34877 26 1.84887 26H22.1562C22.6563 26 23.0907 25.817 23.4544 25.4511C23.8181 25.0852 24.0051 24.6482 24.0051 24.145V5.56998C24 5.06685 23.8181 4.63487 23.4494 4.26388ZM6.00126 24.145H1.84382V19.9676H5.99621V24.145H6.00126ZM6.00126 19.0375H1.84382V14.3925H5.99621V19.0375H6.00126ZM6.00126 13.4676H1.84382V9.29007H5.99621V13.4676H6.00126ZM5.67796 6.82525C5.58703 6.73378 5.54157 6.62705 5.54157 6.5V2.32252C5.54157 2.19547 5.58703 2.08874 5.67796 1.99726C5.76889 1.90579 5.87497 1.86005 6.00126 1.86005H6.92065C7.04694 1.86005 7.15302 1.90579 7.24395 1.99726C7.33488 2.08874 7.38034 2.19547 7.38034 2.32252V6.5C7.38034 6.62705 7.33488 6.73378 7.24395 6.82525C7.15302 6.91673 7.04694 6.96247 6.92065 6.96247H5.99621C5.87497 6.96247 5.76889 6.91673 5.67796 6.82525ZM11.5378 24.145H6.92065V19.9676H11.5378V24.145ZM11.5378 19.0375H6.92065V14.3925H11.5378V19.0375ZM11.5378 13.4676H6.92065V9.29007H11.5378V13.4676ZM17.0743 24.145H12.4572V19.9676H17.0743V24.145ZM17.0743 19.0375H12.4572V14.3925H17.0743V19.0375ZM17.0743 13.4676H12.4572V9.29007H17.0743V13.4676ZM16.751 6.82525C16.6601 6.73378 16.6146 6.62705 16.6146 6.5V2.32252C16.6146 2.19547 16.6601 2.08874 16.751 1.99726C16.8419 1.90579 16.948 1.86005 17.0743 1.86005H17.9987C18.125 1.86005 18.2311 1.90579 18.322 1.99726C18.413 2.08874 18.4584 2.19547 18.4584 2.32252V6.5C18.4584 6.62705 18.413 6.73378 18.322 6.82525C18.2311 6.91673 18.125 6.96247 17.9987 6.96247H17.0743C16.9531 6.96247 16.8419 6.91673 16.751 6.82525ZM22.1511 24.145H17.9987V19.9676H22.1511V24.145ZM22.1511 19.0375H17.9987V14.3925H22.1511V19.0375ZM22.1511 13.4676H17.9987V9.29007H22.1511V13.4676Z" fill="#A66230"/>
</g>
<defs>
<clipPath id="clip0">
<rect width="24" height="26" fill="white"/>
</clipPath>
</defs>
</svg>
