<svg width="24" height="24" viewBox="0 0 24 24" fill="none" xmlns="http://www.w3.org/2000/svg">
<g clip-path="url(#clip0)">
<path d="M1.60912 5.97674C2.68187 4.13774 4.13774 2.68187 5.97674 1.60912C7.81573 0.536374 9.81893 0 11.9973 0C14.1756 0 16.1843 0.536374 18.0233 1.60912C19.8623 2.68187 21.3181 4.13774 22.3909 5.97674C23.4636 7.81574 24 9.8244 24 12.0027C24 14.1811 23.4636 16.1897 22.3909 18.0287C21.3181 19.8677 19.8623 21.3236 18.0233 22.3964C16.1843 23.4691 14.1756 24.0055 11.9973 24.0055C9.81893 24.0055 7.81026 23.4691 5.97127 22.3964C4.13227 21.3236 2.6764 19.8677 1.60365 18.0287C0.530899 16.1897 -0.00547409 14.1811 -0.00547409 12.0027C-1.90735e-06 9.8244 0.536373 7.81574 1.60912 5.97674ZM4.64128 16.2664C5.40205 17.569 6.43101 18.5979 7.73364 19.3587C9.03626 20.1195 10.4593 20.4972 11.9973 20.4972C13.5407 20.4972 14.9583 20.1195 16.2609 19.3587C17.5635 18.5979 18.5925 17.569 19.3532 16.2664C20.1195 14.9637 20.4971 13.5407 20.4971 12.0027C20.4971 10.4593 20.1195 9.03626 19.3587 7.73911C18.5979 6.43649 17.569 5.40753 16.2664 4.64675C14.9637 3.8805 13.5407 3.50285 11.9973 3.50285C10.4538 3.50285 9.03079 3.8805 7.73364 4.64128C6.43101 5.40205 5.40205 6.43102 4.64128 7.73364C3.8805 9.03626 3.50285 10.4593 3.50285 11.9973C3.49738 13.5407 3.8805 14.9637 4.64128 16.2664Z" fill="#A66230"/>
<path d="M10.4975 5.99854H11.4991C11.6469 5.99854 11.7673 6.04779 11.8603 6.14084C11.9534 6.23388 12.0026 6.35429 12.0026 6.50207V12.0026H15.5055C15.6533 12.0026 15.7737 12.0519 15.8667 12.1449C15.9598 12.238 16.009 12.3584 16.009 12.5062V13.5078C16.009 13.6555 15.9598 13.776 15.8667 13.869C15.7737 13.962 15.6533 14.0113 15.5055 14.0113H10.503C10.3552 14.0113 10.2348 13.962 10.1418 13.869C10.0487 13.776 9.99946 13.6555 9.99946 13.5078V6.50207C9.99946 6.35429 10.0487 6.23936 10.1418 6.14084C10.2348 6.04779 10.3552 5.99854 10.4975 5.99854Z" fill="#A66230"/>
</g>
<defs>
<clipPath id="clip0">
<rect width="24" height="24" fill="white" transform="matrix(-1 0 0 1 24 0)"/>
</clipPath>
</defs>
</svg>
