<svg width="24" height="16" viewBox="0 0 24 16" fill="none" xmlns="http://www.w3.org/2000/svg">
<g clip-path="url(#clip0)">
<path d="M0.267397 7.04409C1.51994 4.92308 3.19938 3.22043 5.3104 1.93129C7.42142 0.642141 9.64973 0 12 0C14.3503 0 16.5786 0.642141 18.6896 1.93129C20.8006 3.22043 22.4801 4.92308 23.7326 7.04409C23.9109 7.36516 24 7.68623 24 8.00243C24 8.31864 23.9109 8.63484 23.7326 8.96078C22.4848 11.0818 20.8006 12.7844 18.6896 14.0736C16.5786 15.3627 14.3456 16.0049 12 16.0049C9.64973 16.0049 7.42142 15.3627 5.3104 14.0833C3.19938 12.799 1.51525 11.0964 0.267397 8.96564C0.0891323 8.63971 0 8.3235 0 8.0073C0 7.68623 0.0891323 7.36516 0.267397 7.04409ZM14.871 3.24476C14.0735 2.41776 13.1165 1.99939 12 1.99939C11.8217 1.99939 11.6716 2.06263 11.545 2.19398C11.4183 2.32533 11.3573 2.481 11.3573 2.66586C11.3573 2.85071 11.4183 3.00639 11.545 3.13773C11.6716 3.26908 11.8217 3.33232 12 3.33232C12.7694 3.33232 13.4261 3.61447 13.9703 4.17878C14.5145 4.74308 14.7866 5.42414 14.7866 6.22195C14.7866 6.40681 14.8475 6.56248 14.9742 6.69383C15.1009 6.82518 15.251 6.88842 15.4292 6.88842C15.6075 6.88842 15.7576 6.82518 15.8843 6.69383C16.0109 6.56248 16.0719 6.40681 16.0719 6.22195C16.0719 5.06415 15.6732 4.07175 14.871 3.24476ZM6.17826 12.5363C7.97029 13.6601 9.90774 14.2244 12 14.2244C14.0876 14.2244 16.0297 13.6601 17.8217 12.5363C19.6138 11.4126 21.1009 9.89967 22.2877 8.00243C20.932 5.81818 19.2291 4.18364 17.1837 3.09881C17.7279 4.06203 18 5.10307 18 6.22195C18 7.93433 17.4136 9.3986 16.2408 10.6196C15.068 11.8407 13.6513 12.4439 12 12.4439C10.3487 12.4439 8.93667 11.8358 7.75919 10.6196C6.5817 9.40347 6 7.93919 6 6.22195C6 5.10307 6.27209 4.06203 6.81626 3.09881C4.77092 4.18364 3.07271 5.81818 1.71227 8.00243C2.89914 9.89967 4.39093 11.4077 6.17826 12.5363Z" fill="#A66230"/>
</g>
<defs>
<clipPath id="clip0">
<rect width="24" height="16" fill="white" transform="matrix(-1 0 0 1 24 0)"/>
</clipPath>
</defs>
</svg>
