<svg width="24" height="21" viewBox="0 0 24 21" fill="none" xmlns="http://www.w3.org/2000/svg">
<g clip-path="url(#clip0)">
<path d="M1.6982 1.69533C2.83347 0.565108 4.40031 0 6.39875 0C6.95231 0 7.51525 0.0957811 8.09226 0.292132C8.66927 0.488483 9.20407 0.751881 9.70133 1.08712C10.1986 1.41756 10.6208 1.73364 10.982 2.02577C11.3385 2.3179 11.6763 2.62919 12 2.95485C12.3237 2.62919 12.6615 2.3179 13.018 2.02577C13.3745 1.73364 13.8014 1.42235 14.2987 1.08712C14.7959 0.751881 15.3307 0.488483 15.9077 0.292132C16.4801 0.0957811 17.043 0 17.5966 0C19.595 0 21.1618 0.565108 22.2971 1.69533C23.4324 2.82554 24 4.39156 24 6.39818C24 7.01117 23.8968 7.63854 23.6857 8.28506C23.4746 8.93159 23.2353 9.48233 22.9679 9.93729C22.7005 10.3922 22.3956 10.8376 22.0579 11.2686C21.7201 11.6997 21.4715 12.0014 21.3167 12.1642C21.1618 12.327 21.0399 12.4467 20.9461 12.5186L12.5864 20.751C12.4269 20.9138 12.2299 20.9952 11.9953 20.9952C11.7654 20.9952 11.5684 20.9138 11.4042 20.751L3.05864 12.5473C1.01329 10.4593 -0.00938034 8.40958 -0.00938034 6.39339C1.90735e-06 4.39156 0.567633 2.82554 1.6982 1.69533Z" fill="#A66230"/>
</g>
<defs>
<clipPath id="clip0">
<rect width="24" height="21" fill="white" transform="matrix(-1 0 0 1 24 0)"/>
</clipPath>
</defs>
</svg>
