<svg width="24" height="19" viewBox="0 0 24 19" fill="none" xmlns="http://www.w3.org/2000/svg">
<g clip-path="url(#clip0)">
<path d="M18.675 12.1562C18.496 12.0853 18.3405 12.1137 18.2038 12.2507L17.3414 13.1157C17.2613 13.196 17.2189 13.2953 17.2189 13.4134V15.1149C17.2189 15.7104 17.0069 16.2162 16.5875 16.6415C16.1634 17.0622 15.6591 17.2749 15.0654 17.2749H3.87355C3.2798 17.2749 2.77557 17.0622 2.35146 16.6415C1.93206 16.2209 1.72001 15.7104 1.72001 15.1149V3.88507C1.72001 3.29428 1.93206 2.78383 2.35618 2.36318C2.77557 1.94254 3.28451 1.72985 3.87826 1.72985H15.0701C15.268 1.72985 15.4706 1.75821 15.6733 1.8102C15.8335 1.86219 15.9796 1.8291 16.1021 1.70149L16.7618 1.0398C16.8702 0.931095 16.9079 0.803483 16.8843 0.647512C16.8561 0.505721 16.776 0.401741 16.644 0.335572C16.1586 0.113433 15.6356 0 15.0701 0H3.87355C2.80856 0 1.89436 0.378109 1.13568 1.13905C0.376988 1.9 0 2.81692 0 3.88507V15.1102C0 16.1784 0.376988 17.0953 1.13568 17.8562C1.89436 18.6219 2.80856 19 3.87355 19H15.0654C16.1304 19 17.0446 18.6219 17.8033 17.8609C18.5619 17.1 18.9389 16.1831 18.9389 15.1149V12.5532C18.9436 12.3595 18.8541 12.2318 18.675 12.1562Z" fill="#A66230"/>
<path d="M8.60938 11.66V15.5451H12.4829L21.5259 6.47516L17.6524 2.59009L8.60938 11.66ZM11.9457 14.25H11.1917V12.955H9.90056V12.1988L11.4604 10.6344L13.5055 12.6856L11.9457 14.25ZM17.855 4.98163L13.1474 9.70327C12.9966 9.85452 12.8458 9.85924 12.7044 9.71745C12.563 9.57566 12.563 9.42442 12.7185 9.27317L17.4262 4.55153C17.577 4.40029 17.7278 4.39556 17.8692 4.53735C18.0105 4.67914 18.0058 4.82566 17.855 4.98163Z" fill="#A66230"/>
<path d="M23.6231 2.538L21.5826 0.486752C21.3329 0.236255 21.0266 0.108643 20.6684 0.108643C20.3103 0.108643 20.004 0.236255 19.7542 0.486752L18.5149 1.72979L22.3884 5.61486L23.6278 4.37183C23.8775 4.12133 24.0048 3.81412 24.0048 3.45491C24.0048 3.09571 23.8775 2.78849 23.6231 2.538Z" fill="#A66230"/>
</g>
<defs>
<clipPath id="clip0">
<rect width="24" height="19" fill="white"/>
</clipPath>
</defs>
</svg>
