<svg width="378" height="437" viewBox="0 0 378 437" fill="none" xmlns="http://www.w3.org/2000/svg">
<g clip-path="url(#clip0)">
<path d="M243.069 369.109C243.142 368.72 243.191 368.355 243.191 367.941C243.264 365.801 240.247 365.995 240.198 368.111C240.149 369.522 239.541 370.763 239.687 372.222C239.93 374.412 241.561 375.749 243.215 376.698C244.262 377.306 245.381 376.333 245.381 375.141V370.349C245.381 368.89 243.97 368.525 243.069 369.109Z" fill="#E7D6C4"/>
<path d="M241.634 390.369H239.444C238.616 390.369 237.984 391.221 238.008 392.096C238.057 393.021 238.762 393.653 239.59 393.653H241.78C242.607 393.653 243.24 392.777 243.215 391.926C243.167 391.002 242.461 390.369 241.634 390.369Z" fill="#E7D6C4"/>
<path d="M266.406 387.304C266.357 388.058 265.432 388.447 264.945 388.788C264.434 389.128 263.948 389.518 263.485 389.931C262.317 388.934 261.174 387.669 260.663 386.185C261.222 386.501 261.928 386.526 262.488 385.918C264.434 383.899 267.038 383.29 267.233 379.958C267.282 379.034 266.406 378.377 265.651 378.401C262.317 378.45 258.278 379.569 257.475 383.68C256.696 387.62 259.884 391.269 262.561 393.288C263.291 393.823 264.021 393.823 264.678 393.142C266.625 391.123 269.228 390.515 269.423 387.182C269.52 385.017 266.503 385.212 266.406 387.304Z" fill="#E7D6C4"/>
<path d="M49.7381 50.4988C49.9084 50.8393 50.0788 51.2042 50.2978 51.5204C51.4415 53.3205 53.8262 51.4718 52.6825 49.6961C51.9281 48.5041 51.7335 47.1176 50.7845 46.023C49.3731 44.3445 47.2561 44.1743 45.358 44.2959C44.1657 44.3932 43.7763 45.804 44.4333 46.8014L47.1344 50.7664C47.9617 51.9826 49.3488 51.4961 49.7381 50.4988Z" fill="#E7D6C4"/>
<path d="M38.9583 32.1332L40.759 30.8926C41.4403 30.4305 41.489 29.3602 40.9537 28.6547C40.394 27.9006 39.445 27.779 38.7636 28.2412L36.9629 29.4818C36.2816 29.944 36.2329 31.0143 36.7683 31.7197C37.328 32.4494 38.277 32.5711 38.9583 32.1332Z" fill="#E7D6C4"/>
<path d="M20.2213 48.6012C19.832 47.9687 20.3916 47.1174 20.6107 46.5579C20.8297 45.9741 21.0243 45.3903 21.1703 44.7822C22.7034 44.9524 24.358 45.3416 25.6234 46.2903C24.9907 46.339 24.3824 46.7282 24.2607 47.5309C23.7984 50.2796 21.9733 52.25 23.701 55.1203C24.1877 55.8987 25.2827 55.9717 25.8911 55.5338C28.6164 53.6365 31.3175 50.4256 29.6871 46.5822C28.1054 42.8848 23.4334 41.6686 20.0753 41.4983C19.175 41.4496 18.5666 41.8875 18.3963 42.8118C17.9339 45.5606 16.1089 47.5309 17.8366 50.4012C18.956 52.25 21.3163 50.4012 20.2213 48.6012Z" fill="#E7D6C4"/>
<path d="M328.603 0.0492866C328.578 -0.00019625 328.751 -0.0249377 328.603 0.0492866V0.0492866Z" fill="#B688AA"/>
<path d="M350.235 232.742C346.731 243.178 311.472 241.134 292.832 240.356C274.168 239.578 262.634 219.266 262.634 219.266C262.634 219.266 251.805 191.171 245.819 171.127C241.415 156.41 244.262 115.544 242.753 107.03C241.244 98.5164 240.806 87.6188 240.806 87.6188C240.806 87.6188 261.198 55.7529 267.208 43.4688C273.243 31.1846 282.563 5.27839 310.839 2.35938C325.463 0.851223 328.164 0.194446 328.578 0.0241699C328.602 0.0971452 329.016 0.291746 331.547 0.534997C340.258 1.36205 350.722 2.1891 350.576 3.50266C350.43 4.81621 369.775 18.7058 355.637 77.6698C355.54 78.1077 355.516 79.0077 355.589 80.2726C356.075 90.1486 361.185 122.501 364.3 134.761C368.729 152.129 370.018 173.827 350.235 232.742Z" fill="#A98267"/>
<path d="M355.613 80.3213C349.019 79.8592 340.964 79.0808 330.793 77.5726C324.685 76.6726 318.942 74.5806 313.686 71.3454C309.501 68.7669 305.631 65.4587 302.176 61.5424C296.312 54.853 293.708 48.6987 293.611 48.4555L294.803 47.9447L294.998 47.8474L295.995 47.4338C296.044 47.5311 298.575 53.5151 304.171 59.8883C309.306 65.7263 318.163 73.0725 331.133 74.9941C341.134 76.478 349.091 77.2564 355.637 77.7186C355.564 78.1564 355.54 79.0564 355.613 80.3213Z" fill="white"/>
<path d="M340.794 78.4968C336.097 82.3645 323.736 83.4348 323.225 83.4834L323.006 80.8806C326.34 80.5887 335.757 79.2752 339.139 76.4778L340.794 78.4968Z" fill="white"/>
<path d="M278.816 102.822C282.125 143.883 267.914 166.019 247.45 157.14C216.205 143.591 202.676 151.545 195.911 146.413C189.122 141.28 175.495 178.789 175.495 178.789C175.495 178.789 173.305 180.614 171.431 182.949C170.506 184.092 169.679 185.333 169.217 186.549C169.217 186.549 164.18 187.984 163.158 182.341C163.158 182.341 161.795 180.735 160.968 181.952C160.116 183.168 158.194 185.625 155.079 184.603C153.229 183.995 153.424 182.706 153.059 180.638C152.816 179.251 152.305 177.5 150.747 175.335C150.747 175.335 148.995 173 147.122 172.805C147.122 172.805 142.571 181.319 139.749 181.83C136.926 182.341 121.669 168.403 116.169 164.365C116.169 164.365 93.4902 165.021 82.759 158.478C72.0279 151.934 60.9803 90.8785 75.9942 78.6187C91.0082 66.3588 142.231 52.0557 142.231 52.0557C142.231 52.0557 174.132 70.1778 207.761 76.9889C237.424 83.0215 275.896 66.748 278.816 102.822Z" fill="#FFC193"/>
<path d="M152.159 87.8865C152.159 87.8865 152.402 90.7568 157.439 97.2759C162.452 103.795 179.948 134.542 174.375 149.842C174.375 149.842 168.049 160.4 158.242 166.797C158.242 166.797 151.283 171.078 150.334 174.776C150.334 174.776 152.11 177.208 152.499 178.449C152.499 178.449 161.211 171.297 165.567 171.978C169.922 172.659 174.667 179.568 174.667 179.568C174.667 179.568 182.114 176.284 183.671 176.138C185.228 175.992 199.22 182.195 202.14 180.735C205.06 179.276 211.509 176.114 211.509 162.224C211.509 148.31 211.947 111.944 205.815 105.084C199.683 98.2489 188.611 92.0461 164.545 87.9108C164.472 87.9108 151.258 85.3323 152.159 87.8865Z" fill="#231F20"/>
<path d="M123.08 156.994L122.326 154.513L122.715 155.753L122.326 154.513C122.423 154.488 131.597 151.594 132.741 145.731C133.86 139.918 130.867 136.61 130.842 136.561L132.765 134.785C132.935 134.955 136.658 139.115 135.296 146.194C133.86 153.613 123.518 156.848 123.08 156.994Z" fill="#231F20"/>
<path d="M132.498 149.424L130.769 151.37L134.281 154.487L136.01 152.541L132.498 149.424Z" fill="#231F20"/>
<path d="M139.463 142.178L134.189 142.424L134.31 145.024L139.585 144.778L139.463 142.178Z" fill="#231F20"/>
<path d="M103.443 129.166C103.443 129.166 93.4413 143.421 98.3811 148.772C103.321 154.099 111.497 149.477 112.3 143.615C113.103 137.753 115.317 130.99 115.78 129.847C116.242 128.704 120.719 119.022 116.412 117.271C112.13 115.52 109.039 118.998 108.382 120.458C107.677 121.893 103.54 124.642 103.443 129.166Z" fill="#231F20"/>
<path d="M82.0045 94.211C82.0045 94.211 94.22 103.138 92.7357 113.987C91.2513 124.861 83.2212 144.856 86.4576 155.389C89.6939 165.921 93.3197 165.532 95.0717 173.705C95.0717 173.705 85.5572 182.584 76.6024 177.038C76.6024 177.038 57.9871 173.778 53.1934 153.175C53.1934 153.175 50.8817 137.437 47.9129 134.25C47.9129 134.25 45.7229 145.342 49.7866 150.475C49.7866 150.475 47.7183 155.121 42.3405 145.95C36.9628 136.78 37.1088 128.801 39.2015 121.261C39.2015 121.261 36.7924 90.4406 50.906 74.6293C65.0195 58.818 68.4263 61.6641 69.0346 59.1586C69.643 56.6531 68.7913 48.8691 78.6221 43.9068C88.4529 38.9444 101.252 32.1334 137.096 44.1987C137.096 44.1987 160.846 50.1097 170.19 64.7777C170.19 64.7777 168.073 70.64 162.062 70.9562C162.062 70.9562 147.925 64.5101 146.489 78.5457C146.489 78.5457 146.319 82.0242 149.239 84.9432C149.239 84.9432 148.728 87.9595 140.089 81.2944C131.451 74.6293 129.48 78.7159 125.319 79.7376C121.157 80.7593 114.295 78.0105 105.389 84.408C96.4831 90.7812 92.5166 89.3947 88.4286 88.8109C84.3648 88.2271 80.5688 93.0677 82.0045 94.211Z" fill="#231F20"/>
<path d="M360.066 258.381C360.066 258.381 375.81 250.621 373.839 247.751C371.892 244.88 367.269 250.305 367.269 250.305C367.269 250.305 368.242 244.88 365.59 244.516C362.937 244.151 361.088 255.973 360.066 258.381Z" fill="#FF939C"/>
<path d="M180.897 54.3907C180.897 54.3907 196.641 46.631 194.67 43.7606C192.723 40.8902 188.1 46.3147 188.1 46.3147C188.1 46.3147 189.073 40.8902 186.421 40.5254C183.768 40.1605 181.943 51.9825 180.897 54.3907Z" fill="#FF939C"/>
<path d="M170.336 41.2066C170.263 41.985 159.337 27.39 161.795 26.3197C164.253 25.2494 168.049 31.1604 168.049 31.1604C168.049 31.1604 167.757 25.3224 170.02 25.4197C172.283 25.5413 170.579 38.7741 170.336 41.2066Z" fill="#FF939C"/>
<path opacity="0.3" d="M184.571 163.367C184.547 163.367 184.547 163.367 184.523 163.367C184.401 163.367 184.304 163.367 184.182 163.367C184.158 163.367 184.133 163.367 184.109 163.367C184.085 163.367 184.06 163.367 184.036 163.343C184.012 163.343 183.939 163.318 183.866 163.294C183.647 163.051 183.306 162.905 182.965 162.905C182.698 162.905 182.381 162.978 182.114 163.026C181.408 163.148 180.994 163.926 181.14 164.583C181.286 165.264 181.919 165.629 182.576 165.581C183.33 165.994 184.328 166.043 185.155 165.921C185.861 165.824 186.275 165.021 186.129 164.364C185.983 163.61 185.277 163.245 184.571 163.367Z" fill="white"/>
<path opacity="0.3" d="M184.109 149.818C183.282 149.599 182.43 149.721 181.603 149.867C180.897 149.988 180.483 150.767 180.629 151.423C180.8 152.153 181.505 152.518 182.187 152.396C182.406 152.348 182.625 152.324 182.844 152.299C182.771 152.324 183.111 152.299 183.16 152.299C183.209 152.299 183.257 152.299 183.306 152.299C183.33 152.299 183.33 152.299 183.355 152.324C184.036 152.494 184.766 152.129 184.985 151.448C185.18 150.767 184.79 149.988 184.109 149.818Z" fill="white"/>
<path opacity="0.3" d="M194.305 145.44L193.283 145.634C192.577 145.756 192.163 146.534 192.309 147.191C192.48 147.921 193.185 148.286 193.867 148.164L194.889 147.969C195.594 147.848 196.008 147.069 195.862 146.413C195.716 145.707 195.01 145.318 194.305 145.44Z" fill="white"/>
<path opacity="0.3" d="M183.014 129.482C181.821 129.312 180.726 129.409 179.777 130.261C179.242 130.723 179.242 131.599 179.729 132.109C180.24 132.645 181.043 132.62 181.578 132.158C181.675 132.085 181.7 132.061 181.7 132.061C181.7 132.061 181.7 132.085 181.821 132.012C181.675 132.085 181.992 132.012 181.919 132.012C182.259 131.988 182.624 132.061 182.965 132.109C183.671 132.207 184.279 131.501 184.304 130.845C184.304 130.066 183.719 129.58 183.014 129.482Z" fill="white"/>
<path opacity="0.3" d="M179.291 114.79C178.196 114.717 177.15 114.644 176.055 114.814C175.349 114.936 174.935 115.714 175.081 116.371C175.252 117.101 175.957 117.466 176.639 117.344C177.49 117.198 178.366 117.32 179.218 117.368C180.897 117.514 180.97 114.912 179.291 114.79Z" fill="white"/>
<path opacity="0.3" d="M169.363 96.4487L166.905 96.1082C166.199 96.0109 165.591 96.7163 165.567 97.3731C165.542 98.1515 166.126 98.6136 166.832 98.7109L169.29 99.0515C169.995 99.1488 170.604 98.4434 170.628 97.7866C170.652 97.0325 170.044 96.5703 169.363 96.4487Z" fill="white"/>
<path opacity="0.3" d="M187.37 100.389C186.518 99.8299 185.472 99.6353 184.474 99.7813C183.768 99.9029 183.355 100.681 183.501 101.338C183.671 102.044 184.328 102.408 185.009 102.311C185.058 102.311 185.107 102.311 185.155 102.311C185.204 102.311 185.374 102.335 185.423 102.335C185.52 102.36 185.642 102.384 185.739 102.433C185.739 102.433 185.739 102.433 185.764 102.433C185.861 102.481 185.934 102.53 186.031 102.579C186.615 102.968 187.467 102.725 187.832 102.141C188.197 101.557 187.954 100.779 187.37 100.389Z" fill="white"/>
<path opacity="0.3" d="M199.05 113.72C198.222 113.355 197.395 112.99 196.519 112.844C195.813 112.722 195.108 112.99 194.889 113.72C194.718 114.328 195.059 115.228 195.765 115.349C196.665 115.495 197.492 115.86 198.295 116.225C198.953 116.517 199.731 115.958 199.926 115.349C200.145 114.595 199.683 114.012 199.05 113.72Z" fill="white"/>
<path opacity="0.3" d="M202.067 121.649C200.802 121.114 199.488 120.701 198.101 120.895C197.395 120.993 196.981 121.82 197.127 122.452C197.298 123.182 197.979 123.522 198.685 123.425C199.561 123.304 200.558 123.79 201.337 124.131C201.994 124.398 202.773 123.863 202.967 123.255C203.162 122.525 202.724 121.941 202.067 121.649Z" fill="white"/>
<path opacity="0.3" d="M197.371 135.15C196.568 134.615 195.692 134.347 194.718 134.493C194.013 134.59 193.599 135.417 193.745 136.05C193.915 136.78 194.621 137.145 195.302 137.023C194.962 137.072 195.229 137.023 195.327 137.023C195.351 137.023 195.351 137.023 195.351 137.023C195.375 137.023 195.424 137.047 195.448 137.047C195.497 137.072 195.546 137.072 195.594 137.096C195.594 137.096 195.594 137.096 195.619 137.096C195.765 137.169 195.886 137.242 196.008 137.339C196.592 137.728 197.444 137.485 197.809 136.901C198.198 136.317 197.955 135.539 197.371 135.15Z" fill="white"/>
<path opacity="0.3" d="M206.301 153.929C205.206 152.834 203.746 152.25 202.213 152.469C201.508 152.567 201.094 153.394 201.24 154.026C201.41 154.756 202.092 155.096 202.797 154.999C203.381 154.926 204.063 155.364 204.403 155.705C205.596 156.897 207.494 155.121 206.301 153.929Z" fill="white"/>
<path opacity="0.3" d="M200.753 173.024C199.853 172.878 199.026 172.513 198.223 172.148C197.566 171.856 196.787 172.416 196.592 173.024C196.373 173.778 196.836 174.362 197.468 174.654C198.296 175.019 199.123 175.384 199.999 175.529C200.705 175.651 201.41 175.384 201.629 174.654C201.824 174.021 201.459 173.146 200.753 173.024Z" fill="white"/>
<path opacity="0.3" d="M167.051 165.994C167.027 165.994 167.002 165.994 166.954 165.994C166.856 165.994 166.759 165.994 166.686 165.994C166.467 165.994 166.248 165.97 166.029 165.994C165.421 166.019 164.788 166.213 164.399 166.7C163.961 167.259 163.815 167.965 164.35 168.548C164.788 169.011 165.737 169.156 166.199 168.597C166.248 168.597 166.297 168.597 166.37 168.597C166.808 168.621 167.221 168.621 167.659 168.548C168.365 168.451 168.779 167.624 168.633 166.992C168.438 166.262 167.757 165.921 167.051 165.994Z" fill="white"/>
<path opacity="0.3" d="M82.4911 109.584C82.0531 109.025 81.1284 109.073 80.6417 109.536C80.0821 110.071 80.1551 110.825 80.5931 111.384C81.4691 112.528 81.1284 114.449 80.6174 115.909C80.3254 116.809 79.8874 117.636 79.4251 118.463C79.0114 119.168 78.4761 119.898 78.0867 120.36C77.6244 120.895 77.5027 121.649 78.038 122.209C78.5004 122.695 79.4007 122.793 79.8874 122.258C82.6858 119.071 85.4355 113.428 82.4911 109.584Z" fill="white"/>
<path opacity="0.3" d="M64.8007 128.947C62.781 127.293 61.8807 124.763 61.4184 122.258C61.102 120.603 58.5713 121.212 58.8877 122.841C59.423 125.736 60.5667 128.801 62.9027 130.723C63.4624 131.185 64.1681 131.306 64.7521 130.771C65.2144 130.333 65.3361 129.385 64.8007 128.947Z" fill="white"/>
<path opacity="0.3" d="M65.3117 103.09C64.8006 103.211 64.679 103.187 64.4113 103.017C64.241 102.919 63.9246 102.506 63.73 102.19C63.1703 101.241 62.8296 100.195 62.2456 99.2706C61.8563 98.6625 61.1506 98.3706 60.4936 98.7355C59.9096 99.0517 59.5689 99.9031 59.9582 100.487C60.6396 101.557 61.0046 102.798 61.7346 103.844C62.7079 105.279 64.168 106.057 65.92 105.619C67.526 105.206 66.942 102.676 65.3117 103.09Z" fill="white"/>
<path opacity="0.3" d="M77.3325 70.275C77.0405 69.7155 76.1402 69.3263 75.5805 69.7398C72.1008 72.1966 69.1807 76.04 70.2514 80.5158C70.6407 82.1456 73.1714 81.5618 72.7821 79.932C72.0278 76.6968 74.2908 73.8264 76.7972 72.0507C77.3812 71.6372 77.6975 70.9561 77.3325 70.275Z" fill="white"/>
<path opacity="0.3" d="M111.765 66.1155C109.842 67.2588 107.628 69.1318 105.243 68.8399C104.537 68.7669 103.929 69.448 103.905 70.1048C103.88 70.8589 104.464 71.3697 105.17 71.4427C108.066 71.7832 110.645 69.8129 112.981 68.4021C114.417 67.5507 113.2 65.2398 111.765 66.1155Z" fill="white"/>
<path opacity="0.3" d="M100.547 45.8527C96.0452 45.3176 88.6234 45.8771 87.3581 51.3259C86.993 52.9556 89.4751 53.7097 89.8644 52.0556C90.1078 51.0583 90.4484 50.5718 91.2758 49.915C91.2028 49.988 91.4948 49.7691 91.4948 49.7691C91.6165 49.6961 91.7381 49.6231 91.8598 49.5501C92.1031 49.4042 92.3708 49.2826 92.6385 49.1853C93.0521 49.015 93.6118 48.8447 94.1472 48.7231C96.1912 48.2366 98.3326 48.2123 100.498 48.4555C101.204 48.5285 101.812 47.8474 101.837 47.1906C101.837 46.4365 101.253 45.9257 100.547 45.8527Z" fill="white"/>
<path opacity="0.3" d="M131.353 55.9477C128.798 54.4396 125.878 52.1287 122.715 52.9314C121.084 53.345 121.668 55.8991 123.299 55.4612C124.442 55.1693 125.586 55.6315 126.608 56.1423C127.776 56.7262 128.871 57.4802 130.015 58.1613C131.426 59.037 132.789 56.7991 131.353 55.9477Z" fill="white"/>
<path opacity="0.3" d="M139.457 68.2561C138.264 68.8886 136.999 68.8399 135.709 68.475C134.103 68.0129 133.349 70.5183 134.979 70.9805C136.902 71.5157 138.873 71.4914 140.673 70.567C142.158 69.7886 140.941 67.4777 139.457 68.2561Z" fill="white"/>
<path opacity="0.3" d="M78.3788 139.869C78.1598 139.188 77.5515 138.726 76.8215 138.896C76.1645 139.042 75.6291 139.796 75.8481 140.453C76.6025 142.861 76.3835 145.294 76.1645 147.75C75.9211 150.45 75.6048 153.126 75.4588 155.826C75.3858 157.505 77.9895 157.578 78.0625 155.899C78.2085 153.199 78.5249 150.523 78.7682 147.823C79.0115 145.148 79.2062 142.448 78.3788 139.869Z" fill="white"/>
<path opacity="0.3" d="M78.8656 167.016C76.3349 166.481 74.4612 164.778 72.3928 163.343C71.8088 162.929 70.9571 163.197 70.5921 163.781C70.2028 164.413 70.4461 165.167 71.0301 165.581C73.2931 167.162 75.3615 168.938 78.1355 169.521C78.8169 169.667 79.5469 169.351 79.7659 168.646C79.9362 167.989 79.5469 167.162 78.8656 167.016Z" fill="white"/>
<path opacity="0.3" d="M49.0566 117.149C49.1782 115.471 46.5745 115.398 46.4529 117.076C46.2825 119.412 45.6742 122.136 46.9882 124.277C47.3532 124.885 48.0832 125.177 48.7402 124.812C49.3242 124.496 49.6649 123.644 49.2756 123.06C48.7889 122.282 48.7646 121.406 48.7646 120.506C48.8132 119.387 48.9836 118.268 49.0566 117.149Z" fill="white"/>
<path opacity="0.3" d="M50.5411 88.3243C49.9814 87.9837 49.0567 88.1297 48.7404 88.7621C48.1077 90.1 47.9861 91.5109 47.7184 92.9461C47.5724 93.6515 47.8644 94.3569 48.5944 94.5758C49.2271 94.7704 50.0788 94.3812 50.2004 93.7001C50.4194 92.5325 50.4438 91.219 50.9548 90.1487C51.2711 89.4676 51.1981 88.7135 50.5411 88.3243Z" fill="white"/>
<path d="M171.455 182.949C170.531 184.092 169.703 185.333 169.241 186.549C169.241 186.549 164.204 187.984 163.182 182.341C163.182 182.341 161.819 180.735 160.992 181.951C160.14 183.168 158.218 185.625 155.103 184.603C153.254 183.995 153.449 182.706 153.083 180.638C154.738 179.981 156.417 179.397 158.218 179.154C160.213 178.886 162.257 178.668 164.253 179.057C166.978 179.568 169.411 181.051 171.455 182.949Z" fill="#FF939C"/>
<path d="M124.54 45.0254C113.127 40.355 102.129 32.1331 89.1831 33.4953C87.65 33.6656 86.1413 33.9818 84.6813 34.4196C83.0753 34.9061 81.5666 35.5872 79.9606 36.0494C76.5052 37.0224 73.0985 38.0684 70.6894 40.9388C69.5214 42.3253 68.6211 43.8578 67.8911 45.5119C67.1124 47.2389 66.4797 48.9904 66.2364 50.8634C65.8227 53.8797 66.8204 56.8474 67.5747 59.7907C65.117 60.8853 62.781 62.2962 60.4449 63.6584C58.7659 64.6314 57.0382 65.5801 55.2375 66.2855C53.7532 66.8693 52.3175 67.5747 50.9304 68.3531C45.1634 71.5883 40.1749 76.4534 37.8146 82.7292C37.2306 84.2617 36.6952 85.7699 36.4275 87.3996C36.1355 89.1754 36.0139 90.9754 35.9409 92.7755C35.8679 94.6728 35.7949 96.5702 35.6002 98.4432C35.4055 100.462 35.1622 102.481 35.0162 104.5C34.7728 108.173 34.2132 111.846 33.9942 115.519C33.7752 119.241 34.1645 122.914 35.5272 126.417C36.4275 128.752 37.7902 130.844 39.3963 132.742C40.9536 134.59 42.73 136.293 44.117 138.288C44.5307 138.872 45.1877 139.188 45.869 138.823C46.453 138.507 46.818 137.655 46.4044 137.071C44.2873 134.006 41.3186 131.598 39.4206 128.412C37.4982 125.201 36.5735 121.674 36.5249 117.928C36.4762 114.303 37.1089 110.727 37.4252 107.127C37.6199 105.133 37.6929 103.138 37.9119 101.143C38.1309 99.1243 38.3499 97.081 38.4472 95.062C38.5932 91.7295 38.4959 88.2267 39.6883 85.0644C40.2479 83.6049 40.7833 82.1454 41.5376 80.7589C42.292 79.3967 43.2167 78.1075 44.2387 76.9399C46.3314 74.5317 48.8864 72.537 51.6361 70.9316C52.9988 70.1288 54.4345 69.4234 55.9189 68.791C57.6709 68.0612 59.3499 67.2342 61.0289 66.3098C63.4136 64.9719 65.774 63.4394 68.2804 62.3205C68.9617 63.0746 70.4948 62.5881 70.5434 61.4205C70.9084 61.2988 71.2734 61.2015 71.6384 61.1042C73.2688 60.6664 72.6848 58.1366 71.0544 58.5744C70.6894 58.6717 70.3488 58.769 70.0081 58.8907C69.2781 56.0933 68.3534 53.2472 68.9374 50.4012C69.3024 48.6255 70.0568 46.8741 70.9084 45.2929C71.7114 43.7848 72.7335 42.3983 74.0718 41.3036C75.3858 40.2333 77.0892 39.6738 78.6709 39.1873C79.4982 38.9441 80.3499 38.7008 81.1773 38.4576C82.0533 38.2143 82.8806 37.8495 83.7566 37.5332C86.701 36.4386 89.7914 35.9035 92.9305 36.0008C98.2595 36.1467 103.394 38.0441 108.212 40.2333C113.444 42.6172 118.505 45.4146 123.834 47.5795C124.491 47.8471 125.27 47.3119 125.465 46.7038C125.659 45.9011 125.197 45.2929 124.54 45.0254Z" fill="#231F20"/>
<path d="M82.1263 173.048C81.6152 173.973 80.9826 174.459 79.9119 174.97C78.8169 175.505 77.5515 175.797 76.2618 175.992C74.9721 176.186 73.6824 176.235 72.3684 176.186C71.7844 176.162 71.2004 176.113 70.6164 176.04C70.1784 175.992 69.7161 175.894 69.132 175.749C66.139 175.019 63.2919 173.73 60.8342 171.832C58.2549 169.862 56.5272 167.162 55.5052 164.097C53.9965 159.597 53.9965 154.756 53.8505 150.086C53.7775 148.067 53.8505 146.072 53.9235 144.053C53.9965 142.083 54.0208 140.015 53.4368 138.118C52.9501 136.512 50.4194 137.096 50.9061 138.701C51.8551 141.912 51.1007 145.391 51.1981 148.675C51.3198 152.761 51.3441 156.872 52.0254 160.91C52.6338 164.583 53.9721 168.159 56.3325 171.078C58.3522 173.584 61.1506 175.481 64.0706 176.77C67.5017 178.303 71.1031 179.008 74.8748 178.765C78.2329 178.546 82.5886 177.67 84.3406 174.411C85.1436 172.927 82.9293 171.565 82.1263 173.048Z" fill="#231F20"/>
<path d="M112.057 190.173C110.159 189.76 107.969 189.565 106.679 191.341C106.241 191.925 107.117 192.63 107.531 192.046C108.48 190.781 110.013 190.903 111.424 191.171V191.56C111.449 192.29 112.568 192.192 112.544 191.463L112.519 190.66C112.495 190.417 112.276 190.222 112.057 190.173Z" fill="#231F20"/>
<path d="M68.5482 191.681C67.6722 191.219 66.8449 191.025 65.8715 191.292C65.0198 191.536 65.4822 192.8 66.3338 192.557C66.9665 192.387 67.4532 192.606 67.9885 192.898C68.7672 193.336 69.3269 192.095 68.5482 191.681Z" fill="#231F20"/>
<path d="M19.3208 212.844C19.3208 212.844 2.48185 232.767 19.4668 298.639C24.4065 317.832 12.1667 376.163 33.9697 387.182C37.8144 389.128 48.9349 378.109 58.8631 372.977C77.235 363.465 80.6174 319.923 91.7866 314.28C105 307.591 121.376 312.602 134.2 305.45C160.87 290.539 168.34 306.326 168.462 306.155C168.243 306.618 254.482 236.44 251.44 230.237C248.374 224.034 246.938 221.407 238.057 215.472C225.452 207.055 207.591 208.028 203.284 206.715C198.977 205.425 183.014 193.555 180.045 193.409C177.076 193.263 174.959 201.217 174.959 201.217C172.599 201.655 171.066 199.612 170.628 197.495C170.506 196.839 170.336 196.133 170.092 195.476C169.557 193.993 168.535 192.63 166.199 192.29C162.817 191.803 162.111 197.982 161.6 198.444C161.089 198.906 160.675 198.858 160.724 198.152C160.773 197.447 161.965 193.822 158.923 191.755C155.882 189.687 153.984 192.679 152.937 194.795C152.889 194.893 152.84 194.99 152.791 195.111C151.721 197.228 149.579 200.463 143.155 201.485C136.39 202.531 132.181 200.487 126.413 204.963C120.646 209.463 125.513 223.28 125.951 232.84C126.243 239.602 132.375 257.457 112.568 264.633C103.929 267.771 87.7715 265.265 80.7634 259.549C71.0543 251.619 71.1273 241.062 65.4575 227.902C54.7993 203.309 19.3208 212.844 19.3208 212.844Z" fill="#FFD0AE"/>
<path d="M174.838 225.396C173.913 224.472 169.752 225.81 167.343 231.307C164.91 236.804 165.64 239.48 167.586 240.283C169.509 241.086 173.061 237.437 174.497 234.445C175.933 231.453 176.59 227.123 174.838 225.396Z" fill="#FF939C"/>
<path d="M190.825 236.683L192.042 234.372C191.969 234.323 184.936 230.553 186.177 225.542C187.516 220.19 195.132 217.369 195.205 217.344L194.305 214.887C193.94 215.009 185.301 218.244 183.622 224.909C181.919 231.915 190.46 236.488 190.825 236.683Z" fill="#231F20"/>
<path d="M186.48 231.121L182.261 233.782L183.651 235.983L187.869 233.322L186.48 231.121Z" fill="#231F20"/>
<path d="M184.684 225.152L181.135 225.302L181.245 227.903L184.795 227.752L184.684 225.152Z" fill="#231F20"/>
<path d="M181.762 216.576L180.619 218.915L186.938 222.001L188.081 219.662L181.762 216.576Z" fill="#231F20"/>
<path d="M208.735 219.607C208.735 219.607 208.053 211.433 213.09 213.331C218.152 215.228 216.278 223.158 212.944 227.926C209.611 232.669 208.248 237.242 206.204 236.391C204.16 235.539 204.281 229.069 206.399 225.615C208.516 222.112 207.226 221.48 208.735 219.607Z" fill="#231F20"/>
<path d="M264.824 282.39C264.775 282.609 264.727 282.803 264.702 283.022C264.581 283.533 264.483 284.044 264.362 284.555C264.045 285.844 263.68 287.109 263.267 288.349C262.245 291.487 260.955 294.455 259.471 297.374C258.814 297.568 258.23 297.982 257.889 298.614C253.047 307.104 246.939 314.207 239.517 320.775C235.77 324.083 232.339 326.71 228.275 329.532C224.235 332.329 220.05 334.932 215.767 337.389C211.095 340.064 206.326 342.521 201.727 345.319C196.909 348.286 192.237 351.473 187.564 354.684C185.253 356.265 182.965 357.87 180.654 359.451C178.439 360.96 176.176 362.37 174.035 363.952C169.801 367.114 165.834 370.617 161.965 374.192C158.194 377.671 154.471 381.222 150.529 384.506C146.732 387.668 142.523 390.417 138.362 393.409C134.444 396.231 130.551 399.126 126.511 401.753C124.516 403.042 122.472 404.283 120.379 405.426C119.357 405.985 118.335 406.496 117.289 407.007C116.121 407.566 115.123 408.004 114.174 408.369C112.471 409.05 110.743 409.634 108.991 410.145C108.066 410.412 107.166 410.656 106.217 410.875C105.803 410.972 105.365 411.069 104.951 411.167C104.732 411.215 104.513 411.24 104.319 411.288C104.246 411.288 103.71 411.385 103.686 411.385C99.7927 411.848 95.875 411.556 91.9816 412.164C88.1612 412.772 84.9005 414.621 82.1264 417.248C80.2041 409.099 82.3698 400.585 84.0975 393.774C87.4799 380.322 113.079 361.203 113.079 361.203C115.95 351.619 119.016 342.959 122.155 335.175C122.545 334.226 122.934 333.278 123.323 332.353C141.622 288.422 161.819 273.292 161.819 273.292C161.041 279.592 170.093 283.144 170.093 283.144C170.361 283.217 170.604 283.29 170.872 283.338C171.918 283.557 172.891 283.606 173.816 283.509C183.184 282.56 185.472 266.554 185.472 266.554C194.086 254.927 210.755 251.862 223.311 247.799C225.014 247.24 226.644 246.656 228.177 246.048C231.049 244.88 233.531 243.567 235.453 241.937C245.795 233.058 245.673 221.042 245.673 221.042C249.08 225.128 252.025 229.239 254.555 233.375C255.285 234.542 255.942 235.734 256.599 236.902C261.101 245.099 263.899 253.272 265.165 261.154C265.457 263.002 265.676 264.851 265.797 266.676C266.162 272.1 265.822 277.379 264.824 282.39Z" fill="#FF939C"/>
<path d="M152.767 195.111C153.132 195.817 153.716 196.449 154.349 196.984C155.76 198.201 156.758 199.709 158.583 200.39C160.238 201.022 161.917 200.974 163.571 200.317C166.126 199.271 168.389 197.593 170.117 195.452C169.582 193.968 168.56 192.606 166.224 192.265C162.841 191.779 162.136 197.957 161.625 198.42C161.114 198.882 160.7 198.833 160.749 198.128C160.797 197.422 161.99 193.798 158.948 191.73C155.906 189.663 154.008 192.655 152.962 194.771C152.864 194.917 152.816 195.014 152.767 195.111Z" fill="#FF939C"/>
<path d="M188.294 263.003C190.217 260.181 192.504 257.651 194.791 255.146C197.322 252.348 200.096 249.794 203.065 247.483C205.79 245.343 208.71 243.324 211.849 241.815C216.959 239.359 222.532 238.045 227.934 236.367C232.995 234.81 238.178 232.888 242.023 229.191C243.605 227.683 244.846 225.931 245.819 223.961C246.574 222.453 248.837 223.718 248.107 225.226C245.576 230.334 241.123 233.861 236.013 236.172C230.805 238.507 225.233 239.796 219.831 241.524C217.227 242.351 214.721 243.251 212.336 244.491C209.197 246.097 206.228 248.237 203.503 250.475C200.632 252.81 198.101 255.462 195.594 258.186C193.331 260.619 191.19 263.197 189.487 266.068C188.367 267.941 187.345 270.032 187.126 272.246C187.053 272.951 186.591 273.56 185.837 273.56C185.18 273.56 184.45 272.976 184.523 272.27C184.815 268.841 186.421 265.776 188.294 263.003Z" fill="#FF939C"/>
<path d="M245.235 336.148C245.795 335.905 246.427 336.318 246.792 336.708C247.23 337.17 247.547 337.754 247.62 338.386C247.693 339.091 247.206 339.651 246.549 339.797C245.843 339.943 245.527 338.872 246.257 338.727C246.306 338.727 246.354 338.702 246.403 338.702H246.427C246.427 338.702 246.452 338.702 246.452 338.678C246.452 338.678 246.476 338.678 246.476 338.654L246.5 338.629C246.5 338.605 246.525 338.581 246.525 338.556V338.532C246.525 338.483 246.525 338.459 246.525 338.41C246.525 338.508 246.5 338.264 246.476 338.216C246.476 338.191 246.452 338.167 246.452 338.143C246.452 338.143 246.403 338.045 246.403 338.021C246.354 337.924 246.306 337.851 246.257 337.754C246.233 337.729 246.208 337.681 246.184 337.656C246.16 337.632 246.111 337.583 246.111 337.559C246.038 337.486 245.989 337.413 245.916 337.364L245.892 337.34C245.892 337.34 245.819 337.291 245.795 337.267C245.77 337.243 245.722 337.243 245.697 337.218H245.673C245.649 337.243 245.624 337.291 245.624 337.316C245.576 337.437 245.551 337.559 245.551 337.681L245.916 337.754C246.622 337.9 246.354 338.97 245.649 338.848L244.846 338.702C244.602 338.654 244.432 338.41 244.408 338.167C244.359 337.389 244.456 336.464 245.235 336.148Z" fill="#231F20"/>
<path d="M251.586 211.798L253.362 212.674C254.141 213.063 253.484 214.255 252.705 213.866L250.929 212.99C250.15 212.601 250.808 211.433 251.586 211.798Z" fill="#231F20"/>
<path d="M65.2145 367.99C65.1901 367.722 65.1415 367.454 65.0685 367.211C64.6791 365.8 62.7568 366.506 63.1218 367.917C63.3651 368.841 63.2191 369.79 63.6085 370.714C64.1925 372.101 65.5308 372.66 66.8205 372.952C67.6235 373.147 68.1832 372.295 67.9399 371.492L66.9908 368.33C66.6988 367.357 65.6768 367.406 65.2145 367.99Z" fill="#E7D6C4"/>
<path d="M68.5238 382.244L67.0881 382.682C66.5528 382.852 66.3094 383.533 66.5041 384.093C66.7231 384.701 67.3071 384.968 67.8424 384.798L69.2781 384.36C69.8135 384.19 70.0568 383.509 69.8621 382.949C69.6431 382.366 69.0591 382.074 68.5238 382.244Z" fill="#E7D6C4"/>
<path d="M84.1947 375.287C84.3164 375.774 83.781 376.236 83.5134 376.552C83.2457 376.893 83.0024 377.233 82.7834 377.598C81.81 377.16 80.8123 376.576 80.1796 375.701C80.5933 375.798 81.08 375.676 81.3233 375.166C82.1994 373.463 83.781 372.538 83.2457 370.301C83.0997 369.692 82.394 369.425 81.9073 369.595C79.7416 370.276 77.3083 371.833 77.5759 374.679C77.8436 377.428 80.6663 379.204 82.832 379.982C83.416 380.201 83.9027 380.055 84.1947 379.471C85.0707 377.768 86.6524 376.844 86.1171 374.606C85.7764 373.147 83.854 373.876 84.1947 375.287Z" fill="#E7D6C4"/>
<path d="M264.337 284.555C256.599 312.066 249.615 328.461 219.368 349.381C216.594 351.303 213.626 353.249 210.438 355.268C208.929 356.216 207.494 357.165 206.155 358.114C194.548 366.238 188.221 374.363 183.452 382.268C182.844 383.266 182.284 384.263 181.724 385.26C174.205 398.566 169.776 411.167 150.309 422.04C121.304 438.216 61.8563 421.091 37.8146 396.669C36.7439 395.574 35.7219 394.455 34.7972 393.336C32.3395 390.369 30.4171 387.304 29.1518 384.19C28.5434 382.682 27.9837 381.101 27.4971 379.52C27.2051 378.571 26.9374 377.598 26.6941 376.601C23.2873 362.833 24.5284 346.948 28.4947 333.034C28.8598 331.794 29.2248 330.553 29.6141 329.337C34.4565 314.523 42.3893 302.507 50.8331 298.663C69.1807 290.32 81.4692 301.144 107.482 283.946C133.47 266.749 161.819 273.341 161.819 273.341C160.456 284.214 175.032 300.901 175.032 300.901C175.032 300.901 232.849 273.487 255.699 274.508C257.086 274.581 258.327 274.727 259.446 275.019C263.85 276.089 265.894 279.033 264.337 284.555Z" fill="#FF939C"/>
<path d="M68.0127 234.737C68.0127 234.737 19.54 238.459 12.3372 236.683L11.8992 245.853C11.8992 245.853 62.927 243.737 70.4218 242.253L68.0127 234.737Z" fill="#A98267"/>
<path d="M266.065 266.019C265.749 263.294 265.457 260.497 264.605 257.894C263.705 255.146 262.658 252.445 261.588 249.745C260.931 248.091 260.395 246.413 259.689 244.783C258.935 243.032 258.035 241.353 257.061 239.723C256.112 238.118 255.09 236.586 254.093 235.029C253.144 233.569 252.073 232.183 251.416 230.577C250.71 228.874 247.961 229.75 248.691 231.453C249.688 233.861 251.294 236.026 252.73 238.215C254.239 240.502 255.699 242.861 256.818 245.367C257.353 246.559 257.718 247.799 258.205 248.991C258.765 250.402 259.324 251.813 259.884 253.224C260.906 255.851 262.099 258.6 262.537 261.373C264.094 271.273 264.727 281.417 263.656 291.414C262.61 301.071 260.006 311.093 254.677 319.315C251.732 323.864 248.423 328.169 244.992 332.329C241.853 336.124 238.251 339.383 234.626 342.716C231.097 345.951 227.618 349.284 224.965 353.273C222.751 356.581 221.023 360.23 219.32 363.806C215.84 371.225 212.798 378.887 208.564 385.917C206.52 389.298 204.16 392.485 201.386 395.282C198.344 398.347 194.67 400.731 190.801 402.604C188.611 403.674 186.299 404.526 183.914 405.085C186.664 398.664 188.173 391.755 188.83 384.75C190.265 369.279 190.971 351.327 203.892 340.551C204.501 340.04 204.768 339.286 204.306 338.556C203.917 337.948 202.919 337.632 202.311 338.143C198.734 341.11 195.789 344.638 193.55 348.724C191.433 352.567 190.046 356.8 189.073 361.057C188.051 365.435 187.467 369.887 186.956 374.338C186.323 379.69 186.129 385.066 185.253 390.393C184.377 395.745 182.771 400.901 180.435 405.693C179.072 405.839 177.709 405.912 176.346 405.864C171.017 405.693 165.907 403.529 161.065 401.51C158.826 400.561 156.539 399.734 154.324 398.761C152.256 397.861 150.309 396.669 148.484 395.38C147.852 394.917 147.024 394.869 146.465 395.501C145.978 396.036 145.954 397.082 146.586 397.52C148.557 398.907 150.601 400.196 152.791 401.193C153.911 401.704 155.079 402.069 156.198 402.531C157.512 403.066 158.802 403.626 160.092 404.185C165.08 406.277 170.19 408.272 175.616 408.661C176.687 408.734 177.782 408.758 178.853 408.71C177.223 411.604 175.324 414.353 173.183 416.932C170.19 420.532 166.929 423.962 163.255 426.856C161.43 428.291 159.459 429.581 157.391 430.651C155.322 431.721 153.108 432.402 150.845 432.962C145.345 434.324 139.603 434.251 133.981 433.862C128.433 433.473 122.91 432.938 117.41 432.232C111.911 431.527 106.29 430.627 100.742 431.113C95.5585 431.575 90.5215 433.108 85.3627 433.789C79.985 434.494 74.7776 433.838 69.6188 432.159C64.6061 430.529 59.8853 428.024 55.3349 425.372C51.0278 422.867 47.1345 419.656 43.6304 416.105C40.2237 412.675 36.9143 408.758 34.6513 404.502C32.9479 401.339 32.0719 397.763 30.7579 394.455C30.1739 392.947 29.6872 391.366 29.2248 389.809C31.9015 390.588 34.7486 391.05 37.5226 390.807C44.7254 390.174 50.6142 385.455 57.2086 382.974C57.9386 382.706 58.3766 381.952 58.1333 381.174C57.9143 380.468 57.0626 379.958 56.3326 380.249C49.7868 382.731 43.8007 387.62 36.598 388.009C33.8239 388.155 30.9525 387.474 28.3002 386.55C28.0325 385.406 27.8135 384.263 27.6918 383.12C27.4728 381.052 27.1321 379.057 27.1078 376.966C27.0835 374.898 27.2295 372.855 27.5458 370.811C27.7648 369.4 27.9108 367.965 28.1785 366.554C28.3975 365.362 28.7382 364 29.7845 363.271C31.2932 362.2 29.7358 359.792 28.2272 360.862C26.5238 362.079 25.7694 363.976 25.3801 365.946C24.9664 367.965 24.7231 370.082 24.5041 372.149C24.0174 376.479 24.2851 380.955 25.1124 385.236C23.1901 384.336 21.365 383.266 19.6617 382.025C19.0777 381.587 18.518 381.149 17.9827 380.663C17.715 380.444 17.4717 380.201 17.2283 379.958C16.912 379.666 16.8146 379.544 16.5956 379.276C15.6953 378.182 14.9409 376.99 14.2839 375.749C12.8482 373.074 11.8506 370.057 11.1205 367.065C9.70919 361.227 9.27119 354.878 11.4856 349.235C13.7973 343.348 18.153 338.581 21.146 333.059C22.9467 329.726 23.8714 326.077 24.2851 322.331C24.7231 318.318 24.5041 314.28 24.9908 310.291C25.2341 308.247 25.5991 306.204 25.9398 304.161C26.2561 302.336 26.6211 300.682 27.4241 299.004C28.1785 297.471 29.1275 296.085 30.1495 294.747C31.2202 293.336 32.2666 291.925 33.5076 290.684C35.9409 288.252 38.9827 286.452 42.1704 285.163C45.6014 283.776 49.0568 282.803 52.7555 282.438C56.3326 282.098 59.8853 282.244 63.365 282.73C59.423 283.995 55.6513 285.771 52.1472 288.155C46.2098 292.193 41.0024 297.204 36.5006 302.798C34.1646 305.717 32.0232 308.88 30.4659 312.285C29.2978 314.815 28.6165 317.491 28.1298 320.215C27.1565 325.494 26.8888 330.991 27.4728 336.318C28.3732 344.686 31.6095 353.565 39.372 357.822C41.0024 358.722 42.2677 356.143 40.6617 355.268C36.4033 352.932 33.6536 348.748 32.0719 344.151C30.3199 339.091 29.8818 333.716 30.1008 328.34C30.1982 325.834 30.4902 323.353 30.9525 320.799C31.4392 318.148 32.0962 315.593 33.2399 313.161C34.7973 309.828 36.9386 306.812 39.2503 303.99C41.5377 301.193 44.0197 298.396 46.7694 296.036C51.8795 291.609 57.3303 287.668 63.8274 285.576C65.8471 284.919 67.9154 284.433 69.9838 284.044C71.7602 284.482 73.5365 284.992 75.2886 285.552C79.0846 286.744 82.8807 288.033 86.7741 288.86C90.2051 289.59 93.7822 289.906 97.2619 290.101C102.129 290.368 107.579 290.003 111.619 286.938C112.251 286.476 112.495 285.649 112.032 284.944C111.619 284.311 110.67 284.044 110.037 284.53C107.579 286.379 104.562 287.036 101.496 287.23C98.2839 287.425 95.0719 287.109 91.9085 286.719C87.9908 286.233 84.219 285.333 80.4473 284.165C79.3523 283.825 78.2816 283.484 77.2109 283.144C80.6663 282.9 84.1704 282.876 87.6501 282.876C91.6895 282.876 95.6072 282.414 99.5249 281.49C103.297 280.59 106.995 279.349 110.67 278.084C112.543 277.452 114.417 276.844 116.242 276.065C118.067 275.311 119.844 274.46 121.669 273.73C125.343 272.246 129.139 271.76 133.057 271.614C137.559 271.443 142.182 271.395 146.659 271.808C150.82 272.173 155.298 273 158.778 275.506C159.41 275.968 160.238 276.016 160.797 275.384C161.284 274.849 161.308 273.827 160.676 273.365C155.152 269.376 148.022 268.816 141.403 268.719C137.778 268.67 134.127 268.622 130.502 268.889C128.482 269.035 126.487 269.327 124.516 269.789C122.642 270.227 120.817 270.981 119.065 271.735C117.24 272.514 115.439 273.365 113.59 274.07C111.765 274.776 109.867 275.335 108.017 275.968C104.343 277.208 100.644 278.376 96.8239 279.179C92.9305 279.981 89.0614 280.03 85.0951 280.054C81.0557 280.079 76.9919 280.2 72.9769 280.687C72.0278 280.809 71.0545 280.93 70.1298 281.1C69.7405 281.003 69.3268 280.906 68.9375 280.809C61.54 279.106 53.6559 278.79 46.2828 280.711C44.5064 281.173 42.8031 281.83 41.0997 282.511C39.3963 283.192 37.766 284.019 36.2086 284.968C34.6513 285.941 33.1912 287.084 31.8529 288.325C30.5632 289.541 29.4925 290.952 28.3975 292.339C26.1831 295.185 24.1634 298.25 23.4091 301.85C22.9954 303.869 22.7034 305.936 22.4114 307.98C22.1194 309.999 21.9004 312.018 21.7787 314.061C21.6814 316.08 21.7301 318.099 21.6084 320.118C21.4867 322.112 21.1947 324.083 20.7567 326.029C20.0024 329.288 18.4693 332.159 16.6686 334.98C13.2376 340.356 9.17385 345.416 7.71383 351.765C6.30247 357.87 7.30016 364.633 9.10085 370.544C10.0012 373.536 11.2422 376.455 12.9456 379.082C14.6246 381.685 16.912 383.606 19.467 385.309C21.4867 386.647 23.6767 387.742 25.9155 388.642C26.5238 390.977 27.2538 393.336 28.1542 395.574C29.0545 397.861 29.7845 400.22 30.6849 402.507C32.5099 407.153 35.4786 411.167 38.715 414.937C42.0244 418.756 45.7231 422.21 49.8112 425.154C53.9722 428.146 58.5956 430.651 63.292 432.743C68.2318 434.957 73.4392 436.562 78.8413 436.927C84.146 437.292 89.3534 436.051 94.5122 435.005C97.0429 434.494 99.5979 434.056 102.177 433.886C104.951 433.716 107.725 433.984 110.499 434.275C116.048 434.859 121.547 435.784 127.119 436.148C132.74 436.538 138.313 437.219 143.983 436.878C149.166 436.562 154.373 435.419 158.997 433.059C163.231 430.894 166.929 427.756 170.287 424.424C173.645 421.091 176.736 417.418 179.388 413.502C180.508 411.823 181.53 410.096 182.43 408.345C189.681 407.153 196.641 403.383 202.019 398.639C208.102 393.263 212.19 385.99 215.67 378.766C219.198 371.468 222.118 363.854 226.158 356.824C230.903 348.603 239.03 343.324 245.308 336.416C248.934 332.426 252.195 328.024 255.261 323.596C258.156 319.412 260.517 315.01 262.293 310.242C265.749 300.901 267.087 290.903 267.087 280.979C267.063 275.968 266.649 270.981 266.065 266.019Z" fill="#FF939C"/>
<path d="M17.6419 243.421C17.6419 243.421 12.3371 248.334 10.4391 244.588C8.54105 240.842 10.9501 232.475 15.9628 235.904L18.4692 237.583C18.4692 237.583 18.5909 231.039 21.8516 232.475C25.1123 233.91 27.3997 236.269 26.5967 238.531C25.7937 240.794 22.9709 240.648 22.9709 240.648C22.9709 240.648 28.957 242.569 26.5723 247.313C24.1876 252.008 17.8365 249.94 17.6419 243.421Z" fill="#B688AA"/>
<path d="M33.5562 280.492C33.5562 280.492 30.2711 287.863 26.3047 282.609C22.314 277.354 25.2097 275.068 28.0081 274.654C30.8065 274.241 24.1147 266.943 29.2978 265.411C34.4809 263.903 38.5933 270.957 36.0139 274.849C36.0139 274.849 42.5353 274.654 41.2213 279.349C39.8829 284.068 36.0139 284.19 33.5562 280.492Z" fill="#B688AA"/>
<path d="M6.88641 259.767C6.88641 259.767 1.77633 249.891 7.27575 248.991C12.7752 248.067 14.1379 255.535 14.1379 255.535C14.1379 255.535 17.8123 248.845 21.876 255.827C25.9641 262.808 17.6663 263.392 17.6663 263.392C17.6663 263.392 23.555 267.843 21.0973 270.057C18.6396 272.27 13.2618 274.776 12.1668 268.743C12.1668 268.743 11.7045 275.676 7.68943 273.487C3.65003 271.297 8.78444 266.481 8.78444 266.481C8.78444 266.481 1.16799 270.738 0.0973066 263.708C-0.973377 256.702 6.88641 259.767 6.88641 259.767Z" fill="#B688AA"/>
<path d="M14.6488 261.129C13.8215 257.481 9.31973 258.794 9.02773 262.005C8.63839 266.529 15.5978 265.289 14.6488 261.129Z" fill="white"/>
<path d="M21.3407 240.332C20.3187 238.58 16.9606 239.65 17.204 241.596C17.5933 244.905 22.9954 243.153 21.3407 240.332Z" fill="white"/>
<path d="M34.7241 274.727C34.7241 274.703 34.6997 274.678 34.6997 274.678C33.2397 271.978 30.8307 274.289 31.877 276.576C33.2641 279.616 35.9408 277.233 34.7241 274.727Z" fill="white"/>
<path d="M265.773 266.676C264.97 268.159 264.094 269.57 263.096 270.932C262.001 272.416 260.784 273.754 259.47 274.97C257.207 277.087 254.652 278.887 252 280.541C246.063 284.238 239.565 287.036 232.776 288.714C229.297 289.565 225.744 290.174 222.191 290.563C218.517 290.952 214.818 290.903 211.144 291.268C207.567 291.633 204.014 292.266 200.656 293.603C197.03 295.063 193.575 297.131 190.168 299.028C186.834 300.877 183.647 302.92 180.361 304.842C177.198 306.69 174.01 308.636 171.407 311.288C168.827 313.939 166.491 316.858 163.863 319.485C161.187 322.137 158.291 324.35 154.908 326.053C148.095 329.459 140.795 332.256 133.349 333.861C129.626 334.664 125.903 335.126 122.18 335.224C118.31 335.345 114.417 335.102 110.524 334.518C102.859 333.375 95.4124 331.283 87.9177 329.337C80.4472 327.415 72.8308 325.542 65.0926 325.226C58.1575 324.934 51.1007 325.567 44.336 327.196C38.8122 328.534 33.5075 330.505 28.519 333.034C28.884 331.794 29.2491 330.553 29.6384 329.337C37.0845 325.883 45.0903 323.621 53.4368 322.769C60.7856 322.015 68.1343 322.258 75.3858 323.572C83.0266 324.934 90.4484 327.123 97.9675 328.996C105.438 330.869 113.103 332.524 120.866 332.475C121.693 332.475 122.52 332.451 123.348 332.402C130.356 332.013 137.266 330.213 143.812 327.732C147.292 326.418 150.845 325.007 154.13 323.256C157.536 321.431 160.359 319.096 162.987 316.274C165.494 313.599 167.757 310.607 170.531 308.174C173.28 305.742 176.371 303.869 179.534 302.02C182.844 300.098 186.056 298.006 189.414 296.182C192.796 294.333 196.178 292.266 199.78 290.879C203.114 289.59 206.593 288.86 210.146 288.495C213.82 288.106 217.495 288.179 221.169 287.814C228.25 287.109 235.283 285.527 241.853 282.706C245.114 281.319 248.228 279.641 251.197 277.719C252.754 276.697 254.312 275.676 255.772 274.508C257.11 273.462 258.375 272.295 259.47 271.005C262.001 268.038 263.704 264.705 265.189 261.202C265.432 263.002 265.651 264.851 265.773 266.676Z" fill="white"/>
<path d="M219.368 349.381C216.594 351.303 213.626 353.249 210.438 355.243C208.929 356.192 207.494 357.141 206.155 358.089C199.78 360.522 192.991 362.443 186.104 361.981C178.463 361.47 171.09 359.646 163.668 357.87C156.149 356.07 148.509 354.927 140.843 354.003C133.032 353.078 125.124 352.616 117.313 353.857C110.013 355.024 102.956 357.408 96.191 360.376C89.4749 363.319 83.1725 366.895 76.7484 370.373C70.2756 373.876 63.6569 376.917 56.3811 378.352C48.5699 379.909 40.6372 380.566 32.7044 379.885C30.9767 379.739 29.249 379.617 27.5213 379.447C27.2293 378.498 26.9616 377.525 26.7183 376.528C29.7356 376.941 32.8017 377.087 35.7947 377.233C43.7032 377.549 51.928 376.82 59.5688 374.703C66.6256 372.733 73.0253 369.206 79.3764 365.654C85.7276 362.103 92.2003 358.795 98.9894 356.119C105.852 353.419 113.03 351.303 120.379 350.573C128.166 349.794 136.025 350.475 143.763 351.497C151.453 352.519 158.972 353.784 166.516 355.608C173.816 357.384 181.456 359.451 189.049 359.16C196.349 358.868 203.235 356.289 209.903 353.516C213.09 352.203 216.278 350.84 219.368 349.381Z" fill="white"/>
<path d="M183.476 382.269C182.868 383.266 182.308 384.263 181.748 385.261C177.514 385.504 173.256 385.674 169.144 386.89C159.434 389.785 150.723 395.185 141.184 398.566C135.344 400.634 129.309 402.021 123.202 402.994C116.923 404.015 110.548 404.794 104.173 404.988C97.6511 405.159 91.1297 404.842 84.6082 404.404C78.2571 403.991 71.9547 403.48 65.6523 402.58C62.6106 402.142 59.5202 401.729 56.5028 401.048C53.3394 400.342 50.2004 399.515 47.0613 398.737C43.9953 397.983 40.9292 397.204 37.8145 396.645C36.7438 395.55 35.7218 394.431 34.7971 393.312C35.9408 393.434 37.0845 393.604 38.2038 393.823C43.6789 394.845 49.0567 396.353 54.4588 397.642C66.796 400.61 79.6442 401.461 92.2977 401.996C105.049 402.556 117.897 401.607 130.356 398.712C136.39 397.301 142.157 395.282 147.803 392.777C153.375 390.32 158.802 387.474 164.52 385.382C167.367 384.336 170.287 383.436 173.305 383.047C176.492 382.633 179.68 382.512 182.892 382.293C183.062 382.293 183.257 382.269 183.476 382.269Z" fill="white"/>
<path d="M374.423 371.03H370.262C368.413 371.03 368.559 373.901 370.408 373.901H374.593C376.418 373.901 376.248 371.03 374.423 371.03Z" fill="#231F20"/>
<path d="M376.491 382.512C374.52 382.463 372.671 381.441 370.943 380.566C369.289 379.738 367.999 382.293 369.654 383.12C371.868 384.214 374.107 385.309 376.637 385.358C377.416 385.382 378.024 384.604 378 383.849C377.951 383.047 377.27 382.536 376.491 382.512Z" fill="#231F20"/>
<path d="M30.1251 191.657C27.9838 191.706 25.9884 192.654 23.8714 192.703C22.022 192.727 22.168 195.598 24.0174 195.573C26.1587 195.525 28.1541 194.576 30.2711 194.527C32.1205 194.479 31.9745 191.633 30.1251 191.657Z" fill="#231F20"/>
<path d="M26.9616 182.633C26.2316 181.951 25.4286 181.587 24.5526 181.392C24.3336 181.295 24.0902 181.222 23.8469 181.222H22.8006C22.3869 181.222 22.0462 181.416 21.7785 181.733C21.5352 182 21.4135 182.365 21.4379 182.73C21.4379 182.778 21.4379 182.827 21.4622 182.876C21.5109 183.143 21.6082 183.387 21.7785 183.557C22.0705 183.897 22.4842 184.092 22.9466 184.092C23.7982 184.092 24.4066 184.165 25.0636 184.773C26.4263 186.038 28.3243 183.897 26.9616 182.633Z" fill="#231F20"/>
<path d="M351.111 215.423C343.032 214.012 334.808 214.255 326.632 214.377C322.47 214.425 318.285 214.45 314.124 214.182C311.253 214.012 308.43 213.598 305.583 213.014C302.614 212.406 299.572 211.628 296.798 210.558C295.411 210.022 294.073 209.414 292.783 208.685C292.151 208.32 291.956 208.174 291.372 207.736C291.129 207.541 290.885 207.322 290.642 207.103C290.545 207.006 290.447 206.933 290.374 206.836C290.423 206.057 289.912 205.206 288.914 205.206C288.257 205.206 287.722 205.23 287.211 205.717C286.773 206.13 286.749 206.957 287.089 207.444C287.26 207.663 287.454 207.833 287.698 207.979C287.941 208.539 288.501 209.025 288.963 209.414C289.936 210.29 291.056 210.971 292.199 211.604C294.754 212.99 297.577 213.914 300.375 214.693C302.955 215.398 305.583 215.958 308.235 216.396C311.885 217.004 315.633 217.15 319.307 217.223C329.698 217.442 340.185 216.396 350.503 218.196C352.328 218.536 352.936 215.739 351.111 215.423Z" fill="white"/>
</g>
<defs>
<clipPath id="clip0">
<rect width="378" height="437" fill="white"/>
</clipPath>
</defs>
</svg>
