<svg width="378" height="408" viewBox="0 0 378 408" fill="none" xmlns="http://www.w3.org/2000/svg">
<path d="M99.0608 158.895L160.209 170.428L200.806 349.839C200.806 349.839 136.658 375.904 135.159 374.89C133.659 373.897 80.0298 325.274 80.0298 325.274L99.0608 158.895Z" fill="#A66230"/>
<path d="M99.061 158.895L85.0359 325.274C85.0359 325.274 7.34869 213.517 11.8688 205.005C15.5441 198.055 28.2596 189.416 40.4471 184.03C40.6372 183.946 40.8061 183.861 40.9962 183.798C43.552 182.7 46.0655 181.728 48.4524 180.968C49.8675 180.503 51.5151 179.933 53.3316 179.236C54.5355 178.771 55.8028 178.285 57.1335 177.736C57.5349 177.567 57.9573 177.398 58.3797 177.229C61.0834 176.131 63.9982 174.884 66.9553 173.596C68.0959 173.11 69.2576 172.603 70.3982 172.096C71.3487 171.674 72.2992 171.251 73.2497 170.829C74.0735 170.47 74.8972 170.09 75.721 169.71C76.1646 169.519 76.6081 169.308 77.0517 169.118C77.4953 168.907 77.96 168.717 78.4035 168.506C78.826 168.315 79.2273 168.125 79.6497 167.935C80.0722 167.745 80.4735 167.555 80.8959 167.365C82.9448 166.436 84.9303 165.506 86.7679 164.661C87.2114 164.45 87.655 164.239 88.0986 164.049C88.521 163.859 88.9435 163.669 89.3448 163.479C90.3798 162.993 91.3514 162.549 92.2596 162.127C92.7032 161.915 93.1045 161.725 93.5058 161.535C93.9917 161.303 94.4352 161.092 94.8577 160.902C97.4768 159.655 99.061 158.895 99.061 158.895Z" fill="#A98267"/>
<path d="M263.919 296.421L200.806 360.611L160.209 170.406C165.87 174.546 177.741 179.172 191.512 183.65C193.287 184.22 195.103 184.79 196.92 185.361C197.638 185.593 198.356 185.804 199.095 186.037C199.961 186.311 200.827 186.565 201.693 186.818C202.264 186.987 202.834 187.156 203.404 187.325C204.397 187.621 205.39 187.916 206.382 188.191C206.953 188.36 207.502 188.529 208.072 188.677C208.305 188.74 208.537 188.804 208.748 188.867C209.065 188.951 209.361 189.036 209.677 189.142C210.375 189.332 211.072 189.543 211.769 189.733C212.36 189.902 212.951 190.071 213.543 190.24C214.662 190.557 215.761 190.852 216.859 191.169C217.598 191.381 218.338 191.571 219.077 191.782C219.816 191.993 220.555 192.183 221.274 192.373C243.98 198.52 250.422 235.167 250.422 235.167L263.919 296.421Z" fill="#A98267"/>
<path d="M374.113 339.151C374.324 344.03 357.427 347.431 354.639 348.064C351.851 348.698 341.522 347.051 330.792 352.69C320.062 358.33 303.734 363.589 303.734 363.589C277.184 371.89 252.133 368.637 234.876 363.8C220.091 359.661 210.987 354.359 211.536 354.19C211.684 354.148 211.726 353.282 211.663 351.782C211.536 348.635 211.008 342.699 210.353 335.602C209.952 331.315 209.53 326.626 209.086 321.873C208.431 314.607 207.819 307.257 207.439 301.131C207.122 296.02 206.995 291.774 207.164 289.155C207.312 286.81 208.178 284.719 209.572 282.797C215.803 274.243 232.426 269.596 240.537 266.216C250.485 262.076 265.736 248.178 265.736 248.178C265.736 248.178 303.755 235.399 310.324 240.299C315.415 244.101 335.143 246.066 348.196 248.157C351.998 248.769 355.251 249.382 357.385 250.058C365.263 252.55 368.262 256.056 370.185 264.4C370.586 266.153 370.945 268.138 371.304 270.356C371.663 272.68 371.98 276.397 372.276 280.917C372.614 286.261 372.888 292.724 373.121 299.378C373.353 306.031 373.543 312.854 373.691 318.937C373.818 324.767 373.923 329.899 373.987 333.532C374.071 336.849 374.113 338.919 374.113 339.151Z" fill="#F9E6DD"/>
<path d="M254.435 210.792C254.435 210.792 261.279 212.418 263.159 220.93C265.039 229.443 267.573 247.375 267.425 248.727C267.278 250.079 275.832 256.584 292.73 250.755C309.649 244.925 310.874 241.102 308.994 235.716C307.114 230.33 302.594 215.101 299.594 207.919C296.637 200.759 267.13 169.709 254.435 210.792Z" fill="#F4AC8F"/>
<path d="M211.515 360.315C210.459 354.359 209.192 348.445 207.988 342.509C207.375 339.468 206.742 336.405 206.277 333.321C205.812 330.343 205.601 327.322 205.305 324.323C205.031 321.366 204.503 318.472 204.059 315.536C203.742 313.361 203.489 311.185 203.32 309.01C203.32 308.988 203.299 308.988 203.299 308.967C202.918 307.953 202.876 306.855 203.172 305.841C203.151 305.841 203.13 305.841 203.109 305.82C202.834 300.202 203.024 294.562 203.13 288.922C203.362 276.946 203.447 264.97 203.784 253.015C203.953 247.248 204.038 241.461 203.616 235.716C203.447 233.435 203.383 231.238 203.531 228.957C203.658 226.802 203.784 224.648 203.383 222.514C202.75 219.177 199.94 217.107 197.194 215.438C194.216 213.601 190.9 212.291 188.027 210.242C188.45 208.996 189.654 208.109 190.689 207.37C192.188 206.293 193.794 205.363 195.23 204.202C196.54 203.145 197.701 201.857 197.891 200.104C198.082 198.372 197.11 196.914 196.012 195.668C194.723 194.211 193.097 193.07 191.829 191.592C190.055 189.522 188.196 187.536 186.359 185.551C184.606 183.671 182.979 181.664 181.205 179.805C179.684 178.221 177.762 176.806 176.875 174.736C176.537 173.934 175.206 174.335 175.565 175.159C176.368 177.06 177.889 178.475 179.346 179.89C181.015 181.516 182.472 183.333 184.035 185.065C187.267 188.613 190.414 192.268 193.92 195.541C195.146 196.682 196.54 198.034 196.561 199.808C196.582 201.625 194.723 202.955 193.414 203.885C191.09 205.553 187.14 207.243 186.591 210.39C186.549 210.623 186.612 210.897 186.802 211.045C190.456 213.749 194.85 215.248 198.504 217.931C200.299 219.262 201.609 220.719 202.074 222.916C202.538 225.07 202.264 227.372 202.137 229.548C201.989 231.893 202.137 234.132 202.306 236.455C202.496 239.306 202.559 242.158 202.559 245.009C202.559 250.924 202.264 256.859 202.158 262.773C202.052 268.751 202.074 274.728 201.926 280.706C201.799 286.683 201.651 292.64 201.609 298.617C201.588 300.92 201.63 303.222 201.736 305.524C201.651 305.503 201.546 305.482 201.461 305.482C201.503 305.947 201.524 306.411 201.567 306.876C201.651 306.897 201.736 306.897 201.82 306.918C201.989 310.044 202.306 313.171 202.792 316.276C203.256 319.233 203.721 322.147 203.996 325.105C204.27 328.104 204.524 331.103 205.01 334.103C206.446 342.911 208.579 351.592 210.142 360.379C210.29 361.245 211.663 361.202 211.515 360.315Z" fill="white"/>
<path d="M89.9996 161.197C87.993 161.282 86.6834 162.971 85.3527 164.26C83.494 166.013 81.2339 167.449 79.2062 168.991C77.1151 170.575 75.024 172.181 73.0597 173.913C70.9897 175.75 69.2999 177.862 67.5257 179.996C65.8993 181.96 64.1884 183.861 62.4775 185.72C60.9567 187.388 59.2458 189.036 58.3587 191.148C57.7672 192.542 57.4504 193.831 58.0841 195.288C58.6966 196.682 59.8795 197.738 61.0834 198.604C63.6603 200.484 66.6597 201.667 69.2788 203.484C70.9263 204.624 72.6372 205.913 73.8834 207.497C74.4115 208.173 74.8973 209.06 74.5804 209.926C74.2636 210.792 73.3554 211.341 72.595 211.785C68.1804 214.319 63.1534 213.073 58.3798 214.045C56.3732 214.446 54.2821 215.227 53.0781 216.981C52.1065 218.396 51.9587 220.149 52.1065 221.839C52.2544 223.761 52.8035 225.662 53.2893 227.52C53.8808 229.865 54.2821 232.252 54.8101 234.618C55.4227 237.406 56.0563 240.173 56.6266 242.961C57.2181 245.918 57.6405 248.896 58.0207 251.874C59.5204 263.618 60.5131 275.425 62.0128 287.19C63.259 297.012 64.8854 306.75 66.9765 316.445C69.0253 325.95 71.1375 335.581 70.8418 345.361C70.8207 346.248 72.1936 346.185 72.2148 345.297C72.5527 333.892 69.6801 322.718 67.3356 311.629C64.9065 300.033 63.4068 288.247 62.1395 276.482C61.5059 270.61 60.9144 264.738 60.2385 258.845C59.5837 253.057 58.929 247.249 57.7461 241.524C57.1758 238.757 56.521 235.99 55.9296 233.223C55.4438 230.942 55.0425 228.661 54.4511 226.422C53.5851 223.064 52.191 218.417 55.9296 216.305C58.1897 215.037 61.1045 215.058 63.6181 214.995C66.026 214.932 68.6663 214.995 70.9474 214.087C72.5738 213.432 74.4326 212.693 75.4887 211.214C76.587 209.693 75.9956 207.94 74.9395 206.588C72.8273 203.906 69.6379 201.899 66.6597 200.294C65.1389 199.47 63.6181 198.689 62.2029 197.696C61.02 196.872 59.7527 195.837 59.2669 194.422C58.8656 193.239 59.4148 192.12 59.9428 191.085C60.8088 189.395 62.2663 188.022 63.5336 186.649C64.8643 185.213 66.195 183.734 67.4834 182.235C68.9831 180.503 70.3138 178.644 71.8768 176.975C74.7705 173.934 78.2135 171.462 81.5508 168.949C83.1349 167.766 84.7613 166.604 86.2399 165.316C87.3805 164.323 88.4577 162.654 90.1052 162.57C90.9712 162.549 90.8867 161.176 89.9996 161.197Z" fill="white"/>
<path d="M370.227 264.4C367.84 264.442 365.157 264.126 363.383 264.358C355.336 265.372 347.711 268.054 339.938 269.913C324.835 273.504 309.078 276.313 294.229 280.221C279.951 283.98 265.63 286.346 251.309 289.155C237.495 291.859 225.097 297.499 211.557 300.519C210.142 300.836 208.79 300.984 207.481 301.153C207.164 296.041 207.037 291.796 207.206 289.176C207.354 286.832 208.22 284.741 209.614 282.819C209.635 282.798 209.677 282.798 209.699 282.776C220.281 278.51 232.299 279.27 243.388 277.116C250.844 275.679 258.258 274.391 265.609 272.976C275.346 271.117 284.344 266.787 293.934 263.957C310.895 258.972 327.983 253.269 345.218 249.002C346.232 248.749 347.246 248.453 348.239 248.157C352.041 248.77 355.293 249.382 357.427 250.058C365.305 252.551 368.305 256.057 370.227 264.4Z" fill="#231F20"/>
<path d="M201.208 321.853C201.25 321.853 201.271 321.853 201.313 321.853C201.292 321.958 201.271 322.106 201.208 322.233V321.853Z" fill="#5E9A9C"/>
<path d="M201.651 321.831C201.524 321.852 201.419 321.852 201.313 321.852C201.355 321.662 201.419 321.556 201.651 321.831Z" fill="#5E9A9C"/>
<path d="M373.142 299.377C368.326 300.602 363.658 302.44 358.208 302.694C351.09 303.01 344.944 305.799 338.163 307.488C329.567 309.643 320.463 310.847 311.719 312.452C302.15 314.205 293.047 317.204 283.69 319.591C269.2 323.288 254.097 325.379 239.375 328.695C232.764 330.195 226.406 330.976 219.901 333.131C216.606 334.229 213.543 335.095 210.354 335.602C209.952 331.314 209.53 326.625 209.086 321.872C209.994 321.809 210.903 321.682 211.832 321.45C217.282 320.162 222.541 318.007 227.864 316.296C238.192 312.98 249.007 312.051 259.547 309.136C278.515 303.855 298.538 302.229 317.253 296.568C322.829 294.878 327.539 293.527 333.179 292.534C337.826 291.71 343.127 290.4 347.478 288.668C355.272 285.585 363.89 282.036 372.297 280.896C372.635 286.261 372.909 292.724 373.142 299.377Z" fill="#231F20"/>
<path d="M374.007 333.554C370.248 334.716 366.023 335.455 363.003 336.533C356.328 338.898 350.435 342.468 343.592 344.517C329.693 348.657 314.887 348.762 300.566 351.572C293.215 353.008 286.33 354.381 279.127 356.915C270.615 359.915 261.849 359.746 252.957 360.929C246.916 361.731 240.854 362.724 234.855 363.801C220.069 359.661 210.966 354.36 211.515 354.191C211.663 354.148 211.705 353.282 211.642 351.783C220.703 350.389 229.849 349.164 238.953 347.875C251.457 346.101 264.384 346.333 276.719 344.031C295.56 340.482 314.359 335.16 333.263 331.611C343.127 329.752 350.646 325.443 359.792 321.578C363.362 320.078 367.248 319.888 371.072 319.487C371.705 319.424 372.635 319.191 373.691 318.959C373.839 324.768 373.944 329.9 374.007 333.554Z" fill="#231F20"/>
<path d="M355.082 129.915C355.082 129.915 358.039 128.944 359.243 130.654C360.447 132.365 349.781 139.04 349.781 139.04C349.781 139.04 349.781 129.387 351.893 127.19C354.026 125.015 355.843 128.12 355.082 129.915Z" fill="#FF939C"/>
<path d="M71.8556 141.448C71.8556 141.448 68.0537 131.309 70.2715 130.992C72.4893 130.675 79.4596 150.319 79.4596 150.319C79.4596 150.319 62.6675 145.566 63.3012 140.645C63.9348 135.745 71.8556 141.448 71.8556 141.448Z" fill="#FF939C"/>
<path d="M372.846 155.748C372.508 155.367 371.98 155.072 371.452 155.156C370.882 155.241 370.501 155.642 370.269 156.128H369.783C369.023 156.128 369.086 157.289 369.847 157.289H370.692C370.882 157.289 371.114 157.142 371.177 156.973C371.367 156.466 371.6 156.043 372.022 156.571C372.487 157.163 372.402 157.923 371.917 158.451C371.41 159 372.276 159.761 372.783 159.212C373.691 158.24 373.712 156.761 372.846 155.748Z" fill="#231F20"/>
<path d="M373.289 204.814C372.677 205.236 373.311 206.229 373.923 205.785C375.402 204.729 376.796 206.419 376.838 207.855C376.859 208.616 378.021 208.552 378 207.792C377.936 205.469 375.507 203.251 373.289 204.814Z" fill="#231F20"/>
<path d="M66.0894 158.958C64.3151 157.965 62.224 157.121 60.3864 158.493C59.795 158.937 60.4286 159.909 61.0201 159.465C62.3508 158.472 63.8293 159.085 65.1389 159.782L65.0333 160.183C64.8432 160.901 65.9838 161.155 66.1739 160.437L66.3851 159.613C66.4696 159.338 66.3217 159.064 66.0894 158.958Z" fill="#231F20"/>
<path d="M92.2594 133.105C91.837 132.64 91.0766 132.725 90.5485 132.915C89.936 133.126 89.3657 133.548 89.0066 134.119C88.6264 134.731 88.8165 135.492 89.3657 135.914C89.9571 136.379 90.7386 135.513 90.1472 135.048C90.105 135.027 90.0627 134.985 90.0416 134.964L90.0205 134.943C90.0205 134.943 89.9994 134.921 89.9994 134.9L89.9782 134.879C89.9782 134.858 89.9782 134.858 89.9782 134.837C89.9782 134.816 89.9782 134.774 89.9782 134.774C89.9782 134.752 89.9782 134.752 89.9994 134.752C90.0205 134.71 90.0416 134.689 90.0627 134.647C90.0205 134.731 90.1683 134.52 90.1895 134.499C90.2106 134.478 90.2317 134.457 90.2317 134.457C90.2317 134.457 90.3162 134.393 90.3373 134.372C90.4218 134.309 90.5063 134.246 90.5908 134.203C90.633 134.182 90.6541 134.161 90.6964 134.14C90.7175 134.14 90.802 134.098 90.802 134.077C90.8865 134.034 90.9921 134.013 91.0977 133.971C91.1188 133.971 91.1188 133.971 91.1399 133.971C91.1399 133.971 91.2244 133.95 91.2456 133.95C91.2878 133.95 91.3089 133.95 91.3512 133.95H91.3723C91.3723 133.971 91.3723 134.034 91.3723 134.055C91.3512 134.203 91.3089 134.309 91.2667 134.436L90.8865 134.33C90.1683 134.14 89.9149 135.281 90.633 135.471L91.4568 135.682C91.7102 135.745 91.9848 135.597 92.0904 135.386C92.5129 134.668 92.8508 133.76 92.2594 133.105Z" fill="#231F20"/>
<path d="M139.827 42.1743C138.306 41.1604 136.912 40.0832 135.116 39.5763C134.398 39.365 134.145 40.5056 134.863 40.7169C136.553 41.2027 137.862 42.2588 139.277 43.2093C139.932 43.6317 140.439 42.5967 139.827 42.1743Z" fill="#231F20"/>
<path d="M221.442 141.026C221.421 141.786 221.126 142.673 220.428 143.053C219.774 143.412 220.407 144.384 221.062 144.025C222.118 143.434 222.562 142.124 222.583 140.983C222.625 140.223 221.463 140.286 221.442 141.026Z" fill="#231F20"/>
<path d="M227.906 143.095C227.652 142.863 227.314 142.926 227.082 143.138C226.913 143.285 226.702 143.391 226.491 143.497C226.237 143.623 226.026 143.792 225.815 143.982C225.582 144.194 225.646 144.616 225.857 144.806C226.11 145.039 226.448 144.975 226.681 144.764C226.85 144.616 227.061 144.51 227.272 144.405C227.526 144.278 227.737 144.109 227.948 143.919C228.18 143.708 228.117 143.285 227.906 143.095Z" fill="#231F20"/>
<path d="M199.117 168.421L198.082 170.195C197.617 170.977 198.884 171.631 199.328 170.85L200.363 169.076C200.806 168.294 199.56 167.639 199.117 168.421Z" fill="#231F20"/>
<path d="M198.335 165.02C197.342 165.274 196.561 165.717 196.012 166.626C195.526 167.407 196.793 168.041 197.258 167.28C197.617 166.71 198.145 166.541 198.779 166.372C199.645 166.14 199.201 164.788 198.335 165.02Z" fill="#231F20"/>
<path d="M136.764 284.635C136.764 284.635 128.695 272.426 124.724 262.731C120.753 253.057 114.037 225.451 118.24 225.134C122.443 224.838 121.451 243.383 124.724 241.673C126.604 240.701 119.845 211.362 124.724 210.94C129.604 210.517 127.914 237.892 131.293 237.892C134.652 237.892 127.513 208.004 132.138 208.004C136.764 208.004 136.342 234.956 138.876 234.533C141.411 234.111 136.764 208.004 140.566 208.004C144.347 208.004 143.988 242.581 146.903 244.651C149.818 246.742 152.775 235.843 153.62 232.653C154.464 229.464 161.266 223.486 160.167 229.422C159.09 235.357 157.147 242.665 156.724 247.735C156.302 252.783 154.929 269.279 153.662 272.553C152.394 275.827 152.753 280.411 152.753 280.411C152.753 280.411 146.86 285.057 136.764 284.635Z" fill="#FFD0AE"/>
<path d="M181.163 372.418C171.996 376.368 160.526 380.212 160.526 380.212C160.526 380.212 159.618 378.184 158.076 374.657C156.788 371.7 155.056 367.708 153.07 362.997C150.472 356.851 147.452 349.479 144.347 341.58C142.425 336.7 140.503 331.61 138.623 326.477C136.151 319.697 133.786 312.854 131.737 306.306C130.617 302.757 129.604 299.314 128.716 295.998C128.716 295.998 128.378 294.9 128.019 293.379C127.259 290.126 126.414 284.972 128.716 284.656C128.716 284.656 154.76 281.255 160.294 279.988C162.892 279.396 163.906 282.036 164.751 286.535C165.511 290.506 166.145 295.914 167.666 301.807C168.088 303.496 168.595 305.207 169.186 306.939C170.496 310.762 172.629 316.254 175.08 322.359C176.769 326.562 178.607 331.082 180.445 335.539C183.866 343.882 187.267 352.035 189.548 357.738C191.111 361.646 192.167 364.434 192.357 365.321C192.695 366.926 187.457 369.693 181.163 372.418Z" fill="#F9E6DD"/>
<path d="M167.645 301.807C155.647 303.898 143.692 305.039 131.716 306.306C130.596 302.757 129.582 299.314 128.695 295.998C128.695 295.998 128.357 294.9 127.998 293.379C132.202 292.957 136.384 292.555 140.566 292.112C148.782 291.225 156.661 288.584 164.73 286.557C165.49 290.506 166.124 295.914 167.645 301.807Z" fill="#231F20"/>
<path d="M180.444 335.539C171.784 336.616 163.378 338.58 154.802 340.038C151.338 340.629 147.874 341.115 144.368 341.558C142.446 336.679 140.524 331.589 138.644 326.456C150.726 324.661 162.998 323.9 175.101 322.358C176.748 326.583 178.607 331.082 180.444 335.539Z" fill="#231F20"/>
<path d="M181.163 372.419C177.107 372.587 173.052 372.841 169.018 373.285C165.3 373.707 161.688 374.108 158.076 374.657C156.788 371.7 155.056 367.708 153.07 362.998C165.216 361.498 177.382 359.428 189.548 357.76C191.111 361.667 192.167 364.455 192.357 365.343C192.695 366.927 187.457 369.694 181.163 372.419Z" fill="#5E9A9C"/>
<path d="M225.942 331.441C231.053 340.946 237.179 349.881 243.346 358.731C243.917 359.534 244.466 360.336 245.036 361.139C251.668 359.322 255.851 357.59 257.857 356.893C266.095 354.021 291.061 340.883 304.241 332.223C318.119 323.098 320.02 319.19 317.844 316.466C316.767 315.135 294.314 327.343 294.314 327.343C294.314 327.343 311.993 315.198 317.358 309.706C322.723 304.215 321.836 301.743 320.505 300.286C319.175 298.829 311.782 304.13 311.782 304.13L286.351 319.275C286.351 319.275 296.278 312.051 307.262 301.11C318.647 289.788 312.965 287 311.74 285.86C310.515 284.719 301.707 293.928 301.707 293.928L278.071 312.389C278.071 312.389 291.167 300.539 297.292 290.549C303.396 280.558 300.967 279.629 298.517 278.826C296.067 278.023 281.936 294.773 280.648 295.132C279.36 295.512 261.258 309.432 259.526 308.862C257.773 308.291 262.124 300.117 262.124 300.117C267.024 289.134 266.264 281.846 266.053 280.621C265.841 279.396 263.412 272.743 260.476 277.897C257.54 283.05 243.156 306.665 239.946 311.565C236.735 316.487 234.412 331.167 234.412 331.167C231.518 331.357 228.709 331.441 225.942 331.441Z" fill="#FFC193"/>
<path d="M245.606 365.871C138.517 419.204 106.39 406.763 100.328 405.686C94.2662 404.609 88.9012 401.039 47.5018 349.29C45.7909 347.156 44.1645 345.044 42.5804 342.953C41.9256 342.087 41.2708 341.221 40.6371 340.334C40.3414 339.933 40.0668 339.553 39.7711 339.151C39.6444 338.982 39.5388 338.834 39.4121 338.665C36.286 334.357 33.4134 330.09 30.7731 325.908C30.0127 324.704 29.2523 323.5 28.5342 322.296C28.0695 321.514 27.6048 320.754 27.1401 319.972C10.1579 291.331 3.77902 266.364 1.3711 247.354C1.03314 244.735 0.779679 242.243 0.58958 239.856C0.568458 239.624 0.547336 239.391 0.526214 239.159C0.399481 237.49 0.29387 235.906 0.209382 234.364C0.124893 232.675 0.061527 231.069 0.0192828 229.527C-0.69887 205.11 18.8813 196.154 18.8813 196.154C32.7586 190.473 53.9018 241.102 62.4774 253.226C71.053 265.351 104.595 332.477 106.39 334.99C108.186 337.483 107.108 342.489 108.883 342.024C110.678 341.559 113.53 343.207 113.171 346.417C112.811 349.628 112.938 352.12 119.592 348.551C124.724 345.805 142.995 347.516 158.604 346.459C163.209 346.143 167.602 345.593 171.341 344.622C172.503 344.326 173.812 343.967 175.227 343.566C177.149 343.038 179.304 342.425 181.606 341.749C181.648 341.728 181.691 341.728 181.733 341.707C186.253 340.397 191.386 338.877 196.603 337.292C197.469 337.039 198.335 336.764 199.222 336.511C199.877 336.321 200.532 336.11 201.208 335.92C217.894 330.85 234.179 325.696 234.179 325.696L245.606 365.871Z" fill="#A98267"/>
<path d="M104.341 347.136C102.377 347.706 100.582 348.805 98.9554 350.009C97.2867 351.255 95.7025 352.734 94.5197 354.466C94.055 355.163 95.0266 356.029 95.4913 355.332C96.5686 353.747 97.9837 352.396 99.5045 351.213C101.068 350.009 102.821 348.932 104.722 348.382C105.545 348.15 105.144 346.904 104.341 347.136Z" fill="white"/>
<path d="M108.312 349.015C106.623 349.057 105.081 349.923 103.771 350.916C102.44 351.93 101.236 353.134 100.223 354.464C99.7157 355.14 100.687 356.006 101.194 355.33C102.06 354.19 103.074 353.134 104.194 352.225C105.355 351.275 106.792 350.346 108.355 350.324C109.221 350.303 109.157 348.994 108.312 349.015Z" fill="white"/>
<path d="M113.276 373.918C112.389 368.046 112.833 362.195 113.276 356.302C113.339 355.457 112.03 355.542 111.967 356.366C111.523 362.238 111.079 368.11 111.967 373.982C112.093 374.805 113.403 374.742 113.276 373.918Z" fill="white"/>
<path d="M85.6907 292.683C85.3316 291.795 84.8458 290.951 84.3811 290.106C83.9164 289.261 83.4517 288.458 83.0715 287.571C82.459 286.092 81.9309 284.593 81.424 283.072C81.3818 282.945 81.3395 282.84 81.2973 282.713C82.0154 281.361 82.3534 279.84 82.628 278.341C82.9237 276.693 83.0504 275.046 83.3672 273.419C83.9798 270.399 84.5712 266.85 83.3039 263.914C82.9659 263.09 81.7408 263.724 82.0788 264.548C82.628 265.836 82.6491 267.294 82.6068 268.667C82.5435 270.187 82.3111 271.687 82.0154 273.187C81.8887 273.842 81.7197 274.475 81.6352 275.13C81.5507 275.975 81.4451 276.841 81.3184 277.686C81.1705 278.7 80.9804 279.756 80.6425 280.749C79.9666 278.594 79.2907 276.44 78.5092 274.306C77.3897 271.286 76.1857 268.287 75.3197 265.182C75.0874 264.337 73.7356 264.611 73.9679 265.456C74.7494 268.308 75.8266 271.054 76.8616 273.821C77.9389 276.693 78.8471 279.587 79.7765 282.502C79.7765 282.523 79.7976 282.565 79.7976 282.586C79.6075 282.966 79.7976 283.325 80.0933 283.494C80.7903 285.691 81.5296 287.951 82.6702 289.958C83.1138 290.76 83.5785 291.542 83.9798 292.366C84.191 292.767 84.36 293.168 84.529 293.591C84.5712 293.718 84.6135 293.865 84.6346 294.013C84.6557 294.119 84.6135 294.161 84.6979 294.013C84.2966 294.795 85.4583 295.534 85.8597 294.753C86.2399 294.034 85.9441 293.316 85.6907 292.683Z" fill="white"/>
<path d="M358.546 292.788C358.99 292.028 357.765 291.415 357.321 292.176C355.315 295.555 354.512 299.695 351.935 302.737C351.893 300.561 351.872 298.385 351.872 296.21C351.872 295.323 350.499 295.386 350.499 296.273C350.499 309.601 351.344 322.929 351.787 336.236C351.914 339.7 351.998 343.164 351.998 346.628C351.998 347.516 353.371 347.452 353.371 346.565C353.371 333.786 352.463 321.007 352.083 308.228C352.041 306.961 352.02 305.694 351.977 304.426C352.146 304.426 352.315 304.363 352.442 304.215C355.526 301.047 356.35 296.506 358.546 292.788Z" fill="white"/>
<path d="M224.041 366.187C224.083 365.912 224.125 365.637 224.125 365.363C224.168 363.842 222.034 363.969 221.992 365.468C221.971 366.482 221.527 367.369 221.633 368.404C221.802 369.967 222.964 370.918 224.146 371.594C224.886 372.016 225.688 371.34 225.688 370.474V367.053C225.688 366.018 224.675 365.743 224.041 366.187Z" fill="#E7D6C4"/>
<path d="M223.006 381.353H221.443C220.851 381.353 220.408 381.965 220.429 382.578C220.45 383.232 220.978 383.697 221.548 383.697H223.111C223.703 383.697 224.146 383.085 224.125 382.472C224.104 381.796 223.597 381.353 223.006 381.353Z" fill="#E7D6C4"/>
<path d="M240.664 379.155C240.643 379.683 239.967 379.979 239.608 380.211C239.249 380.465 238.89 380.739 238.552 381.035C237.707 380.317 236.904 379.43 236.545 378.353C236.947 378.585 237.453 378.585 237.855 378.163C239.228 376.726 241.108 376.283 241.234 373.896C241.277 373.241 240.643 372.776 240.115 372.776C237.749 372.819 234.855 373.621 234.285 376.536C233.715 379.345 235.996 381.943 237.897 383.38C238.404 383.76 238.932 383.76 239.418 383.274C240.791 381.838 242.671 381.394 242.797 379.007C242.882 377.529 240.749 377.656 240.664 379.155Z" fill="#E7D6C4"/>
<path d="M236.946 257.894C236.904 256.12 236.777 254.346 236.503 252.593C236.27 251.178 235.975 249.741 235.235 248.495C234.792 247.735 233.63 248.474 234.074 249.256C234.749 250.396 234.982 251.79 235.172 253.1C235.425 254.811 235.51 256.543 235.552 258.275C235.615 260.915 235.468 263.555 235.447 266.195C235.447 267.083 236.819 267.019 236.819 266.132C236.862 263.386 237.031 260.661 236.946 257.894Z" fill="white"/>
<path d="M301.643 370.56C301.643 370.56 308.36 373.939 305.382 377.129C302.425 380.318 293.405 381.015 294.926 374.89L295.666 371.848C295.666 371.848 289.266 374.087 289.477 370.412C289.688 366.716 291.167 363.632 293.638 363.611C296.13 363.569 296.996 366.357 296.996 366.357C296.996 366.357 296.722 359.851 302.171 360.464C307.642 361.076 307.916 368.025 301.643 370.56Z" fill="#B688AA"/>
<path d="M331.953 341.686C331.953 341.686 340.297 342.214 336.642 347.98C332.967 353.747 329.693 351.761 328.278 349.205C326.863 346.65 322.174 355.795 318.836 351.296C315.499 346.797 320.864 340.25 325.574 341.348C325.574 341.348 323.019 335.075 328.088 334.652C333.157 334.23 334.678 337.926 331.953 341.686Z" fill="#B688AA"/>
<path d="M321.435 375.122C321.435 375.122 313.683 383.676 310.81 378.649C307.938 373.622 314.697 369.609 314.697 369.609C314.697 369.609 306.881 368.468 312.183 361.963C317.506 355.478 321.076 363.336 321.076 363.336C321.076 363.336 323.293 356.006 326.335 357.59C329.377 359.175 333.749 363.505 328.278 366.757C328.278 366.757 335.185 364.687 334.509 369.398C333.833 374.108 327.307 370.876 327.307 370.876C327.307 370.876 334.171 376.706 327.729 380.276C321.287 383.845 321.435 375.122 321.435 375.122Z" fill="#B688AA"/>
<path d="M319.956 367.054C316.703 369.187 319.618 373.095 322.829 372.187C327.391 370.94 323.652 364.625 319.956 367.054Z" fill="white"/>
<path d="M297.313 368.067C295.983 369.715 298.243 372.588 300.059 371.637C303.101 370.074 299.468 365.448 297.313 368.067Z" fill="white"/>
<path d="M325.934 342.616C325.912 342.637 325.891 342.658 325.891 342.658C323.8 345.066 326.905 346.566 328.743 344.728C331.214 342.278 327.94 340.525 325.934 342.616Z" fill="white"/>
<path d="M112.368 187.283C135.18 201.773 162.469 190.662 161.16 171.124C159.09 140.434 159.618 148.101 161.519 140.877C163.399 133.675 193.139 152.199 193.139 152.199C193.139 152.199 195.631 152.283 198.187 152.875C199.433 153.171 200.679 153.572 201.672 154.163C201.672 154.163 205.939 152.431 203.573 147.975C203.573 147.975 203.636 146.137 204.862 146.517C206.108 146.897 208.769 147.552 210.353 145.165C211.304 143.729 210.459 142.969 209.593 141.321C209.002 140.223 208.41 138.744 208.304 136.4C208.304 136.4 208.241 133.844 209.445 132.682C209.445 132.682 217.197 136.083 219.436 134.921C221.654 133.738 224.632 115.869 226.258 110.081C226.258 110.081 242.269 98.253 246.134 87.9243C250 77.5956 224.547 29.4371 207.544 29.0992C190.541 28.7612 152.056 50.0523 152.056 50.0523C152.056 50.0523 132.666 68.3019 120.5 95.8451C104.785 131.436 85.5638 170.237 112.368 187.283Z" fill="#FFC193"/>
<path d="M159.998 76.7507C159.998 76.7507 165.764 80.3204 161.434 86.0867C158.393 90.1421 156.788 111.497 168.933 119.058C168.933 119.058 188.323 135.428 198.567 134.541C198.567 134.541 205.685 133.738 208.368 135.766C208.368 135.766 208.452 138.406 208.854 139.483C208.854 139.483 198.968 139.272 196.328 142.081C193.688 144.891 194.153 152.241 194.153 152.241C194.153 152.241 187.246 153.994 186.084 154.734C184.922 155.473 178.628 167.344 175.84 167.914C173.03 168.484 166.863 169.815 159.343 160.204C151.803 150.594 131.8 125.712 132.328 117.643C132.856 109.596 137.144 99.3091 151.528 83.4253C151.486 83.4464 159.238 74.5118 159.998 76.7507Z" fill="#231F20"/>
<path d="M217.514 108.751L216.69 106.617L217.112 107.694L216.711 106.617C216.627 106.638 208.727 109.617 204.777 106.195C200.848 102.794 201.123 98.8865 201.123 98.8443L198.842 98.6753C198.821 98.8865 198.504 103.787 203.277 107.927C208.241 112.257 217.155 108.877 217.514 108.751Z" fill="#231F20"/>
<path d="M206.914 108.617L206.178 112.669L208.422 113.077L209.158 109.024L206.914 108.617Z" fill="#231F20"/>
<path d="M201.953 104.717L198.184 107.399L199.507 109.258L203.276 106.575L201.953 104.717Z" fill="#231F20"/>
<path d="M215.993 78.8843C215.993 78.8843 230.63 83.32 230.102 89.6777C229.574 96.0355 221.442 97.2817 217.704 93.6698C213.986 90.0579 208.79 86.5939 207.84 86.0447C206.91 85.4956 198.567 81.2289 200.595 77.7015C202.623 74.1741 206.615 74.9134 207.861 75.547C209.128 76.1596 213.479 75.8005 215.993 78.8843Z" fill="#231F20"/>
<path d="M211.874 43.1242C211.874 43.1242 208.262 55.9031 215.19 62.5988C222.097 69.2945 238.488 78.7572 241.973 87.7975C245.458 96.8377 242.733 98.5275 245.944 105.118C245.944 105.118 257.329 106.089 260.518 97.408C260.518 97.408 271.607 85.0727 263.75 68.2595C263.75 68.2595 256.822 56.1354 257.139 52.3334C257.139 52.3334 264.658 58.7968 264.637 64.5631C264.637 64.5631 268.587 66.6542 267.32 57.4027C266.052 48.1512 261.638 42.7229 256.104 38.6463C256.104 38.6463 241.065 16.0456 222.752 12.7717C204.46 9.49775 203.615 13.2997 201.841 11.9057C200.067 10.5116 196.434 4.66078 186.971 6.56177C177.508 8.46276 164.962 10.6806 146.754 38.4351C146.754 38.4351 133.553 55.3961 135.053 70.5829C135.053 70.5829 139.7 73.4978 144.009 70.4351C144.009 70.4351 150.282 58.3321 158.879 67.2456C158.879 67.2456 160.885 69.548 160.442 73.1598C160.442 73.1598 162.427 74.9552 164.772 65.6826C167.116 56.41 170.707 58.142 174.108 56.6001C177.529 55.0582 180.782 49.4397 190.393 49.0384C200.003 48.6159 201.989 45.511 204.481 42.8918C206.995 40.2727 212.233 41.5611 211.874 43.1242Z" fill="#231F20"/>
<path opacity="0.3" d="M178.501 146.454C178.522 146.454 178.522 146.433 178.543 146.433C178.628 146.369 178.691 146.306 178.776 146.243C178.797 146.222 178.818 146.222 178.818 146.2C178.818 146.179 178.839 146.179 178.86 146.137C178.881 146.116 178.924 146.053 178.945 146.01C178.966 145.715 179.135 145.44 179.346 145.25C179.536 145.102 179.79 144.996 180.001 144.87C180.55 144.574 181.268 144.87 181.522 145.419C181.775 145.968 181.543 146.581 181.057 146.876C180.761 147.573 180.107 148.144 179.452 148.503C178.903 148.798 178.184 148.482 177.931 147.954C177.677 147.383 177.973 146.75 178.501 146.454Z" fill="white"/>
<path opacity="0.3" d="M171.489 136.843C171.953 136.252 172.587 135.871 173.242 135.512C173.791 135.217 174.509 135.512 174.763 136.062C175.037 136.653 174.763 137.287 174.213 137.582C174.044 137.667 173.875 137.772 173.706 137.878C173.77 137.857 173.516 138.026 173.474 138.047C173.432 138.068 173.411 138.11 173.368 138.131C173.368 138.153 173.347 138.153 173.347 138.174C172.967 138.66 172.27 138.807 171.742 138.448C171.256 138.089 171.108 137.329 171.489 136.843Z" fill="white"/>
<path opacity="0.3" d="M162.068 139.357L162.871 138.934C163.42 138.639 164.138 138.934 164.391 139.483C164.666 140.075 164.391 140.708 163.842 141.004L163.04 141.427C162.49 141.722 161.772 141.427 161.519 140.877C161.244 140.286 161.519 139.631 162.068 139.357Z" fill="white"/>
<path opacity="0.3" d="M161.223 122.227C161.963 121.466 162.765 120.938 163.885 121.002C164.518 121.044 164.983 121.635 164.92 122.248C164.856 122.882 164.307 123.325 163.673 123.283C163.568 123.283 163.547 123.262 163.526 123.262C163.526 123.262 163.547 123.283 163.42 123.304C163.547 123.283 163.293 123.41 163.357 123.346C163.103 123.515 162.892 123.748 162.681 123.98C162.258 124.424 161.434 124.276 161.075 123.832C160.653 123.304 160.801 122.67 161.223 122.227Z" fill="white"/>
<path opacity="0.3" d="M155.837 110.06C156.555 109.406 157.252 108.793 158.097 108.328C158.646 108.033 159.365 108.349 159.618 108.878C159.893 109.469 159.618 110.103 159.069 110.398C158.393 110.757 157.865 111.307 157.295 111.814C156.196 112.806 154.739 111.032 155.837 110.06Z" fill="white"/>
<path opacity="0.3" d="M152.774 92.0013L154.274 90.4382C154.696 89.9947 155.52 90.1425 155.879 90.5861C156.302 91.1141 156.154 91.7478 155.731 92.1914L154.232 93.7544C153.809 94.198 152.986 94.0501 152.626 93.6066C152.183 93.0785 152.331 92.4448 152.774 92.0013Z" fill="white"/>
<path opacity="0.3" d="M142.467 104.463C142.741 103.618 143.375 102.9 144.156 102.477C144.706 102.182 145.424 102.498 145.677 103.026C145.952 103.618 145.677 104.209 145.17 104.526C145.128 104.547 145.107 104.568 145.065 104.611C145.044 104.632 144.938 104.737 144.896 104.78C144.832 104.864 144.769 104.927 144.727 105.012C144.727 105.012 144.727 105.012 144.727 105.033C144.685 105.118 144.663 105.202 144.621 105.287C144.431 105.878 143.713 106.174 143.143 105.962C142.53 105.73 142.255 105.054 142.467 104.463Z" fill="white"/>
<path opacity="0.3" d="M141.622 120.009C142.002 119.312 142.361 118.615 142.91 118.044C143.333 117.58 143.945 117.389 144.516 117.77C144.98 118.108 145.213 118.91 144.79 119.375C144.262 119.966 143.882 120.663 143.502 121.339C143.206 121.888 142.361 121.931 141.896 121.614C141.326 121.191 141.326 120.558 141.622 120.009Z" fill="white"/>
<path opacity="0.3" d="M143.84 127.127C144.41 126.071 145.107 125.078 146.184 124.465C146.734 124.149 147.452 124.486 147.705 125.015C147.98 125.606 147.684 126.218 147.156 126.535C146.501 126.916 146.058 127.824 145.699 128.457C145.403 129.007 144.558 129.049 144.093 128.732C143.544 128.31 143.523 127.676 143.84 127.127Z" fill="white"/>
<path opacity="0.3" d="M154.38 133.907C154.633 133.105 155.119 132.45 155.858 132.027C156.408 131.711 157.126 132.049 157.379 132.577C157.654 133.168 157.379 133.802 156.83 134.097C157.083 133.949 156.872 134.055 156.83 134.118L156.809 134.14C156.788 134.161 156.767 134.182 156.767 134.203C156.746 134.245 156.724 134.287 156.682 134.33C156.682 134.33 156.682 134.33 156.682 134.351C156.619 134.478 156.577 134.604 156.534 134.731C156.344 135.322 155.626 135.618 155.056 135.407C154.443 135.153 154.19 134.499 154.38 133.907Z" fill="white"/>
<path opacity="0.3" d="M158.393 151.714C158.562 150.362 159.259 149.179 160.421 148.503C160.97 148.186 161.688 148.524 161.941 149.052C162.216 149.665 161.92 150.256 161.392 150.573C160.949 150.826 160.716 151.502 160.674 151.925C160.484 153.382 158.203 153.192 158.393 151.714Z" fill="white"/>
<path opacity="0.3" d="M172.566 161.894C173.094 161.303 173.474 160.606 173.854 159.93C174.15 159.381 174.995 159.339 175.459 159.655C176.009 160.057 176.03 160.712 175.734 161.261C175.354 161.958 174.995 162.655 174.446 163.225C174.023 163.69 173.411 163.88 172.84 163.5C172.376 163.162 172.143 162.359 172.566 161.894Z" fill="white"/>
<path opacity="0.3" d="M192.04 138.786C192.062 138.765 192.083 138.765 192.104 138.723C192.167 138.681 192.231 138.617 192.294 138.575C192.442 138.448 192.59 138.322 192.738 138.216C193.181 137.899 193.709 137.688 194.258 137.815C194.871 137.963 195.357 138.385 195.293 139.061C195.251 139.61 194.66 140.244 194.047 140.096C194.005 140.117 193.963 140.159 193.941 140.18C193.646 140.434 193.35 140.645 193.033 140.856C192.484 141.173 191.766 140.835 191.512 140.307C191.238 139.695 191.512 139.103 192.04 138.786Z" fill="white"/>
<path opacity="0.3" d="M219.858 54.0021C219.858 53.3685 220.534 52.9249 221.104 52.9671C221.78 53.0305 222.139 53.5797 222.139 54.2133C222.16 55.4807 223.428 56.6213 224.568 57.3605C225.265 57.8041 226.005 58.1632 226.786 58.4589C227.462 58.7124 228.223 58.9447 228.729 59.0503C229.342 59.1559 229.828 59.6417 229.764 60.2965C229.701 60.8668 229.131 61.4371 228.518 61.3315C224.864 60.6556 219.9 58.2477 219.858 54.0021Z" fill="white"/>
<path opacity="0.3" d="M242.564 57.8041C243.071 55.5651 242.311 53.3473 241.276 51.3618C240.6 50.0522 242.67 49.0806 243.346 50.3902C244.55 52.6714 245.416 55.4173 244.846 58.0153C244.719 58.6278 244.275 59.1136 243.599 59.0503C243.029 58.9869 242.438 58.4166 242.564 57.8041Z" fill="white"/>
<path opacity="0.3" d="M228.201 40.2092C228.624 40.0191 228.687 39.9346 228.793 39.66C228.856 39.5121 228.856 39.0263 228.814 38.7306C228.687 37.7801 228.349 36.8719 228.265 35.9003C228.201 35.2877 228.539 34.6963 229.194 34.5696C229.764 34.4639 230.462 34.8653 230.525 35.4989C230.631 36.6184 231.053 37.6745 231.116 38.794C231.201 40.3148 230.631 41.6455 229.173 42.2791C227.821 42.8706 226.85 40.8006 228.201 40.2092Z" fill="white"/>
<path opacity="0.3" d="M202.116 24.0724C202.01 23.5232 202.411 22.7839 203.045 22.7417C206.784 22.5727 210.86 23.6288 212.571 27.2829C213.184 28.6347 211.114 29.5852 210.501 28.2545C209.276 25.6143 206.15 24.8539 203.468 24.9806C202.813 25.0229 202.242 24.7483 202.116 24.0724Z" fill="white"/>
<path opacity="0.3" d="M176.093 39.8294C178.037 39.5971 180.571 39.6816 182.071 38.1819C182.514 37.7383 183.317 37.8862 183.676 38.3297C184.099 38.8367 183.972 39.4915 183.528 39.935C181.712 41.7515 178.86 41.7726 176.495 42.0684C175.037 42.2796 174.615 40.0195 176.093 39.8294Z" fill="white"/>
<path opacity="0.3" d="M172.84 19.7634C175.65 16.9752 181.099 13.3211 184.922 16.4049C186.063 17.3343 184.753 19.1931 183.592 18.2637C182.895 17.6934 182.388 17.5455 181.437 17.5455C181.543 17.5455 181.226 17.5667 181.226 17.5667C181.099 17.5878 180.994 17.5878 180.867 17.6089C180.613 17.6511 180.381 17.7145 180.128 17.7779C179.747 17.8835 179.283 18.0736 178.839 18.2848C177.149 19.0663 175.671 20.2069 174.319 21.5376C173.875 21.9812 173.073 21.8333 172.714 21.3898C172.27 20.8617 172.397 20.2069 172.84 19.7634Z" fill="white"/>
<path opacity="0.3" d="M157.062 43.4204C158.013 40.9913 158.773 37.8019 161.392 36.6613C162.744 36.0699 163.715 38.1398 162.364 38.7313C161.413 39.1537 160.885 40.0831 160.442 40.9913C159.956 42.0474 159.597 43.1458 159.195 44.223C158.667 45.596 156.513 44.7933 157.062 43.4204Z" fill="white"/>
<path opacity="0.3" d="M158.139 56.3045C159.301 56.0933 160.146 55.3752 160.843 54.4458C161.709 53.263 163.589 54.5937 162.702 55.7765C161.667 57.1917 160.294 58.2478 158.541 58.5646C157.083 58.8392 156.682 56.5791 158.139 56.3045Z" fill="white"/>
<path opacity="0.3" d="M239.101 72.6956C238.889 72.1042 239.058 71.4494 239.65 71.1748C240.178 70.9213 240.959 71.1326 241.171 71.724C241.931 73.794 243.409 75.357 244.909 76.9411C246.536 78.6732 248.204 80.3418 249.767 82.1372C250.739 83.2567 248.965 84.7141 248.014 83.5946C246.451 81.7992 244.782 80.1306 243.156 78.3986C241.53 76.7088 239.924 74.9345 239.101 72.6956Z" fill="white"/>
<path opacity="0.3" d="M253.485 91.7052C254.921 89.9732 255.322 87.7765 255.977 85.6643C256.167 85.0729 256.906 84.7983 257.456 84.9884C258.068 85.2207 258.301 85.8755 258.132 86.4669C257.434 88.7692 256.949 91.1349 255.365 93.0359C254.963 93.5217 254.308 93.6907 253.759 93.3105C253.273 92.9514 253.083 92.191 253.485 91.7052Z" fill="white"/>
<path opacity="0.3" d="M247.042 41.139C246.05 40.0407 247.803 38.5833 248.796 39.6816C250.19 41.2024 252.069 42.7654 252.323 44.941C252.386 45.5536 252.048 46.145 251.394 46.2717C250.802 46.3773 250.126 45.976 250.063 45.3423C249.978 44.5397 249.535 43.906 249.028 43.3146C248.415 42.5331 247.697 41.8572 247.042 41.139Z" fill="white"/>
<path opacity="0.3" d="M230.398 22.002C230.609 21.4739 231.306 21.0515 231.877 21.3261C233.038 21.9175 233.883 22.8257 234.855 23.6495C235.32 24.0508 235.51 24.7056 235.129 25.2548C234.792 25.7195 234.01 25.9307 233.524 25.5294C232.743 24.8535 232.025 23.9452 231.074 23.4805C230.504 23.2059 230.166 22.6356 230.398 22.002Z" fill="white"/>
<path d="M198.187 152.875C199.433 153.171 200.679 153.572 201.672 154.164C201.672 154.164 205.939 152.432 203.573 147.975C203.573 147.975 203.637 146.137 204.862 146.517C206.108 146.898 208.769 147.552 210.353 145.166C211.304 143.729 210.459 142.969 209.593 141.321C208.093 141.765 206.615 142.272 205.242 143.074C203.721 143.983 202.2 144.933 201.017 146.264C199.433 148.123 198.546 150.467 198.187 152.875Z" fill="#FF939C"/>
<path d="M155.837 32.183C161.181 22.7626 164.328 11.1454 174.002 5.08335C175.143 4.3652 176.347 3.77378 177.614 3.28797C178.987 2.75992 180.402 2.40084 181.754 1.85167C184.69 0.647706 187.605 -0.471766 190.794 0.204142C192.336 0.520973 193.815 1.11239 195.209 1.85167C196.666 2.61206 198.06 3.49919 199.264 4.66091C201.186 6.51966 202.116 9.11768 203.193 11.5467C205.495 10.9553 207.861 10.6807 210.205 10.3428C211.895 10.1104 213.585 9.81471 215.211 9.35002C216.542 8.9487 217.915 8.65299 219.288 8.44177C225.033 7.53352 231.116 8.20943 236.143 11.2721C237.368 12.0325 238.572 12.7718 239.628 13.7434C240.79 14.7995 241.846 15.9824 242.86 17.1863C243.937 18.4537 245.015 19.721 246.176 20.9249C247.401 22.2134 248.669 23.4596 249.852 24.7903C252.006 27.1982 254.372 29.416 256.526 31.8451C258.702 34.2953 260.413 37.0411 261.384 40.2094C262.018 42.3005 262.208 44.4972 262.145 46.6728C262.081 48.8062 261.764 50.9395 261.891 53.0728C261.933 53.6854 261.638 54.2768 260.962 54.4035C260.391 54.5091 259.673 54.1078 259.631 53.4741C259.42 50.2213 260.18 46.9474 259.758 43.7157C259.356 40.4418 258.068 37.5058 256.061 34.9078C254.139 32.3943 251.753 30.2398 249.598 27.9375C248.394 26.6702 247.253 25.3395 246.028 24.0721C244.782 22.7837 243.536 21.5164 242.353 20.1646C240.452 17.9256 238.615 15.4754 236.08 13.9335C234.897 13.2154 233.735 12.5183 232.468 11.9692C231.201 11.4411 229.891 11.0398 228.539 10.7863C225.793 10.2583 222.942 10.2583 220.175 10.6385C218.781 10.8286 217.408 11.1243 216.056 11.4834C214.451 11.9269 212.846 12.2649 211.177 12.5183C208.811 12.8774 206.361 13.1098 204.017 13.6801C203.953 14.5672 202.622 15.0741 201.968 14.2926C201.651 14.3982 201.334 14.5249 201.038 14.6728C199.686 15.2642 198.715 13.1942 200.067 12.6028C200.362 12.4761 200.658 12.3494 200.954 12.2438C199.94 9.92032 199.032 7.44903 197.088 5.80151C195.884 4.76652 194.406 3.96388 192.949 3.33022C191.576 2.71767 190.118 2.31635 188.597 2.27411C187.119 2.25299 185.64 2.78104 184.267 3.30909C183.549 3.58368 182.852 3.87939 182.155 4.1751C181.416 4.47081 180.634 4.68203 179.874 4.91438C177.255 5.73814 174.826 7.06883 172.714 8.82197C169.102 11.8002 166.588 15.8979 164.455 20.0167C162.131 24.4946 160.146 29.1626 157.653 33.556C157.337 34.1052 156.513 34.1474 156.048 33.8306C155.541 33.387 155.52 32.7322 155.837 32.183Z" fill="#231F20"/>
<path d="M254.499 97.6404C255.365 98.0206 256.062 97.9784 257.075 97.7672C258.11 97.5559 259.166 97.049 260.138 96.4998C261.131 95.9506 262.06 95.2536 262.926 94.5355C263.328 94.1975 263.687 93.8596 264.046 93.5005C264.32 93.2259 264.574 92.9091 264.912 92.4866C266.601 90.3533 267.848 87.9242 268.524 85.3051C269.242 82.5381 268.967 79.75 268.017 77.0675C266.623 73.1388 264.003 69.8015 261.553 66.4853C260.497 65.049 259.378 63.7183 258.237 62.3665C257.118 61.0358 255.998 59.6206 255.343 57.9942C254.815 56.6213 256.885 55.6496 257.413 57.0226C258.491 59.7473 260.898 61.7539 262.609 64.0774C264.743 66.95 266.939 69.8226 268.65 72.9698C270.213 75.8424 271.248 79.0318 271.185 82.3058C271.143 85.1361 270.234 87.9454 268.925 90.4378C267.383 93.3526 265.292 95.8028 262.546 97.6615C260.096 99.3302 256.632 101.083 253.654 99.7949C252.344 99.2035 253.147 97.049 254.499 97.6404Z" fill="#231F20"/>
<path d="M100.751 192.563C100.898 192.162 101.215 191.782 101.659 191.676C102.123 191.57 102.546 191.782 102.884 192.077L103.264 191.929C103.856 191.697 104.172 192.627 103.581 192.859L102.905 193.112C102.757 193.176 102.525 193.133 102.419 193.007C102.123 192.648 101.807 192.394 101.638 192.943C101.448 193.535 101.743 194.126 102.292 194.38C102.863 194.654 102.419 195.52 101.849 195.246C100.835 194.802 100.37 193.619 100.751 192.563Z" fill="#231F20"/>
<path d="M310.789 126.958C310.789 126.958 291.843 119.164 276.085 126.684C260.328 134.203 252.408 144.025 248.986 146.201C240.516 151.566 237.58 145.525 232.405 149.327C228.92 151.883 234.602 154.544 230.441 158.092C228.624 159.634 221.844 156.234 222.604 159.93C222.604 159.93 224.188 165.401 223.829 166.837C223.47 168.273 216.141 165.021 215.824 166.795C215.211 170.132 218.929 173.364 218.338 177.673C217.978 180.313 216.859 182.658 215.043 186.122C213.226 189.586 214.472 194.549 222.33 200.231C230.208 205.913 279.338 233.646 300.862 222.114C322.385 210.56 366.636 167.513 310.789 126.958Z" fill="#FFD0AE"/>
<path d="M263.979 134.033C263.979 134.033 259.907 134.28 259.106 140.232C258.288 146.183 262.408 158.538 264.54 157.982C266.672 157.426 265.806 147.809 265.918 143.917C266.015 140.005 265.614 133.477 263.979 134.033Z" fill="#231F20"/>
<path d="M247 165.359C247 165.359 255.048 171.231 254.076 178.56C253.105 185.889 246.367 178.328 244.867 175.687C243.388 173.068 238.361 163.056 247 165.359Z" fill="#FF939C"/>
<path d="M341.522 254.874C341.395 254.874 341.268 254.874 341.142 254.874C340.677 254.895 340.212 254.959 339.748 255.085C334.15 256.564 326.694 265.161 312.078 270.504C307.959 272.004 304.009 271.962 300.334 270.948C299.869 270.821 299.404 270.673 298.961 270.526C288.991 267.104 281.113 256.986 277.416 252.889C277.332 252.804 277.268 252.72 277.184 252.635C276.909 252.339 276.614 252.065 276.318 251.832C270.826 247.481 259.441 250.122 254.858 244.06C250 237.638 256.611 231.83 260.033 226.972C263.454 222.093 265.926 214.024 268.988 206.145C272.051 198.267 274.1 199.217 274.1 199.217C282.908 204.73 289.35 197.971 289.583 191.022C289.815 184.073 280.035 181.369 280.035 181.369C277.796 178.349 274.396 170.111 274.396 170.111C267.468 151.883 278.789 132.07 286.456 123.748C294.124 115.426 311.381 120.812 311.381 120.812C314.464 122.269 317.168 123.663 319.534 124.994C320.02 125.269 320.505 125.543 320.97 125.818C323.864 127.529 326.229 129.134 328.173 130.676C328.574 130.993 328.975 131.331 329.355 131.648C337.91 138.977 337.635 144.997 343.19 152.981C348.915 161.219 350.266 162.254 353.435 167.724C353.688 168.168 353.984 168.654 354.258 169.182C355.378 171.167 356.73 173.681 358.504 177.124C366.383 192.289 360.004 210.813 361.081 220.973C362.158 231.133 371.177 233.435 367.333 246.594C363.51 259.69 347.352 255.085 341.522 254.874Z" fill="#FF939C"/>
<path d="M254.372 161.556C253.316 160.796 251.985 159.676 250.464 157.966C246.557 153.593 249.028 147.299 249.134 147.045L251.457 147.975L250.295 147.51L251.457 147.975C251.436 148.017 249.471 153.107 252.344 156.297C255.449 159.761 257.646 160.542 257.667 160.542L256.906 162.929C256.737 162.908 255.808 162.57 254.372 161.556Z" fill="#231F20"/>
<path opacity="0.5" d="M341.141 254.874C340.677 254.895 340.212 254.958 339.747 255.085C339.198 252.381 338.417 249.741 337.551 247.206C336.621 244.482 335.46 241.841 334.615 239.074C333.77 236.286 333.326 233.329 334.298 230.499C334.868 228.851 335.861 227.436 336.875 226.042C338.058 224.416 339.346 222.874 340.613 221.311C342.852 218.544 345.07 215.671 346.422 212.355C348.619 207.011 347.985 201.371 346.992 195.816C346.464 192.944 345.894 190.071 345.619 187.156C345.281 183.629 345.957 180.123 347.499 176.933C348.83 174.166 350.837 171.864 352.463 169.266C352.78 168.738 353.118 168.21 353.413 167.682C353.667 168.125 353.963 168.611 354.237 169.139C353.223 170.808 352.083 172.371 350.942 173.955C348.872 176.87 347.372 180.249 347.013 183.819C346.718 186.861 347.394 190.05 347.943 193.028C348.45 195.795 348.999 198.562 349.252 201.35C349.506 204.096 349.464 206.927 348.809 209.63C348.048 212.777 346.57 215.65 344.732 218.29C342.493 221.522 339.747 224.395 337.508 227.647C336.579 228.978 335.713 230.351 335.396 231.956C335.101 233.35 335.143 234.787 335.396 236.181C335.924 239.053 337.149 241.757 338.142 244.482C339.156 247.291 340.085 250.121 340.74 253.036C340.888 253.649 341.015 254.261 341.141 254.874Z" fill="white"/>
<path opacity="0.5" d="M300.334 270.948C299.869 270.821 299.404 270.673 298.961 270.526C299.615 268.223 300.545 266.005 301.749 263.893C303.882 260.133 306.438 256.648 308.825 253.058C310.029 251.241 311.19 249.425 312.246 247.502C313.049 246.045 313.619 244.397 314.105 242.792C315.816 237.11 315.922 231.217 314.697 225.451C314.063 222.43 313.155 219.473 312.141 216.537C311.127 213.622 310.092 210.708 310.05 207.582C310.008 204.92 310.705 202.343 312.141 200.104C314.105 197.042 316.788 194.507 318.984 191.613C321.202 188.698 322.913 185.446 323.695 181.855C324.328 178.94 324.371 175.962 323.948 173.005C323.103 167.112 320.674 161.599 318.963 155.938C318.034 152.854 317.231 149.749 317.612 146.496C317.971 143.307 319.28 140.329 321.16 137.731C322.533 135.83 324.286 134.119 325.997 132.514C326.673 131.859 327.391 131.204 328.151 130.655C328.553 130.972 328.954 131.31 329.334 131.626C329.25 131.669 329.186 131.732 329.102 131.774C328.299 132.345 327.56 133.02 326.842 133.717C325.511 135.006 324.096 136.316 322.934 137.773C320.97 140.286 319.491 143.222 319.09 146.412C318.689 149.644 319.534 152.749 320.463 155.811C322.195 161.472 324.603 167.006 325.406 172.899C326.335 179.531 324.772 186.037 320.864 191.487C319.745 193.05 318.499 194.528 317.231 196.007C316.07 197.38 314.802 198.71 313.788 200.189C312.289 202.364 311.402 204.815 311.465 207.476C311.507 208.912 311.718 210.349 312.078 211.743C312.479 213.348 313.091 214.869 313.619 216.432C314.612 219.347 315.52 222.304 316.112 225.303C317.274 231.09 317.295 237.026 315.605 242.708C315.14 244.271 314.591 245.813 313.936 247.312C313.091 249.256 311.824 251.072 310.683 252.846C308.318 256.458 305.741 259.922 303.565 263.64C302.551 265.351 301.58 267.104 300.925 268.984C300.714 269.638 300.524 270.293 300.334 270.948Z" fill="white"/>
<path opacity="0.5" d="M277.416 252.889C277.332 252.804 277.268 252.72 277.184 252.635C276.909 252.339 276.614 252.065 276.318 251.833C276.846 250.861 277.332 249.868 277.796 248.854C278.388 247.524 279.064 246.151 279.423 244.735C280.944 238.695 277.965 232.738 277.289 226.803C276.93 223.508 277.311 220.192 278.831 217.213C280.289 214.362 282.486 211.996 284.809 209.842C287.238 207.603 289.836 205.554 292.138 203.188C294.398 200.886 296.405 198.246 297.947 195.394C300.651 190.367 301.348 184.812 300.397 179.215C299.89 176.194 299.003 173.258 297.989 170.364C297.44 168.801 296.743 167.281 296.236 165.718C295.729 164.176 295.349 162.592 295.074 161.007C294.018 154.84 294.842 148.271 298.01 142.8C299.742 139.822 302.087 137.351 304.643 135.048C307.811 132.239 311.317 129.789 314.992 127.698C316.112 127.064 317.231 126.452 318.309 125.712C318.71 125.438 319.09 125.184 319.492 124.91C319.977 125.184 320.463 125.459 320.928 125.733C319.682 126.578 318.435 127.465 317.126 128.184C313.366 130.232 309.733 132.577 306.48 135.365C303.84 137.646 301.284 140.096 299.489 143.117C296.278 148.566 295.37 155.093 296.574 161.261C297.208 164.514 298.559 167.492 299.616 170.618C300.587 173.491 301.432 176.427 301.897 179.426C302.763 185.023 302.066 190.663 299.404 195.711C297.905 198.541 295.961 201.245 293.765 203.568C291.484 205.976 288.928 208.046 286.478 210.243C284.133 212.376 281.789 214.679 280.289 217.509C278.726 220.487 278.346 223.719 278.768 227.014C279.55 232.928 282.443 238.948 280.817 244.989C280.394 246.531 279.719 248.009 279.064 249.467C278.578 250.671 278.029 251.79 277.416 252.889Z" fill="white"/>
<path d="M248.415 155.79C248.077 155.579 247.697 155.705 247.465 156.001C247.549 155.896 247.402 156.065 247.402 156.065C247.38 156.086 247.359 156.107 247.317 156.128C247.317 156.128 247.296 156.149 247.275 156.149C247.233 156.17 247.19 156.191 247.148 156.212C247.211 156.17 247.064 156.234 247.021 156.234C246.662 156.297 246.43 156.698 246.514 157.057C246.599 157.437 246.979 157.649 247.338 157.564C247.866 157.459 248.289 157.142 248.606 156.719C248.859 156.445 248.711 155.98 248.415 155.79Z" fill="#231F20"/>
<path d="M250.971 161.282C251.33 161.198 251.542 160.817 251.457 160.458C251.373 160.099 250.993 159.867 250.633 159.951C250.126 160.078 249.81 160.501 249.514 160.902C249.303 161.198 249.408 161.662 249.725 161.852C250.063 162.064 250.464 161.958 250.676 161.641C250.718 161.578 250.76 161.536 250.781 161.472C250.802 161.451 250.866 161.367 250.887 161.324C250.908 161.324 250.95 161.303 250.971 161.282Z" fill="#231F20"/>
<path d="M255.47 164.344C255.47 164.323 255.47 164.323 255.47 164.302C255.492 164.26 255.513 164.239 255.534 164.197C255.745 163.88 255.639 163.436 255.323 163.246C254.985 163.035 254.583 163.141 254.372 163.457C254.288 163.584 254.203 163.711 254.161 163.859C254.076 164.07 254.076 164.323 254.119 164.556C254.161 164.936 254.604 165.147 254.942 165.063C255.111 165.02 255.259 164.915 255.365 164.767C255.449 164.619 255.492 164.492 255.47 164.344Z" fill="#231F20"/>
<path d="M371.917 254.452C372.867 252.424 373.543 250.312 374.367 248.242C375.085 246.425 375.655 244.588 375.719 242.623C375.782 240.828 375.296 238.969 374.578 237.343C374.156 236.392 373.501 235.505 373.311 234.449C373.078 233.055 372.846 231.682 372.614 230.288C371.896 226.043 369.741 221.966 368.389 217.889C366.953 213.496 366.488 209.335 367.122 204.773C367.756 200.252 367.946 195.669 368.009 191.106C368.115 183.059 365.664 175.899 360.616 169.646C357.575 165.887 353.773 163.035 350.33 159.677C346.866 156.318 343.972 152.411 341.437 148.334C339.536 145.229 337.783 142.04 335.798 138.998C335.016 137.794 333.031 138.829 333.812 140.054C336.431 144.068 338.67 148.334 341.332 152.305C343.888 156.128 346.929 159.677 350.33 162.761C353.836 165.95 357.3 168.886 360.173 172.73C362.56 175.92 364.228 179.595 365.094 183.481C366.066 187.854 365.77 192.395 365.559 196.831C365.453 198.964 365.39 201.055 365.094 203.167C364.777 205.406 364.439 207.603 364.482 209.863C364.587 214.151 366.108 218.354 367.587 222.325C368.326 224.289 369.065 226.233 369.72 228.197C370.501 230.584 370.818 233.076 371.22 235.547C371.346 236.35 372.022 237.237 372.381 237.955C372.867 238.906 373.163 239.877 373.29 240.934C373.501 243.046 373.29 244.693 372.571 246.7C371.03 251.009 369.445 255.402 366.594 259.056C363.785 262.647 359.624 265.076 355.378 266.534C351.344 267.928 347.267 267.378 343.127 266.724C339.642 266.175 336.178 265.414 332.651 266.006C329.334 266.576 327.138 268.836 324.455 270.631C321.435 272.68 317.907 273.06 314.549 271.645C310.324 269.85 308.318 265.731 306.966 261.612C306.523 260.26 304.347 260.746 304.791 262.119C306.016 265.858 307.579 269.279 310.641 271.856C313.408 274.159 317.084 275.151 320.611 274.602C324.307 274.032 326.652 271.392 329.694 269.512C332.714 267.653 336.178 267.822 339.558 268.371C343.719 269.047 347.922 269.892 352.167 269.575C356.096 269.279 360.405 267.104 363.573 264.865C367.333 262.204 369.973 258.613 371.917 254.452Z" fill="#FF939C"/>
<path d="M281.598 178.919C278.958 177.715 276.233 177.208 274.332 174.821C272.622 172.688 272.178 169.499 271.544 166.922C270.277 161.683 271.143 156.403 272.474 151.27C273.234 148.355 274.079 145.525 275.452 142.842C276.867 140.075 278.663 137.52 280.458 134.985C282.317 132.366 284.175 129.726 286.309 127.318C287.28 126.219 288.336 125.184 289.435 124.213C290.597 123.22 291.864 122.65 292.857 121.425C293.765 120.305 291.864 119.101 290.977 120.221C289.963 121.467 288.315 122.164 287.133 123.262C285.886 124.403 284.746 125.67 283.647 126.98C281.451 129.578 279.507 132.429 277.543 135.217C275.6 137.984 273.826 140.857 272.453 143.941C271.185 146.771 270.467 149.897 269.77 152.918C269.158 155.558 268.735 158.262 268.672 160.965C268.608 163.88 269.221 166.626 269.876 169.435C270.53 172.223 271.354 174.948 273.319 177.103C275.325 179.32 278.303 179.891 280.923 181.074C282.232 181.644 282.887 179.51 281.598 178.919Z" fill="#FF939C"/>
<path d="M293.279 258.359C294.06 257.134 292.159 255.93 291.399 257.155C290.385 258.761 288.189 258.93 286.456 258.866C284.323 258.803 282.253 257.81 280.479 256.712C277.078 254.621 274.924 251.009 270.889 249.953C267.32 249.002 263.983 251.136 260.603 251.917C256.928 252.762 252.703 251.474 249.725 249.298C245.965 246.552 245.627 241.8 247.275 237.723C248.838 233.879 252.323 230.985 255.132 228.049C260.519 222.431 262.335 214.468 266.707 208.152C268.693 205.301 271.375 203.083 274.776 202.175C276.17 201.794 275.663 199.619 274.269 199.999C266.538 202.069 263.074 209.398 259.906 216.052C258.237 219.558 256.548 223.17 253.928 226.085C251.267 229.063 248.204 231.64 246.134 235.083C244.212 238.272 243.346 242.623 244.698 246.172C246.008 249.657 249.091 251.981 252.471 253.269C255.787 254.536 259.293 254.663 262.673 253.67C264.426 253.163 266.116 252.361 267.89 252.002C269.876 251.6 271.798 252.466 273.382 253.586C275.198 254.874 276.592 256.649 278.409 257.979C280.12 259.225 282.042 260.134 284.07 260.725C287.048 261.633 291.441 261.232 293.279 258.359Z" fill="#FF939C"/>
<path d="M364.693 250.037C364.397 248.622 362.221 249.129 362.517 250.544C362.433 250.185 362.538 250.354 362.412 250.586C362.243 250.903 362.031 251.178 361.82 251.452C361.355 252.107 360.806 252.698 360.257 253.29C359.328 254.304 358.356 255.296 357.321 256.226C354.111 259.162 349.59 261.401 345.281 262.034C340.846 262.668 336.537 259.943 332.165 259.605C329.841 259.436 327.391 260.028 325.152 260.556C322.406 261.211 319.724 261.76 317.168 263.048C315.879 263.703 316.936 265.667 318.224 265.034C320.928 263.682 323.864 263.175 326.778 262.499C329.567 261.844 332.207 261.654 334.995 262.351C337.255 262.9 339.431 263.745 341.733 264.126C344.246 264.548 346.591 264.252 348.999 263.492C352.907 262.246 356.73 259.943 359.666 257.113C360.87 255.951 362.031 254.747 363.087 253.459C363.869 252.508 364.967 251.304 364.693 250.037Z" fill="#FF939C"/>
<path d="M225.773 158.261C226.047 158.916 226.132 159.655 226.153 160.373C226.174 162 226.639 163.521 226.09 165.147C225.583 166.625 224.611 167.745 223.238 168.463C221.105 169.604 218.697 170.174 216.289 170.132C215.592 168.928 215.254 167.491 216.331 165.717C217.894 163.161 222.478 166.161 223.069 166.076C223.682 165.992 223.872 165.675 223.365 165.316C222.858 164.957 219.753 163.732 220.07 160.5C220.387 157.268 223.47 157.691 225.477 158.177C225.583 158.219 225.688 158.24 225.773 158.261Z" fill="#FF939C"/>
</svg>
