<svg width="378" height="378" viewBox="0 0 378 378" fill="none" xmlns="http://www.w3.org/2000/svg">
<g clip-path="url(#clip0)">
<path d="M30.6795 193.551C30.6795 193.551 -4.39198 272.527 11.945 357.288C11.945 357.288 28.77 376.554 52.7875 377.043C76.805 377.532 80.6665 368.856 101.799 372.237C122.952 375.618 132.542 352.971 133.518 348.166C134.472 343.36 91.2325 217.176 89.3018 213.327C87.371 209.478 74.8955 194.55 59.98 193.572C45.107 192.572 39.336 188.723 30.6795 193.551Z" fill="#A98267"/>
<path d="M192.14 360.648C192.14 360.648 206.546 359.691 216.158 360.648C225.769 361.605 270.94 369.324 287.765 330.303C304.59 291.304 243.082 182.45 243.082 182.45C243.082 182.45 223.859 172.328 210.896 203.162C197.911 233.996 164.261 349.59 192.14 360.648Z" fill="#231F20"/>
<path d="M142.641 46.1662C142.641 46.1662 146.8 58.1382 145.59 69.94C144.381 81.7419 143.914 87.5259 145.59 92.0978C147.266 96.6697 156.58 106.834 157.535 110.938C158.511 115.042 152.974 144.175 152.974 144.175C152.974 144.175 149.855 146.833 145.527 147.067C141.198 147.301 141.474 153.808 141.941 155.254C142.408 156.7 146.014 164.887 142.896 169.225C139.777 173.563 121.997 177.178 100.61 169.225C100.61 169.225 88.3258 193.445 87.2649 210.223C87.2649 210.223 79.3935 220.09 51.1113 217.623C22.8292 215.156 29.9581 195.72 30.6795 193.551C31.4009 191.382 38.36 163.696 56.3944 125.164C56.3944 125.164 29.4913 112.873 36.6839 80.381C43.8976 47.8674 60.7014 26.4326 89.0684 26.6878C117.414 26.9004 142.641 46.1662 142.641 46.1662Z" fill="#FFC193"/>
<path d="M125.689 82.2944C125.689 82.2944 139.14 83.2514 139.862 75.5536C140.583 67.8558 135.067 69.3018 132.775 69.7696C130.484 70.2587 113.192 72.8955 110.306 78.4455C107.421 83.9744 112.704 84.4634 116.544 84.2295C120.406 83.9744 124.479 83.2514 125.689 82.2944Z" fill="#231F20"/>
<path d="M125.922 101.602C120.766 101.602 116.162 98.1787 115.95 98.0299L117.393 96.0948C117.435 96.1373 122.358 99.7523 127.089 99.1144C131.693 98.4764 134.324 93.3091 134.345 93.2666L136.488 94.3511C136.361 94.6063 133.263 100.709 127.407 101.517C126.919 101.56 126.41 101.602 125.922 101.602Z" fill="#231F20"/>
<path d="M100.186 170.351C99.4224 170.075 81.4729 163.504 74.0046 158.677C66.0907 153.552 66.2392 141.07 66.2392 140.538L68.6367 140.581L67.4273 140.559L68.6367 140.581C68.6367 140.687 68.5094 152.255 75.2988 156.635C82.555 161.314 100.823 168.012 101.014 168.076L100.186 170.351Z" fill="#231F20"/>
<path d="M163.2 33.2794C164.198 31.5144 164.643 29.4305 164.346 27.2615C163.943 24.4545 162.309 21.839 160.06 20.1378C157.514 18.2027 154.162 17.2671 151.001 17.2458C149.303 17.2246 147.627 17.501 145.93 17.5223C145.314 17.5223 144.72 17.5435 144.169 17.2458C143.532 16.9056 142.981 16.3527 142.408 15.8849C141.835 15.4171 141.241 14.9705 140.562 14.6728C139.628 14.2688 138.61 13.9923 137.634 13.7797C135.852 13.3757 134.091 13.5671 132.33 13.9923C131.099 14.2901 129.911 14.6728 128.638 14.7579C127.832 13.3544 126.962 11.9935 125.986 10.6751C124.416 8.52734 122.57 6.54973 120.385 5.01867C117.987 3.3175 115.356 2.40312 112.534 1.70139C109.118 0.82954 105.554 0.638159 102.032 0.382983C100.377 0.27666 98.7222 0.042749 97.0673 0.0214844C95.6033 0.0214844 94.1394 0.319189 92.7815 0.808276C90.2142 1.76518 88.0289 3.46635 85.6526 4.80603C84.3159 5.55029 82.8732 6.1457 81.4304 6.65605C79.9665 7.18766 78.4601 7.48537 76.9112 7.5279C73.5378 7.61296 70.4401 6.16696 67.1303 5.82673C63.6082 5.46523 60.1711 6.29455 56.734 6.99628C55.3973 7.27272 54.0607 7.48537 52.7664 7.99572C51.5783 8.46354 50.4326 9.08022 49.3717 9.78195C47.1227 11.2492 45.1496 13.1843 43.5583 15.3533C40.4818 19.5424 38.8057 25.0287 41.3305 29.877C41.3517 29.8983 41.373 29.9408 41.373 29.9621C38.9967 30.0046 36.6416 30.196 34.3502 30.8127C31.0403 31.727 28.3246 33.7047 25.9058 36.0863C21.4927 40.4455 17.61 46.4422 17.7798 52.8641C17.8222 54.4802 18.289 55.9475 18.7133 57.4785C19.1377 58.9458 19.4135 60.413 19.4347 61.9441C19.4771 65.2188 18.2041 68.3447 18.1192 71.5982C18.0768 73.3845 18.3739 75.1494 18.7133 76.8931C18.8831 77.765 19.074 78.6155 19.2862 79.4874C19.4771 80.3592 19.562 81.2098 19.6681 82.0817C20.05 85.2076 20.8138 88.1846 22.1929 91.0341C23.8266 94.4152 26.2877 97.1796 28.9399 99.7951C29.8522 100.688 30.7645 101.539 31.7193 102.389C34.8594 107.854 37.7449 112.214 38.8057 113.872C42.0519 118.933 48.0775 128.758 48.0775 128.758C47.3349 134.733 52.6391 136.179 52.6391 136.179C57.4554 132.479 59.3224 121.336 59.3224 121.336C59.3224 121.336 46.2528 116.573 49.8597 103.729C53.4666 90.8852 66.621 97.9451 66.621 97.9451C76.1262 93.3732 71.8828 74.3414 71.6282 66.6436C71.3736 58.9458 78.8844 52.6727 78.8844 52.6727C80.4969 54.225 85.9284 53.5871 93.5665 54.7141C94.4364 55.2882 95.2851 55.8624 96.1337 56.3727C97.6189 57.2871 99.1678 57.9889 100.717 58.7756C102.265 59.5624 103.793 60.413 105.299 61.2636C106.848 62.1355 108.397 63.0073 109.967 63.8154C111.601 64.666 113.277 65.3677 114.911 66.1545C118.242 67.7493 121.849 68.6424 125.519 68.7488C128.914 68.8551 132.181 68.1746 135.236 66.7074C136.7 66.0056 138.101 65.155 139.48 64.3045C139.989 64.1981 140.477 64.0918 140.923 63.9642C147.182 62.2843 152.931 65.4102 152.931 65.4102C167.953 63.0073 159.933 48.3134 159.933 48.3134C162.946 46.4422 165.598 40.8496 163.2 33.2794ZM24.8662 90.8852C23.4235 88.291 22.596 85.4202 22.1929 82.4857C22.108 81.9116 22.0444 81.3587 22.0019 80.7845C23.2537 85.3139 25.3966 90.2686 27.7729 94.968C26.6697 93.6922 25.6937 92.3525 24.8662 90.8852ZM33.353 37.9788C26.0968 43.2737 21.5988 49.7807 23.084 55.7986C24.5904 61.8165 22.0868 68.3235 22.0868 68.3235C20.9623 70.2798 20.6653 72.8741 21.0047 75.8086C20.7714 74.5753 20.6228 73.3207 20.5804 72.066C20.4955 68.7488 21.7686 65.5803 21.8746 62.263C21.9383 60.7533 21.6837 59.2435 21.323 57.7549C20.9623 56.2239 20.3682 54.7992 20.2409 53.2256C19.7317 47.0588 23.9539 41.2961 28.1336 37.2346C30.2341 35.1932 32.6104 33.7047 35.4534 32.9604C36.3233 32.7265 37.2144 32.5776 38.1268 32.4713C37.5327 33.7684 36.7052 35.5334 33.353 37.9788ZM61.8897 10.0584C48.4382 11.7808 44.216 23.1149 43.0279 27.7931C41.373 23.5827 43.7068 18.7131 46.5711 15.3958C48.2472 13.482 50.2204 11.8659 52.4906 10.7176C53.3393 10.271 54.5062 9.86701 55.5458 9.65436C57.2856 9.29286 59.0466 8.93136 60.7864 8.59113C62.3989 8.27216 64.0326 8.08078 65.6875 8.12331C67.4909 8.14457 69.2095 8.65492 70.9493 9.10148C71.0978 9.14401 71.2251 9.16527 71.3736 9.2078C69.0822 9.25033 66.0058 9.52677 61.8897 10.0584ZM127.216 17.0757C127.386 17.3734 127.535 17.6711 127.704 17.9688C127.132 17.6286 126.559 17.2458 125.965 16.8631C126.368 16.9481 126.792 17.0119 127.216 17.0757ZM79.4148 11.2492C78.8844 10.8239 78.651 10.2498 77.8023 9.82448C78.6722 9.76068 79.5421 9.65436 80.4332 9.44172C82.0669 9.05895 83.6582 8.37848 85.1858 7.69802C86.5013 7.10261 87.7318 6.37961 88.9624 5.61408C91.1478 4.23188 93.3331 2.78589 95.964 2.46692C97.5553 2.27553 99.1677 2.53071 100.759 2.6583C102.478 2.78589 104.175 2.89221 105.872 3.04106C109.055 3.33877 112.343 3.82785 115.335 4.95488C119.854 6.65605 123.058 10.2923 125.583 14.2475C124.798 14.0561 124.034 13.8222 123.27 13.5671C121.191 12.8653 119.196 11.9297 117.266 10.8877C112.534 7.86813 107.315 5.03994 101.693 4.0405C89.408 1.87151 80.9 12.4613 79.4148 11.2492ZM123.397 66.2183C119.769 65.7504 116.502 64.3045 113.213 62.7521C110.01 61.2423 106.954 59.4136 103.835 57.7124C103.029 57.2659 102.223 56.8406 101.396 56.4365C103.56 57.0745 105.83 57.9038 108.185 58.9458C118.454 63.5602 127.089 65.0062 133.518 64.9424C130.335 66.3246 126.835 66.6436 123.397 66.2183ZM131.46 19.9252C131.417 19.9039 131.375 19.8826 131.333 19.8826C130.866 18.9257 130.378 17.9688 129.89 17.0332C131.205 16.8205 132.478 16.3952 133.772 16.1188C135.576 15.736 137.231 16.0975 138.949 16.6504C140.413 17.1182 141.411 18.2878 142.662 19.1384C144.02 20.0528 145.633 19.989 147.203 19.8826C148.794 19.7763 150.407 19.5424 152.019 19.6913C153.504 19.8189 154.989 20.2016 156.368 20.7758C158.83 21.8177 160.845 23.8166 161.673 26.3046C162.076 27.5166 162.139 28.7925 161.885 30.0046C161.354 28.9201 160.739 27.8144 159.997 26.6661C152.995 15.8211 138.737 22.8172 131.46 19.9252Z" fill="#231F20"/>
<path d="M250.274 128.29C244.27 161.527 196.935 174.051 192.14 169.224C187.345 164.419 176.249 168.799 166.192 167.778C154.183 166.566 155.859 158.635 156.814 154.892C157.769 151.149 155.859 145.387 152.974 144.175C151.213 143.43 148.73 142.963 147.139 141.793C146.121 141.049 145.484 139.985 145.612 138.412C145.93 134.329 151.425 137.179 151.658 136.158C151.892 135.116 150.322 134.818 147.924 134.095C145.527 133.372 145.039 130.48 146.248 128.8C146.927 127.865 148.794 127.886 150.491 127.907C151.828 127.907 153.038 127.886 153.462 127.354C154.417 126.142 153.462 123.739 149.855 122.378C146.248 121.017 146.248 117.254 146.248 117.254C148.9 113.405 156.093 103.283 159.466 99.285C162.84 95.2872 156.941 79.2112 161.864 65.2403C168.08 47.612 183.25 40.6797 183.25 40.6797C183.25 40.6797 256.279 95.0533 250.274 128.29Z" fill="#FFD0AE"/>
<path d="M177.967 73.8737C177.967 73.8737 172.917 69.3019 169.799 73.8737C166.68 78.4456 172.684 82.8687 179.176 84.2722C179.176 84.2722 190.23 93.1395 192.628 92.6504C195.025 92.1613 192.861 85.1865 183.505 79.1686C183.483 79.1686 180.195 75.3197 177.967 73.8737Z" fill="#231F20"/>
<path d="M176.673 109.066C176.355 109.066 176.037 109.045 175.718 109.024C172.833 108.79 170.456 107.025 168.823 103.899C167.656 101.666 167.316 99.5186 167.295 99.4335L169.671 99.0508L168.483 99.2422L169.671 99.0508C169.693 99.1146 170.923 106.238 175.909 106.621C181.32 107.046 186.263 102.687 186.305 102.645L187.918 104.431C187.685 104.622 182.699 109.066 176.673 109.066Z" fill="#231F20"/>
<path d="M170.468 104.524L167.676 106.944L169.245 108.762L172.037 106.341L170.468 104.524Z" fill="#231F20"/>
<path d="M176.991 107.812H174.594V112.384H176.991V107.812Z" fill="#231F20"/>
<path d="M184.623 105.462L182.441 106.459L184.334 110.619L186.515 109.622L184.623 105.462Z" fill="#231F20"/>
<path opacity="0.5" d="M181.235 115.999C177.946 116.084 170.435 115.276 169.884 120.805C169.332 126.333 179.665 126.1 182.529 125.866C185.414 125.632 192.373 124.994 191.907 120.975C191.419 116.977 184.014 115.935 181.235 115.999Z" fill="#FF939C"/>
<path d="M364.549 326.539C364.082 327.369 363.594 328.177 363.085 328.964C358.587 336.109 353.049 342.233 346.981 347.443C346.281 348.059 345.56 348.633 344.859 349.229C332.617 359.181 318.614 365.645 307.115 369.494C306.329 369.749 305.566 370.004 304.823 370.238C294.299 373.556 286.301 374.598 284.412 374.13C276.732 372.195 282.482 362.094 282.015 340.553C281.548 319.012 252.439 275.504 238.032 245.16C223.605 214.815 223.965 128.842 226.49 128.842C229.015 128.842 238.393 124.866 236.038 115.977C233.704 107.089 226.49 109.683 219.998 110.087C213.506 110.47 221.08 96.6901 204.149 87.6526C187.218 78.6152 181.086 71.7679 177.798 60.2C174.509 48.632 181.256 40.6153 181.256 40.6153C187.791 36.4899 194.368 34.1508 200.521 32.96C201.348 32.7899 202.176 32.6623 202.982 32.5347C211.702 31.2163 219.383 32.0881 224.581 33.1514C225.536 33.3428 226.384 33.5554 227.169 33.7468C229.97 34.4485 231.561 35.0865 231.561 35.0865C251.632 40.913 263.556 55.139 270.621 68.8547C271.385 70.3219 272.085 71.7892 272.743 73.2565C278.069 85.1009 279.936 95.797 280.572 99.2419C282.015 107.025 296.655 176.794 335.885 208.946C356.486 225.809 368.495 255.197 368.495 255.197C378.403 285.775 374.648 309.06 364.549 326.539Z" fill="#FF939C"/>
<path d="M120.066 191.17C120.066 191.17 125.837 178.134 126.304 171.861C126.792 165.61 126.071 152.362 126.304 146.578C126.304 146.578 122.464 143.686 120.894 149.236C120.894 149.236 120.045 161.038 117.648 162.484C115.25 163.93 111.877 153.34 111.877 147.322C111.877 141.304 113.341 125.994 109.712 125.994C104.875 125.994 107.209 150.448 105.766 150.894C103.772 151.49 105.66 119.508 100.229 121.018C95.3274 122.379 100.398 151.809 98.1917 152.34C96.0064 152.872 95.9639 125.611 93.4816 126.015C87.5621 126.993 93.3331 153.446 91.4448 153.85C89.5564 154.254 88.3259 137.243 85.4404 138.433C81.3031 140.156 88.5593 172.095 92.1661 180.92C95.773 189.724 99.8466 199.378 100.568 203.099C101.289 206.82 101.586 249.69 105.278 264.363C108.97 279.056 157.62 318.779 157.62 318.779C157.62 318.779 122.952 197.719 120.066 191.17Z" fill="#FFD0AE"/>
<path d="M82.3427 230.381C82.3427 230.381 115.972 261.491 131.354 284.117C131.354 284.117 128.468 297.578 118.39 308.89C108.291 320.203 100.844 337.789 93.524 340.915C86.2042 344.041 83.5521 331.048 70.5886 317.311C57.6039 303.595 29.7461 262.64 44.1524 243.863C58.5586 225.086 70.334 226.766 82.3427 230.381Z" fill="#A98267"/>
<path d="M291.435 369.877C290.905 369.409 290.226 369.558 289.738 369.983C288.635 370.94 287.383 371.6 286.067 371.876C286.067 371.812 286.089 371.748 286.089 371.685C286.046 360.244 282.673 349.059 278.811 338.384C274.886 327.539 271.385 316.524 266.42 306.083C266.102 305.381 265.763 304.701 265.423 303.999C265.084 302.532 264.744 301.065 264.384 299.597C263.493 295.812 262.347 292.049 261.265 288.306C260.204 284.563 259.058 280.842 257.785 277.163C256.533 273.548 255.112 269.976 253.436 266.531C251.717 263.022 250.105 259.471 248.598 255.856C247.771 253.878 246.901 251.922 246.201 249.881C245.543 247.967 244.843 245.989 243.591 244.373C243.188 243.863 242.509 243.65 241.936 244.033C241.427 244.373 241.172 245.181 241.597 245.692C242.615 246.989 243.188 248.499 243.74 250.03C244.313 251.688 244.991 253.283 245.649 254.899C247.134 258.557 248.747 262.15 250.444 265.702C251.25 267.403 252.12 269.104 252.863 270.848C253.606 272.591 254.284 274.356 254.942 276.143C256.279 279.779 257.425 283.5 258.528 287.221C259.376 290.092 260.183 292.984 260.968 295.897C260.077 294.515 259.143 293.133 258.231 291.772C255.133 287.115 252.608 282.182 249.977 277.248C244.716 267.36 238.117 258.259 232.877 248.392C228.039 239.312 224.878 229.424 222.565 219.409C221.398 214.348 220.274 209.244 219.51 204.098C218.725 198.824 218.364 193.487 218.364 188.171C218.364 186.618 215.967 186.746 215.967 188.298C215.988 199.781 218.046 211.009 220.741 222.13C223.393 233.145 227.339 243.693 232.961 253.538C235.72 258.365 238.754 263.044 241.682 267.786C244.652 272.613 247.41 277.525 250.041 282.543C251.335 285.031 252.672 287.519 254.136 289.901C255.557 292.197 257.085 294.409 258.57 296.663C260.31 299.321 261.859 302.107 263.28 304.956C265.572 314.546 267.354 324.243 268.16 334.046C268.818 342.063 269.094 350.122 270.897 357.99C271.258 359.521 271.555 361.095 272.043 362.583C272.531 364.029 273.189 365.411 273.931 366.73C275.374 369.26 277.39 371.514 279.872 373.024C281.548 374.045 283.542 374.598 285.516 374.449C287.85 374.279 289.865 373.109 291.584 371.599C292.029 371.132 291.881 370.26 291.435 369.877ZM276.859 366.857C275.247 364.582 274.059 361.903 273.592 359.138C273.422 358.182 273.146 357.225 272.934 356.289C272.722 355.311 272.531 354.311 272.361 353.312C272.043 351.356 271.788 349.357 271.576 347.379C270.749 339.384 270.515 331.367 269.306 323.414C268.903 320.713 268.415 318.034 267.884 315.333C271.3 323.797 274.101 332.494 277.241 341.063C279.045 345.997 280.551 351.1 281.76 356.225C282.97 361.329 283.67 366.517 283.691 371.77C283.691 371.812 283.691 371.855 283.691 371.897C283.373 371.855 283.033 371.77 282.715 371.663C280.275 370.962 278.281 368.899 276.859 366.857Z" fill="#FF939C"/>
<path d="M373.12 254.538C372.271 252.114 371.338 249.732 370.447 247.33C369.28 244.119 367.901 240.95 366.267 237.952C365.503 236.527 364.633 235.145 363.721 233.805C362.639 232.253 361.133 230.871 359.881 229.446C357.398 226.618 354.98 223.747 352.667 220.791C350.503 218.006 348.466 215.135 346.175 212.413C343.947 209.776 341.655 207.203 339.364 204.609C334.696 199.357 330.029 194.04 325.976 188.299C321.945 182.621 318.529 176.54 315.007 170.543C311.464 164.504 307.687 158.635 304.462 152.404C301.216 146.174 298.246 139.816 295.021 133.606C293.387 130.459 291.859 127.248 290.204 124.101C288.507 120.911 286.81 117.722 285.155 114.511C283.564 111.406 282.015 108.259 280.636 105.048C279.214 101.773 277.771 98.5409 276.668 95.1386C275.628 91.9276 274.843 88.6316 273.825 85.4207C272.913 82.5074 271.809 79.339 272.149 76.2344C272.319 74.7033 269.964 74.193 269.794 75.7453C269.476 78.8286 270.218 81.827 271.109 84.7615C272.064 87.9086 272.934 91.0771 273.867 94.2455C275.904 101.05 278.981 107.578 282.163 113.915C285.388 120.337 288.931 126.589 292.114 133.032C295.212 139.326 298.331 145.6 301.513 151.851C304.696 158.124 308.387 164.015 311.973 170.075C315.516 176.072 318.911 182.153 322.815 187.916C330.665 199.569 341.146 209.074 349.442 220.366C351.606 223.301 353.876 226.107 356.253 228.851C358.671 231.658 361.345 234.294 363.275 237.484C366.5 242.779 368.474 248.733 370.595 254.517C373.99 263.767 375.878 273.761 375.581 283.628C375.305 292.368 372.823 301.746 365.949 307.615C364.782 308.614 366.076 310.634 367.264 309.635C374.817 303.17 377.576 293.431 377.979 283.82C378.339 273.953 376.409 263.852 373.12 254.538Z" fill="#FF939C"/>
<path d="M190.825 185.109C189.849 181.217 187.112 155.976 185.414 151.149C185.414 151.149 184.46 146.577 188.533 146.577C192.628 146.577 194.538 152.106 195.492 154.892C196.447 157.656 199.502 169.139 201.497 169.224C203.491 169.309 204.382 155.742 204.616 144.429C204.849 133.117 206.058 126.567 209.665 125.993C213.272 125.419 215.67 133.351 214.948 159.357C214.948 159.357 219.743 142.983 219.51 127.099C219.51 127.099 219.998 123.718 223.838 123.484C227.678 123.25 229.736 130.714 225.238 159.145C225.238 159.145 230.097 138.986 230.564 136.179C231.052 133.372 233.216 132.415 234.892 133.606C236.568 134.818 240.133 136.944 233.449 162.738C233.449 162.738 238.966 152.106 239.687 149.001C240.409 145.897 242.339 147.343 243.061 147.811C243.782 148.3 247.856 148.767 239.22 172.86C239.22 172.86 229.609 200.079 226.724 206.926C223.838 213.795 212.784 306.976 199.821 339.49C186.857 372.004 179.155 376.363 176.885 377.064C174.594 377.766 152.04 374.725 100.25 334.705C100.25 334.705 124.713 291.411 130.547 287.03C130.547 287.03 159.466 314.185 160.187 315.631C160.187 315.631 187.239 237.335 195.98 205.82C197.911 198.846 193.816 197.166 190.825 185.109Z" fill="#FFC193"/>
<path opacity="0.3" d="M53.0424 74.852C52.3635 74.7031 51.8118 75.1497 51.6209 75.7876C51.1965 77.2336 50.56 78.5733 49.6689 79.8066C49.1809 80.4658 48.6717 81.0825 48.1413 81.7205C47.9079 81.9969 47.6745 82.2946 47.4199 82.571C47.2714 82.5923 47.1229 82.6561 46.9956 82.7412C46.6349 82.9963 46.4227 83.4004 46.3803 83.8257C46.3591 83.8895 46.3591 83.932 46.3378 83.9745C46.1681 84.4849 46.5076 85.059 46.9744 85.2929C48.1201 86.0797 49.3507 83.9745 49.9235 83.294C50.7934 82.2521 51.6209 81.2101 52.3422 80.0831C53.0848 78.9135 53.5728 77.6164 53.9547 76.298C54.1457 75.66 53.6365 74.9796 53.0424 74.852Z" fill="white"/>
<path opacity="0.3" d="M32.5043 70.727C31.3798 68.1752 31.592 65.4321 32.3346 62.7953C32.5043 62.1573 32.0164 61.4981 31.4011 61.3706C30.7221 61.2217 30.1493 61.6683 29.9795 62.3062C29.4491 64.1987 29.1521 66.1763 29.343 68.154C29.4491 69.1109 29.6613 70.0465 29.9795 70.9396C30.1493 71.4287 30.3827 71.8965 30.616 72.3643C30.6797 72.5132 30.8494 72.662 31.0404 72.7684C31.5496 73.7465 33.3742 73.4914 33.3106 72.1304C33.3106 71.5563 32.9923 71.0247 32.5043 70.727Z" fill="white"/>
<path opacity="0.3" d="M50.9204 46.8256C50.0717 47.6975 49.3079 48.6544 48.4593 49.5262C48.0349 49.9515 47.6318 50.3556 47.1438 50.6958C47.0377 50.7809 46.9104 50.8659 46.7831 50.9297C46.8043 50.9297 46.5497 51.0573 46.5497 51.0573C46.4437 51.0998 46.3588 51.1424 46.2527 51.1636C46.2103 51.1849 46.1678 51.1849 46.1466 51.1849C46.083 51.1849 46.0405 51.1849 45.9769 51.1849C44.4281 51.2274 44.5554 53.6516 46.1042 53.5878C47.5682 53.5453 48.7563 52.5033 49.7747 51.5464C50.8143 50.5469 51.7054 49.3987 52.7239 48.3567C53.8059 47.3147 52.0025 45.7199 50.9204 46.8256Z" fill="white"/>
<path opacity="0.3" d="M68.7003 23.9021C65.8572 22.2222 61.6987 21.3078 58.8557 23.4981C58.3465 23.9021 58.1343 24.5826 58.5162 25.1567C58.8557 25.6671 59.6619 25.901 60.1711 25.4969C62.3565 23.817 65.4753 24.7739 67.6182 26.0498C68.9549 26.8579 70.037 24.6889 68.7003 23.9021Z" fill="white"/>
<path opacity="0.3" d="M86.4801 33.0664C85.8648 32.7474 85.2071 33.0451 84.8676 33.598C83.7219 35.4905 82.4065 37.4044 80.2848 38.2975C79.6695 38.5527 79.2876 39.1481 79.4997 39.8073C79.6907 40.4027 80.4121 40.8492 81.0061 40.5941C83.7643 39.4458 85.5041 37.1917 87.0105 34.6825C87.35 34.1083 87.0317 33.3428 86.4801 33.0664Z" fill="white"/>
<path opacity="0.3" d="M109.437 18.4795C106.424 18.5008 103.581 19.1387 101.396 21.2864C100.929 21.7542 101.035 22.5836 101.502 22.9876C102.011 23.4554 102.732 23.3491 103.199 22.8813C104.918 21.2014 107.273 20.8824 109.564 20.8824C111.113 20.8824 110.964 18.4795 109.437 18.4795Z" fill="white"/>
<path opacity="0.3" d="M112.895 47.4412C111.686 45.0171 110.094 42.1676 107.018 42.0825C106.36 42.0613 105.851 42.7205 105.872 43.3371C105.915 44.0389 106.488 44.4642 107.124 44.4854C107.951 44.5067 108.63 45.1446 109.14 45.8038C109.84 46.697 110.349 47.7389 110.858 48.7384C111.155 49.3338 112.025 49.4188 112.513 49.0786C113.15 48.7171 113.192 48.0366 112.895 47.4412Z" fill="white"/>
<path opacity="0.3" d="M140.774 35.9371C140.222 35.6606 139.416 35.8733 139.162 36.4687C138.546 37.9785 137.74 39.382 136.722 40.594C136.467 40.913 136.17 41.2107 135.873 41.4872C135.958 41.4234 135.597 41.6998 135.512 41.7636C135.449 41.8061 135.088 42.0188 135.152 41.9975C135.003 42.0613 134.833 42.1251 134.664 42.1676C134.855 42.1251 134.494 42.1676 134.367 42.1676C134.409 42.1676 134.197 42.1251 134.197 42.1251C134.133 42.1038 134.048 42.0613 133.985 42.0188C133.963 41.9975 133.942 41.9975 133.921 41.9975C133.9 41.9762 133.879 41.955 133.815 41.9124C132.606 40.9555 131.014 42.7418 132.224 43.7199C136.212 46.9096 140.031 40.7004 141.304 37.5745C141.559 36.9578 141.411 36.2561 140.774 35.9371Z" fill="white"/>
<path d="M32.0799 138.582C32.0799 138.582 28.3457 121.974 25.1844 123.165C22.0231 124.355 26.0968 129.927 26.0968 129.927C26.0968 129.927 21.2169 127.779 20.2833 130.203C19.3498 132.649 30.0643 137.072 32.0799 138.582Z" fill="#FF939C"/>
<path d="M291.902 110.725C291.265 111.129 295.933 94.0535 298.224 95.3081C300.495 96.5627 298.224 102.985 298.224 102.985C298.224 102.985 302.51 99.2846 303.783 101.092C305.035 102.878 293.939 109.47 291.902 110.725Z" fill="#FF939C"/>
<path d="M299.243 116.743C298.925 116.382 298.437 116.105 297.949 116.19C297.418 116.275 297.079 116.637 296.845 117.105H296.379C295.678 117.105 295.742 118.189 296.421 118.189H297.206C297.376 118.189 297.609 118.062 297.673 117.891C297.842 117.402 298.076 117.02 298.458 117.509C298.882 118.062 298.818 118.763 298.352 119.252C297.864 119.763 298.691 120.486 299.158 119.975C300.049 119.061 300.049 117.679 299.243 116.743Z" fill="black"/>
<path d="M172.96 36.746C172.387 37.15 172.981 38.0644 173.554 37.6604C174.933 36.6822 176.227 38.2345 176.27 39.5954C176.291 40.2972 177.373 40.2334 177.352 39.5316C177.288 37.3626 175.018 35.2787 172.96 36.746Z" fill="black"/>
<path d="M158.384 290.263C158.893 288.434 159.211 286.35 157.578 284.989C157.047 284.543 156.305 285.329 156.835 285.776C158.023 286.754 157.79 288.243 157.45 289.582L157.069 289.561C156.368 289.54 156.39 290.624 157.09 290.646L157.875 290.667C158.108 290.688 158.32 290.497 158.384 290.263Z" fill="black"/>
<path d="M9.05965 233.762C8.67775 233.316 7.95638 233.401 7.46839 233.571C6.89553 233.784 6.36511 234.166 6.04686 234.677C5.68617 235.251 5.87712 235.953 6.38633 236.357C6.93797 236.782 7.65934 235.974 7.1077 235.548C7.06527 235.527 7.04405 235.485 7.00162 235.463L6.9804 235.442L6.95918 235.421L6.93797 235.4V235.378C6.93797 235.357 6.93797 235.336 6.93797 235.315C6.93797 235.293 6.93797 235.293 6.95918 235.293C6.9804 235.251 7.00162 235.23 7.02283 235.187C6.9804 235.251 7.1077 235.081 7.15013 235.038C7.17135 235.017 7.17135 235.017 7.19257 234.996C7.19257 234.996 7.27744 234.932 7.27744 234.911C7.3623 234.847 7.44717 234.804 7.53204 234.74C7.57447 234.719 7.59569 234.698 7.63812 234.677C7.65934 234.677 7.72299 234.634 7.74421 234.634C7.82907 234.592 7.91394 234.57 8.02003 234.549C8.04124 234.549 8.04124 234.549 8.06246 234.549C8.06246 234.549 8.14733 234.528 8.16855 234.528C8.21098 234.528 8.2322 234.528 8.27463 234.528H8.29585C8.29585 234.549 8.29585 234.613 8.29585 234.634C8.27463 234.762 8.25341 234.889 8.21098 234.996L7.85029 234.911C7.17135 234.719 6.93797 235.782 7.61691 235.974L8.38071 236.186C8.6141 236.25 8.8687 236.101 8.97479 235.91C9.29304 235.23 9.61129 234.379 9.05965 233.762Z" fill="black"/>
<path d="M26.1181 145.28H24.2086C23.3599 145.28 23.4236 146.599 24.2723 146.599H26.1818C27.0304 146.577 26.9668 145.28 26.1181 145.28Z" fill="black"/>
<path d="M28.4943 143.047C27.8154 142.367 27.094 141.941 26.118 141.92C25.2694 141.899 25.333 143.217 26.1817 143.239C26.8182 143.26 27.2001 143.6 27.6244 144.025C28.2397 144.621 29.0884 143.643 28.4943 143.047Z" fill="black"/>
<path d="M99.5709 368.112C99.5709 368.112 105.83 371.28 103.072 374.257C100.313 377.234 91.9116 377.893 93.3119 372.152L93.9909 369.324C93.9909 369.324 88.0077 371.429 88.2199 367.984C88.4108 364.539 89.7899 361.647 92.1026 361.626C94.4152 361.584 95.2426 364.199 95.2426 364.199C95.2426 364.199 94.988 358.117 100.08 358.692C105.172 359.266 105.427 365.73 99.5709 368.112Z" fill="#B688AA"/>
<path d="M127.853 341.106C127.853 341.106 135.639 341.595 132.224 346.996C128.808 352.397 125.731 350.547 124.416 348.144C123.1 345.742 118.73 354.311 115.611 350.101C112.492 345.89 117.499 339.766 121.912 340.787C121.912 340.787 119.536 334.918 124.246 334.535C128.977 334.131 130.399 337.597 127.853 341.106Z" fill="#B688AA"/>
<path d="M118.03 372.365C118.03 372.365 110.795 380.36 108.121 375.661C105.427 370.961 111.749 367.219 111.749 367.219C111.749 367.219 104.451 366.156 109.416 360.074C114.38 354.013 117.711 361.35 117.711 361.35C117.711 361.35 119.769 354.503 122.612 355.991C125.455 357.48 129.529 361.52 124.437 364.561C124.437 364.561 130.887 362.626 130.25 367.027C129.614 371.429 123.525 368.41 123.525 368.41C123.525 368.41 129.932 373.853 123.928 377.213C117.902 380.552 118.03 372.365 118.03 372.365Z" fill="#B688AA"/>
<path d="M116.672 364.838C113.638 366.837 116.353 370.473 119.366 369.644C123.588 368.474 120.109 362.562 116.672 364.838Z" fill="white"/>
<path d="M95.5398 365.794C94.288 367.325 96.4097 370.005 98.0858 369.133C100.95 367.666 97.5342 363.328 95.5398 365.794Z" fill="white"/>
<path d="M122.231 341.978C122.209 341.999 122.209 342.02 122.188 342.02C120.236 344.274 123.122 345.678 124.862 343.955C127.153 341.659 124.119 340.043 122.231 341.978Z" fill="white"/>
<path d="M3.35217 334.833C3.3946 334.578 3.43704 334.323 3.43704 334.068C3.47947 332.643 1.48508 332.771 1.44265 334.174C1.42143 335.11 0.997094 335.96 1.10318 336.917C1.2517 338.363 2.35498 339.256 3.43704 339.894C4.13719 340.298 4.87978 339.66 4.87978 338.852V335.663C4.901 334.663 3.94624 334.429 3.35217 334.833Z" fill="#E7D6C4"/>
<path d="M2.39754 348.995H0.95479C0.403151 348.995 -0.0211872 349.569 2.96754e-05 350.143C0.0212466 350.76 0.509235 351.185 1.03966 351.185H2.48241C3.03404 351.185 3.45838 350.611 3.43717 350.037C3.41595 349.42 2.94918 348.995 2.39754 348.995Z" fill="#E7D6C4"/>
<path d="M18.8617 346.954C18.8405 347.443 18.204 347.72 17.8858 347.932C17.5463 348.166 17.228 348.421 16.9098 348.698C16.1248 348.017 15.3822 347.188 15.0427 346.189C15.4034 346.401 15.8914 346.422 16.2733 346.018C17.5675 344.679 19.3073 344.275 19.4346 342.042C19.477 341.425 18.883 341 18.395 341C16.1884 341.021 13.4939 341.787 12.9635 344.509C12.433 347.145 14.5547 349.57 16.3369 350.909C16.8249 351.271 17.3129 351.271 17.7373 350.824C19.0315 349.485 20.7713 349.081 20.8986 346.848C20.941 345.423 18.9466 345.551 18.8617 346.954Z" fill="#E7D6C4"/>
<path d="M153.568 136.71C153.186 137.497 151.934 138.815 151.298 139.326C150.322 140.112 148.709 141.261 147.16 141.771C146.142 141.027 145.506 139.964 145.633 138.39C145.951 134.307 151.446 137.157 151.68 136.136C151.913 135.094 150.343 134.796 147.945 134.073C145.548 133.35 145.06 130.458 146.269 128.778C146.948 127.843 148.815 127.864 150.513 127.885C151.701 129.438 152.613 131.713 153.186 133.074C153.759 134.392 154.183 135.477 153.568 136.71Z" fill="#FF939C"/>
<path d="M177.755 364.986C176.546 364.178 175.061 364.072 173.724 364.582C172.515 365.029 171.348 365.965 170.902 367.219C170.308 368.899 170.923 370.451 172.133 371.685C172.599 372.153 173.427 372.046 173.83 371.578C174.297 371.068 174.191 370.345 173.724 369.877C173.681 369.835 173.618 369.771 173.575 369.728C173.575 369.728 173.575 369.707 173.554 369.707C173.469 369.601 173.384 369.495 173.321 369.367C173.3 369.324 173.215 369.176 173.193 369.133C173.151 369.027 173.13 368.942 173.087 368.835C173.087 368.814 173.066 368.793 173.066 368.772V368.75C173.066 368.665 173.045 368.601 173.045 368.516C173.045 368.495 173.066 368.346 173.066 368.304C173.066 368.261 173.087 368.197 173.109 368.155C173.151 368.049 173.342 367.73 173.321 367.751C173.406 367.645 173.512 367.538 173.618 367.432C173.66 367.389 173.745 367.326 173.788 367.304C173.894 367.219 174 367.155 174.106 367.092C174.148 367.07 174.212 367.028 174.254 367.007C174.191 367.049 174.466 366.922 174.53 366.9C174.679 366.836 174.827 366.794 174.976 366.773C174.976 366.773 175.145 366.751 175.209 366.73C175.336 366.709 175.464 366.709 175.591 366.709H175.612C175.633 366.709 175.655 366.709 175.676 366.709C175.803 366.73 175.909 366.751 176.037 366.794C176.058 366.794 176.079 366.815 176.1 366.815C176.143 366.836 176.249 366.9 176.312 366.943C176.418 367.049 176.588 367.219 176.588 367.198C176.631 367.262 176.673 367.326 176.715 367.389C176.737 367.432 176.758 367.453 176.779 367.474C176.779 367.496 176.8 367.517 176.822 367.581C176.864 367.708 176.906 367.836 176.949 367.964C176.949 368.006 176.97 368.049 176.97 368.07C176.949 368.027 176.991 368.261 177.013 368.282C177.055 368.665 177.055 369.048 177.034 369.431C176.991 370.09 177.691 370.6 178.286 370.579C178.986 370.536 179.389 369.962 179.431 369.324C179.495 367.73 179.113 365.901 177.755 364.986Z" fill="#231F20"/>
<path d="M166.383 327.539C165.619 325.817 164.643 324.2 163.731 322.542C162.903 321.053 162.14 319.458 162.097 317.715C162.076 316.162 159.678 316.29 159.7 317.842C159.763 321.734 162.585 324.838 164.07 328.262C164.325 328.857 164.919 329.261 165.577 329.049C166.171 328.879 166.638 328.156 166.383 327.539Z" fill="#231F20"/>
<path d="M307.114 369.494C306.329 369.749 305.566 370.005 304.823 370.238C304.165 368.155 303.508 366.049 303.168 363.88C302.786 361.52 302.935 359.138 303.168 356.757C303.762 350.803 303.911 344.955 303.932 338.979C303.953 333.089 303.889 327.178 303.168 321.33C302.51 315.971 301.428 310.634 300.219 305.381C299.094 300.469 297.737 295.557 295.572 290.985C293.281 286.137 290.035 281.735 286.874 277.44C283.649 273.038 280.296 268.721 277.156 264.256C271.131 255.686 264.978 246.585 261.795 236.505C260.161 231.359 259.652 226.171 259.122 220.812C258.825 217.877 258.209 214.815 258.231 211.86C258.252 209.095 258.4 206.352 258.613 203.609C259.483 192.658 260.607 181.494 259.631 170.5C258.634 159.208 255.218 148.278 251.081 137.774C247.304 128.205 240.897 119.677 234.447 111.788C227.657 103.495 221.207 94.819 215.924 85.4626C213.293 80.8269 211.108 76.1487 209.984 70.8963C208.88 65.7716 208.413 60.5405 207.798 55.3519C207.14 49.8231 205.676 44.677 203.512 39.5523C202.642 37.5109 201.773 35.4269 200.797 33.4493C200.712 33.2792 200.627 33.1091 200.542 32.939C201.369 32.7688 202.197 32.6413 203.003 32.5137C203.258 33.0878 203.512 33.6407 203.746 34.1936C205.698 38.6592 207.735 43.0822 208.944 47.8242C210.238 52.9702 210.471 58.3289 211.172 63.5813C211.893 69.025 212.933 74.6389 215.479 79.5723C217.94 84.3568 220.698 88.9713 223.711 93.4368C229.63 102.219 236.632 110.087 242.827 118.657C245.798 122.761 248.535 127.035 250.847 131.543C253.287 136.328 255.154 141.389 256.852 146.471C260.331 157.061 262.453 167.884 262.41 179.048C262.389 184.513 262.029 189.978 261.753 195.422C261.456 201.015 260.204 206.82 260.756 212.412C261.307 218.005 261.562 223.746 262.517 229.297C263.471 234.74 265.444 240.014 267.969 244.905C272.913 254.474 279.384 263.277 285.813 271.89C289.08 276.249 292.326 280.608 295.212 285.244C297.8 289.412 299.667 294.005 301.025 298.704C303.974 308.933 305.948 319.735 306.266 330.367C306.457 336.258 306.372 342.148 306.308 348.017C306.245 353.461 304.526 359.138 305.778 364.54C306.117 366.262 306.605 367.878 307.114 369.494Z" fill="white"/>
<path d="M346.981 347.443C346.281 348.06 345.559 348.634 344.859 349.229C344.456 346.869 343.989 344.53 343.48 342.169C342.292 336.938 341.04 331.728 338.643 326.923C336.394 322.393 334.187 317.821 331.683 313.42C329.159 308.933 326.4 304.574 323.324 300.427C320.439 296.557 317.192 292.984 314.286 289.114C311.655 285.584 309.236 281.905 307.411 277.886C305.481 273.633 304.547 269.317 303.762 264.745C302.828 259.429 302.489 254.049 301.959 248.669C301.407 243.14 300.346 237.866 299.031 232.486C297.821 227.51 296.697 222.492 295.063 217.644C293.323 212.498 290.862 208.053 288.083 203.418C282.503 194.146 277.708 184.343 272.955 174.647C268.075 164.716 263.726 154.615 260.31 144.089C258.655 138.943 257.318 133.776 256.364 128.46C255.897 125.887 255.303 123.378 255.451 120.741C255.578 118.465 255.6 116.318 255.303 114.085C253.902 104.048 253.075 93.5859 248.959 84.2082C244.949 75.1069 237.968 67.8344 233.046 59.2648C228.421 51.2267 226.596 42.168 224.623 33.1943C225.578 33.3857 226.426 33.5984 227.212 33.7897C228.294 38.7657 229.354 43.7416 230.946 48.5899C232.579 53.5871 234.934 58.0739 237.862 62.4119C243.315 70.4712 249.659 78.0202 252.757 87.3979C254.327 92.1611 255.303 97.0945 256.066 102.028C256.47 104.622 256.809 107.238 257.17 109.853C257.467 112.086 257.976 114.361 258.018 116.615C258.04 119.082 257.615 121.57 258.04 124.016C258.506 126.652 258.91 129.31 259.482 131.905C260.671 137.263 262.304 142.537 264.108 147.726C267.778 158.358 272.573 168.522 277.665 178.538C280.126 183.365 282.503 188.256 285.049 193.041C287.574 197.804 290.586 202.312 293.154 207.033C298.033 215.985 300.134 226.192 302.468 236.038C304.95 246.479 304.611 257.324 306.754 267.828C308.621 276.993 313.649 284.649 319.484 291.772C325.934 299.64 331.726 307.806 336.33 316.928C338.579 321.373 341.167 325.838 342.886 330.516C344.711 335.428 345.729 340.766 346.769 345.891C346.79 346.401 346.875 346.933 346.981 347.443Z" fill="white"/>
<path d="M364.548 326.54C364.082 327.369 363.594 328.177 363.084 328.964C361.26 325.561 359.775 321.989 358.841 318.31C357.801 314.121 357.271 309.847 356.38 305.636C355.404 300.958 354.577 296.259 353.855 291.538C352.54 282.841 351.161 274.271 348.508 265.85C346.026 257.982 342.78 250.37 338.791 243.161C336.776 239.525 334.633 235.995 332.299 232.55C329.88 228.999 327.164 225.66 324.767 222.088C322.306 218.388 320.099 214.475 317.341 210.966C314.434 207.288 311.252 203.864 308.09 200.398C302.68 194.444 298.882 187.384 296.463 179.707C293.981 171.882 292.729 163.844 291.414 155.742C290.714 151.489 289.929 147.194 288.507 143.111C287.149 139.177 285.176 135.456 283.118 131.841C279.214 125.036 274.716 118.316 272.828 110.597C270.621 101.624 270.324 92.1183 270.261 82.9107C270.218 78.1687 270.43 73.5118 270.621 68.791C271.385 70.2583 272.085 71.7255 272.743 73.1928C272.722 73.7882 272.679 74.3836 272.658 75.0003C272.34 83.5699 272.594 92.3948 273.613 100.922C274.143 105.366 274.822 109.832 276.414 114.042C277.835 117.806 279.745 121.315 281.76 124.781C285.876 131.819 290.12 138.773 292.072 146.79C294.066 154.955 294.745 163.376 296.697 171.563C298.543 179.282 301.131 186.873 305.629 193.508C308.218 197.314 311.506 200.525 314.583 203.949C317.532 207.266 320.311 210.711 322.73 214.432C325.149 218.175 327.567 221.854 330.22 225.448C332.723 228.807 335.099 232.273 337.306 235.846C341.592 242.778 345.284 250.072 348.211 257.685C351.161 265.382 353.367 273.335 354.767 281.459C355.574 286.115 356.147 290.794 356.91 295.472C357.674 300.065 358.693 304.616 359.478 309.209C360.241 313.568 360.942 317.991 362.554 322.117C363.148 323.648 363.806 325.115 364.548 326.54Z" fill="white"/>
<path d="M99.1465 337.002C99.1041 336.002 97.9796 335.343 97.1309 335.96C96.6005 336.364 96.2398 337.002 95.9003 337.555C95.5396 338.15 95.1365 338.852 94.8395 339.554C92.8663 338.171 91.2963 336.194 89.8323 334.344C87.8167 331.792 85.8435 329.219 83.7431 326.731C81.4092 323.967 79.1178 321.224 77.1022 318.225C75.1715 315.333 73.1134 312.526 70.7583 309.953C69.6126 308.699 68.3396 307.572 67.109 306.381C65.9209 305.211 64.6691 304.063 63.4385 302.936C62.1443 301.745 60.8501 300.554 59.6195 299.3C58.495 298.173 57.2856 296.961 56.4582 295.6C52.7452 289.497 49.6263 283.011 47.441 276.206C46.4438 273.102 45.489 269.848 45.1284 266.595C44.8525 264 44.9798 261.364 45.3405 258.769C46.0831 253.496 47.7805 247.946 51.154 243.735C52.9998 241.417 55.6307 239.695 58.2192 238.27C60.8713 236.803 63.8416 235.91 66.8757 235.804C68.5094 235.74 70.0794 235.995 71.6707 236.314C73.368 236.654 75.0654 237.058 76.7203 237.547C79.924 238.525 83.0217 239.908 85.8435 241.715C86.7983 242.311 87.7106 242.948 88.6442 243.565C89.5353 244.161 90.5112 244.671 91.2963 245.351C92.5905 246.478 94.5212 247.201 95.4972 248.605C96.3883 249.881 98.4039 248.562 97.5128 247.286C96.6429 246.032 95.3063 245.288 94.0757 244.437C93.4392 244.012 92.8875 243.395 92.251 243.012C91.4024 242.502 90.5537 241.949 89.7262 241.396C88.1774 240.354 86.6286 239.27 84.9949 238.377C83.5309 237.59 82.0457 236.909 80.4969 236.293C77.2931 235.038 73.9197 234.166 70.5037 233.613C67.3 233.082 64.0326 233.401 60.9774 234.421C57.8797 235.442 55.0366 237.186 52.4482 239.163C50.1992 240.907 48.5018 242.97 47.1015 245.458C44.3009 250.412 42.943 256.218 42.6248 261.874C42.2641 268.211 44.1524 274.505 46.3377 280.374C47.6107 283.777 49.1171 287.094 50.7721 290.326C51.5783 291.921 52.4482 293.494 53.3393 295.047C53.7636 295.791 54.2092 296.514 54.6547 297.258C55.1003 298.003 55.7792 298.662 56.3309 299.3C60.8288 304.403 66.4725 308.38 70.8008 313.675C72.9861 316.354 74.7683 319.331 76.8264 322.095C79.0117 325.03 81.5365 327.709 83.7855 330.601C85.4616 332.749 87.1378 334.897 88.8776 337.002C90.6173 339.107 92.5269 341.212 94.988 342.467C95.8367 342.913 96.6854 342.212 96.7278 341.34C96.7066 341.786 96.749 341.34 96.7914 341.212C96.7914 341.191 96.7914 341.17 96.8127 341.17C96.8551 341.063 96.8975 340.978 96.9187 340.872C97.1097 340.404 97.3431 339.936 97.5765 339.49C97.7886 339.086 98.022 338.682 98.2554 338.278C98.2554 338.257 98.2978 338.214 98.3191 338.171C98.807 338.023 99.189 337.619 99.1465 337.002Z" fill="white"/>
<path d="M166.828 36.1287C166.001 33.6195 164.855 31.1103 163.264 28.9838C161.863 27.1125 159.89 25.3263 157.45 25.0924C156.793 25.0286 156.177 25.3263 156.029 26.028C155.902 26.6235 156.305 27.389 156.962 27.4528C158.808 27.6229 160.209 28.92 161.333 30.4086C162.776 32.3224 163.688 34.3638 164.452 36.5966C164.813 37.6385 165.11 38.7018 165.322 39.765C165.428 40.2328 165.449 40.3604 165.513 40.9133C165.555 41.3173 165.598 41.7426 165.598 42.1466C165.64 44.9961 165.025 47.6754 163.476 50.0996C162.839 51.1203 162.033 52.141 161.1 52.9278C160.315 53.587 159.381 54.0761 158.448 54.2462C156.199 54.6502 153.844 53.9485 151.658 53.5232C150.131 53.2255 149.643 55.5646 151.17 55.8836C153.886 56.4365 156.687 57.1595 159.445 56.479C162.415 55.756 164.537 53.0766 166.001 50.5887C167.528 47.9944 168.016 45.0174 167.995 42.0403C167.995 40.0414 167.444 38 166.828 36.1287Z" fill="#302927"/>
</g>
<defs>
<clipPath id="clip0">
<rect width="378" height="378" fill="white"/>
</clipPath>
</defs>
</svg>
