<svg width="378" height="454" viewBox="0 0 378 454" fill="none" xmlns="http://www.w3.org/2000/svg">
<g clip-path="url(#clip0)">
<path d="M147.674 37.1654C147.13 36.6712 146.041 36.6192 145.574 37.2954C140.57 44.6037 136.007 52.2241 129.993 58.7522C127.193 61.7692 123.693 63.8238 120.478 66.3206C119.674 66.9448 118.948 67.569 118.274 68.3493C117.626 69.1295 116.952 69.9098 116.278 70.69C114.981 72.1985 113.607 73.681 112.078 74.9554C111.222 75.6576 110.315 76.3078 109.33 76.8019C108.604 77.1661 108.5 78.2324 108.889 78.8566C109.356 79.5848 110.211 79.6628 110.937 79.2987C114.489 77.4782 117.185 74.1751 119.726 71.1842C120.296 70.534 120.815 69.8317 121.489 69.2595C122.319 68.5833 123.174 67.9331 124.056 67.3089C125.741 66.1125 127.452 64.9422 129.033 63.6418C132.456 60.8849 135.23 57.3218 137.848 53.8106C140.493 50.2475 142.904 46.5283 145.367 42.8092C146.17 41.6128 146.948 40.4164 147.778 39.22C148.27 38.5958 148.322 37.7376 147.674 37.1654Z" fill="#FF939C"/>
<path d="M66.8113 218.236C64.1409 217.819 62.015 216.545 60.1224 214.646C58.152 212.67 56.5964 210.303 54.8335 208.144C53.2261 206.168 51.4631 204.295 49.0779 203.281C46.6927 202.24 44.0483 202.136 41.4816 202.11C39.5631 202.11 39.7187 205.075 41.6372 205.075C42.8816 205.075 44.1261 205.101 45.3446 205.283C46.4335 205.439 47.289 205.673 48.1964 206.116C50.2705 207.104 51.8779 209.133 53.3557 211.031C55.0668 213.216 56.7001 215.505 58.7483 217.429C60.8224 219.38 63.389 220.706 66.215 221.122C68.0816 221.435 68.7038 218.522 66.8113 218.236Z" fill="#A66230"/>
<path d="M309.27 108.428C309.27 108.428 302.867 133.63 305.252 141.484C315.052 173.657 339.993 180.237 344.011 202.708C348.03 225.179 338.307 248.248 358.711 271.526C371.622 286.272 368.952 315.766 345.359 334.986C337.011 341.8 334.211 372.958 307.507 369.837C280.778 366.716 289.256 365.363 289.256 365.363L113.737 220.576C113.737 220.576 81.6668 161.589 111.508 124.501L109.719 99.4811C109.719 99.4811 115.5 79.8189 128.878 65.5143C142.23 51.2098 136.889 41.8208 141.348 32.9C145.808 23.9792 166.289 5.20121 193.019 0.28565C219.748 -4.62991 309.27 108.428 309.27 108.428Z" fill="#FF939C"/>
<path d="M246.478 219.692C246.478 219.692 294.13 236.233 311.5 252.749C328.871 269.29 328.871 292.073 328.871 300.11C328.871 308.146 324.852 376.522 305.719 397.979C286.56 419.435 247.36 436.419 199.708 431.945C152.056 427.472 124.419 335.871 125.326 311.735C126.208 287.6 134.115 228.171 134.115 228.171C134.115 228.171 159.626 214.308 199.708 216.545C239.789 218.808 246.478 219.692 246.478 219.692Z" fill="#231F20"/>
<path d="M150.811 187.416C149.515 188.742 147.856 190.094 146.093 191.837C145.756 192.175 145.419 192.513 145.107 192.851C143.033 195.062 140.933 197.845 139.222 201.772C135.774 209.705 103.185 214.542 82.2371 214.75C74.2 214.828 68.8593 214.152 65.1 213.086C64.5556 212.93 64.063 212.774 63.5704 212.591C58.6963 210.849 56.8556 208.326 54.6 206.063C51.7222 203.177 44.2037 205.829 38.2408 207.546C37.6185 207.728 36.9963 207.884 36.4259 208.04C34.8445 208.456 33.4185 208.742 32.3296 208.742C26.9889 208.742 12.9111 188.898 12.9111 183.54C12.9111 178.183 25.1741 167.311 26.4963 159.717C27.8445 152.122 23.8778 132.694 26.5482 122.525C28.4148 115.451 36.7111 120.886 41.6111 124.84C42.4926 125.568 43.2704 126.218 43.8667 126.764C44.7222 127.519 45.2148 128.013 45.2148 128.013C65.9037 64.8126 124.833 91.5751 128.359 96.9588C131.911 102.369 139.507 147.701 150.682 163.072C161.933 178.443 153.87 184.295 150.811 187.416Z" fill="#A66230"/>
<path d="M260.711 142.836C257.6 157.141 242.459 150.873 242.459 150.873C242.459 150.873 257.6 227.727 251.819 238.469C246.037 249.184 226.515 263.983 197.478 252.331C179.667 245.179 187.73 227.311 186.822 219.717C185.967 212.538 188.689 192.148 184.852 183.929C184.619 183.461 184.385 183.019 184.126 182.629C184.126 182.629 183.452 182.759 182.259 182.941C175.959 183.903 155.4 186.556 147.156 181.302C137.356 175.034 127.556 132.589 131.574 110.69C135.593 88.7911 143.604 42.7565 158.304 32.4832C173.004 22.21 199.734 22.21 199.734 22.21C210.83 23.9785 252.259 40.0516 253.141 69.545C254.022 99.0383 250.911 128.532 250.911 128.532C250.911 128.532 263.848 128.532 260.711 142.836Z" fill="#FFD0AE"/>
<path d="M217.648 163.592C209.015 173.345 199.915 178.469 193.796 181.043C189.985 182.656 186.848 183.488 184.852 183.904C184.619 183.436 184.385 182.994 184.126 182.604C184.126 182.604 183.452 182.734 182.259 182.916V182.838C182.311 182.838 186.822 182.37 193.304 179.639C199.267 177.116 208.133 172.123 216.559 162.604L217.648 163.592Z" fill="#231F20"/>
<path d="M190.789 29.7794C190.789 29.7794 201.47 38.7262 216.637 47.2049C231.778 55.6836 245.155 82.9663 244.248 91.8871C243.367 100.834 242.407 124.475 250.937 128.533C259.441 132.59 305.9 123.279 305.9 123.279C305.9 123.279 314.093 97.3749 305.9 79.6632C297.707 61.9516 276.318 35.5792 266.518 24.8638C256.718 14.1484 248.707 11.4696 240.696 12.3539C232.685 13.2382 218.789 12.1978 214.796 9.23289C210.804 6.26795 200.9 -1.58655 193.018 0.286048C185.163 2.15864 152.03 12.3539 141.348 32.9004L139.222 73.4733C139.222 73.4733 148.452 45.8525 165.848 39.5845C183.218 33.3425 190.789 29.7794 190.789 29.7794Z" fill="#FF939C"/>
<g opacity="0.3">
<path opacity="0.3" d="M199.708 22.185C199.708 22.185 206.526 14.6426 214.848 14.1484L199.708 22.185Z" fill="black"/>
<path opacity="0.3" d="M200.252 22.6795L199.163 21.6912C199.448 21.3791 206.293 13.9147 214.822 13.3945L214.9 14.877C206.967 15.3452 200.304 22.6015 200.252 22.6795Z" fill="white"/>
</g>
<g opacity="0.3">
<path opacity="0.3" d="M117.237 64.2139L115.863 63.6678C117.963 58.3361 123.174 56.5935 129.215 54.5909C137.718 51.756 148.296 48.2189 156.074 33.3682C159.211 27.3863 163.281 22.8088 168.155 19.7919C172.07 17.3731 176.504 15.9426 181.326 15.5525C189.518 14.8763 195.948 17.3731 196.207 17.4771L195.663 18.8556C195.585 18.8296 189.233 16.3588 181.404 17.035C170.929 17.9193 162.841 23.6411 157.396 34.0704C153.818 40.9106 149.359 46.0342 143.759 49.7273C138.911 52.9264 134.011 54.5649 129.707 56.0213C123.744 57.972 119.078 59.5325 117.237 64.2139ZM195.637 18.8556L195.922 18.1533L195.637 18.8556Z" fill="white"/>
</g>
<g opacity="0.3">
<path opacity="0.3" d="M284.122 235.791C283.889 223.957 279.948 219.38 275.774 214.542C273.467 211.889 271.108 209.132 269.397 205.127C264.341 193.189 269.5 184.581 274.971 175.504C279.326 168.247 283.837 160.757 283.578 150.9C283.422 144.554 278.471 138.26 272.741 130.978C266.026 122.473 258.404 112.798 255.993 100.08C254.878 94.2278 256.589 88.298 258.43 82.03C260.763 73.9934 263.174 65.6968 260.504 55.8917C258.015 46.7368 248.915 40.2607 241.734 36.4635C233.411 32.0681 225.608 30.0655 224.389 30.0655V28.583C226.074 28.583 234.241 30.8197 242.434 35.1371C249.874 39.0643 259.311 45.8005 261.93 55.4755C264.704 65.6968 262.111 74.5916 259.83 82.4201C258.067 88.506 256.382 94.2539 257.445 99.7676C259.804 112.148 267.297 121.641 273.908 130.041C279.819 137.532 284.9 144.008 285.082 150.848C285.315 161.147 280.7 168.82 276.241 176.258C270.978 185.023 266 193.293 270.771 204.529C272.378 208.326 274.582 210.875 276.889 213.554C281.063 218.391 285.367 223.385 285.6 235.739L284.122 235.791Z" fill="white"/>
</g>
<path d="M158.978 315.064C158.978 315.324 158.978 315.558 158.978 315.792C158.978 320.812 158.719 327.548 158.304 334.726C157.889 342.217 157.344 350.201 156.8 357.171C156.256 364.298 155.763 370.409 155.452 373.947C155.27 376.027 155.167 377.224 155.167 377.224L152.626 375.273L130.822 358.472L107.515 340.526L80.4741 319.693L61.1852 304.817L44.2038 291.735L42.9334 290.772C42.9334 290.772 38.5519 275.843 34.8445 261.513C32.7704 253.476 30.9297 245.648 30.1778 240.706C29.789 238.184 29.7112 236.415 30.0223 235.765C32.0186 231.551 41.1445 221.954 52.526 219.51C63.8815 217.065 83.1964 204.477 85.6593 203.359C88.0963 202.24 105.13 199.899 105.13 199.899C105.13 199.899 117.782 203.879 126.907 200.966C136.033 198.053 146.196 205.803 155.219 209.002C162.633 211.629 178.344 216.051 178.733 216.805C182.648 224.373 158.744 228.092 158.744 228.092L156.489 235.063L152.289 248.093L151.848 262.839C151.848 262.839 152.704 267.001 153.844 273.217C154.752 278.288 155.867 284.712 156.8 291.344C157.967 299.641 158.926 308.276 158.978 315.064Z" fill="#B688AA"/>
<path opacity="0.8" d="M143.318 328.926C143.318 328.926 151.096 322.892 153.196 328.198C155.296 333.529 151.044 344.609 144.641 339.329L141.452 336.754C141.452 336.754 140.493 345.623 136.267 343.282C132.015 340.942 129.215 337.457 130.563 334.492C131.937 331.527 135.722 332.073 135.722 332.073C135.722 332.073 127.867 328.718 131.678 322.58C135.489 316.442 143.837 320.031 143.318 328.926Z" fill="white"/>
<path opacity="0.8" d="M126.259 276.624C126.259 276.624 131.574 267.001 136.345 274.621C141.089 282.242 136.915 284.998 133.078 285.233C129.241 285.467 137.433 296.208 130.226 297.612C123.019 299.043 118.3 288.952 122.267 283.984C122.267 283.984 113.4 283.464 115.785 277.222C118.119 270.98 123.382 271.266 126.259 276.624Z" fill="white"/>
<path opacity="0.8" d="M159.859 308.042C159.859 308.042 165.589 322.06 158.019 322.633C150.448 323.205 149.541 312.906 149.541 312.906C149.541 312.906 143.759 321.54 139.093 311.553C134.426 301.566 145.73 301.8 145.73 301.8C145.73 301.8 138.315 295.038 141.919 292.307C145.522 289.602 153.093 286.845 153.845 295.168C153.845 295.168 155.296 285.805 160.482 289.264C165.667 292.723 158.148 298.653 158.148 298.653C158.148 298.653 168.908 293.816 169.504 303.465C170.1 313.114 159.859 308.042 159.859 308.042Z" fill="white"/>
<path opacity="0.8" d="M149.515 305.207C150.215 310.279 156.463 309.004 157.215 304.713C158.278 298.601 148.711 299.459 149.515 305.207Z" fill="#B688AA"/>
<path opacity="0.8" d="M137.926 332.645C139.119 335.168 143.785 334.102 143.708 331.423C143.578 326.924 136.033 328.614 137.926 332.645Z" fill="#B688AA"/>
<path opacity="0.8" d="M123.978 284.296C123.978 284.322 124.004 284.348 124.004 284.374C125.663 288.224 129.189 285.389 128.048 282.138C126.544 277.846 122.656 280.733 123.978 284.296Z" fill="#B688AA"/>
<g opacity="0.8">
<path opacity="0.8" d="M95.3297 331.501C95.3297 331.501 103.107 325.467 105.207 330.773C107.307 336.104 103.056 347.184 96.6519 341.904L93.463 339.329C93.463 339.329 92.5037 348.198 88.2778 345.858C84.026 343.517 81.226 340.032 82.5741 337.067C83.9482 334.102 87.7334 334.648 87.7334 334.648C87.7334 334.648 79.8778 331.293 83.6889 325.155C87.526 319.017 95.8741 322.606 95.3297 331.501Z" fill="white"/>
<path d="M78.2965 279.173C78.2965 279.173 83.6113 269.55 88.3817 277.17C93.1261 284.79 88.9521 287.547 85.115 287.781C81.278 288.016 89.4706 298.757 82.2632 300.161C75.0558 301.592 70.3373 291.501 74.3039 286.533C74.3039 286.533 65.4373 286.013 67.8224 279.771C70.1558 273.555 75.3928 273.841 78.2965 279.173Z" fill="white"/>
<path d="M111.897 310.591C111.897 310.591 117.626 324.609 110.056 325.182C102.485 325.754 101.578 315.454 101.578 315.454C101.578 315.454 95.7966 324.089 91.1299 314.102C86.4632 304.115 97.7669 304.349 97.7669 304.349C97.7669 304.349 90.3521 297.587 93.9558 294.856C97.5595 292.151 105.13 289.394 105.882 297.717C105.882 297.717 107.334 288.354 112.519 291.813C117.704 295.272 110.185 301.202 110.185 301.202C110.185 301.202 120.945 296.364 121.541 306.013C122.137 315.715 111.897 310.591 111.897 310.591Z" fill="white"/>
<path opacity="0.8" d="M101.526 307.755C102.226 312.827 108.474 311.552 109.226 307.261C110.315 301.175 100.748 302.007 101.526 307.755Z" fill="#B688AA"/>
<path opacity="0.8" d="M89.963 335.221C91.1556 337.744 95.8223 336.677 95.7445 333.998C95.589 329.473 88.0704 331.19 89.963 335.221Z" fill="#B688AA"/>
<path opacity="0.8" d="M75.9892 286.871C75.9892 286.897 76.0151 286.923 76.0151 286.949C77.6743 290.798 81.2003 287.963 80.0595 284.712C78.5817 280.395 74.6669 283.282 75.9892 286.871Z" fill="#B688AA"/>
</g>
<g opacity="0.8">
<path d="M100.619 248.353C100.619 248.353 108.811 253.841 104.456 257.534C100.1 261.228 88.278 260.707 91.2076 252.957L92.6336 249.108C92.6336 249.108 83.9484 251.032 84.8039 246.247C85.6595 241.461 88.0706 237.69 91.3113 238.028C94.5521 238.366 95.2521 242.163 95.2521 242.163C95.2521 242.163 95.9262 233.607 102.926 235.297C109.926 236.936 109.174 246.013 100.619 248.353Z" fill="white"/>
<path d="M144.615 215.479C144.615 215.479 155.4 217.482 149.697 224.426C144.019 231.37 140.052 228.275 138.626 224.686C137.174 221.123 129.63 232.306 126 225.908C122.371 219.51 130.382 211.812 136.345 213.996C136.345 213.996 134.011 205.414 140.674 205.674C147.337 205.934 148.737 211.031 144.615 215.479Z" fill="white"/>
<path d="M125.637 257.43C125.637 257.43 114.204 267.339 111.248 260.343C108.293 253.321 117.756 249.186 117.756 249.186C117.756 249.186 107.774 246.455 115.707 238.808C123.641 231.188 127.037 242.007 127.037 242.007C127.037 242.007 131.056 232.801 134.789 235.349C138.496 237.898 143.5 244.244 135.878 247.599C135.878 247.599 145.185 245.987 143.578 252.047C141.944 258.08 133.985 252.827 133.985 252.827C133.985 252.827 141.996 261.514 133.052 265.155C124.081 268.796 125.637 257.43 125.637 257.43Z" fill="white"/>
<path opacity="0.8" d="M125.015 246.663C120.452 248.925 123.641 254.465 127.945 253.841C134.037 252.931 130.2 244.088 125.015 246.663Z" fill="#B688AA"/>
<path opacity="0.8" d="M95.3819 244.426C93.3856 246.351 95.8745 250.46 98.3894 249.524C102.589 247.937 98.5968 241.331 95.3819 244.426Z" fill="#B688AA"/>
<path opacity="0.8" d="M136.63 215.739C136.604 215.765 136.578 215.791 136.552 215.791C133.441 218.6 137.252 221.044 139.948 218.938C143.552 216.129 139.585 213.346 136.63 215.739Z" fill="#B688AA"/>
</g>
<path opacity="0.8" d="M76.5855 224.166C76.5855 224.166 86.8781 227.989 80.0855 233.867C73.2929 239.744 69.9485 235.999 69.1188 232.228C68.3151 228.457 58.9818 238.21 56.467 231.266C53.9781 224.348 63.1818 218.132 68.704 221.305C68.704 221.305 67.8744 212.436 74.3818 213.84C80.8892 215.245 81.4077 220.498 76.5855 224.166Z" fill="white"/>
<path opacity="0.8" d="M50.7371 262.268C50.7371 262.268 37.7742 270.07 36.0631 262.658C34.3519 255.246 44.3594 252.775 44.3594 252.775C44.3594 252.775 34.9742 248.353 44.1001 242.215C53.226 236.052 54.7297 247.313 54.7297 247.313C54.7297 247.313 60.2779 238.938 63.4927 242.085C66.7075 245.232 70.5705 252.333 62.4816 254.361C62.4816 254.361 71.9186 254.387 69.3001 260.057C66.6816 265.727 59.7075 259.173 59.7075 259.173C59.7075 259.173 66.1112 269.108 56.7001 271.163C47.2631 273.191 50.7371 262.268 50.7371 262.268Z" fill="white"/>
<path opacity="0.8" d="M51.9295 251.552C47.0555 253.009 49.2332 259.017 53.5888 259.121C59.7591 259.251 57.4777 249.914 51.9295 251.552Z" fill="#B688AA"/>
<path opacity="0.8" d="M23.1259 244.244C20.8444 245.805 22.5815 250.278 25.2 249.784C29.6333 248.978 26.8074 241.748 23.1259 244.244Z" fill="#B688AA"/>
<path opacity="0.8" d="M68.6519 223.073C68.6259 223.099 68.6 223.099 68.5741 223.125C65.0222 225.361 68.3667 228.43 71.3741 226.792C75.4185 224.633 71.9704 221.2 68.6519 223.073Z" fill="#B688AA"/>
<path d="M167.378 108.87L166.341 107.804C175.959 98.2066 173.937 81.2752 173.911 81.0932L175.389 80.9111C175.415 81.0932 175.933 85.4106 175.233 91.0283C174.559 96.256 172.667 103.59 167.378 108.87Z" fill="#231F20"/>
<path d="M165.693 122.109C163.23 120.054 159.082 119.612 159.03 119.586L159.185 118.104C159.367 118.13 163.826 118.598 166.652 120.964L165.693 122.109Z" fill="#231F20"/>
<path d="M199.552 116.83C199.526 116.83 199.5 116.83 199.474 116.83C195.17 116.804 191.8 115.555 189.441 113.084C185.863 109.339 186.018 104.216 186.044 103.981L187.522 104.033L186.77 104.007L187.522 104.033C187.522 104.085 187.393 108.767 190.53 112.044C192.578 114.203 195.611 115.295 199.474 115.321C206.811 115.373 211.996 109.625 212.048 109.573L213.163 110.562C212.955 110.822 207.537 116.83 199.552 116.83Z" fill="#231F20"/>
<path d="M151.641 100.99C151.019 100.99 150.371 100.938 149.722 100.86C146.041 100.392 142.956 98.4671 140.752 95.3461C139.093 93.0054 138.548 90.8207 138.522 90.7167L139.974 90.3525C139.974 90.3785 140.493 92.4072 141.997 94.5399C143.967 97.3228 146.637 98.9613 149.93 99.3774C153.222 99.7935 156.204 99.0653 158.745 97.1927C160.689 95.7623 161.648 94.2018 161.674 94.1758L162.945 94.956C162.893 95.034 161.83 96.7766 159.678 98.3631C157.967 99.6115 155.271 100.99 151.641 100.99Z" fill="#231F20"/>
<path d="M162.762 71.5352C162.762 71.5352 166.791 77.6001 160.17 78.4333C153.549 79.2665 149.569 76.7631 139.028 78.2123C139.028 78.2123 132.254 77.1891 139.331 74.0269C146.408 70.8794 154.289 69.0746 162.762 71.5352Z" fill="#231F20"/>
<path d="M192.522 76.0733C187.8 76.2751 183.675 82.9209 197.062 85.6022C210.449 88.2836 215.82 89.1486 222.254 91.9885C222.254 91.9885 226.534 92.3633 224.407 88.8314C222.254 85.2995 215.301 80.5422 208.322 78.4519C201.369 76.376 199.76 75.7705 192.522 76.0733Z" fill="#231F20"/>
<path opacity="0.5" d="M186.796 129.547C185.915 133.007 189.441 139.171 198.359 139.171C207.537 139.171 213.941 134.905 207.278 129.547C200.589 124.19 188.559 122.733 186.796 129.547Z" fill="#FF939C"/>
<path opacity="0.5" d="M139.222 116.075C139.222 116.075 149.904 118.26 150.759 112.902C151.589 107.545 143.811 102.187 139.222 103.956C134.659 105.75 130.433 111.186 139.222 116.075Z" fill="#FF939C"/>
<path d="M145.056 135.243C145.056 135.243 149.36 135.971 160.508 139.196C171.656 142.395 187.289 147.753 186.823 150.431C186.356 153.11 166.315 160.263 152.937 155.347C139.585 150.431 142.463 139.196 142.463 139.196C142.463 139.196 142.463 134.592 145.056 135.243Z" fill="white"/>
<path d="M116.278 207C115.967 209.679 111.922 216.155 95.2262 216.311C78.5299 216.467 79.4114 209.003 79.4114 209.003C82.0817 203.307 82.2114 194.62 81.7188 187.572C81.6928 187.026 81.641 186.453 81.5891 185.933C81.0966 180.211 80.2928 175.946 80.2928 175.946C108.785 153.163 116.278 184.217 116.278 184.217C115.941 185.491 115.682 186.74 115.474 187.936C115.397 188.456 115.293 189.002 115.241 189.496C114.048 198.625 116.537 204.737 116.278 207Z" fill="#FFC193"/>
<path d="M83.6632 238.912C83.6632 238.912 78.2188 235.583 72.9299 247.885C67.641 260.187 65.2039 271.552 80.3447 272.879C95.4854 274.231 154.804 276.13 186.848 241.877C218.893 207.624 232.115 164.736 232.634 159.379C233.152 154.021 231.389 154.047 230.197 154.801C229.004 155.555 227.085 166.271 222.911 169.548C222.911 169.548 221.563 169.834 222.911 166.557C224.26 163.28 227.734 153.761 227.111 150.614C226.489 147.493 224.7 149.131 224.415 149.86C224.104 150.614 218.919 165.36 217.571 166.089C216.222 166.843 216.689 165.334 217.13 163.41C217.571 161.485 220.397 148.975 217.882 147.909C215.367 146.869 212.982 164.892 212.385 165.334C211.789 165.777 210.311 166.219 210.908 161.225C211.504 156.232 212.204 146.322 209.093 147.857C206.008 149.391 206.448 164.138 202.871 170.978C202.871 170.978 201.522 171.264 200.641 168.898C199.76 166.505 194.989 160.991 193.356 164.424C193.356 164.424 193.511 165.777 194.548 167.545C195.585 169.34 198.256 183.488 199.734 186.011C199.734 186.011 189.571 212.383 164.526 225.179C139.456 238.028 117.548 244.842 83.6632 238.912Z" fill="#FFC193"/>
<path d="M245.882 169.496C245.882 169.496 243.782 169.366 245.882 178.598C245.882 178.598 234.474 178.755 233.567 181.719C232.685 184.71 248.319 184.242 248.319 184.242C248.319 184.242 232.815 187.077 234.293 189.912C235.77 192.747 249.304 190.692 249.304 190.692C249.304 190.692 235.926 194.958 236.833 197.194C237.715 199.431 250.185 196.804 250.185 196.804C250.185 196.804 238.415 201.954 240.437 203.904C242.459 205.829 253.685 202.708 254.593 199.873C255.526 197.038 254.489 183.358 251.352 177.688C248.267 172.07 248.526 168.585 245.882 169.496Z" fill="#FFC193"/>
<path d="M40.2631 303.074C40.2631 303.074 38.7853 306.247 42.052 309.525C42.052 309.525 56.9076 309.525 61.652 298.211C61.652 298.211 60.952 290.773 56.9853 293.009C56.9853 293.009 55.715 302.268 40.2631 303.074Z" fill="#231F20"/>
<path d="M42.0521 309.524C42.0521 309.524 36.9965 317.56 42.0521 329.784C47.1076 342.008 46.5113 357.795 68.7817 375.065C91.0521 392.334 108.578 409.032 118.663 420.345C128.748 431.659 162.608 454 171.811 454C181.015 454 272.171 423.31 318.785 328.588C318.785 328.588 338.074 266.48 308.389 256.571C278.704 246.662 264.16 279.146 259.985 285.388C255.837 291.656 230.3 334.83 221.382 341.384C212.463 347.938 175.648 382.789 172.978 387.861C172.978 387.861 152.782 372.672 145.652 364.323C138.522 355.975 106.608 316.676 96.5225 309.524C86.4373 302.372 68.9632 296.91 61.6262 298.21C61.6521 298.21 56.3113 307.443 42.0521 309.524Z" fill="#231F20"/>
<path opacity="0.3" d="M69.689 198.911C68.1853 203.436 64.6075 208.221 65.126 213.111C64.5816 212.955 64.089 212.799 63.5964 212.617C63.5186 209.99 64.426 207.337 65.5149 204.866C66.7594 202.11 68.289 199.353 68.8075 196.336C69.0668 194.853 69.0668 193.319 68.626 191.862C68.1334 190.172 66.9927 188.663 65.826 187.389C63.3371 184.658 60.4853 182.343 58.8779 178.91C58.0742 177.168 57.6334 175.295 57.7371 173.37C57.8408 171.446 58.2557 169.573 58.6186 167.675C58.8001 166.738 60.252 167.051 60.0705 167.987C59.6038 170.354 58.9557 172.798 59.2927 175.243C59.6297 177.636 60.8742 179.899 62.4297 181.719C64.7371 184.424 67.8483 186.635 69.4297 189.886C70.8297 192.747 70.6742 195.946 69.689 198.911Z" fill="white"/>
<path d="M60.8483 90.0661C51.6705 94.9556 41.5853 127.466 53.3039 153.786C53.3039 153.786 43.815 159.17 46.1224 166.66C47.315 170.536 52.6039 176.596 62.8187 170.692C62.8187 170.692 71.452 184.424 86.852 187.103C102.252 189.782 110.393 189.184 115.811 187.675C121.23 186.167 126.882 174.177 130.615 165.906C134.348 157.636 135.826 142.759 131.289 131.367L125.663 115.164C125.689 115.164 98.778 69.8056 60.8483 90.0661Z" fill="#FFC193"/>
<path d="M77.5449 128.37C78.2115 130.773 63.6872 144.197 60.2789 141.257C56.854 138.306 61.8892 133.778 67.67 129.712C73.4538 125.679 76.5964 124.905 77.5449 128.37Z" fill="#231F20"/>
<path d="M116.685 117.571C116.685 117.571 109.518 116.9 104.648 117.801C99.7527 118.719 94.605 116.265 96.3461 114.464C98.0873 112.663 104.295 109.874 112.067 111.48C119.864 113.087 125.138 117.748 116.685 117.571Z" fill="#231F20"/>
<path d="M104.222 147.441L104.793 146.062C96.4187 142.525 94.2668 131.029 94.2668 130.899L92.8149 131.159C92.8409 131.29 93.3853 134.28 95.0446 137.792C97.2483 142.499 100.437 145.828 104.222 147.441Z" fill="#231F20"/>
<path d="M108.085 155.217C108.785 153.865 110.108 153.891 110.108 153.891L110.134 152.408C110.03 152.408 107.878 152.382 106.763 154.541L108.085 155.217Z" fill="#231F20"/>
<path d="M92.1147 172.513C102.355 173.163 111.222 169.6 113.711 168.508C118.948 166.167 124.859 157.818 125.093 157.48L123.874 156.622C123.822 156.7 117.963 164.971 113.089 167.155C108.163 169.366 100.074 171.551 92.1925 171.031L92.1147 172.513Z" fill="#231F20"/>
<path d="M110.834 175.451C114.437 174.775 116.745 172.33 116.848 172.226L115.759 171.212C115.734 171.238 113.685 173.397 110.548 173.969L110.834 175.451Z" fill="#231F20"/>
<path d="M105.985 136.648C112.467 136.778 116.045 134.125 117.937 131.732C120.219 128.871 120.608 125.854 120.608 125.724L119.13 125.542C119.13 125.568 118.767 128.325 116.719 130.848C113.996 134.229 109.719 135.633 103.989 135.035L103.833 136.517C104.585 136.596 105.311 136.622 105.985 136.648Z" fill="#231F20"/>
<path opacity="0.5" d="M91.3888 161.745C92.6591 163.566 88.148 172.434 79.5147 172.148C70.8814 171.888 70.8036 166.583 70.7517 165.204C70.5962 159.872 85.1925 152.902 91.3888 161.745Z" fill="#FF939C"/>
<path opacity="0.5" d="M120.763 136.985C120.763 136.985 125.87 132.564 130.33 134.697C133.493 136.205 133.052 143.877 128.489 147.779C123.9 151.654 118.611 151.29 116.952 148.871C115.293 146.452 116.174 141.953 120.763 136.985Z" fill="#FF939C"/>
<path d="M80.8113 95.3979C80.8113 95.3979 71.815 96.3862 66.915 100.261C62.0409 104.111 50.7891 113.708 52.6817 128.584C54.0298 139.118 57.3483 151.264 50.7631 155.867C48.1705 157.688 45.7335 158.364 45.7335 158.364C45.7335 158.364 31.2409 153.396 27.5854 133.318C23.9298 113.24 30.4372 97.9727 33.8335 94.6957C37.2039 91.4186 48.2224 76.698 59.6557 76.698C59.6557 76.698 64.8928 79.1427 67.952 76.698C71.0113 74.2532 74.4854 68.8175 87.7594 69.9358C101.034 71.0542 114.1 77.0621 121.308 82.2637C128.489 87.4654 130.122 95.9961 132.378 98.5189C134.633 101.042 130.615 116.517 130.615 116.517L128.956 114.228C128.956 114.228 126.778 113.214 122.189 107.232C116.848 100.261 101.526 89.6241 91.8816 90.5604C83.4816 91.3666 80.8113 95.3979 80.8113 95.3979Z" fill="#A66230"/>
<path opacity="0.3" d="M69.8965 79.3765C73.1114 81.3531 74.7706 84.8382 77.0262 87.6991C77.6743 88.5314 76.4299 89.5977 75.7817 88.7655C73.6299 86.0346 72.0225 82.6275 68.9632 80.7289C68.0817 80.1827 68.9891 78.8303 69.8965 79.3765Z" fill="white"/>
<path d="M121.334 128.793C121.697 128.481 122.189 128.559 122.474 128.897C122.526 128.949 122.578 129.001 122.656 129.053L122.682 129.079C123.071 129.157 123.356 129.521 123.33 129.938C123.304 130.38 122.915 130.744 122.448 130.692C121.93 130.666 121.567 130.302 121.23 129.938C120.919 129.626 121.022 129.053 121.334 128.793Z" fill="#231F20"/>
<path d="M118.041 134.436C118.067 133.994 118.456 133.656 118.922 133.682C119.13 133.682 119.311 133.76 119.493 133.812C119.57 133.838 119.648 133.864 119.726 133.89C119.752 133.89 119.778 133.916 119.804 133.916C120.245 133.942 120.582 134.358 120.556 134.8C120.53 135.243 120.141 135.581 119.674 135.555C119.467 135.555 119.285 135.477 119.104 135.425C119.026 135.399 118.948 135.373 118.87 135.347C118.845 135.347 118.819 135.321 118.793 135.321C118.378 135.269 118.015 134.878 118.041 134.436Z" fill="#231F20"/>
<path d="M113.608 137.116C113.763 136.986 113.971 136.908 114.204 136.934C114.386 136.934 114.541 137.012 114.671 137.142C114.697 137.142 114.697 137.168 114.723 137.168C114.774 137.168 114.826 137.168 114.878 137.168C115.319 137.168 115.656 137.61 115.63 138.052C115.604 138.52 115.215 138.832 114.748 138.806C114.567 138.806 114.386 138.78 114.204 138.728C113.945 138.65 113.711 138.468 113.504 138.286C113.193 137.974 113.271 137.402 113.608 137.116Z" fill="#231F20"/>
<path d="M108.578 138.338C108.785 138.364 108.993 138.468 109.148 138.624C109.278 138.78 109.356 138.989 109.33 139.223V139.535C109.33 139.977 108.889 140.315 108.448 140.289C108.241 140.263 108.033 140.159 107.878 140.003C107.748 139.847 107.67 139.639 107.696 139.405V139.093C107.722 138.65 108.163 138.312 108.578 138.338Z" fill="#231F20"/>
<path d="M73.0847 153.579C76.1958 153.631 78.8144 152.929 80.9144 151.42C84.7773 148.664 85.3736 144.32 85.3995 144.138L83.9218 143.956C83.9218 143.982 83.3514 147.857 80.0329 150.224C77.4144 152.097 73.7588 152.565 69.1958 151.629L68.9106 153.085C70.3884 153.371 71.7884 153.553 73.0847 153.579Z" fill="#231F20"/>
<path d="M84.9854 149.652C85.0113 149.184 85.4002 148.872 85.8669 148.898C86.0484 148.898 86.2298 148.924 86.4113 148.976C86.5669 149.054 86.7484 149.132 86.8521 149.288C86.9817 149.47 86.9817 149.496 87.0595 149.704C87.0854 149.808 87.0854 149.912 87.0854 149.99C87.0854 150.198 86.9558 150.433 86.8002 150.563C86.6447 150.693 86.4373 150.771 86.2039 150.745C85.9965 150.719 85.815 150.641 85.6854 150.511C85.2706 150.459 84.9595 150.068 84.9854 149.652Z" fill="#231F20"/>
<path d="M80.915 153.813C80.8891 153.371 81.3817 153.033 81.7965 153.059C82.0039 153.085 82.2113 153.189 82.3669 153.345C82.4706 153.475 82.5224 153.631 82.5484 153.787C82.5743 153.839 82.6002 153.891 82.6262 153.943C82.7299 154.177 82.7558 154.359 82.7817 154.62C82.8076 155.062 82.315 155.4 81.9002 155.374C81.6928 155.348 81.4854 155.244 81.3299 155.088C81.2262 154.958 81.1743 154.802 81.1484 154.646C81.1224 154.594 81.0965 154.542 81.0706 154.489C80.941 154.281 80.915 154.073 80.915 153.813Z" fill="#231F20"/>
<path d="M74.8482 156.076C74.9 155.66 75.3148 155.374 75.7037 155.4C76.1704 155.426 76.4815 155.816 76.4556 156.284C76.4556 156.466 76.4296 156.648 76.3778 156.831C76.3 156.987 76.2222 157.169 76.0667 157.273C75.8852 157.403 75.8593 157.403 75.6519 157.481C75.5482 157.507 75.4445 157.507 75.3667 157.507C75.1593 157.507 74.9259 157.377 74.7963 157.221C74.6667 157.065 74.5889 156.857 74.6148 156.622C74.6148 156.414 74.7185 156.232 74.8482 156.076Z" fill="#231F20"/>
<path d="M68.8594 155.529C68.9112 155.113 69.326 154.827 69.7149 154.853C70.1816 154.879 70.4927 155.269 70.4667 155.737C70.4667 155.789 70.4667 155.816 70.4667 155.868C70.4408 156.076 70.389 156.18 70.3112 156.362C70.2334 156.518 70.0779 156.622 69.9742 156.752C69.663 157.064 69.0927 156.986 68.8334 156.648C68.7038 156.492 68.626 156.284 68.6519 156.05C68.626 155.842 68.7038 155.659 68.8594 155.529Z" fill="#231F20"/>
<path opacity="0.3" d="M131.107 113.63C129.578 112.043 128.022 110.483 126.648 108.766C126.103 108.064 125.559 107.362 125.144 106.582C124.678 105.697 124.366 104.735 124.055 103.799C123.355 101.822 122.37 100.002 121.515 98.077C120.711 96.2044 119.466 94.5658 118.118 93.0834C116.874 91.7049 115.707 90.2745 114.255 89.0781C111.352 86.6853 107.826 85.1769 104.248 84.1625C102.718 83.7204 101.163 83.4343 99.6071 83.2002C97.6886 82.9141 95.7701 82.342 93.8516 81.9258C89.9627 81.0936 86.0219 80.4694 82.0553 80.4434C81.096 80.4434 81.1738 81.9258 82.133 81.9258C86.8516 81.9518 91.4664 82.8881 96.0553 83.9285C99.9701 84.8388 103.937 85.3329 107.67 86.8934C109.407 87.6216 111.066 88.5319 112.596 89.6503C113.296 90.1705 113.97 90.7426 114.618 91.3668C115.318 92.043 115.837 92.8233 116.511 93.5255C117.963 94.982 119.259 96.6725 120.115 98.5451C120.322 98.9873 120.4 99.5074 120.659 99.9236C120.944 100.366 121.203 100.808 121.437 101.25C121.929 102.212 122.292 103.253 122.655 104.267C123.303 106.062 123.978 107.7 125.144 109.235C126.259 110.717 127.555 112.069 128.826 113.422C129.448 114.072 130.096 114.722 130.718 115.398C130.822 114.774 130.952 114.202 131.107 113.63Z" fill="white"/>
<path opacity="0.3" d="M146.093 191.837C145.756 192.175 145.418 192.513 145.107 192.851C144.018 191.941 142.93 191.057 141.893 190.12C139.663 188.066 137.407 185.595 136.656 182.552C135.878 179.327 136.007 175.92 136.267 172.617C136.5 169.782 136.967 166.973 137.33 164.164C137.719 165.074 138.107 165.959 138.522 166.817C138.496 166.947 138.496 167.103 138.47 167.233C138.004 170.536 137.537 173.813 137.563 177.142C137.589 178.781 137.667 180.471 138.081 182.084C138.47 183.54 139.144 184.763 140.052 185.959C141.763 188.248 143.941 190.042 146.093 191.837Z" fill="white"/>
<path d="M86.8518 405.391C87.137 404.975 87.4222 404.558 87.6814 404.09C89.0037 401.594 85.3481 400.085 84.0518 402.53C83.1703 404.168 81.7185 405.287 81.0703 407.107C80.0851 409.838 81.2259 412.361 82.6259 414.468C83.5074 415.794 85.4 415.3 86.1 413.895L88.874 408.226C89.7296 406.457 88.2518 405.183 86.8518 405.391Z" fill="#A98267" fill-opacity="0.3"/>
<path d="M85.1665 426.068L82.5998 424.793C81.6406 424.325 80.3702 424.975 79.9035 426.016C79.4109 427.134 79.8776 428.304 80.8369 428.798L83.4035 430.073C84.3628 430.541 85.6332 429.891 86.0998 428.85C86.5924 427.732 86.1258 426.562 85.1665 426.068Z" fill="#A98267" fill-opacity="0.3"/>
<path d="M102.641 426.094C102.719 425.495 103.834 425.209 104.43 424.949C105.052 424.689 105.649 424.403 106.193 424.091C107.567 424.949 108.863 425.99 109.434 427.238C108.786 426.952 107.956 426.926 107.256 427.368C104.923 428.928 101.786 429.319 101.474 432.023C101.397 432.778 102.408 433.324 103.289 433.35C107.23 433.428 112.052 432.674 113.115 429.397C114.152 426.224 110.471 423.181 107.334 421.464C106.478 420.996 105.623 420.97 104.819 421.49C102.486 423.051 99.3485 423.441 99.0634 426.12C98.8819 427.836 102.434 427.784 102.641 426.094Z" fill="#A98267" fill-opacity="0.3"/>
<path d="M104.456 58.8828C100.359 56.282 91.026 50.1441 92.2445 44.2662C95.3556 43.1999 97.8705 45.4626 100.126 47.3352C98.7001 46.2689 98.052 41.5874 100.359 40.7551C103.056 39.7928 103.108 44.7344 103.393 46.2168C103.911 48.7396 104.222 50.8723 104.533 53.3951C104.689 54.7475 104.715 58.8568 105.493 59.1429L104.456 58.8828Z" fill="#FF939C"/>
<path d="M20.7149 216.675V211.941C20.7149 210.121 18.4593 210.069 17.6297 211.291C16.5149 212.982 14.2593 215.531 14.8297 217.767C15.1927 219.198 17.163 219.562 17.9927 220.342C19.4964 221.799 21.6482 219.354 20.1445 217.897C20.5075 217.637 20.7149 217.221 20.7149 216.675Z" fill="#A98267" fill-opacity="0.3"/>
<path d="M119.259 55.2148H114.255C113.374 55.2148 112.674 56.0731 112.7 56.9314C112.752 57.8417 113.53 58.4919 114.411 58.4919H119.415C120.296 58.4919 120.996 57.6336 120.97 56.7753C120.918 55.839 120.141 55.2148 119.259 55.2148Z" fill="#A98267" fill-opacity="0.3"/>
<path d="M229.392 441.595C227.5 440.684 225.322 440.788 223.43 439.878C222.859 439.618 222.315 440.034 222.289 440.606C222.263 441.256 221.744 441.621 221.355 442.063C221.044 442.401 220.837 442.791 220.733 443.207H219.644C218.633 443.207 218.711 444.768 219.722 444.768H221.433C221.874 444.768 222.159 444.351 222.185 443.935C222.211 443.285 222.73 442.921 223.118 442.479C223.352 442.219 223.533 441.933 223.663 441.621C225.322 442.167 227.111 442.219 228.692 442.973C229.6 443.415 230.3 442.011 229.392 441.595Z" fill="#1A3749"/>
<path d="M352.178 341.748L351.634 342.554C351.063 343.386 352.411 344.193 352.956 343.36L353.5 342.554C354.096 341.748 352.748 340.915 352.178 341.748Z" fill="#1A3749"/>
<path d="M344.841 352.438C344.686 352.334 344.556 352.23 344.4 352.152C344.115 352.022 343.882 351.97 343.571 352.022C343.104 352.1 342.819 352.594 342.586 352.932C342.352 353.296 342.508 353.79 342.845 353.999C343.234 354.233 343.674 354.077 343.908 353.738C343.908 353.738 343.908 353.712 343.934 353.712C343.96 353.738 343.986 353.764 344.011 353.764C344.374 353.998 344.867 353.842 345.074 353.504C345.334 353.114 345.204 352.672 344.841 352.438Z" fill="#1A3749"/>
<path d="M346.241 356.469C345.852 356.235 345.411 356.391 345.178 356.729L344.711 357.432C344.478 357.796 344.633 358.29 344.97 358.498C345.359 358.732 345.8 358.576 346.033 358.238L346.5 357.536C346.733 357.171 346.578 356.677 346.241 356.469Z" fill="#1A3749"/>
<path d="M115.474 187.935C115.396 188.455 115.293 189.002 115.241 189.496C110.263 190.484 105.7 190.874 101.63 190.874C96.4444 190.874 92.0629 190.276 88.7444 189.548C85.8925 188.95 83.5592 188.221 81.7444 187.571C81.7184 187.025 81.6666 186.453 81.6147 185.933C83.4555 186.635 85.9703 187.441 89.1073 188.117C94.9925 189.366 104.222 190.276 115.474 187.935Z" fill="#231F20"/>
<path d="M40.7558 93.4477C40.1077 92.8756 39.2262 93.0056 38.6558 93.5778C37.2818 94.9562 35.5966 95.9705 34.1447 97.2449C33.3151 97.9472 32.4595 98.7014 31.8373 99.6117C31.1632 100.6 30.541 101.614 29.9706 102.655C28.9077 104.631 28.0003 106.712 27.041 108.741C26.0818 110.769 25.2262 112.798 24.5521 114.957C21.9855 123.253 22.4262 132.07 20.404 140.471C19.7299 143.306 18.8225 146.114 17.6817 148.819C16.5929 151.42 15.4003 154.047 13.8706 156.44C12.4447 158.676 10.3966 160.575 8.29656 162.188C5.9373 163.982 3.29286 165.309 0.674337 166.609C-0.0515894 166.973 -0.155293 168.039 0.233596 168.664C0.726189 169.392 1.55582 169.47 2.28174 169.106C4.14841 168.169 6.01508 167.233 7.77804 166.115C9.69656 164.918 11.304 163.462 12.9892 161.979C16.0225 159.327 17.8892 155.607 19.4966 151.992C21.2855 147.987 22.6855 143.852 23.6188 139.534C24.5521 135.269 24.8114 130.926 25.3299 126.608C25.6929 123.643 26.1077 120.678 26.8077 117.765C27.5336 114.775 28.7003 112.07 29.9966 109.313C30.6447 107.934 31.2669 106.53 31.9669 105.151C32.641 103.773 33.3669 102.291 34.3521 101.12C36.2188 98.9095 38.8114 97.531 40.8595 95.5284C41.4818 94.9822 41.3521 93.9679 40.7558 93.4477Z" fill="#A66230"/>
<path d="M35.2595 200.341C27.7928 200.341 19.8076 199.145 14.2076 193.735C12.7557 192.331 11.4595 190.666 10.2928 189.002C9.2039 187.441 8.29649 185.777 7.77797 183.93C7.3113 182.266 7.38908 180.471 8.0113 178.885C8.78908 176.856 10.3446 175.296 11.6928 173.631C16.2298 168.091 20.4817 162.161 23.4632 155.633C24.915 152.434 25.7965 149.027 26.7298 145.672C27.4298 143.123 26.8595 140.028 28.1817 137.714C29.1409 136.049 26.4706 134.723 25.5372 136.387C24.6817 137.87 24.5002 139.664 24.3446 141.329C24.2669 142.161 24.1891 142.993 24.0854 143.8C23.9558 144.736 23.7224 145.386 23.515 146.192C22.9965 148.247 22.4261 150.302 21.6743 152.304C20.8706 154.437 19.8076 156.466 18.7187 158.442C16.6446 162.187 14.2076 165.673 11.5891 169.054C8.97056 172.409 5.47056 175.556 4.69279 179.925C4.04464 183.54 5.49649 187.051 7.41501 190.016C8.45205 191.603 9.67056 193.059 10.915 194.464C12.1335 195.868 13.4298 197.09 14.9595 198.157C20.9224 202.318 28.3372 203.28 35.4409 203.306C37.3335 203.306 37.1521 200.341 35.2595 200.341Z" fill="#A66230"/>
<path d="M377.974 286.351C377.896 284.843 377.611 283.36 377.3 281.878C376.963 280.343 376.937 278.835 376.807 277.274C376.6 274.595 374.993 272.177 373.463 270.044C372.53 268.769 371.493 267.547 370.378 266.403C370.507 266.091 370.611 265.778 370.741 265.466C372.089 261.981 373.385 258.288 373.956 254.569C374.578 250.616 373.8 246.74 372.789 242.943C371.7 238.938 370.17 235.089 368.589 231.266C367.007 227.468 365.115 223.853 364.026 219.874C361.77 211.733 364.285 203.177 363.663 194.906C363.067 187.234 360.474 179.821 357.078 172.955C353.707 166.141 349.274 160.003 344.115 154.463C339.007 149.001 333.278 144.19 327.781 139.144C322.856 134.619 319.615 128.767 317.981 122.291C316.244 115.399 316.581 108.247 316.711 101.198C316.867 93.6039 316.607 85.9835 313.73 78.8572C310.878 71.783 306.6 65.0468 302.141 58.9089C299.6 55.3978 296.826 52.0427 293.896 48.8697C290.915 45.5927 287.959 42.2896 284.77 39.2206C281.581 36.1777 278.056 33.7849 274.53 31.1841C272.741 29.8577 271.056 28.3752 269.241 27.1008C267.478 25.8524 265.585 24.7861 264.004 23.2516C262.63 21.9252 260.659 24.1619 262.033 25.4883C263.252 26.6587 264.678 27.595 266.078 28.5313C267.789 29.6756 269.344 30.95 270.978 32.2244C274.089 34.6432 277.433 36.7239 280.441 39.2987C283.293 41.7695 285.911 44.5263 288.478 47.3092C291.122 50.1961 293.793 53.057 296.256 56.1C301.13 62.1079 305.356 68.636 308.907 75.5021C310.696 78.9873 312.122 82.5244 312.926 86.3996C313.678 90.0928 313.807 93.916 313.833 97.6872C313.859 104.943 313.263 112.2 314.43 119.404C315.467 125.854 317.878 131.966 321.922 137.116C324.152 139.977 326.874 142.317 329.57 144.736C332.344 147.233 335.144 149.704 337.815 152.304C343.311 157.558 348.107 163.28 351.996 169.808C355.963 176.44 358.996 183.8 360.293 191.447C361.667 199.666 359.774 207.91 360.422 216.181C360.733 220.212 362.211 224.087 363.819 227.754C365.452 231.526 367.137 235.219 368.511 239.094C369.885 242.943 371.181 247.053 371.311 251.162C371.415 255.011 369.989 258.782 368.744 262.371C368.537 262.97 368.33 263.542 368.122 264.14C362.704 259.042 356.481 254.569 353.526 247.521C351.4 242.501 352.074 236.727 353.111 231.552C354.2 226.194 356.067 221.044 357.078 215.661C358.141 209.939 358.504 203.983 357.648 198.235C356.793 192.695 354.537 187.416 351.478 182.76C345.489 173.605 336.207 166.739 327.004 161.121C322.959 158.651 318.811 156.336 315.518 152.877C311.707 148.845 310.307 143.28 309.063 138.026C308.415 135.269 307.637 132.538 307.17 129.755C306.678 126.92 306.444 124.06 306.341 121.199C306.081 115.295 306.367 109.365 306.393 103.461C306.393 101.536 303.437 101.692 303.437 103.617C303.437 110.197 303.1 116.751 303.489 123.331C303.878 129.781 305.433 136.049 307.093 142.265C307.896 145.308 308.933 148.377 310.541 151.134C311.915 153.501 313.859 155.582 315.933 157.324C320.081 160.835 325.033 163.28 329.544 166.271C338.515 172.253 347.278 179.535 351.919 189.522C356.819 200.082 355.574 212.071 352.307 222.943C350.752 228.145 349.456 233.476 349.248 238.912C349.144 241.617 349.43 244.348 350.207 246.949C350.959 249.471 352.359 251.812 353.863 253.945C356.767 258.106 360.733 261.409 364.493 264.79C365.374 265.57 366.23 266.377 367.059 267.183C365.193 271.994 362.937 276.546 359.178 280.291C354.874 284.582 348.237 287.001 342.274 287.469C340.356 287.625 340.511 290.59 342.43 290.434C348.807 289.94 355.367 287.443 360.267 283.282C364.674 279.511 367.163 274.647 369.289 269.498C369.444 269.68 369.6 269.862 369.756 270.044C371.337 271.89 373.1 274.127 373.8 276.494C374.111 277.586 374.007 278.835 374.085 279.953C374.163 281.149 374.474 282.32 374.733 283.49C374.993 284.738 375.122 286.013 375.174 287.287C375.226 288.588 374.915 289.966 374.707 291.241C374.344 293.555 373.826 295.896 372.996 298.107C372.218 300.213 370.922 302.06 369.548 303.829C364.259 310.513 355.781 315.402 347.122 312.957C345.281 312.437 344.685 315.35 346.5 315.87C357.311 318.939 367.889 311.917 373.696 303.126C375.252 300.76 376.211 298.185 376.885 295.428C377.481 292.541 378.13 289.342 377.974 286.351Z" fill="#FF939C"/>
<path opacity="0.3" d="M61.2113 89.0525C57.9187 89.0525 54.5224 89.1825 51.3854 90.2749C48.0409 91.4193 45.5261 93.5779 43.2706 96.2308C40.9891 98.9356 39.0706 102.031 38.3187 105.542C37.4891 109.391 37.9557 113.084 39.4594 116.699C40.8594 120.08 42.8817 123.227 43.9446 126.738C44.1261 127.311 44.2557 127.909 44.3854 128.507C45.1891 132.746 44.5928 137.22 42.6483 141.069C41.7669 142.838 40.5483 144.476 39.4594 146.115C38.2669 147.857 37.1002 149.626 36.0631 151.446C33.9631 155.139 32.7965 159.171 33.0817 163.462C33.2113 165.595 33.6002 167.701 33.9631 169.808C34.352 172.123 34.7409 174.438 35.415 176.7C36.0891 178.963 36.8928 181.174 37.8002 183.358C38.6817 185.517 39.7965 187.598 40.5483 189.808C41.8965 193.788 41.7928 197.845 40.5483 201.85C39.9261 203.775 39.1743 205.673 38.3965 207.546C37.7743 207.728 37.152 207.884 36.5817 208.04C36.7631 207.624 36.9446 207.208 37.1002 206.792C37.9039 204.815 38.7594 202.839 39.3298 200.758C40.4446 196.727 40.2891 192.799 38.6557 188.95C36.8409 184.711 34.8965 180.55 33.7298 176.05C33.1854 173.917 32.8483 171.759 32.4854 169.6C32.1483 167.597 31.7594 165.569 31.6557 163.54C31.4224 159.379 32.3557 155.322 34.3261 151.654C36.2706 148.039 38.8113 144.84 40.9113 141.329C43.1928 137.558 43.8928 132.72 42.9594 128.429C42.7002 127.181 42.2594 125.984 41.7669 124.814C40.6002 122.057 39.0187 119.482 37.9557 116.699C36.5039 112.954 36.0631 108.975 36.9965 105.048C37.878 101.38 39.7965 98.1034 42.2335 95.2685C44.6187 92.4856 47.315 90.1449 50.815 88.9485C54.1595 87.8041 57.7113 87.596 61.2113 87.596C62.0928 87.57 62.1706 89.0525 61.2113 89.0525Z" fill="white"/>
<path opacity="0.3" d="M348.263 302.033C348.081 297.352 347.355 292.722 345.541 288.405C341.859 279.744 334.133 273.268 327.937 266.48C324.774 263.021 321.455 259.276 320.211 254.646C318.889 249.705 321.118 244.971 322.441 240.316C325.007 231.343 326.044 222.162 323.504 213.059C322.363 208.95 320.367 205.101 317.722 201.771C314.792 198.078 310.904 195.139 307.611 191.784C305.77 189.886 303.981 187.935 302.296 185.906C300.741 184.06 299.029 182.317 297.552 180.393C294.518 176.439 292.522 172.148 291.278 167.337C288.737 157.349 292.081 146.972 293.17 137.037C294.207 127.492 292.574 118.129 288.711 109.39C285.263 101.562 278.989 95.2677 275.981 87.2572C274.374 82.9918 274.504 78.5444 276.215 74.3311C277.9 70.1958 280.104 66.2425 280.674 61.7431C281.374 56.3073 278.315 51.5218 275.074 47.4645C271.652 43.1472 268.307 38.9598 263.692 35.8389C258.87 32.5878 253.218 30.6632 247.878 28.5045C245.622 27.5942 243.496 26.3979 241.215 25.4876C239.659 24.8894 237.663 24.3952 236.263 25.5656C235.537 26.1638 236.341 27.4382 237.067 26.814C238.467 25.6436 240.748 26.84 242.122 27.5162C244.015 28.4005 245.83 29.2848 247.774 30.065C252.181 31.8596 256.692 33.4981 260.841 35.8389C264.937 38.1276 268.074 41.2486 271.004 44.8637C273.933 48.4789 277.174 51.964 278.652 56.4634C280.285 61.379 278.081 66.2945 276.085 70.7159C274.374 74.5391 273.026 78.1543 273.311 82.4196C273.881 90.4822 279.844 97.0363 283.941 103.564C289.126 111.835 291.952 121.666 291.952 131.419C291.926 141.432 288.607 151.133 288.918 161.199C289.23 170.536 293.559 178.806 299.911 185.464C301.622 187.259 303.152 189.262 304.863 191.082C306.652 193.033 308.544 194.879 310.489 196.7C314.015 200.003 317.281 203.072 319.615 207.389C324.178 215.816 324.204 225.803 322.233 234.932C321.689 237.455 321.015 239.978 320.237 242.448C319.459 244.919 318.629 247.234 318.396 249.835C318.007 253.788 319.252 257.429 321.378 260.732C326.615 268.795 334.6 274.751 340.304 282.475C343.389 286.662 345.437 291.266 346.267 296.415C347.044 301.201 346.863 306.091 346.837 310.902C346.837 316.806 346.241 322.71 344.867 328.458C343.57 333.867 341.159 338.861 339.059 343.985C335.222 353.4 331.852 364.141 335.741 374.102C336.078 374.986 337.504 374.544 337.167 373.66C333.407 364.037 336.752 353.764 340.407 344.661C342.144 340.369 344.141 336.156 345.515 331.735C346.992 326.949 347.744 321.982 348.107 316.988C348.47 312.02 348.444 306.975 348.263 302.033Z" fill="white"/>
<path d="M61.3927 300.239C59.7594 303.23 56.726 305.259 53.6668 306.585C50.5557 307.937 47.1335 308.744 43.7372 308.77C42.7779 308.77 42.8557 310.252 43.8149 310.252C47.4705 310.226 51.152 309.342 54.4964 307.833C57.789 306.351 60.926 304.14 62.7149 300.889C63.1816 300.057 61.8594 299.407 61.3927 300.239Z" fill="white"/>
<path d="M178.007 398.524C177.178 396.703 175.959 394.649 175.933 392.594C175.907 391.632 174.429 391.71 174.455 392.672C174.481 394.623 175.467 396.521 176.27 398.238C176.737 399.226 177.178 400.214 177.567 401.255C177.826 401.983 178.137 402.841 178.033 403.647C177.904 404.584 179.355 404.896 179.485 403.96C179.744 402.061 178.759 400.162 178.007 398.524Z" fill="white"/>
<path d="M308.155 250.277C301.778 246.766 293.767 249.913 287.959 253.112C284.744 254.881 281.581 256.961 278.781 259.354C275.644 262.059 272.922 265.232 270.407 268.509C264.911 275.713 260.348 283.516 255.526 291.162C253.063 295.037 250.393 298.73 247.8 302.528C245.337 306.117 243.133 309.862 241.111 313.711C240.1 315.662 239.141 317.638 238.207 319.615C237.222 321.696 235.978 323.646 234.993 325.701C234.578 326.585 234.267 327.522 233.826 328.38C233.411 329.16 233.126 329.992 232.841 330.799C232.218 332.515 231.596 334.258 230.352 335.61C229.755 336.26 228.848 336.729 228.122 337.197C227.215 337.769 226.307 338.341 225.4 338.887C223.689 339.954 222.133 341.202 220.5 342.372C218.711 343.647 216.818 344.817 215.004 346.039C213.344 347.158 211.815 348.536 210.389 349.941C207.407 352.906 204.841 356.235 202.093 359.408C199.863 361.957 197.633 364.453 195.481 367.08C192.915 370.175 190.322 373.374 187.418 376.209C187.444 367.132 187.833 358.055 188.248 348.978C188.352 346.586 188.533 344.271 188.948 341.904C189.337 339.615 189.804 337.353 189.985 335.038C190.063 333.972 190.037 332.905 190.141 331.839C190.27 330.747 190.504 329.654 190.685 328.562C191.048 326.481 190.867 324.453 190.789 322.372C190.685 320.109 191.1 317.899 191.307 315.636C191.541 313.321 191.696 311.006 191.826 308.692C192.111 303.932 192.344 299.173 192.915 294.439C193.485 289.654 194.522 284.946 195.404 280.213C195.844 277.794 196.285 275.401 196.726 272.982C197.089 271.006 197.711 269.081 198.178 267.156C198.8 264.608 199.396 262.033 199.396 259.406C199.396 258.444 197.918 258.522 197.918 259.484C197.893 263.515 196.518 267.495 195.559 271.396C195.015 273.632 194.678 275.921 194.263 278.21C193.822 280.629 193.381 283.021 192.941 285.44C192.526 287.781 192.033 290.122 191.67 292.488C191.333 294.803 191.1 297.118 190.918 299.459C190.53 304.192 190.348 308.952 189.959 313.711C189.778 315.948 189.389 318.185 189.233 320.421C189.104 322.554 189.544 324.713 189.389 326.845C189.233 328.926 188.611 330.929 188.533 333.009C188.43 335.376 188.144 337.665 187.73 340.006C187.315 342.294 186.9 344.557 186.77 346.872C186.641 349.212 186.589 351.553 186.485 353.894C186.278 358.575 186.096 363.231 185.993 367.912C185.915 371.085 185.863 374.284 185.863 377.457C185.863 377.509 185.863 377.588 185.889 377.64C184.178 379.174 182.363 380.578 180.393 381.775C178.396 382.971 176.218 383.882 173.911 384.324C172.978 384.506 173.444 385.936 174.352 385.754C181.067 384.428 186.433 379.512 190.944 374.623C193.356 372.022 195.585 369.265 197.841 366.534C200.096 363.829 202.481 361.254 204.763 358.575C207.459 355.376 210.078 352.099 213.215 349.343C214.848 347.912 216.663 346.768 218.478 345.571C220.241 344.427 221.9 343.205 223.585 341.93C225.193 340.734 226.955 339.745 228.667 338.653C229.444 338.159 230.196 337.639 230.948 337.093C231.674 336.52 232.218 335.714 232.659 334.934C233.567 333.399 234.033 331.657 234.707 329.992C235.044 329.186 235.433 328.458 235.744 327.652C236.185 326.559 236.73 325.519 237.3 324.479C238.389 322.476 239.452 320.473 240.437 318.393C241.37 316.442 242.355 314.517 243.393 312.593C245.493 308.692 247.852 304.894 250.496 301.305C255.915 293.945 260.4 285.908 265.378 278.262C269.993 271.188 275.074 263.853 281.893 258.756C283.344 257.663 284.9 256.675 286.455 255.713C287.933 254.776 289.489 253.918 291.07 253.164C294.363 251.603 297.941 250.381 301.596 250.277C303.644 250.225 305.667 250.615 307.481 251.629C308.337 252.072 309.011 250.719 308.155 250.277Z" fill="white"/>
<path d="M323.685 317.509C322.778 318.809 322.726 320.448 322.778 322.008C322.83 323.725 323.063 325.389 323.037 327.106C323.011 329.29 322.752 331.345 321.793 333.322C321.378 334.18 321.171 335.22 320.782 336.131C320.393 337.093 319.952 338.055 319.459 338.966C317.541 342.685 314.922 345.91 312.33 349.187C309.608 352.62 306.6 355.819 303.489 358.888C300.378 361.983 297.163 365 294 368.069C290.759 371.242 287.726 374.571 284.615 377.848C281.4 381.203 278.082 384.48 274.945 387.913C273.441 389.552 272.093 391.346 270.589 392.985C269.189 394.519 267.608 395.898 265.974 397.198C262.734 399.773 259.337 402.166 256.122 404.766C252.726 407.497 249.745 410.722 246.634 413.765C245.026 415.326 243.367 416.834 241.604 418.239C240.152 419.383 238.622 420.397 237.145 421.542C234.059 423.935 230.974 426.431 227.448 428.174C226.204 428.798 224.856 429.266 223.482 429.474C222.548 429.63 222.6 431.113 223.559 430.957C227.215 430.411 230.43 428.356 233.385 426.249C234.993 425.105 236.574 423.857 238.13 422.634C239.608 421.49 241.137 420.449 242.615 419.305C246.063 416.6 249.045 413.401 252.156 410.332C255.241 407.289 258.611 404.558 262.085 401.984C265.378 399.539 268.671 397.146 271.496 394.155C273.026 392.543 274.348 390.748 275.826 389.11C277.382 387.393 278.963 385.728 280.597 384.064C283.837 380.735 287.026 377.354 290.215 373.973C293.248 370.748 296.463 367.705 299.652 364.636C305.952 358.602 312.019 352.386 317.178 345.286C319.537 342.035 321.508 338.549 322.83 334.726C323.167 333.738 323.634 332.776 323.919 331.761C324.23 330.773 324.334 329.733 324.411 328.692C324.541 326.898 324.437 325.129 324.308 323.361C324.178 321.904 323.841 319.745 324.748 318.471C325.345 317.717 324.256 316.729 323.685 317.509Z" fill="white"/>
<path d="M172.2 384.246C171.707 383.127 170.618 382.477 169.581 381.957C168.311 381.333 166.937 380.891 165.589 380.423C165.019 380.214 164.448 379.98 163.904 379.72C163.23 379.408 162.633 378.914 161.985 378.55C160.559 377.718 158.926 377.015 157.915 375.715C157.319 374.961 156.074 375.767 156.67 376.521C157.656 377.77 159.004 378.576 160.378 379.356C161.622 380.058 162.789 380.917 164.137 381.463C165.381 381.983 166.678 382.373 167.948 382.893C168.985 383.309 170.256 383.804 170.852 384.818C171.422 385.78 170.696 386.639 170.048 387.315C169.141 388.277 168.078 389.057 167.248 390.098C165.252 392.594 165.926 396.028 165.926 398.992C165.926 399.955 167.404 399.877 167.404 398.914C167.404 397.172 167.17 395.403 167.378 393.661C167.533 392.256 168.181 391.19 169.141 390.202C170.722 388.537 173.341 386.847 172.2 384.246Z" fill="white"/>
<path d="M212.774 264.218C212.36 265.648 211.219 265.986 210 265.232C209.611 264.998 209.222 264.504 209.171 264.166C209.119 263.724 209.611 263.438 210.156 263.282C211.063 262.995 210.623 261.565 209.715 261.851C208.704 262.163 207.745 262.839 207.693 263.984C207.641 264.92 208.289 265.778 209.015 266.324C209.871 266.975 210.908 267.235 211.945 267.053C213.189 266.819 213.889 265.622 214.226 264.504C214.485 263.594 213.034 263.308 212.774 264.218Z" fill="white"/>
<path d="M208.6 307.833C207.252 307.443 205.67 307.937 204.374 308.353C203.466 308.666 203.907 310.07 204.815 309.784C205.955 309.394 208.548 308.484 209.118 310.122C209.429 311.006 209.274 312.229 208.496 312.827C207.641 313.503 206.941 312.801 206.629 311.969C206.292 311.058 204.892 311.526 205.203 312.411C205.722 313.867 206.915 314.908 208.496 314.465C210.078 314.023 210.7 312.333 210.7 310.85C210.726 309.42 209.974 308.223 208.6 307.833Z" fill="white"/>
<path d="M206.267 351.06C205.074 349.161 201.134 348.563 199.941 350.747C199.474 351.58 200.797 352.256 201.263 351.424C201.885 350.279 204.089 351.008 204.815 351.658C206.189 352.88 203.726 355.559 202.274 354.909C201.393 354.519 200.719 355.845 201.6 356.235C204.322 357.406 207.926 353.712 206.267 351.06Z" fill="white"/>
<path d="M81.4075 236.415C77.7779 235.401 74.4853 233.294 71.4779 231.083C68.3668 228.795 65.4631 226.22 62.7409 223.489C62.0668 222.813 61.0816 223.931 61.7557 224.607C64.5557 227.39 67.5112 230.017 70.6742 232.358C73.8372 234.672 77.2853 236.831 81.0964 237.897C82.0297 238.132 82.3149 236.675 81.4075 236.415Z" fill="#231F20"/>
<path d="M66.9409 269.237C64.1928 269.237 61.6002 267.937 59.2928 266.558C58.0224 265.804 56.7779 264.946 55.5853 264.088C54.5224 263.333 53.3816 262.579 52.4224 261.695C50.6335 260.056 48.4816 258.86 46.5113 257.481C44.8002 256.285 42.5705 254.829 41.8965 252.748C41.5853 251.838 40.2631 252.488 40.5483 253.398C41.2742 255.609 43.5298 257.195 45.3446 258.496C47.3928 259.952 49.6742 261.175 51.515 262.891C52.552 263.854 53.8224 264.66 54.9631 265.466C56.2335 266.376 57.5557 267.235 58.9039 268.041C61.2891 269.445 64.0372 270.72 66.8631 270.72C67.7965 270.72 67.9002 269.237 66.9409 269.237Z" fill="#231F20"/>
<path d="M41.1705 303.048C41.1705 303.048 52.7594 303.724 56.9853 292.983C61.2112 282.267 59.2149 273.113 59.2149 268.197C59.2149 263.281 55.1964 249.445 56.3112 240.498C56.3112 240.498 56.3112 236.259 52.526 237.143C48.7408 238.027 48.3001 247.416 48.3001 250.095C48.3001 252.774 47.8594 264.608 44.5149 264.842C41.1705 265.076 37.6186 248.301 36.5038 244.738C35.389 241.174 40.5482 229.107 40.7297 226.87C40.9371 224.633 49.9334 220.186 49.9334 220.186C49.9334 220.186 51.0742 216.467 48.0149 216.311C44.9557 216.129 32.3557 221.044 29.8668 222.631C27.3779 224.191 22.0371 239.614 19.1334 247.208C16.2297 254.803 18.6927 261.721 19.1334 265.986C19.5742 270.226 36.0631 299.927 41.1705 303.048Z" fill="#FFD0AE"/>
<path d="M111.093 35.7357C111.119 34.7734 109.615 34.8514 109.615 35.8137C109.563 38.6746 107.904 41.2494 108.423 44.1623C108.578 45.0986 110.082 45.0206 109.9 44.0843C109.382 41.2234 111.041 38.5966 111.093 35.7357Z" fill="#231F20"/>
<path d="M114.463 40.3906C114.048 40.4166 113.763 40.7547 113.763 41.1709V41.7691C113.763 42.1852 114.152 42.4973 114.541 42.4713C114.956 42.4453 115.241 42.1072 115.241 41.691V41.0928C115.241 40.7027 114.852 40.3906 114.463 40.3906Z" fill="#231F20"/>
<path d="M88.6925 60.1313L85.1406 58.3367C84.2851 57.8946 83.611 59.247 84.4666 59.6631L88.0184 61.4577C88.8999 61.8998 89.574 60.5734 88.6925 60.1313Z" fill="#231F20"/>
<path d="M21.8296 295.974C21.4148 296 21.1296 296.338 21.1296 296.754V297.353C21.1296 297.769 21.5185 298.081 21.9074 298.055C22.3222 298.029 22.6074 297.691 22.6074 297.274V296.676C22.6074 296.286 22.2185 295.948 21.8296 295.974Z" fill="#231F20"/>
<path d="M27.7669 299.537C26.8077 299.537 26.8855 301.02 27.8447 301.02C28.804 301.046 28.7262 299.537 27.7669 299.537Z" fill="#231F20"/>
<path d="M27.7669 302.528C27.3521 302.554 27.0669 302.892 27.0669 303.308V303.906C27.0669 304.322 27.4558 304.634 27.8447 304.608C28.2595 304.582 28.5447 304.244 28.5447 303.828V303.23C28.5447 302.84 28.1558 302.502 27.7669 302.528Z" fill="#231F20"/>
<path d="M26.1853 310.304C26.1853 310.252 26.1853 310.226 26.1853 310.174C26.1853 310.044 26.1853 309.914 26.1853 309.784C26.1853 309.368 25.7964 309.056 25.4075 309.082C24.9927 309.108 24.7075 309.446 24.7075 309.862C24.7075 310.226 24.7075 310.616 24.8371 310.954C25.0446 311.5 25.5112 311.76 26.0816 311.76C26.4964 311.786 26.8075 311.37 26.7816 310.98C26.7297 310.616 26.4964 310.382 26.1853 310.304Z" fill="#231F20"/>
<path d="M34.3001 325.753C31.9409 325.857 30.3853 328.796 32.0705 330.643C32.7186 331.345 33.7038 330.227 33.0557 329.524C32.252 328.64 33.4446 327.288 34.3779 327.262C35.3372 327.21 35.2594 325.727 34.3001 325.753Z" fill="#231F20"/>
<path d="M321.223 387.549C319.797 387.601 318.682 388.642 317.723 389.578C317.048 390.254 318.163 391.242 318.837 390.566C319.486 389.916 320.289 389.084 321.274 389.032C322.26 389.006 322.182 387.497 321.223 387.549Z" fill="#231F20"/>
<path d="M337.167 367.236C336.337 366.898 335.508 367.158 334.859 367.731C334.134 368.355 335.274 369.343 335.974 368.719C336.208 368.511 336.571 368.563 336.804 368.719C337.063 368.901 337.063 368.927 337.037 369.083C337.011 369.291 336.908 369.499 336.83 369.681C336.415 370.618 335.559 371.32 334.626 371.658C333.719 371.996 334.185 373.4 335.067 373.088C336.726 372.49 338.204 371.034 338.515 369.239C338.645 368.355 337.971 367.575 337.167 367.236Z" fill="#231F20"/>
<path d="M72.3074 410.358C71.1148 410.384 69.8704 411.008 69.8185 412.334C69.7926 412.75 70.2074 413.063 70.5963 413.037C71.0371 413.011 71.2963 412.672 71.2963 412.256C71.2963 412.334 71.2963 412.334 71.2963 412.256V412.23C71.2963 412.23 71.3223 412.204 71.3223 412.178C71.3482 412.126 71.4 412.1 71.4519 412.048C71.6852 411.892 72.0223 411.84 72.3593 411.84C73.3445 411.814 73.2667 410.332 72.3074 410.358Z" fill="#231F20"/>
<path d="M155.037 161.043C153.689 160.705 151.978 160.419 150.915 159.431C150.215 158.781 149.23 159.899 149.93 160.549C151.174 161.719 153.119 162.11 154.726 162.5C155.66 162.734 155.971 161.277 155.037 161.043Z" fill="#231F20"/>
<path d="M139.663 97.4263C139.508 97.2963 139.326 97.2182 139.145 97.2442C138.937 97.2442 138.782 97.3483 138.626 97.5043C138.548 97.5823 138.471 97.6604 138.393 97.7384C138.367 97.7644 138.367 97.7644 138.341 97.7904C137.615 97.9465 136.941 98.2846 136.189 98.1805C135.256 98.0245 134.945 99.4809 135.878 99.637C136.448 99.715 136.967 99.689 137.537 99.559C138.03 99.4549 138.471 99.2469 138.963 99.2209C139.378 99.1949 139.611 98.9088 139.637 98.5967C139.663 98.5707 139.689 98.5446 139.715 98.5186C140 98.1805 139.948 97.6864 139.663 97.4263Z" fill="#231F20"/>
<path d="M143.448 100.548C143.137 100.262 142.697 100.314 142.411 100.6C142.36 100.652 142.282 100.704 142.23 100.782C142.204 100.782 142.204 100.808 142.178 100.808C141.815 100.86 141.53 101.198 141.556 101.562C141.582 101.978 141.919 102.29 142.334 102.264C142.826 102.238 143.189 101.9 143.526 101.562C143.785 101.328 143.734 100.808 143.448 100.548Z" fill="#231F20"/>
<path d="M150.267 102.836C150.059 102.836 149.878 102.941 149.748 103.097C149.619 103.253 149.567 103.435 149.567 103.617V103.851C149.567 104.267 149.956 104.579 150.345 104.553C150.552 104.553 150.734 104.449 150.863 104.293C150.993 104.137 151.045 103.955 151.045 103.773V103.539C151.045 103.123 150.656 102.81 150.267 102.836Z" fill="#231F20"/>
<path d="M159.833 102.941C159.678 102.655 159.419 102.473 159.159 102.265C159.056 102.187 158.978 102.135 158.9 102.056C158.9 102.056 158.874 102.004 158.848 101.978C158.848 101.978 158.848 101.978 158.848 101.952C158.796 100.99 157.319 101.068 157.37 102.03C157.396 102.525 157.63 102.915 157.993 103.227C158.122 103.331 158.252 103.409 158.356 103.513C158.408 103.565 158.459 103.617 158.537 103.643C158.537 103.643 158.589 103.695 158.589 103.721C158.796 104.085 159.289 104.137 159.626 103.929C159.963 103.747 160.015 103.305 159.833 102.941Z" fill="#231F20"/>
<path d="M184.619 110.769C184.334 110.951 183.997 110.977 183.66 111.003C183.193 111.081 182.778 111.185 182.389 111.419C181.56 111.913 182.389 113.162 183.193 112.667C183.478 112.485 183.815 112.459 184.152 112.433C184.619 112.355 185.034 112.251 185.423 112.017C186.252 111.523 185.448 110.275 184.619 110.769Z" fill="#231F20"/>
<path d="M190.167 116.413C189.959 116.829 189.518 117.219 189.156 117.583C188.87 117.869 188.922 118.389 189.207 118.623C189.519 118.909 189.959 118.857 190.244 118.571C190.711 118.103 191.152 117.661 191.463 117.063C191.93 116.231 190.607 115.554 190.167 116.413Z" fill="#231F20"/>
<path d="M202.041 119.612C202.041 119.404 201.937 119.222 201.782 119.092C201.626 118.962 201.445 118.91 201.263 118.91C201.159 118.91 201.056 118.936 200.926 118.962C200.667 119.014 200.433 119.274 200.382 119.534C200.356 119.742 200.382 119.977 200.511 120.133C200.589 120.237 200.693 120.341 200.796 120.445C201.082 120.731 201.6 120.679 201.833 120.393C201.963 120.237 202.041 120.055 202.015 119.872C202.015 119.846 202.015 119.82 202.015 119.794C202.041 119.716 202.041 119.664 202.041 119.612Z" fill="#231F20"/>
<path d="M211.426 117.427C210.804 117.01 210.156 116.516 209.715 115.892C209.17 115.112 207.926 115.918 208.47 116.698C209.067 117.557 209.922 118.181 210.752 118.753C211.089 118.987 211.581 118.753 211.737 118.415C211.944 118.025 211.763 117.661 211.426 117.427Z" fill="#231F20"/>
<path d="M214.615 113.109C213.656 113.109 213.733 114.592 214.693 114.592C215.652 114.592 215.574 113.109 214.615 113.109Z" fill="#231F20"/>
</g>
<defs>
<clipPath id="clip0">
<rect width="378" height="454" fill="white"/>
</clipPath>
</defs>
</svg>
